<?xml version="1.0" encoding="utf-8"?>
<!-- Generator: Adobe Illustrator 20.1.0, SVG Export Plug-In . SVG Version: 6.00 Build 0)  -->
<svg version="1.1" id="Layer_1" xmlns="http://www.w3.org/2000/svg" xmlns:xlink="http://www.w3.org/1999/xlink" x="0px" y="0px"
	 viewBox="0 0 500 500" enable-background="new 0 0 500 500" xml:space="preserve">
<rect fill="#CEDC38" width="500" height="500"/>
<g>
	<g>
		<path fill="#27215F" d="M189.4,332.5l-3.2,8.3h-12.3l19.8-74.9c3.1-11.3,3.8-15.6-0.1-15.6c-4.6,0-9.3,3.3-10.9,8.8l-1-0.4
			c1.5-5.5,6.7-9.3,11.9-9.3c9.2,0,16.5,5.5,12.5,20.3l-9.1,34.1c3.8-9,10.4-14.7,17.5-14.7c9.3,0,15.5,6.8,15.5,17.6
			c0,20.7-18.5,35.3-31.5,35.3C192.8,342,190,338,189.4,332.5z M199.2,302.3c-1.2,1.9-2.8,4.1-4.9,11.8l-4.2,16
			c0.1,5.9,2.3,11,8.6,11c10.1,0,17.5-18.2,17.5-34.9c0-6.4-2.6-10.5-7-10.5C205,295.7,202,298.1,199.2,302.3z"/>
		<path fill="#27215F" d="M260.8,269.6l-14.6,55.8c-2.9,11.3-3.8,15.6,0.1,15.6c4.6,0,9.3-3.3,10.9-8.8l1,0.4
			c-1.5,5.5-6.7,9.3-11.9,9.3c-9.2,0-16.4-5.5-12.5-20.3l14.6-55.8c2.9-11.3,3.8-15.6-0.1-15.6c-4.6,0-9.3,3.3-10.9,8.8l-1-0.4
			c1.5-5.5,6.7-9.3,11.9-9.3C257.5,249.2,264.7,254.7,260.8,269.6z"/>
		<path fill="#27215F" d="M308.8,311.4c0,13.9-11.1,30.6-30.6,30.6c-13.4,0-20.6-11.3-20.6-22.4c0-13.9,11.1-30.6,30.6-30.6
			C301.5,289,308.8,300.3,308.8,311.4z M270.8,327.1c0,7.7,1.7,13.9,7.3,13.9c8.1,0,17.4-15.5,17.4-37.1c0-7.7-1.7-13.9-7.3-13.9
			C280.2,289.9,270.8,305.4,270.8,327.1z"/>
		<path fill="#27215F" d="M361.8,311.4c0,13.9-11.1,30.6-30.6,30.6c-13.4,0-20.6-11.3-20.6-22.4c0-13.9,11.1-30.6,30.6-30.6
			C354.6,289,361.8,300.3,361.8,311.4z M323.9,327.1c0,7.7,1.7,13.9,7.3,13.9c8.1,0,17.4-15.5,17.4-37.1c0-7.7-1.7-13.9-7.3-13.9
			C333.1,289.9,323.9,305.4,323.9,327.1z"/>
		<path fill="#27215F" d="M439.9,315.9c-6.3,18-8.2,25.2-4.2,25.2c4.3,0,7.8-3.1,9.6-7.8l1,0.4c-1.9,5-5.4,8.4-10.7,8.4
			c-10.7,0-15.9-6.4-9.6-26.6c3.2-10.5,7.5-20,1-20c-3.6,0-7.2,2.7-10.5,8.7c-0.9,1.5-2,3.1-3.6,9.3l-7.2,27.5h-13.4l6.8-25.5
			c2.8-10.6,7.5-20,0.9-20c-3.6,0-7.8,2.7-11.5,9c-1.8,2.7-2.9,5.9-3.8,9.3l-7.2,27.1h-13.7l9.3-35.2c3.1-11.3,3.8-15.6-0.1-15.6
			c-4.6,0-9.3,3.3-10.9,8.8l-1-0.4c1.5-5.5,6.7-9.3,11.9-9.3c8.2,0,15.1,4.6,13.4,16.4c4-9.8,12.5-16.4,20.1-16.4
			c6.7,0,11.4,3.7,8.3,15.9c4-9.6,11.4-15.9,18.8-15.9C444.8,289,446,298.2,439.9,315.9z"/>
	</g>
</g>
<g>
	<g>
		<path fill="#2BACE2" d="M116.1,216.1c0,12.5-11.3,18.7-21.2,18.7c-6.8,0-10.1-3.3-12.3-10.2c-6.7,8.7-14.5,10.2-18.3,10.2
			c-4.5,0-8.6-2-10.4-6.9l0.6-0.3c1.7,4.6,5.5,6.5,9.7,6.5c5.4,0,9.6-3.3,11.3-9.5l6.9-26.2c4.5-16.9,9.7-21.7,15.2-24.9
			c-16.6,0.3-38,7.5-38,21.9c0,4.9,3.8,7.7,7.9,7.5c2.8,0,5.1-1,7-3.1l0.5,0.4c-1.9,2.2-4.5,3.3-7.5,3.3c-4.5,0.1-8.6-2.9-8.6-8.3
			c0-15.2,22.4-22.5,39.4-22.5c15.1,0,20.2,5.9,20.2,13c0,9.3-10.7,14.8-19.4,16.5C111.5,203.5,116.1,209.5,116.1,216.1z
			 M105.3,216.9c0-8.3-3.6-13.9-11.1-13.9h-2.6l-0.9,3.8c-1.9,7.5-4.6,13-7.7,17.1c1.8,6.8,5.1,10.2,11.8,10.2
			C101.4,234.2,105.3,227.1,105.3,216.9z M94.2,202.3c8.3,0,13.6-6.5,13.6-16.5c0-6.7-2.7-11.8-8.3-12.3L92,202.1h2.3L94.2,202.3
			L94.2,202.3z"/>
		<path fill="#2BACE2" d="M152.4,202.7c0,2.9-2.4,5.2-5.4,5.2c-2.9,0-5.2-2.3-5.2-5.2c0-1.2,0.4-2.3,1-3.2c-2.7,1.7-5.4,5-6.8,10.6
			l-0.3,1.4l-6,22.5h-9.6l6.7-25.2c2.2-8.1,2.8-11.3-0.1-11.3c-3.3,0-6.7,2.4-7.8,6.3l-0.6-0.1c1.2-4,4.7-6.8,8.6-6.8
			c5.2,0,9.7,2.6,9.7,9.1c2.2-5.4,6.1-8.8,10.6-8.8C150,197.3,152.4,199.8,152.4,202.7z"/>
		<path fill="#2BACE2" d="M165.8,211.5l-3.1,11.5c-2,8.1-2.8,11.3,0.1,11.3c3.3,0,6.7-2.4,7.8-6.3l0.6,0.3c-1.2,4-4.7,6.8-8.6,6.8
			c-6.5,0-11.8-4-9-14.6l3.1-11.5c2-8.1,2.8-11.3-0.1-11.3c-3.3,0-6.7,2.4-7.8,6.3l-0.6-0.3c1.2-4,4.7-6.8,8.6-6.8
			C163.4,196.9,168.5,200.9,165.8,211.5z M172,180.1c0,3.2-2.6,5.6-5.8,5.6s-5.6-2.6-5.6-5.6c0-3.1,2.6-5.8,5.6-5.8
			S172,176.9,172,180.1z"/>
		<path fill="#2BACE2" d="M192.4,183.1L182.1,223c-2,8.1-2.8,11.3,0.1,11.3c3.3,0,6.7-2.4,7.8-6.3l0.6,0.3c-1.2,4-4.7,6.8-8.6,6.8
			c-6.5,0-11.8-4-9-14.6l10.5-39.9c2-8.1,2.8-11.3-0.1-11.3c-3.3,0-6.7,2.4-7.8,6.3l-0.6-0.3c1.2-4,4.7-6.8,8.6-6.8
			C190,168.5,195.2,172.5,192.4,183.1z"/>
		<path fill="#2BACE2" d="M212.2,183.1L201.9,223c-2,8.1-2.8,11.3,0.1,11.3c3.3,0,6.7-2.4,7.8-6.3l0.5,0.1c-1.2,4-4.7,6.8-8.6,6.8
			c-6.5,0-11.8-4-9-14.6l10.5-39.9c2-8.1,2.8-11.3-0.1-11.3c-3.3,0-6.7,2.4-7.8,6.3l-0.6-0.3c1.2-4,4.7-6.8,8.6-6.8
			C209.8,168.5,215.1,172.5,212.2,183.1z"/>
		<path fill="#2BACE2" d="M227.2,211.5l-3.1,11.5c-2,8.1-2.8,11.3,0.1,11.3c3.3,0,6.7-2.4,7.8-6.3l0.6,0.3c-1.2,4-4.7,6.8-8.6,6.8
			c-6.5,0-11.8-4-9-14.6l3.1-11.5c2-8.1,2.8-11.3-0.1-11.3c-3.3,0-6.7,2.4-7.8,6.3l-0.6-0.3c1.2-4,4.7-6.8,8.6-6.8
			C224.9,196.9,230,200.9,227.2,211.5z M233.5,180.1c0,3.2-2.6,5.6-5.8,5.6s-5.6-2.6-5.6-5.6c0-3.1,2.6-5.8,5.6-5.8
			C230.8,174.3,233.5,176.9,233.5,180.1z"/>
		<path fill="#2BACE2" d="M262.1,203.2l1.4-5.4h9.7l-6.7,25.2c-2.2,8.1-2.8,11.3,0.1,11.3c3.3,0,6.7-2.4,7.8-6.3l0.6,0.3
			c-1.2,4-4.7,6.8-8.6,6.8c-5.9,0-10.9-3.3-9.6-11.8c-2.7,7.2-7.5,11.8-12.9,11.8c-6.7,0-11.1-4.9-11.1-12.7
			c0-14.8,13.3-25.2,22.5-25.2C259.4,196.9,261.5,199.5,262.1,203.2z M242.9,222.6c0,4.6,1.8,7.5,5,7.5c2.9,0,5.1-1.7,7-4.7
			c0.9-1.4,2.2-3.1,3.8-9.5l2.8-10.6c-0.1-4.1-1.8-7.7-6.1-7.7C248.2,197.7,242.9,210.6,242.9,222.6z"/>
		<path fill="#2BACE2" d="M282.1,208.8c2.2-8.1,2.8-11.3-0.1-11.3c-3.3,0-6.7,2.4-7.8,6.3l-0.6-0.3c1.2-4,4.7-6.8,8.6-6.8
			c5.8,0,10.7,3.3,9.5,11.8c2.8-7,7.5-11.8,13.8-11.8c7.9,0,9.2,6.5,4.6,19.2c-4.6,12.9-5.9,18-3.1,18c3.1,0,5.6-2.2,6.9-5.6
			l0.6,0.3c-1.4,3.6-3.8,6-7.7,6c-7.7,0-11.4-4.6-6.9-19.1c2.3-7.5,5.4-14.3,0.5-14.3c-2.3,0-4.9,1.7-7.2,5.2
			c-1.2,1.9-2.2,3.8-2.8,6.4l-5.5,20.8h-9.6L282.1,208.8z"/>
		<path fill="#2BACE2" d="M339,196.9c4.1,0,9,2.6,9,7.8c0,2.7-2.3,4.9-4.9,4.9s-4.9-2.2-4.9-4.9s2.2-4.9,4.9-4.9
			c1,0,1.9,0.4,2.8,0.9c-1.3-1.7-3.6-3.1-6.8-3.1c-7.2,0-12.5,11.1-12.5,21.5c0,7.3,2.8,10.7,8.3,10.7c4.1,0,7.9-2.3,9.6-6.5h0.9
			c-2.4,6.9-7.5,11.5-14.7,11.5c-8.6,0-14.3-6.1-14.3-14.6C316.3,206.9,327.3,196.9,339,196.9z"/>
		<path fill="#2BACE2" d="M358.4,216c-0.1,1-0.1,2-0.1,3.1c0,7.3,2.8,10.7,8.3,10.7c4.1,0,7.9-2.3,9.6-6.5h0.9
			c-2.4,6.9-7.5,11.5-14.7,11.5c-8.6,0-14.3-5.6-14.3-14.6c0-11.1,8.8-23.3,22-23.3c6,0,11.1,2,11.1,7.3
			C381.3,211.4,372.4,214.3,358.4,216z M358.4,215.1c11-1.5,14.8-6.5,14.8-12.8c0-3.3-1.4-4.6-3.6-4.6
			C362.3,197.7,359.2,206.7,358.4,215.1z"/>
	</g>
</g>
<g>
	<g>
		<path fill="#CEDC38" d="M292.3,212.5c-2.6,4.9-3.2,5.8-2,7c1.2,1.3,10.4,15.7,15.3,18.9c7.8,4.9-11.3-8.2-13.2-19.2
			c-0.3-1.2,15.5,8.6,15.5,7.4c0-0.9-14.6-6.8-13.9-8.1c0.8-1.9,5.5,1.5,5.6,0.9c0.3-0.6-4.1-0.9-2.3-2.8c5.1-5.2,19.2,1.3,17.9-0.1
			c-1-1.2-12-2.3-13.4-2.2c-1-1.9,26.1-5.6,22.5-5.9c-5.5-0.3-28,6.8-26.7,5.8c4.2-3.3,22.5-15.6,27.5-15.2
			c-9.7,0.1-28.6,17.4-31.2,14.8c-2.2-2,14.6-15.6,18.5-15.2C308.2,197.2,292.7,211.8,292.3,212.5z"/>
	</g>
	<g>
		<path fill="#CEDC38" d="M300.9,220c0-0.4,11.6,1.9,11.6,2.3C312.4,222.6,300.9,220.7,300.9,220z"/>
	</g>
	<g>
		<path fill="#CEDC38" d="M288.7,213.4c1,1.5,1.8,3.5-0.3,3.1c-1.4-0.5-10.7-2.6-11.6-2.7c-1.2-1.2,8.1,1.3,8.7,0.3s-7-4.5-7.3-5
			s3.7,1.9,4.1,1.4c0.4-0.6-2.6-2.9-2.2-3.3c0.4-0.5,3.3,3.7,3.7,3.1c0.4-0.6-0.5-2.4-0.3-2.6c0.3-0.1,2.7,6,3.2,5.5
			c0.5-0.4-5.1-13.6-5.1-14.5C281.8,199,288.7,213.4,288.7,213.4z"/>
	</g>
	<g>
		<path fill="#CEDC38" d="M270.7,197.8c3.8,4,8.7,7.2,8.3,7.7c-0.3,0.5-15.7-14.1-15.6-15.3C263.4,189.5,266.7,193.9,270.7,197.8z"
			/>
	</g>
	<g>
		<path fill="#CEDC38" d="M283.2,206.9c0.1,0.4-5.9-7.4-5.4-7.8C278.4,198.9,283.1,206.4,283.2,206.9z"/>
	</g>
	<g>
		<path fill="#CEDC38" d="M272.6,205.5c2.6,1.7,5.2,3.1,5.2,3.2c-0.1,0.4-10.2-5.4-9.8-6.1C268.3,201.8,270.1,204,272.6,205.5z"/>
	</g>
	<g>
		<path fill="#CEDC38" d="M280.2,212.9c0.5,0.4-11.3-3.8-12.1-4c-0.9-0.1-1.8-0.6-0.8-0.8C268.3,208.1,279.8,212.7,280.2,212.9z"/>
	</g>
	<g>
		<path fill="#CEDC38" d="M293.3,222.4c-2.4-3.5-4.6-5.6-4.6-5.6c-1.2-0.9-9.8-5.5-18-0.6c4.9-2.7,15.7-2.2,15.6,0.4
			c0,0.5-9.7,6.5-9.3,7c0.4,0.6,7.4-5.5,8.3-5c0.9,0.4-7.3,9.7-6.9,10.1c0.4,0.4,7.2-9.6,8.6-8.8c1.3,0.8-6,13-5,13.2
			s4.6-12.5,6.9-12c2.2,0.5-1.8,12.8-1.2,13.2c0.5,0.4,1.7-10.4,2.3-10.4c1,0,0.1,15.9,0.9,16.1c0.8,0.3-0.8-17.6-0.1-18.3
			C291.7,220.1,293.1,223.2,293.3,222.4z"/>
	</g>
	<g>
		<path fill="#CEDC38" d="M292.3,224.3c-0.8-0.8,3.8,11.6,4.3,11.5C297,235.6,292.7,224.7,292.3,224.3z"/>
	</g>
	<g>
		<path fill="#CEDC38" d="M283.5,216.8c-0.3,0.6-10.7,0.6-14.2,5.8c-2.6,3.8-2.6,1.9,0.1-0.9C273.1,217.8,283.6,216.5,283.5,216.8z"
			/>
	</g>
	<g>
		<path fill="#CEDC38" d="M285,245.8c-0.5,5.9-0.3,11.3-0.6,11c-0.6-0.4,0.9-17.9,2.4-20.5C287.4,235.2,285.5,241.2,285,245.8z"/>
	</g>
	<g>
		<path fill="#CEDC38" d="M276.4,231.3c0.4,0.3-4.6,6.9-5.8,10.9c-0.6,2.2-1.4,1.7-1.2,0.6C270.1,241.7,276.2,231.1,276.4,231.3z"/>
	</g>
	<g>
		<path fill="#CEDC38" d="M272.6,225.5c1-0.3-5,3.8-6.1,6.9c-0.3,0.6-1.2-0.3,1.2-2.6C270.1,227.4,272.5,225.5,272.6,225.5z"/>
	</g>
	<g>
		<path fill="#CEDC38" d="M289.4,218.4c-0.4,0.6-3.6-0.5-2-2.6c-0.9-0.8,0.1-4.6,2.8-2.2c1.3-0.8,3.1,0.9,2.2,2.7
			C293.1,217.4,291.2,220.5,289.4,218.4z"/>
	</g>
</g>
<g>
	<g>
		<path fill="#CEDC38" d="M209.6,182.7c-2.6,4.9-3.2,5.8-2,7s10.4,15.7,15.3,18.9c7.8,4.9-11.3-8.2-13.2-19.2
			c-0.3-1.2,15.5,8.6,15.5,7.4c0-0.9-14.6-6.8-14.1-8.1c0.8-1.9,5.5,1.5,5.6,0.9c0.3-0.6-4.1-0.9-2.3-2.8c5-5.2,19.1,1.3,17.8-0.3
			c-1-1.2-12-2.3-13.4-2.2c-1-1.9,26.1-5.6,22.5-5.9c-5.5-0.3-28,6.8-26.7,5.8c4.2-3.3,22.5-15.6,27.5-15.2
			c-9.7,0.1-28.6,17.4-31.2,14.8c-2.2-2,14.6-15.6,18.5-15.2C225.4,167.5,209.9,182.1,209.6,182.7z"/>
	</g>
	<g>
		<path fill="#CEDC38" d="M218.1,190.3c0-0.4,11.6,1.9,11.6,2.3C229.6,193,218.1,190.9,218.1,190.3z"/>
	</g>
	<g>
		<path fill="#CEDC38" d="M206,183.8c1,1.5,1.8,3.5-0.3,3.1c-1.4-0.5-10.7-2.6-11.6-2.7c-1.2-1.2,8.1,1.3,8.7,0.3c0.6-1-7-4.5-7.3-5
			s3.7,1.9,4.1,1.4c0.4-0.6-2.6-2.9-2.2-3.3c0.4-0.5,3.3,3.7,3.7,3.1c0.4-0.6-0.5-2.4-0.3-2.6c0.3-0.1,2.7,6,3.2,5.5
			c0.5-0.4-5.1-13.6-5.1-14.5C199.1,169.3,206,183.8,206,183.8z"/>
	</g>
	<g>
		<path fill="#CEDC38" d="M187.9,168.2c3.8,4,8.7,7.2,8.3,7.7c-0.3,0.5-15.7-14.1-15.6-15.3C180.7,159.9,184,164.2,187.9,168.2z"/>
	</g>
	<g>
		<path fill="#CEDC38" d="M200.5,177.2c0.1,0.4-5.9-7.4-5.4-7.8C195.6,169.1,200.3,176.6,200.5,177.2z"/>
	</g>
	<g>
		<path fill="#CEDC38" d="M189.9,175.8c2.6,1.7,5.2,3.1,5.2,3.2c-0.1,0.4-10.2-5.4-9.8-6.1C185.5,172.1,187.3,174.2,189.9,175.8z"/>
	</g>
	<g>
		<path fill="#CEDC38" d="M197.4,183.1c0.5,0.4-11.3-3.8-12.1-4c-0.9-0.1-1.8-0.6-0.8-0.8C185.5,178.4,197,182.9,197.4,183.1z"/>
	</g>
	<g>
		<path fill="#CEDC38" d="M210.6,192.6c-2.4-3.5-4.6-5.6-4.6-5.6c-1.2-0.9-9.8-5.5-18-0.6c4.9-2.7,15.7-2.2,15.6,0.4
			c0,0.5-9.7,6.5-9.3,7c0.4,0.6,7.4-5.5,8.3-5c0.9,0.4-7.3,9.7-6.9,10.1c0.4,0.4,7.2-9.6,8.6-8.8c1.3,0.8-6,13-5,13.2
			c1,0.1,4.6-12.5,6.9-12c2.2,0.5-1.8,12.8-1.2,13.2c0.5,0.4,1.7-10.4,2.3-10.4c1,0,0.1,15.9,0.9,16.1c0.8,0.3-0.8-17.6-0.1-18.3
			C208.9,190.3,210.3,193.4,210.6,192.6z"/>
	</g>
	<g>
		<path fill="#CEDC38" d="M209.6,194.5c-0.8-0.8,3.8,11.6,4.3,11.5C214.3,205.9,209.9,194.9,209.6,194.5z"/>
	</g>
	<g>
		<path fill="#CEDC38" d="M200.7,187c-0.3,0.6-10.7,0.6-14.2,5.8c-2.6,3.8-2.6,1.9,0.1-0.9C190.4,188,200.9,186.7,200.7,187z"/>
	</g>
	<g>
		<path fill="#CEDC38" d="M202.3,216.1c-0.5,5.9-0.3,11.3-0.6,11c-0.6-0.4,0.9-17.9,2.4-20.5C204.7,205.5,202.8,211.4,202.3,216.1z"
			/>
	</g>
	<g>
		<path fill="#CEDC38" d="M193.7,201.5c0.4,0.3-4.6,6.9-5.8,10.9c-0.6,2.2-1.4,1.7-1.2,0.6C187.3,212,193.4,201.4,193.7,201.5z"/>
	</g>
	<g>
		<path fill="#CEDC38" d="M189.9,195.7c1-0.3-5,3.8-6.1,6.9c-0.3,0.6-1.2-0.3,1.2-2.6C187.3,197.7,189.7,195.7,189.9,195.7z"/>
	</g>
	<g>
		<path fill="#CEDC38" d="M206.6,188.6c-0.4,0.6-3.6-0.5-2-2.6c-0.9-0.8,0.1-4.6,2.8-2.2c1.3-0.8,3.1,0.9,2.2,2.7
			C210.3,187.7,208.4,190.7,206.6,188.6z"/>
	</g>
</g>
<g>
	<g>
		<path fill="#CEDC38" d="M165.9,227.1c-2.6,4.9-3.2,5.8-2,7s10.4,15.7,15.3,18.9c7.8,4.9-11.3-8.2-13.2-19.2
			c-0.3-1.2,15.5,8.6,15.5,7.4c0-0.9-14.6-6.8-13.9-8.1c0.8-1.9,5.5,1.5,5.6,0.9c0.3-0.6-4.1-0.9-2.3-2.8c5-5.2,19.1,1.3,17.8-0.3
			c-1-1.2-12-2.3-13.4-2.2c-1-1.9,26.1-5.6,22.5-5.9c-5.5-0.3-28,6.8-26.7,5.8c4.2-3.3,22.5-15.6,27.5-15.2
			c-9.7,0.1-28.6,17.4-31.2,14.8c-2.2-2,14.6-15.6,18.5-15.2C181.9,211.8,166.3,226.4,165.9,227.1z"/>
	</g>
	<g>
		<path fill="#CEDC38" d="M174.5,234.5c0-0.4,11.6,1.9,11.6,2.3C186,237.2,174.5,235.2,174.5,234.5z"/>
	</g>
	<g>
		<path fill="#CEDC38" d="M162.5,228c1,1.5,1.8,3.5-0.3,3.1c-1.4-0.5-10.7-2.6-11.6-2.7c-1.2-1.2,8.1,1.3,8.7,0.3c0.6-1-7-4.5-7.3-5
			s3.7,1.9,4.1,1.4c0.4-0.6-2.6-2.9-2.2-3.3c0.4-0.5,3.3,3.7,3.7,3.1c0.4-0.6-0.5-2.4-0.3-2.6s2.7,6,3.2,5.5
			c0.5-0.4-5.1-13.6-5.1-14.5C155.5,213.6,162.5,228,162.5,228z"/>
	</g>
	<g>
		<path fill="#CEDC38" d="M144.3,212.4c3.8,4,8.7,7.2,8.3,7.7c-0.3,0.5-15.7-14.1-15.6-15.3C137,204.1,140.4,208.5,144.3,212.4z"/>
	</g>
	<g>
		<path fill="#CEDC38" d="M156.9,221.5c0.1,0.4-5.9-7.4-5.4-7.8C152,213.4,156.7,220.9,156.9,221.5z"/>
	</g>
	<g>
		<path fill="#CEDC38" d="M146.3,220.1c2.6,1.7,5.2,3.1,5.2,3.2c-0.1,0.4-10.2-5.4-9.8-6.1C141.9,216.4,143.7,218.6,146.3,220.1z"/>
	</g>
	<g>
		<path fill="#CEDC38" d="M153.8,227.5c0.5,0.4-11.3-3.8-12.1-4c-0.9-0.1-1.8-0.6-0.8-0.8C141.9,222.6,153.4,227.3,153.8,227.5z"/>
	</g>
	<g>
		<path fill="#CEDC38" d="M167,237c-2.4-3.5-4.6-5.6-4.6-5.6c-1.2-0.9-9.8-5.5-18-0.6c4.9-2.7,15.7-2.2,15.6,0.4
			c0,0.5-9.7,6.5-9.3,7c0.4,0.6,7.4-5.5,8.3-5c0.9,0.4-7.3,9.7-6.9,10.1c0.4,0.4,7.2-9.6,8.6-8.8c1.3,0.8-6,13-5,13.2
			c1,0.1,4.6-12.5,6.9-12c2.2,0.5-1.8,12.8-1.2,13.2c0.5,0.4,1.7-10.4,2.3-10.4c1,0,0.1,15.9,0.9,16.1c0.8,0.3-0.8-17.6-0.1-18.3
			C165.3,234.7,166.7,237.7,167,237z"/>
	</g>
	<g>
		<path fill="#CEDC38" d="M165.9,238.9c-0.8-0.8,3.8,11.6,4.3,11.5C170.7,250.1,166.3,239.3,165.9,238.9z"/>
	</g>
	<g>
		<path fill="#CEDC38" d="M157.1,231.3c-0.3,0.6-10.7,0.5-14.2,5.8c-2.6,3.8-2.6,1.9,0.1-0.9C146.8,232.2,157.2,231.1,157.1,231.3z"
			/>
	</g>
	<g>
		<path fill="#CEDC38" d="M158.8,260.4c-0.5,5.9-0.3,11.3-0.6,11c-0.6-0.4,0.9-17.9,2.4-20.5C161.1,249.8,159.2,255.6,158.8,260.4z"
			/>
	</g>
	<g>
		<path fill="#CEDC38" d="M150.1,245.8c0.4,0.3-4.6,6.9-5.8,10.9c-0.6,2.2-1.4,1.7-1.2,0.6C143.7,256.3,149.8,245.7,150.1,245.8z"/>
	</g>
	<g>
		<path fill="#CEDC38" d="M146.3,240c1-0.3-5,3.8-6.1,6.9c-0.3,0.6-1.2-0.3,1.2-2.6C143.7,242,146.1,240,146.3,240z"/>
	</g>
	<g>
		<path fill="#CEDC38" d="M163,233c-0.4,0.6-3.6-0.5-2-2.6c-0.9-0.8,0.1-4.6,2.8-2.2c1.3-0.8,3.1,0.9,2.2,2.7
			C166.7,232,164.8,234.9,163,233z"/>
	</g>
</g>
<g>
	<g>
		<path fill="#CEDC38" d="M355,192.8c-2.6,4.9-3.2,5.8-2,7c1.2,1.3,10.4,15.7,15.3,18.9c7.8,4.9-11.3-8.2-13.2-19.2
			c-0.3-1.2,15.5,8.6,15.5,7.4c0-0.9-14.6-6.8-14.1-8.1c0.8-1.9,5.5,1.5,5.6,0.9c0.3-0.6-4.1-0.9-2.3-2.8c5-5.2,19.1,1.3,17.8-0.3
			c-1-1.2-12-2.3-13.4-2.2c-1-1.9,26.1-5.6,22.5-5.9c-5.5-0.3-28,6.8-26.7,5.8c4.2-3.3,22.5-15.6,27.5-15.2
			c-9.7,0.1-28.6,17.4-31.2,14.8c-2.2-2,14.6-15.6,18.5-15.2C370.8,177.6,355.4,192.2,355,192.8z"/>
	</g>
	<g>
		<path fill="#CEDC38" d="M363.4,200.4c0-0.4,11.6,1.9,11.6,2.3C374.9,203.1,363.4,201,363.4,200.4z"/>
	</g>
	<g>
		<path fill="#CEDC38" d="M351.4,193.9c1,1.5,1.8,3.5-0.3,3.1c-1.4-0.5-10.7-2.6-11.6-2.7c-1.2-1.2,8.1,1.3,8.7,0.3s-7-4.5-7.3-5
			s3.7,1.9,4.1,1.4c0.4-0.6-2.6-2.9-2.2-3.3c0.4-0.5,3.3,3.7,3.7,3.1c0.4-0.6-0.5-2.4-0.3-2.6c0.3-0.1,2.7,6,3.2,5.5
			c0.5-0.4-5.1-13.6-5.1-14.5C344.5,179.4,351.4,193.9,351.4,193.9z"/>
	</g>
	<g>
		<path fill="#CEDC38" d="M333.4,178.3c3.8,4,8.7,7.2,8.3,7.7c-0.3,0.5-15.7-14.1-15.6-15.3C326.1,170,329.4,174.3,333.4,178.3z"/>
	</g>
	<g>
		<path fill="#CEDC38" d="M345.9,187.3c0.1,0.4-5.9-7.4-5.4-7.8S345.8,186.7,345.9,187.3z"/>
	</g>
	<g>
		<path fill="#CEDC38" d="M335.1,185.9c2.6,1.7,5.2,3.1,5.2,3.2c-0.1,0.4-10.2-5.4-9.8-6.1C330.8,182.2,332.7,184.3,335.1,185.9z"/>
	</g>
	<g>
		<path fill="#CEDC38" d="M342.7,193.2c0.5,0.4-11.3-3.8-12.1-4c-0.9-0.1-1.8-0.6-0.8-0.8C330.9,188.5,342.3,193,342.7,193.2z"/>
	</g>
	<g>
		<path fill="#CEDC38" d="M355.9,202.7c-2.4-3.5-4.6-5.6-4.6-5.6c-1.2-0.9-9.8-5.5-18-0.6c4.9-2.7,15.7-2.2,15.6,0.4
			c0,0.5-9.7,6.5-9.3,7c0.4,0.6,7.4-5.5,8.3-5c0.9,0.4-7.3,9.7-6.9,10.1c0.4,0.4,7.2-9.6,8.6-8.8c1.3,0.8-6,13-5,13.2
			c1,0.1,4.6-12.5,6.9-12c2.2,0.5-1.8,12.8-1.2,13.2c0.5,0.4,1.7-10.4,2.3-10.4c1,0,0.1,15.9,0.9,16.1c0.8,0.3-0.8-17.6-0.1-18.3
			C354.3,200.4,355.7,203.5,355.9,202.7z"/>
	</g>
	<g>
		<path fill="#CEDC38" d="M355,204.6c-0.8-0.8,3.8,11.6,4.3,11.5C359.7,216,355.4,205,355,204.6z"/>
	</g>
	<g>
		<path fill="#CEDC38" d="M346.1,197.1c-0.3,0.6-10.7,0.6-14.2,5.8c-2.6,3.8-2.6,1.9,0.1-0.9C335.8,198.1,346.1,196.8,346.1,197.1z"
			/>
	</g>
	<g>
		<path fill="#CEDC38" d="M347.7,226.2c-0.5,5.9-0.3,11.3-0.6,11c-0.6-0.4,0.9-17.9,2.4-20.5C350.1,215.6,348.2,221.5,347.7,226.2z"
			/>
	</g>
	<g>
		<path fill="#CEDC38" d="M339.1,211.6c0.4,0.3-4.6,6.9-5.8,10.9c-0.6,2.2-1.4,1.7-1.2,0.6C332.6,222.1,338.7,211.5,339.1,211.6z"/>
	</g>
	<g>
		<path fill="#CEDC38" d="M335.3,205.8c1-0.3-5,3.8-6.1,6.9c-0.3,0.6-1.2-0.3,1.2-2.6C332.6,207.8,335.1,205.8,335.3,205.8z"/>
	</g>
	<g>
		<path fill="#CEDC38" d="M352,198.7c-0.4,0.6-3.6-0.5-2-2.6c-0.9-0.8,0.1-4.6,2.8-2.2c1.3-0.8,3.1,0.9,2.2,2.7
			C355.6,197.8,353.8,200.8,352,198.7z"/>
	</g>
</g>
<g>
	<g>
		<path fill="#CEDC38" d="M241,215.7c-1.9,3.6-2.4,4.3-1.5,5.2s7.8,11.8,11.5,14.2c5.9,3.7-8.4-6.1-9.8-14.5
			c-0.1-0.9,11.6,6.4,11.6,5.6c0-0.6-10.9-5.1-10.5-6c0.6-1.4,4.1,1.2,4.2,0.6c0.1-0.4-3.1-0.6-1.7-2c3.7-4,14.3,0.9,13.3-0.1
			c-0.8-0.9-9.1-1.8-10.1-1.7c-0.8-1.5,19.6-4.2,16.9-4.5c-4.1-0.3-21,5.1-20.1,4.3c3.2-2.4,16.9-11.8,20.7-11.4
			c-7.3,0.1-21.5,13-23.4,11.1c-1.7-1.5,10.9-11.6,13.8-11.4C252.9,204.4,241.3,215.2,241,215.7z"/>
	</g>
	<g>
		<path fill="#CEDC38" d="M247.4,221.4c0-0.3,8.7,1.4,8.7,1.7C256,223.4,247.4,221.9,247.4,221.4z"/>
	</g>
	<g>
		<path fill="#CEDC38" d="M238.3,216.5c0.8,1.2,1.3,2.6-0.3,2.3c-1-0.4-8.1-1.9-8.7-2c-0.9-0.9,6,1,6.5,0.3c0.5-0.8-5.2-3.3-5.5-3.7
			s2.8,1.5,3.1,1s-1.9-2.2-1.7-2.6c0.4-0.4,2.6,2.8,2.8,2.3c0.3-0.5-0.4-1.8-0.3-1.9c0.3-0.1,2,4.5,2.4,4.1s-3.8-10.1-3.8-10.7
			C233.1,205.6,238.3,216.5,238.3,216.5z"/>
	</g>
	<g>
		<path fill="#CEDC38" d="M224.8,204.7c2.9,2.9,6.5,5.4,6.3,5.8c-0.3,0.4-11.8-10.5-11.8-11.5C219.3,198.6,221.8,201.8,224.8,204.7z
			"/>
	</g>
	<g>
		<path fill="#CEDC38" d="M234.2,211.6c0.1,0.3-4.5-5.5-4.1-5.8C230.5,205.5,234.1,211.1,234.2,211.6z"/>
	</g>
	<g>
		<path fill="#CEDC38" d="M226.2,210.5c1.9,1.2,4,2.3,4,2.4c-0.1,0.3-7.7-4.1-7.4-4.6C222.9,207.8,224.3,209.3,226.2,210.5z"/>
	</g>
	<g>
		<path fill="#CEDC38" d="M231.8,216c0.4,0.3-8.4-2.9-9.2-2.9c-0.8-0.1-1.3-0.5-0.5-0.5C223,212.4,231.6,215.9,231.8,216z"/>
	</g>
	<g>
		<path fill="#CEDC38" d="M241.7,223.2c-1.9-2.6-3.5-4.2-3.5-4.2c-0.9-0.6-7.4-4.2-13.6-0.4c3.7-2,11.8-1.7,11.6,0.3
			c0,0.4-7.3,4.9-7,5.2s5.5-4.1,6.3-3.8c0.6,0.3-5.5,7.3-5.1,7.5c0.3,0.3,5.4-7.3,6.4-6.7s-4.5,9.7-3.7,9.8s3.5-9.3,5.1-9
			c1.7,0.4-1.3,9.6-0.9,9.8s1.3-7.8,1.8-7.7c0.8,0,0.1,11.9,0.6,12c0.5,0.3-0.5-13.2-0.1-13.8C240.5,221.4,241.5,223.7,241.7,223.2z
			"/>
	</g>
	<g>
		<path fill="#CEDC38" d="M240.9,224.6c-0.5-0.5,2.8,8.7,3.2,8.6C244.6,233.1,241.3,224.8,240.9,224.6z"/>
	</g>
	<g>
		<path fill="#CEDC38" d="M234.4,218.9c-0.1,0.5-8.1,0.4-10.6,4.3c-1.9,2.8-1.9,1.4,0-0.6C226.6,219.7,234.4,218.7,234.4,218.9z"/>
	</g>
	<g>
		<path fill="#CEDC38" d="M235.5,240.7c-0.4,4.5-0.1,8.4-0.5,8.2c-0.5-0.3,0.6-13.4,1.8-15.3C237.3,232.8,235.9,237.2,235.5,240.7z"
			/>
	</g>
	<g>
		<path fill="#CEDC38" d="M229.1,229.8c0.3,0.1-3.5,5.2-4.3,8.1c-0.5,1.7-1.2,1.3-0.8,0.5C224.3,237.7,228.9,229.7,229.1,229.8z"/>
	</g>
	<g>
		<path fill="#CEDC38" d="M226.2,225.5c0.8-0.1-3.7,2.9-4.6,5.1c-0.1,0.5-0.9-0.1,0.9-1.9C224.3,227,226.1,225.5,226.2,225.5z"/>
	</g>
	<g>
		<path fill="#CEDC38" d="M238.8,220.2c-0.3,0.5-2.7-0.4-1.5-1.9c-0.8-0.5,0.1-3.5,2-1.5c1-0.5,2.3,0.6,1.7,2
			C241.5,219.4,240.1,221.8,238.8,220.2z"/>
	</g>
</g>
<g>
	<g>
		<path fill="#CEDC38" d="M161.6,180.8L161.6,180.8l-13.8-1.5c-0.1,0-0.3-0.1-0.3-0.3c0-0.1,0.1-0.3,0.3-0.3l13.8,1.5
			c0.1,0,0.3,0.1,0.3,0.3C161.9,180.7,161.7,180.8,161.6,180.8z"/>
		<path fill="#CEDC38" d="M167.2,184.8L167.2,184.8l-19.4-5.6c-0.1,0-0.3-0.3-0.1-0.4c0-0.1,0.3-0.3,0.4-0.1l19.3,5.6
			c0.1,0,0.3,0.3,0.1,0.4C167.5,184.8,167.4,184.8,167.2,184.8z"/>
		<path fill="#CEDC38" d="M160.6,185.8C160.6,185.8,160.4,185.8,160.6,185.8l-12.9-6.7c-0.1-0.1-0.1-0.3-0.1-0.4
			c0.1-0.1,0.3-0.1,0.4-0.1l12.8,6.7c0.1,0.1,0.1,0.3,0.1,0.4C160.7,185.7,160.7,185.8,160.6,185.8z"/>
		<path fill="#CEDC38" d="M161.5,190.9c0,0-0.1,0-0.1-0.1L148,179.2c-0.1-0.1-0.1-0.3,0-0.4c0.1-0.1,0.3-0.1,0.4,0l13.4,11.6
			c0.1,0.1,0.1,0.3,0,0.4C161.6,190.9,161.6,190.9,161.5,190.9z"/>
		<path fill="#CEDC38" d="M163.6,196.4c-0.1,0-0.1,0-0.3-0.1l-15.7-17.1c-0.1-0.1-0.1-0.3,0-0.4c0.1-0.1,0.3-0.1,0.4,0l15.9,17.1
			c0.1,0.1,0.1,0.3,0,0.4C163.8,196.3,163.6,196.4,163.6,196.4z"/>
		<path fill="#CEDC38" d="M155.1,190.3c-0.1,0-0.1,0-0.3-0.1l-7.3-11.1c-0.1-0.1,0-0.3,0.1-0.4c0.1-0.1,0.3,0,0.4,0.1l7.3,11.1
			C155.4,190,155.3,190.2,155.1,190.3L155.1,190.3z"/>
		<path fill="#CEDC38" d="M149.6,186.2c-0.1,0-0.3-0.1-0.3-0.3l-1.8-7c0-0.1,0-0.3,0.3-0.4c0.1,0,0.3,0,0.4,0.3l1.8,7
			C149.8,186.1,149.7,186.2,149.6,186.2L149.6,186.2z"/>
		<path fill="#CEDC38" d="M147.8,198.3c-0.1,0-0.3-0.1-0.3-0.3v-19c0-0.1,0.1-0.3,0.3-0.3c0.1,0,0.3,0.1,0.3,0.3v19.1
			C148,198.2,147.9,198.3,147.8,198.3z"/>
		<path fill="#CEDC38" d="M144.7,192L144.7,192c-0.3,0-0.3-0.1-0.3-0.4l2.9-12.7c0-0.1,0.1-0.3,0.4-0.3c0.1,0,0.3,0.1,0.3,0.4
			l-2.9,12.7C145,191.8,144.8,192,144.7,192z"/>
		<path fill="#CEDC38" d="M144.5,186.1C144.5,186.1,144.5,185.9,144.5,186.1c-0.3-0.1-0.3-0.3-0.3-0.4l3.2-6.8
			c0.1-0.1,0.3-0.3,0.4-0.1s0.3,0.3,0.1,0.4l-3.2,6.8C144.7,185.9,144.6,186.1,144.5,186.1z"/>
		<path fill="#CEDC38" d="M139.1,191.7H139c-0.1-0.1-0.1-0.3-0.1-0.4l8.7-12.5c0.1-0.1,0.3-0.1,0.4-0.1c0.1,0.1,0.1,0.3,0.1,0.4
			l-8.7,12.5C139.2,191.7,139.2,191.7,139.1,191.7z"/>
		<path fill="#CEDC38" d="M134,195.3c0,0-0.1,0-0.1-0.1c-0.1-0.1-0.1-0.3,0-0.4l13.8-16.1c0.1-0.1,0.3-0.1,0.4,0
			c0.1,0.1,0.1,0.3,0,0.4l-13.9,16.1C134.1,195.3,134,195.3,134,195.3z"/>
		<path fill="#CEDC38" d="M135.9,186.8c-0.1,0-0.1,0-0.3-0.1c-0.1-0.1,0-0.3,0.1-0.4l11.9-7.7c0.1-0.1,0.3,0,0.4,0.1
			c0.1,0.1,0,0.3-0.1,0.4L135.9,186.8C136,186.8,135.9,186.8,135.9,186.8z"/>
		<path fill="#CEDC38" d="M127.8,185.7c-0.1,0-0.3-0.1-0.3-0.1c0-0.1,0-0.3,0.1-0.4l20-6.5c0.1,0,0.3,0,0.4,0.1c0,0.1,0,0.3-0.1,0.4
			L127.8,185.7L127.8,185.7z"/>
		<path fill="#CEDC38" d="M134,181.1c-0.1,0-0.3-0.1-0.3-0.3c0-0.1,0.1-0.3,0.3-0.3l13.7-1.9c0.1,0,0.3,0.1,0.3,0.3
			c0,0.1-0.1,0.3-0.3,0.3L134,181.1L134,181.1z"/>
	</g>
	<g>
		<path fill="#CEDC38" d="M147.7,178.9L147.7,178.9l-13.8-1.5c-0.1,0-0.3-0.1-0.3-0.3c0-0.1,0.1-0.3,0.3-0.3l13.8,1.5
			c0.1,0,0.3,0.1,0.3,0.3C147.9,178.8,147.8,178.9,147.7,178.9z"/>
		<path fill="#CEDC38" d="M147.7,178.9C147.7,178.9,147.5,178.9,147.7,178.9l-20-5.8c-0.1,0-0.3-0.3-0.1-0.4c0-0.1,0.3-0.3,0.4-0.1
			l19.7,5.8c0.1,0,0.3,0.3,0.1,0.4C147.9,178.8,147.8,178.9,147.7,178.9z"/>
		<path fill="#CEDC38" d="M147.8,178.9C147.8,178.9,147.7,178.9,147.8,178.9l-12.9-6.7c-0.1-0.1-0.1-0.3-0.1-0.4
			c0.1-0.1,0.3-0.1,0.4-0.1l12.8,6.7c0.1,0.1,0.1,0.3,0.1,0.4C147.9,178.9,147.9,178.9,147.8,178.9z"/>
		<path fill="#CEDC38" d="M147.5,178.8c0,0-0.1,0-0.1-0.1L134,167c-0.1-0.1-0.1-0.3,0-0.4c0.1-0.1,0.3-0.1,0.4,0l13.3,11.6
			c0.1,0.1,0.1,0.3,0,0.4C147.7,178.8,147.5,178.8,147.5,178.8z"/>
		<path fill="#CEDC38" d="M147.7,178.9c-0.1,0-0.1,0-0.3-0.1l-15.7-17.1c-0.1-0.1-0.1-0.3,0-0.4c0.1-0.1,0.3-0.1,0.4,0l15.9,17.1
			c0.1,0.1,0.1,0.3,0,0.4C147.8,178.9,147.8,178.9,147.7,178.9z"/>
		<path fill="#CEDC38" d="M147.8,178.9c-0.1,0-0.1,0-0.3-0.1l-7.3-11.1c-0.1-0.1,0-0.3,0.1-0.4c0.1-0.1,0.3,0,0.4,0.1l7.3,11.1
			C148.1,178.6,148,178.8,147.8,178.9L147.8,178.9z"/>
		<path fill="#CEDC38" d="M147.8,178.9c-0.1,0-0.3-0.1-0.3-0.3l-1.8-7c0-0.1,0-0.3,0.3-0.4c0.1,0,0.3,0,0.4,0.3l1.8,7
			C148,178.8,147.9,178.9,147.8,178.9L147.8,178.9z"/>
		<path fill="#CEDC38" d="M147.8,178.8c-0.1,0-0.3-0.1-0.3-0.3V159c0-0.1,0.1-0.3,0.3-0.3c0.1,0,0.3,0.1,0.3,0.3v19.6
			C148,178.7,147.9,178.8,147.8,178.8z"/>
		<path fill="#CEDC38" d="M147.8,178.8L147.8,178.8c-0.3,0-0.3-0.1-0.3-0.4l2.9-12.7c0-0.1,0.1-0.3,0.4-0.3c0.1,0,0.3,0.1,0.3,0.4
			l-2.9,12.7C148,178.8,147.9,178.8,147.8,178.8z"/>
		<path fill="#CEDC38" d="M147.8,178.9C147.7,178.9,147.7,178.9,147.8,178.9c-0.3-0.1-0.3-0.3-0.3-0.4l3.2-6.8
			c0.1-0.1,0.3-0.3,0.4-0.1s0.3,0.3,0.1,0.4l-3.2,6.8C147.9,178.8,147.9,178.9,147.8,178.9z"/>
		<path fill="#CEDC38" d="M147.8,178.9h-0.1c-0.1-0.1-0.1-0.3-0.1-0.4l8.7-12.5c0.1-0.1,0.3-0.1,0.4-0.1c0.1,0.1,0.1,0.3,0.1,0.4
			l-8.7,12.5C147.9,178.9,147.8,178.9,147.8,178.9z"/>
		<path fill="#CEDC38" d="M147.7,178.9c0,0-0.1,0-0.1-0.1c-0.1-0.1-0.1-0.3,0-0.4l13.9-16.1c0.1-0.1,0.3-0.1,0.4,0
			c0.1,0.1,0.1,0.3,0,0.4L148,178.8C147.9,178.9,147.8,178.9,147.7,178.9z"/>
		<path fill="#CEDC38" d="M147.8,178.9c-0.1,0-0.1,0-0.3-0.1c-0.1-0.1,0-0.3,0.1-0.4l11.9-7.7c0.1-0.1,0.3,0,0.4,0.1
			c0.1,0.1,0,0.3-0.1,0.4L147.8,178.9L147.8,178.9z"/>
		<path fill="#CEDC38" d="M147.8,178.9c-0.1,0-0.3-0.1-0.3-0.1c0-0.1,0-0.3,0.1-0.4L167,172c0.1,0,0.3,0,0.4,0.1
			c0,0.1,0,0.3-0.1,0.4L147.8,178.9L147.8,178.9z"/>
		<path fill="#CEDC38" d="M147.8,178.9c-0.1,0-0.3-0.1-0.3-0.3c0-0.1,0.1-0.3,0.3-0.3l13.8-1.8c0.1,0,0.3,0.1,0.3,0.3
			s-0.1,0.3-0.3,0.3L147.8,178.9L147.8,178.9z"/>
	</g>
	<path fill="#CEDC38" d="M165.4,179h-35.8c-0.1,0-0.3-0.1-0.3-0.3s0.1-0.3,0.3-0.3h35.7c0.1,0,0.3,0.1,0.3,0.3
		C165.7,178.9,165.6,179,165.4,179z"/>
</g>
<g>
	<g>
		<path fill="#0BADDB" d="M130.8,287.2c-0.1,1.2,0.6,1.8,1.4,1.8c0.6,0,1.3-0.3,1.8-0.9l2.3,1.7c-1.2,1.3-2.6,2-4.1,2
			c-2.6,0-4.3-1.9-4.3-4.2c0-0.3,0-0.5,0-0.6l3.2-22.3h2.9L130.8,287.2z M135.8,255.8c0,1.3-1.2,2.3-2.4,2.3c-1.3,0-2.2-0.9-2.2-2
			c0-1.3,1.2-2.4,2.3-2.4C134.9,253.6,135.8,254.6,135.8,255.8z"/>
		<path fill="#0BADDB" d="M143.4,264.6c1.5,1.2,2.2,2.9,2.3,4.9c3.1-3.8,6.3-5.1,10-5.1c5,0,7.8,2.2,7.8,6.8c0,0.4,0,0.8,0,1.2
			l-2.2,15.2c-0.1,1.2,0.6,1.8,1.5,1.8c0.6,0,1.3-0.3,1.8-0.9l2.3,1.7c-1.2,1.4-2.6,2-4.1,2c-2.7,0-4.3-1.9-4.3-4.2
			c0-0.3,0-0.5,0-0.6l1.9-13.8c0.1-0.6,0.1-1.3,0.1-1.8c0-3.2-1.7-4.6-5-4.6c-4.1,0-6.9,2.3-9.7,5.5l-2.7,18.9H140l2.7-18.9
			c0.1-0.6,0.1-1.4,0.1-1.9c0-1.8-0.4-3.2-1.4-4.3L143.4,264.6z"/>
	</g>
</g>
</svg>
