<?xml version="1.0" encoding="utf-8"?>
<!-- Generator: Adobe Illustrator 20.1.0, SVG Export Plug-In . SVG Version: 6.00 Build 0)  -->
<svg version="1.1" id="Layer_1" xmlns="http://www.w3.org/2000/svg" xmlns:xlink="http://www.w3.org/1999/xlink" x="0px" y="0px"
	 viewBox="0 0 401 30.5" enable-background="new 0 0 401 30.5" xml:space="preserve">
<text transform="matrix(1 0 0 1 101.7455 880.6206)" fill="#00ADEE" font-family="'Flamenco-Regular'" font-size="14.1778px">E</text>
<text transform="matrix(1 0 0 1 166.5414 880.6206)" fill="#00ADEE" font-family="'Flamenco-Regular'" font-size="14.1778px">S</text>
<text transform="matrix(1 0 0 1 297.6654 880.6206)" fill="#00ADEE" font-family="'Flamenco-Regular'" font-size="14.1778px">G</text>
<text transform="matrix(1 0 0 1 371.0043 880.6206)" fill="#00ADEE" font-family="'Flamenco-Regular'" font-size="14.1778px">N</text>
<text transform="matrix(1 0 0 1 34.9916 880.6206)" fill="#00ADEE" font-family="'Flamenco-Regular'" font-size="14.1778px">D</text>
<g>
	<text transform="matrix(1 0 0 1 237.2923 880.6206)" fill="#00ADEE" font-family="'Flamenco-Regular'" font-size="14.1778px">I</text>
</g>
<g>
	<path fill="#757575" stroke="#757575" stroke-width="0.5673" stroke-miterlimit="10" d="M41.5,25.1h-6.2c-0.2,0-0.2-0.1-0.2-0.2
		V5.8h-2.5c-0.2,0-0.3-0.1-0.3-0.2c0-0.2,0.1-0.2,0.3-0.2h9c3,0,5.2,0.9,7,2.7c1.7,1.8,2.6,4.2,2.6,7.3s-0.9,5.4-2.6,7.3
		C46.9,24.2,44.5,25.1,41.5,25.1z M35.6,5.8v18.7h5.9c2.8,0,5.1-0.8,6.7-2.5c1.6-1.6,2.4-4,2.4-6.8c0-3-0.8-5.2-2.5-6.9
		s-3.9-2.5-6.6-2.5C41.5,5.8,35.6,5.8,35.6,5.8z"/>
	<path fill="#757575" stroke="#757575" stroke-width="0.5673" stroke-miterlimit="10" d="M114.9,8.4c0,0.2-0.1,0.2-0.2,0.2
		c-0.1,0-0.2-0.1-0.2-0.2V5.8H102v9h10.9v-1.7c0-0.2,0.1-0.3,0.2-0.3c0.1,0,0.2,0.1,0.2,0.3v4.1c0,0.2-0.1,0.3-0.2,0.3
		c-0.1,0-0.2-0.1-0.2-0.3v-1.8H102v9.1h12.7c0.2,0,0.2,0.1,0.2,0.2c0,0.2-0.1,0.2-0.2,0.2h-13.2c-0.2,0-0.2-0.1-0.2-0.2V5.8h-2.5
		c-0.2,0-0.3-0.1-0.3-0.2c0-0.2,0.1-0.2,0.3-0.2h15.9c0.2,0,0.2,0.1,0.2,0.3V8.4z"/>
	<path fill="#757575" stroke="#757575" stroke-width="0.5673" stroke-miterlimit="10" d="M170.3,25.2c-1.2,0-2.5-0.1-4-0.5
		c-1.4-0.2-2.5-0.7-3.2-1.1c-0.1,0-0.1-0.1-0.1-0.2v-2.8c0-0.2,0.1-0.3,0.2-0.3c0.2,0,0.2,0.1,0.2,0.3v2.6c0.7,0.5,1.7,0.8,3.1,1
		c1.2,0.2,2.5,0.3,3.6,0.3c2.4,0,4.2-0.5,5.6-1.2c1.2-0.8,1.9-1.9,1.9-3.4c0-1.2-0.5-2.4-1.4-3.1c-1-0.8-3-1.6-5.9-2
		c-2.3-0.5-3.9-0.9-4.8-1.4c-0.9-0.5-1.5-1-1.8-1.6s-0.5-1.2-0.5-2c0-1.6,0.6-2.8,1.8-3.6s3.1-1.1,5.7-1.1s4.8,0.5,6.6,1.5
		c0.1,0.1,0.2,0.1,0.2,0.2v2.8c0,0.2-0.1,0.3-0.2,0.3c-0.2,0-0.2-0.1-0.2-0.3V7.1c-0.7-0.3-1.6-0.7-2.8-0.9s-2.4-0.3-3.5-0.3
		c-2.3,0-4.1,0.3-5.1,1c-1.1,0.7-1.6,1.7-1.6,3.2c0,1,0.5,1.9,1.2,2.6c0.7,0.6,1.8,1,3.3,1.4c0.5,0.1,1.1,0.2,1.9,0.5
		c0.8,0.2,1.5,0.3,1.9,0.5c0.5,0.1,1,0.2,1.7,0.5c0.7,0.2,1.2,0.5,1.7,0.7c0.5,0.2,0.8,0.6,1.2,0.9c0.8,0.7,1.1,1.8,1.1,3.3
		s-0.7,2.7-2,3.6S172.9,25.2,170.3,25.2z"/>
	<path fill="#757575" stroke="#757575" stroke-width="0.5673" stroke-miterlimit="10" d="M231.7,25.1H226c-0.2,0-0.3-0.1-0.3-0.2
		c0-0.2,0.1-0.2,0.3-0.2h2.5V5.8H226c-0.2,0-0.3-0.1-0.3-0.2c0-0.2,0.1-0.2,0.3-0.2h5.7c0.2,0,0.2,0.1,0.2,0.2
		c0,0.2-0.1,0.2-0.2,0.2h-2.5v18.7h2.5c0.2,0,0.2,0.1,0.2,0.2C231.9,25,231.8,25.1,231.7,25.1z"/>
	<path fill="#757575" stroke="#757575" stroke-width="0.5673" stroke-miterlimit="10" d="M295.6,22.7c-1.8,1.7-4.1,2.5-6.8,2.5
		c-2.7,0-5-0.9-6.7-2.8c-1.7-1.9-2.6-4.3-2.6-7.3s0.9-5.4,2.7-7.3s4-2.7,6.6-2.7s4.9,0.6,6.7,1.6c0.1,0.1,0.2,0.1,0.2,0.2v3
		c0,0.2-0.1,0.3-0.2,0.3c-0.2,0-0.2-0.1-0.2-0.3V7.2c-1.8-0.9-4-1.5-6.5-1.5s-4.5,0.9-6.2,2.6c-1.6,1.7-2.5,4.1-2.5,6.9
		s0.8,5.1,2.5,6.9c1.6,1.7,3.7,2.6,6.5,2.6s4.9-0.9,6.6-2.7v-5.6h-5.7c-0.2,0-0.3-0.1-0.3-0.2c0-0.2,0.1-0.2,0.3-0.2h5.9
		c0.2,0,0.2,0.1,0.2,0.2v8.9c0,0.2-0.1,0.2-0.2,0.2s-0.2-0.1-0.2-0.2V22.7z"/>
	<path fill="#757575" stroke="#757575" stroke-width="0.5673" stroke-miterlimit="10" d="M364.8,5.8h-2.5V25c0,0.2-0.1,0.2-0.2,0.2
		c-0.1,0-0.2,0-0.3-0.1L347.2,6.5V25c0,0.2-0.1,0.2-0.2,0.2c-0.2,0-0.2-0.1-0.2-0.2V5.8h-2.5c-0.2,0-0.3-0.1-0.3-0.2
		c0-0.2,0.1-0.2,0.3-0.2h2.7c0.1,0,0.2,0,0.3,0.1l14.4,18.7V5.8h-2.5c-0.2,0-0.3-0.1-0.3-0.2c0-0.2,0.1-0.2,0.3-0.2h5.7
		c0.2,0,0.2,0.1,0.2,0.2C365,5.8,364.9,5.8,364.8,5.8z"/>
</g>
</svg>
