<?xml version="1.0" encoding="utf-8"?>
<!-- Generator: Adobe Illustrator 20.1.0, SVG Export Plug-In . SVG Version: 6.00 Build 0)  -->
<svg version="1.1" id="Layer_1" xmlns="http://www.w3.org/2000/svg" xmlns:xlink="http://www.w3.org/1999/xlink" x="0px" y="0px"
	 viewBox="0 0 500 500" enable-background="new 0 0 500 500" xml:space="preserve">
<text transform="matrix(1 0 0 1 125.1971 894.6587)" fill="#00ADEE" font-family="'Flamenco-Regular'" font-size="14.1778px">E</text>
<text transform="matrix(1 0 0 1 189.993 894.6587)" fill="#00ADEE" font-family="'Flamenco-Regular'" font-size="14.1778px">S</text>
<text transform="matrix(1 0 0 1 321.1171 894.6587)" fill="#00ADEE" font-family="'Flamenco-Regular'" font-size="14.1778px">G</text>
<text transform="matrix(1 0 0 1 394.4559 894.6587)" fill="#00ADEE" font-family="'Flamenco-Regular'" font-size="14.1778px">N</text>
<text transform="matrix(1 0 0 1 58.4432 894.6587)" fill="#00ADEE" font-family="'Flamenco-Regular'" font-size="14.1778px">D</text>
<g>
	<text transform="matrix(1 0 0 1 260.744 894.6587)" fill="#00ADEE" font-family="'Flamenco-Regular'" font-size="14.1778px">I</text>
</g>
<text transform="matrix(1 0 0 1 137.2147 317.1565)" fill="#00ADEE" font-family="'Flamenco-Regular'" font-size="14.1778px">E</text>
<text transform="matrix(1 0 0 1 202.0106 317.1565)" fill="#00ADEE" font-family="'Flamenco-Regular'" font-size="14.1778px">S</text>
<text transform="matrix(1 0 0 1 333.1346 317.1565)" fill="#00ADEE" font-family="'Flamenco-Regular'" font-size="14.1778px">G</text>
<text transform="matrix(1 0 0 1 406.4735 317.1565)" fill="#00ADEE" font-family="'Flamenco-Regular'" font-size="14.1778px">N</text>
<text transform="matrix(1 0 0 1 70.4608 317.1565)" fill="#00ADEE" font-family="'Flamenco-Regular'" font-size="14.1778px">D</text>
<g>
	<text transform="matrix(1 0 0 1 272.7616 317.1565)" fill="#00ADEE" font-family="'Flamenco-Regular'" font-size="14.1778px">I</text>
</g>
</svg>
