<?xml version="1.0" encoding="utf-8"?>
<!-- Generator: Adobe Illustrator 20.1.0, SVG Export Plug-In . SVG Version: 6.00 Build 0)  -->
<svg version="1.1" id="Layer_1" xmlns="http://www.w3.org/2000/svg" xmlns:xlink="http://www.w3.org/1999/xlink" x="0px" y="0px"
	 viewBox="0 0 360 30.5" enable-background="new 0 0 360 30.5" xml:space="preserve">
<g>
	<path fill="#767676" stroke="#767676" stroke-width="0.5" stroke-miterlimit="10" d="M7.7,23.3H2.2C2,23.3,2,23.2,2,23.1V6.4h-2.2
		c-0.2,0-0.3-0.1-0.3-0.2C-0.5,6-0.4,6-0.2,6h7.9c2.6,0,4.6,0.8,6.2,2.4c1.5,1.6,2.3,3.7,2.3,6.4s-0.8,4.8-2.3,6.4
		C12.4,22.5,10.3,23.3,7.7,23.3z M2.5,6.4v16.5h5.2c2.5,0,4.5-0.7,5.9-2.2c1.4-1.4,2.1-3.5,2.1-6c0-2.6-0.7-4.6-2.2-6.1
		c-1.4-1.5-3.4-2.2-5.8-2.2H2.5z"/>
	<path fill="#767676" stroke="#767676" stroke-width="0.5" stroke-miterlimit="10" d="M72.4,8.6c0,0.2-0.1,0.2-0.2,0.2
		S72,8.7,72,8.6V6.4H61v7.9h9.6v-1.5c0-0.2,0.1-0.3,0.2-0.3s0.2,0.1,0.2,0.3v3.6c0,0.2-0.1,0.3-0.2,0.3s-0.2-0.1-0.2-0.3v-1.6H61v8
		h11.3c0.2,0,0.2,0.1,0.2,0.2c0,0.2-0.1,0.2-0.2,0.2H60.6c-0.2,0-0.2-0.1-0.2-0.2V6.4h-2.2c-0.2,0-0.3-0.1-0.3-0.2
		C57.9,6,58,6,58.2,6h14c0.2,0,0.2,0.1,0.2,0.3V8.6z"/>
	<path fill="#767676" stroke="#767676" stroke-width="0.5" stroke-miterlimit="10" d="M113.3,5.9c0-0.1,0.1-0.2,0.3-0.2
		c0.1,0,0.1,0,0.2,0.1l7.9,16.8l7.9-16.8c0.1-0.1,0.1-0.1,0.2-0.1c0.2,0,0.3,0.1,0.3,0.2V6L122,23.2c0,0.1-0.1,0.1-0.2,0.1
		s-0.2,0-0.2-0.1L113.5,6C113.3,6,113.3,6,113.3,5.9z"/>
	<path fill="#767676" stroke="#767676" stroke-width="0.5" stroke-miterlimit="10" d="M184.7,8.6c0,0.2-0.1,0.2-0.2,0.2
		s-0.2-0.1-0.2-0.2V6.4h-11v7.9h9.6v-1.5c0-0.2,0.1-0.3,0.2-0.3s0.2,0.1,0.2,0.3v3.6c0,0.2-0.1,0.3-0.2,0.3s-0.2-0.1-0.2-0.3v-1.6
		h-9.6v8h11.3c0.2,0,0.2,0.1,0.2,0.2c0,0.2-0.1,0.2-0.2,0.2H173c-0.2,0-0.2-0.1-0.2-0.2V6.4h-2.2c-0.2,0-0.3-0.1-0.3-0.2
		c0-0.2,0.1-0.2,0.3-0.2h14c0.2,0,0.2,0.1,0.2,0.3v2.3H184.7z"/>
	<path fill="#767676" stroke="#767676" stroke-width="0.5" stroke-miterlimit="10" d="M240.2,23.3h-11.3c-0.2,0-0.3-0.1-0.3-0.3V6.4
		h-2.2c-0.2,0-0.3-0.1-0.3-0.2c0-0.2,0.1-0.2,0.3-0.2h5c0.2,0,0.2,0.1,0.2,0.2c0,0.2-0.1,0.2-0.2,0.2h-2.2v16.5H240v-2.2
		c0-0.2,0.1-0.3,0.2-0.3c0.2,0,0.2,0.1,0.2,0.3v2.5C240.4,23.2,240.3,23.3,240.2,23.3z"/>
	<path fill="#767676" stroke="#767676" stroke-width="0.5" stroke-miterlimit="10" d="M284.3,21c-1.6-1.7-2.4-3.8-2.4-6.4
		s0.8-4.7,2.4-6.4s3.6-2.5,6.2-2.5c2.5,0,4.6,0.8,6.2,2.5s2.4,3.8,2.4,6.4s-0.8,4.7-2.4,6.4s-3.6,2.5-6.2,2.5
		C287.9,23.4,285.9,22.6,284.3,21z M284.6,8.6c-1.5,1.6-2.2,3.6-2.2,6s0.7,4.5,2.2,6s3.4,2.3,5.8,2.3s4.3-0.8,5.8-2.3
		c1.5-1.6,2.2-3.6,2.2-6s-0.7-4.5-2.2-6c-1.5-1.6-3.4-2.3-5.8-2.3S286.1,7,284.6,8.6z"/>
	<path fill="#767676" stroke="#767676" stroke-width="0.5" stroke-miterlimit="10" d="M343.6,23.2c0,0.2-0.1,0.2-0.2,0.2
		c-0.2,0-0.2-0.1-0.2-0.2V6.4H341c-0.2,0-0.2-0.1-0.2-0.2c0-0.2,0.1-0.2,0.2-0.2h9.3c4,0,6,1.8,6,5.5s-2,5.5-6,5.5h-6.6L343.6,23.2
		L343.6,23.2z M343.6,6.4v10h6.6c3.7,0,5.5-1.7,5.5-5s-1.8-5-5.5-5C350.2,6.4,343.6,6.4,343.6,6.4z"/>
</g>
</svg>
