<?xml version="1.0" encoding="utf-8"?>
<!-- Generator: Adobe Illustrator 20.1.0, SVG Export Plug-In . SVG Version: 6.00 Build 0)  -->
<svg version="1.1" id="Layer_1" xmlns="http://www.w3.org/2000/svg" xmlns:xlink="http://www.w3.org/1999/xlink" x="0px" y="0px"
	 viewBox="0 0 362 30.5" enable-background="new 0 0 362 30.5" xml:space="preserve">
<text transform="matrix(1 0 0 1 101.7455 880.6206)" fill="#00ADEE" font-family="'Flamenco-Regular'" font-size="14.1778px">E</text>
<text transform="matrix(1 0 0 1 166.5414 880.6206)" fill="#00ADEE" font-family="'Flamenco-Regular'" font-size="14.1778px">S</text>
<text transform="matrix(1 0 0 1 297.6654 880.6206)" fill="#00ADEE" font-family="'Flamenco-Regular'" font-size="14.1778px">G</text>
<text transform="matrix(1 0 0 1 371.0043 880.6206)" fill="#00ADEE" font-family="'Flamenco-Regular'" font-size="14.1778px">N</text>
<text transform="matrix(1 0 0 1 34.9916 880.6206)" fill="#00ADEE" font-family="'Flamenco-Regular'" font-size="14.1778px">D</text>
<g>
	<text transform="matrix(1 0 0 1 237.2923 880.6206)" fill="#00ADEE" font-family="'Flamenco-Regular'" font-size="14.1778px">I</text>
</g>
<g>
	<path fill="#767676" stroke="#767676" stroke-width="0.5" stroke-miterlimit="10" d="M9.2,24.9H3.7c-0.2,0-0.2-0.1-0.2-0.2V8H1.3
		C1.1,8,1,7.9,1,7.8c0-0.2,0.1-0.2,0.3-0.2h7.9c2.6,0,4.6,0.8,6.2,2.4c1.5,1.6,2.3,3.7,2.3,6.4s-0.8,4.8-2.3,6.4
		C13.9,24.1,11.8,24.9,9.2,24.9z M4,8v16.5h5.2c2.5,0,4.5-0.7,5.9-2.2c1.4-1.4,2.1-3.5,2.1-6c0-2.6-0.7-4.6-2.2-6.1
		C13.6,8.7,11.6,8,9.2,8H4z"/>
	<path fill="#767676" stroke="#767676" stroke-width="0.5" stroke-miterlimit="10" d="M73.9,10.2c0,0.2-0.1,0.2-0.2,0.2
		s-0.2-0.1-0.2-0.2V8h-11v7.9h9.6v-1.5c0-0.2,0.1-0.3,0.2-0.3s0.2,0.1,0.2,0.3V18c0,0.2-0.1,0.3-0.2,0.3s-0.2-0.1-0.2-0.3v-1.6h-9.6
		v8h11.3c0.2,0,0.2,0.1,0.2,0.2c0,0.2-0.1,0.2-0.2,0.2H62.1c-0.2,0-0.2-0.1-0.2-0.2V8h-2.2c-0.2,0-0.3-0.1-0.3-0.2
		c0-0.2,0.1-0.2,0.3-0.2h14c0.2,0,0.2,0.1,0.2,0.3V10.2z"/>
	<path fill="#767676" stroke="#767676" stroke-width="0.5" stroke-miterlimit="10" d="M114.8,7.5c0-0.1,0.1-0.2,0.3-0.2
		c0.1,0,0.1,0,0.2,0.1l7.9,16.8l7.9-16.8c0.1-0.1,0.1-0.1,0.2-0.1c0.2,0,0.3,0.1,0.3,0.2v0.1l-8.1,17.2c0,0.1-0.1,0.1-0.2,0.1
		s-0.2,0-0.2-0.1L115,7.6C114.8,7.6,114.8,7.6,114.8,7.5z"/>
	<path fill="#767676" stroke="#767676" stroke-width="0.5" stroke-miterlimit="10" d="M186.2,10.2c0,0.2-0.1,0.2-0.2,0.2
		s-0.2-0.1-0.2-0.2V8h-11v7.9h9.6v-1.5c0-0.2,0.1-0.3,0.2-0.3s0.2,0.1,0.2,0.3V18c0,0.2-0.1,0.3-0.2,0.3s-0.2-0.1-0.2-0.3v-1.6h-9.6
		v8h11.3c0.2,0,0.2,0.1,0.2,0.2c0,0.2-0.1,0.2-0.2,0.2h-11.6c-0.2,0-0.2-0.1-0.2-0.2V8h-2.2c-0.2,0-0.3-0.1-0.3-0.2
		c0-0.2,0.1-0.2,0.3-0.2h14c0.2,0,0.2,0.1,0.2,0.3v2.3H186.2z"/>
	<path fill="#767676" stroke="#767676" stroke-width="0.5" stroke-miterlimit="10" d="M241.7,24.9h-11.3c-0.2,0-0.3-0.1-0.3-0.3V8
		h-2.2c-0.2,0-0.3-0.1-0.3-0.2c0-0.2,0.1-0.2,0.3-0.2h5c0.2,0,0.2,0.1,0.2,0.2c0,0.2-0.1,0.2-0.2,0.2h-2.2v16.5h10.8v-2.2
		c0-0.2,0.1-0.3,0.2-0.3c0.2,0,0.2,0.1,0.2,0.3v2.5C241.9,24.8,241.8,24.9,241.7,24.9z"/>
	<path fill="#767676" stroke="#767676" stroke-width="0.5" stroke-miterlimit="10" d="M285.8,22.6c-1.6-1.7-2.4-3.8-2.4-6.4
		s0.8-4.7,2.4-6.4s3.6-2.5,6.2-2.5c2.5,0,4.6,0.8,6.2,2.5s2.4,3.8,2.4,6.4s-0.8,4.7-2.4,6.4s-3.6,2.5-6.2,2.5
		C289.4,25,287.4,24.2,285.8,22.6z M286.1,10.2c-1.5,1.6-2.2,3.6-2.2,6s0.7,4.5,2.2,6s3.4,2.3,5.8,2.3s4.3-0.8,5.8-2.3
		c1.5-1.6,2.2-3.6,2.2-6s-0.7-4.5-2.2-6c-1.5-1.6-3.4-2.3-5.8-2.3S287.6,8.6,286.1,10.2z"/>
	<path fill="#767676" stroke="#767676" stroke-width="0.5" stroke-miterlimit="10" d="M345.1,24.8c0,0.2-0.1,0.2-0.2,0.2
		c-0.2,0-0.2-0.1-0.2-0.2V8h-2.2c-0.2,0-0.2-0.1-0.2-0.2c0-0.2,0.1-0.2,0.2-0.2h9.3c4,0,6,1.8,6,5.5s-2,5.5-6,5.5h-6.6L345.1,24.8
		L345.1,24.8z M345.1,8v10h6.6c3.7,0,5.5-1.7,5.5-5s-1.8-5-5.5-5C351.7,8,345.1,8,345.1,8z"/>
</g>
</svg>
