<?xml version="1.0" encoding="utf-8"?>
<!-- Generator: Adobe Illustrator 20.1.0, SVG Export Plug-In . SVG Version: 6.00 Build 0)  -->
<svg version="1.1" id="Layer_1" xmlns="http://www.w3.org/2000/svg" xmlns:xlink="http://www.w3.org/1999/xlink" x="0px" y="0px"
	 viewBox="0 0 960 372" enable-background="new 0 0 960 372" xml:space="preserve">
<g id="Layer_1_1_" display="none">
	<g id="bkg046_1_" display="inline">
		
			<image overflow="visible" enable-background="new    " width="960" height="698" id="bkg046" xlink:href="4239C80BF4413E9B.jpg"  transform="matrix(1 0 0 1 0 51)">
		</image>
	</g>
</g>
<g id="Layer_8">
</g>
<g id="left1">
	<g>
		<polygon fill="#2BB673" points="2.2,49 2.2,147 483.7,940.4 483.7,49 		"/>
		<line fill="none" x1="483.7" y1="1507" x2="795.5" y2="1454.1"/>
	</g>
</g>
<g id="Layer_7">
	<polygon fill="#FBB040" points="484.1,1048.2 511.9,972.1 882.3,59.7 882.3,-2 788.8,-2 	"/>
</g>
<g id="Layer_3">
	<polygon opacity="0.5" fill="#00A79D" enable-background="new    " points="120.4,49.4 484.1,49.4 484.1,1021.5 481.4,913.9 	"/>
</g>
<g id="Layer_5">
	<polygon opacity="0.53" fill="#F15A29" enable-background="new    " points="614.6,-4 498.5,991.7 511.9,971.1 882.8,59.7 
		882.8,-2 	"/>
</g>
<g id="Layer_6">
	<polygon opacity="0.6" fill="#BE1E2D" enable-background="new    " points="714.3,72 959.9,72 959.9,148.1 455.3,1068.7 
		564.3,726.6 	"/>
</g>
<g id="Layer_4">
	<polygon opacity="0.6" fill="#8DC63F" enable-background="new    " points="355.3,189.8 355.3,275.5 499.9,968.7 612.6,278.2 
		612.6,188.5 	"/>
</g>
</svg>
