<?xml version="1.0" encoding="utf-8"?>
<!-- Generator: Adobe Illustrator 20.1.0, SVG Export Plug-In . SVG Version: 6.00 Build 0)  -->
<svg version="1.1" id="Layer_1" xmlns="http://www.w3.org/2000/svg" xmlns:xlink="http://www.w3.org/1999/xlink" x="0px" y="0px"
	 viewBox="0 0 68.5 80" enable-background="new 0 0 68.5 80" xml:space="preserve">
<g>
	<path fill="#BDBDBD" d="M59.6,2.2C52.7-1.9,44.8-1,41,11.8L29,54.9c-3.9,15.4-9.2,24.3-16,24.3c-5,0-9.3-2.9-11.2-6.9
		c1.1,1,2.5,1.7,4.1,1.7c3.3,0,6-2.6,6-5.9s-2.7-6-6-6S0,64.8,0,68.1C0,74.3,5.8,80,13,80c12.4,0,23.6-8.4,30.1-33l3.6-13.3l5.4-19
		C54.9,4.9,56.3,1.2,59.2,3c3.4,2.1,5.4,6.7,4.2,11.5l0.9,0.2C65.6,9.8,63.6,4.6,59.6,2.2z"/>
	<g>
		<path fill="#BDBDBD" d="M45.4,37.5C48.4,31.2,53.8,27,59,27c8.2,0,9.6,6.4,4.8,19.9c-4.6,13.3-6.1,18.7-3.1,18.7
			c3.2,0,5.8-2.2,7.2-5.8l0.7,0.3c-1.4,3.7-4,6.3-8,6.3c-8,0-11.8-4.7-7.2-19.8c2.4-7.8,5.5-14.8,0.5-14.8c-2.4,0-4.9,1.6-7.3,5.3
			c-0.8,1.3-1.9,2.6-3.6,9.1"/>
	</g>
</g>
</svg>
