<?xml version="1.0" encoding="utf-8"?>
<!-- Generator: Adobe Illustrator 20.1.0, SVG Export Plug-In . SVG Version: 6.00 Build 0)  -->
<svg version="1.1" id="Layer_1" xmlns="http://www.w3.org/2000/svg" xmlns:xlink="http://www.w3.org/1999/xlink" x="0px" y="0px"
	 viewBox="0 0 500 500" style="enable-background:new 0 0 500 500;" xml:space="preserve">
<style type="text/css">
	.st0{fill:none;}
	.st1{fill:#00BCDF;stroke:#00ACD3;stroke-miterlimit:10;}
	.st2{fill:none;stroke:#731472;stroke-width:0.5901;stroke-linecap:round;stroke-linejoin:round;}
	.st3{fill:#8B6E4A;}
	.st4{fill:#006C67;}
	.st5{fill:none;stroke:#810053;stroke-width:0.7868;stroke-linecap:round;}
	.st6{fill:#731472;}
	.st7{fill:none;stroke:#731472;stroke-width:0.4724;stroke-linecap:round;stroke-linejoin:round;}
	.st8{fill:none;stroke:#006C67;stroke-width:0.7868;}
	.st9{fill:none;stroke:#731472;stroke-width:0.3144;stroke-linecap:round;}
	.st10{fill:#7C0040;}
	.st11{fill:none;stroke:#7C0040;stroke-width:0.7868;}
</style>
<rect x="-10.2" y="41.7" class="st0" width="479.7" height="403.5"/>
<rect class="st1" width="500" height="500"/>
<g>
	<path class="st2" d="M428.8,142.9c-47.4-51.3-121.7-94.6-231.5-70c0,0-59.2,15.8-92.7,61.3 M458.5,172.9
		c-43.1-41.3-144.9-86.4-211.5-71.1c0,0-65.6,11.4-53.6,66.3c0,0,10.7,31.5,43.7,24.2c0,0,39.7-6.3,26.2-44.9 M138.3,91.6
		c59.2-51.1,152.3-34.7,152.3-34.7c78.5,13.4,145.7,56.7,199.2,149.6"/>
	<path class="st3" d="M147.3,99c0.8,9.1-5.9,17-14.9,17.8s-17-6-17.7-15c-0.8-9.1,5.9-17,14.9-17.8S146.6,89.9,147.3,99"/>
	<path class="st4" d="M484.7,275.5c41.5-39.4,3.9-107.1-84-151.2c-70.3-35.3-154.3-38.4-187.5-6.8c-33,39.9,6.4,82.7,62.7,111
		c45,22.6,105.9,25.3,129.3,6.2c19.3-15.7,4.5-53.7-45-77.2c-28.8-14.5-73.6-16.6-84.5-3.5c-10.9,10.3-1,28.1,22,39.6
		c18.4,9.3,40.4,10.1,49.2,1.8c7-6.6,0.7-18-14.1-25.4c-11.8-5.9-25.9-6.4-31.5-1.1c0,0,14.4-16,63.2,4.5
		c30.9,15.5,44.7,36.2,29.5,53.1c-14.3,16.2-64.3,15.6-102.8-3.7c-48.2-24.2-68.9-61.4-46.1-83c28.5-27,100.4-24.4,160.7,5.9
		c75.4,37.8,107.6,95.9,72,129.6L484.7,275.5"/>
	<path class="st5" d="M860.8,90.9c-59.2-51.1-152.3-34.7-152.3-34.7C630,69.5,562.9,112.8,509.4,205.7"/>
	<path class="st4" d="M514.5,274.8c-41.5-39.4-3.9-107.1,84-151.2c70.3-35.3,154.3-38.4,187.5-6.8c33,39.9-6.4,82.7-62.7,111
		c-45,22.6-105.9,25.3-129.3,6.2c-19.3-15.7-4.5-53.7,45-77.2c28.8-14.5,73.6-16.6,84.5-3.5c10.9,10.3,1,28.1-22,39.6
		c-18.4,9.3-40.4,10.1-49.2,1.8c-7-6.6-0.7-18,14.1-25.4c11.8-5.9,25.9-6.4,31.5-1.1c0,0-14.4-16-63.2,4.5
		c-30.9,15.5-44.7,36.2-29.5,53.1c14.3,16.2,64.3,15.6,102.8-3.7c48.2-24.2,68.9-61.4,46.1-83c-28.5-27-100.4-24.4-160.7,5.9
		c-75.4,37.8-107.6,95.9-72,129.6L514.5,274.8"/>
	<path class="st6" d="M549,314.5c0.1-0.3,0.2-0.6,0.4-0.9c15.7-30.6,42.2-42.7,76.2-43.6c42.5-1.2,85.2,22.7,134.9,38.2
		c-37.9,14.2-70.5,34-103.4,43c-10.1,2.3-19.9,4.2-29.6,4.5C569.6,358.4,549,314.5,549,314.5z M491.6,297.5
		c15.8-0.3,23.3,11.3,24.9,14.2c-2.3,31.7,16.9,58,45,74.6c34.5,20.3,78.2,22.8,113.2,14.7c9-2.1,32.4-9.1,49.9-21
		c32-20.4,53.1-43.6,86.2-71.4c-0.7,0-1.4,0-2,0c29.1-4.5,63.7-15.1,86.8-39.3c0,0-40.1,19.8-105.8,5.4c0,0-74.7-25.1-107.6-24.6
		c0,0,21.9-12.5,109.3,17c0,0-72.2-53.6-138-41.5c0,0,26.1-9.9,9-41.2c0,0,3,16.8-41.3,27.4c0,0-41.3,5.3-73.2,33.2
		c2.7-2.4,19.9-18.6,29.3-52.3c0,0-41.9,3.1-56.5,46c0,0-9.1-15.2-24.3-15.6"/>
	<path class="st7" d="M549,314.5c0.1-0.3,0.2-0.6,0.4-0.9c15.7-30.6,42.2-42.7,76.2-43.6c42.5-1.2,85.2,22.7,134.9,38.2
		c-37.9,14.2-70.5,34-103.4,43c-10.1,2.3-19.9,4.2-29.6,4.5C569.6,358.4,549,314.5,549,314.5z M491.6,297.5
		c15.8-0.3,23.3,11.3,24.9,14.2c-2.3,31.7,16.9,58,45,74.6c34.5,20.3,78.2,22.8,113.2,14.7c9-2.1,32.4-9.1,49.9-21
		c32-20.4,53.1-43.6,86.2-71.4c-0.7,0-1.4,0-2,0c29.1-4.5,63.7-15.1,86.8-39.3c0,0-40.1,19.8-105.8,5.4c0,0-74.7-25.1-107.6-24.6
		c0,0,21.9-12.5,109.3,17c0,0-72.2-53.6-138-41.5c0,0,26.1-9.9,9-41.2c0,0,3,16.8-41.3,27.4c0,0-41.3,5.3-73.2,33.2
		c2.7-2.4,19.9-18.6,29.3-52.3c0,0-41.9,3.1-56.5,46c0,0-9.1-15.2-24.3-15.6"/>
	<path class="st6" d="M480.6,345.7c-38.8,81.3-127,71.4-160,61.8c-9.2-2.7-18.1-6.7-26.7-11.6c-34.9-18.2-66.5-62.8-103-88.5
		c56.2-2.8,47.9,5.7,117.2,39.9s158.2,18.9,158.2,18.9"/>
	<path class="st7" d="M480.6,345.7c-38.8,81.3-127,71.4-160,61.8c-9.2-2.7-18.1-6.7-26.7-11.6c-34.9-18.2-66.5-62.8-103-88.5
		c56.2-2.8,47.9,5.7,117.2,39.9s158.2,18.9,158.2,18.9"/>
	<path class="st6" d="M149.2,295.8c-51-18.8-78.3-55-72.3-101.9c4.8-37.5,38.8-64,76.1-59.2c43.3,8.8,57.4,40.6,53.5,70.6
		c-3,24-27.4,43.4-51.4,41.5c-19.8-1.6-41-23.8-36.7-49.5c2-15.4,19.8-29.7,34-26.9c12.2,1.6,20.9,12.8,19.3,25.1
		c-1.2,9.8-10.2,16.8-20,15.5c-7.8-1-13.3-8.2-12.3-16.1c0.8-6.3,6.5-10.7,12.8-9.9c0,0-17.9-3.2-24.1,21
		c-2.1,16.5,7,30.2,25.8,33.6c18,3.3,39.2-11.9,41.8-32.5c3.3-25.7-14.8-49.2-40.4-52.5c-32-4.1-61.2,18.6-65.3,50.7
		c-5.1,40.2,25.5,69.3,65.4,74.5L149.2,295.8z"/>
	<path class="st7" d="M149.2,295.8c-51-18.8-78.3-55-72.3-101.9c4.8-37.5,38.8-64,76.1-59.2c43.3,8.8,57.4,40.6,53.5,70.6
		c-3,24-27.4,43.4-51.4,41.5c-19.8-1.6-41-23.8-36.7-49.5c2-15.4,19.8-29.7,34-26.9c12.2,1.6,20.9,12.8,19.3,25.1
		c-1.2,9.8-10.2,16.8-20,15.5c-7.8-1-13.3-8.2-12.3-16.1c0.8-6.3,6.5-10.7,12.8-9.9c0,0-17.9-3.2-24.1,21
		c-2.1,16.5,7,30.2,25.8,33.6c18,3.3,39.2-11.9,41.8-32.5c3.3-25.7-14.8-49.2-40.4-52.5c-32-4.1-61.2,18.6-65.3,50.7
		c-5.1,40.2,25.5,69.3,65.4,74.5L149.2,295.8z"/>
	<path class="st3" d="M162.1,196.9c0.4,4.2-2.8,8-7,8.3c-4.2,0.4-7.9-2.8-8.3-7c-0.4-4.2,2.8-8,7-8.3
		C158.1,189.6,161.8,192.7,162.1,196.9"/>
	<path class="st8" d="M30.3,181.9c0,0,7.9,141,175.5,123.7 M54.6,168.6c0,0,1.1,125,103,120"/>
	<path class="st3" d="M57.8,156.1c0.2,1.8-1.2,3.4-3,3.6c-1.8,0.2-3.4-1.2-3.5-3c-0.2-1.8,1.2-3.4,3-3.6
		C56,153,57.6,154.3,57.8,156.1"/>
	<path class="st3" d="M58.6,139.5c0.2,1.8-1.2,3.4-3,3.6c-1.8,0.2-3.4-1.2-3.5-3c-0.2-1.8,1.2-3.4,3-3.6
		C56.8,136.3,58.4,137.7,58.6,139.5"/>
	<path class="st3" d="M31.6,169.8c-0.3,1.8-2,3-3.7,2.8c-1.8-0.3-3-2-2.7-3.8s2-3,3.7-2.8C30.7,166.3,31.9,168,31.6,169.8"/>
	<path class="st3" d="M29.8,152.8c-0.3,1.8-2,3-3.7,2.8c-1.8-0.3-3-2-2.7-3.8s2-3,3.7-2.8C28.9,149.4,30.1,151,29.8,152.8"/>
	<path class="st3" d="M34,133c0.3,4-2.6,7.6-6.6,7.9c-4,0.3-7.5-2.7-7.9-6.7c-0.3-4,2.6-7.6,6.6-7.9C30.1,126,33.7,129,34,133"/>
	<path class="st3" d="M63,120.8c0.3,4-2.6,7.6-6.6,7.9c-4,0.3-7.5-2.7-7.9-6.7c-0.3-4,2.6-7.6,6.6-7.9
		C59.2,113.8,62.7,116.8,63,120.8"/>
	<path class="st9" d="M445.7,139.3"/>
	<path class="st6" d="M375.7,355.3c-9.7-0.3-19.4-2.2-29.6-4.5c-33-9-65.5-28.8-103.4-43c49.7-15.5,92.4-39.4,134.9-38.2
		c34,1,60.5,13,76.2,43.6c0.2,0.3,0.2,0.6,0.4,0.9C454.1,314.1,433.5,358,375.7,355.3z M530.8,234.2l-0.4-0.5
		c-29-27.3-48,4.6-48,4.6c-14.6-42.9-56.5-46-56.5-46c9.4,33.8,26.7,50,29.3,52.3c-31.9-27.9-73.2-33.2-73.2-33.2
		c-44.2-10.6-41.3-27.4-41.3-27.4c-17.1,31.2,9,41.2,9,41.2c-65.7-12.1-138,41.5-138,41.5c87.5-29.5,109.3-17,109.3-17
		c-32.9-0.5-107.6,24.6-107.6,24.6c-65.7,14.4-105.8-5.4-105.8-5.4c23.2,24.2,57.7,34.8,86.8,39.3c-0.7,0-1.4,0-2,0
		c33,27.8,54.1,51,86.2,71.4c17.6,11.9,40.9,19,49.9,21c35,8,78.7,5.6,113.2-14.7c28.1-16.6,47.3-42.9,45-74.6
		c1.6-2.8,9.1-14.4,24.9-14.2c0,0,15.7-5,27.6,10.3"/>
	<path class="st7" d="M375.7,355.3c-9.7-0.3-19.4-2.2-29.6-4.5c-33-9-65.5-28.8-103.4-43c49.7-15.5,92.4-39.4,134.9-38.2
		c34,1,60.5,13,76.2,43.6c0.2,0.3,0.2,0.6,0.4,0.9C454.1,314.1,433.5,358,375.7,355.3z M530.8,234.2l-0.4-0.5
		c-29-27.3-48,4.6-48,4.6c-14.6-42.9-56.5-46-56.5-46c9.4,33.8,26.7,50,29.3,52.3c-31.9-27.9-73.2-33.2-73.2-33.2
		c-44.2-10.6-41.3-27.4-41.3-27.4c-17.1,31.2,9,41.2,9,41.2c-65.7-12.1-138,41.5-138,41.5c87.5-29.5,109.3-17,109.3-17
		c-32.9-0.5-107.6,24.6-107.6,24.6c-65.7,14.4-105.8-5.4-105.8-5.4c23.2,24.2,57.7,34.8,86.8,39.3c-0.7,0-1.4,0-2,0
		c33,27.8,54.1,51,86.2,71.4c17.6,11.9,40.9,19,49.9,21c35,8,78.7,5.6,113.2-14.7c28.1-16.6,47.3-42.9,45-74.6
		c1.6-2.8,9.1-14.4,24.9-14.2c0,0,15.7-5,27.6,10.3"/>
	<path class="st3" d="M454.1,314.1c-0.1-0.3-0.2-0.6-0.4-0.9c-15.7-30.6-42.2-42.7-76.2-43.6c-42.5-1.2-85.2,22.7-134.9,38.2
		c37.9,14.2,70.5,34,103.4,43c10.1,2.3,19.9,4.2,29.6,4.5C433.5,358,454.1,314.1,454.1,314.1 M374.8,370.1
		c-9.6-0.3-19.2-1.9-28.7-4.5c-38.3-8.8-80.1-44.1-122-59.8c53.7-16.8,107.2-49.5,153.2-48.2c37.1,1.1,63.3,22.7,76.8,56.6
		C439.9,344.7,409.2,371.1,374.8,370.1z"/>
	<path class="st4" d="M364.6,173.3c0.1,0,0.1,0.1,0.2,0.1c30.8,15.5,44.5,36.1,29.3,53c-14.3,16.2-64.3,15.6-102.8-3.7
		c-48.2-24.2-68.9-61.4-46.1-83l-32-22.2c-33,39.9,6.4,82.7,62.7,111c45,22.6,105.9,25.3,129.3,6.2c19.3-15.7,4.5-53.7-45-77.2"/>
	<path class="st10" d="M500.3,180l-21.6,44.3c-11.3-38-40-48.8-40-48.8c-1.3,45,28.4,76.3,28.4,76.3c-26.1,2.2-75.4-35.5-75.4-35.5
		c18.7,39.6,105.3,52.1,105.3,52.1l3.4,1.1l3.5-1.1c0,0,86.6-12.5,105.3-52.1c0,0-49.3,37.8-75.4,35.5c0,0,29.7-31.3,28.4-76.3
		c0,0-28.7,10.8-40,48.8L500.7,180"/>
	<path class="st3" d="M395,214c0.3,3-2,5.7-5,5.9c-3,0.3-5.7-2-5.9-5c-0.3-3,2-5.7,5-5.9C392.1,208.7,394.8,211,395,214"/>
	<path class="st3" d="M505.3,175.6c0.2,2.7-1.8,5.1-4.5,5.3s-5.1-1.8-5.3-4.5c-0.2-2.7,1.8-5.1,4.5-5.3
		C502.7,170.9,505.1,172.9,505.3,175.6"/>
	<path class="st3" d="M441.4,172.3c0.2,2.4-1.6,4.5-4,4.8c-2.4,0.2-4.5-1.6-4.7-4s1.6-4.5,4-4.7
		C439.1,168.1,441.2,169.9,441.4,172.3"/>
	<polygon class="st10" points="500,195.5 490.6,215.3 500.4,233.4 510.8,215.3 	"/>
	<polygon class="st11" points="500,195.5 490.6,215.3 500.4,233.4 510.8,215.3 	"/>
	<path class="st3" d="M510.9,252.9c0.1,5.8-4.5,10.6-10.3,10.7s-10.6-4.6-10.7-10.4c-0.1-5.8,4.5-10.6,10.3-10.7
		C506.1,242.4,510.9,247,510.9,252.9"/>
	<path class="st3" d="M499.8,266.7c0,0-15.7,44.8-15.7,45.1c0.1,9.1,7.6,16.4,16.7,16.3s16.3-7.6,16.2-16.8l0,0L499.8,266.7"/>
	<path class="st3" d="M271.7,143.3c-0.5-5.4-5.5-9.5-11.2-9c-5.7,0.5-10,5.3-9.5,10.7s5.5,9.5,11.2,9
		C267.9,153.6,272.2,148.8,271.7,143.3"/>
	<path class="st3" d="M116.3,129.8c-0.5-5.5-5.5-9.5-11.2-9s-10,5.3-9.5,10.7s5.5,9.5,11.2,9C112.5,140.1,116.7,135.3,116.3,129.8"
		/>
</g>
</svg>
