<?xml version="1.0" encoding="utf-8"?>
<!-- Generator: Adobe Illustrator 20.1.0, SVG Export Plug-In . SVG Version: 6.00 Build 0)  -->
<svg version="1.1" id="Layer_1" xmlns="http://www.w3.org/2000/svg" xmlns:xlink="http://www.w3.org/1999/xlink" x="0px" y="0px"
	 viewBox="0 0 500 500" style="enable-background:new 0 0 500 500;" xml:space="preserve">
<style type="text/css">
	.st0{fill:#231F20;}
	.st1{fill:#006838;stroke:#006838;stroke-width:3.4359;stroke-linecap:round;stroke-linejoin:round;stroke-miterlimit:10;}
	.st2{fill:#1A2F24;}
	.st3{fill:#FFFFFF;stroke:#FFFFFF;stroke-width:1.7179;stroke-miterlimit:10;}
	.st4{fill:#006838;}
</style>
<rect class="st0" width="500" height="500"/>
<path class="st1" d="M166.9,62.4c-3.3-1.8-3-3.9-3-7c3.6-0.3,2.7-3.9,2.4-6.1c0-0.3-0.9-0.9-0.9-1.5c0-0.3,1.2-0.9,1.2-1.2
	c0-0.6-0.9-1.8-0.6-2.4c0.6-1.8,2.7-3.3,3.3-5.4c0.6-2.7,0.6-4.2-1.5-6.4c1.2-1.2,2.4-1.5,3.3-2.7c0.3-0.6,1.2-2.7,1.5-3.3
	c0.9-2.1,0-3.3,0.3-5.1c0.3-1.8,1.5-1.8,2.1-3.3c0.3-0.9-1.2-2.7-0.9-3.9c0.3-1.5,2.4-1.8,2.7-3c0.3-1.8-1.5-0.9-1.8-2.4
	c-0.3-2.1,1.8-3.3,1.8-5.1l0.6,0.6c3.6,2.1,3.6,5.1,2.7,8.2c1.2,0.6,2.1,0.6,2.7,1.8c0.6,0.9-0.6,2.7-0.3,3.6c0.3,3,2.7,2.4,3.9,4.8
	c0.9,2.1-0.6,1.5-1.2,3.6c-0.9,2.4,0.9,5.4,2.1,7.6c0.6,0.9,1.2,1.8,1.5,3c0.3,0.9-0.3,2.1,0,2.7c0.3,0.9,0.9,1.2,1.2,2.4
	c0,0.6-0.6,1.8-0.3,2.4c0.3,1.5,0.9,1.8,1.2,3c0.3,1.2,0,2.1,0.3,3.3c0.3,0.9,1.5,1.5,1.8,2.4c0,0.3,0,1.2,0,1.2
	c0.3,0.6,0.3,1.5,0.6,1.8c0.6,1.5,3.6,3.3,0.9,4.8"/>
<path class="st1" d="M175.1,61.5c-0.3-0.3-0.3-0.6-0.3-1.2c2.1,0,2.1-0.9,1.5-2.4c-0.3-0.9-2.4-2.7-2.7-3.6
	c-0.3-0.6-0.9-1.5-1.5-1.8c0.6,0,0.9-0.6,1.5-0.6c-1.2-1.5-1.5-2.4-2.1-3.6c-0.3-0.6,0-1.5-0.3-2.1c-0.9-1.8-3.9-2.4-3.9-3.9
	c4.5-0.6-2.7-10,0.3-11.5c0-1.8-0.6-3.9-1.2-4.8c-0.9-1.8-2.1,0.3-2.1-2.4c0-1.2,1.8-0.6,1.5-2.1c-0.3,0-0.9,0-1.5,0
	c1.5-2.7-0.6-3.6-2.7-4.8c3.9-0.9,0.3-4.8-0.9-6.4c0.3-2.1-2.4-4.2-3.3-6.4l-1.8,1.2c0,2.4-2.7,3.3-3,5.4c0.3,0,0.9,0,1.5,0
	c0.9,3-2.1,3.9-4.2,4.8c5.1,3.6-5.7,6.1,0.3,9.4c-1.2,0.6-1.5,1.5-2.1,2.4c-0.3,0.6-0.3,2.4-0.6,3c0,0.3-1.2,1.2-1.5,1.8
	c0,0.3,0,2.1-0.3,2.7c-0.6,2.1-2.4,2.1-3.3,3.9c-0.9,1.8,0.3,4.8,0,7.3c-0.3,2.4,0.3,5.7-3,5.7c0.6,0.6,0.9,1.8,1.8,2.4
	c-1.2,0.6-5.4,0.6-6.1,1.5c-0.6,0.9,0.3,0.9,0.3,1.5c0,2.1,2.1,3.9,3.6,5.1c0,0.3-0.3,0.3-0.3,0.6"/>
<path class="st2" d="M177.5,71.2c-0.3-0.3-0.3-0.6-0.3-0.9c2.1,0,1.8-0.9,1.5-2.1c-0.3-0.9-2.1-2.4-2.7-3.3
	c-0.3-0.6-0.9-1.5-1.5-1.8c0.6,0,0.9-0.3,1.5-0.6c-1.2-1.5-1.5-2.1-2.1-3.3c-0.3-0.6,0-1.5-0.3-2.1c-0.9-1.8-3.6-2.1-3.9-3.6
	c4.2-0.6-2.4-9.7,0.3-10.9c0-1.8-0.6-3.6-1.2-4.8c-0.9-1.8-2.1,0.3-1.8-2.1c0-1.2,1.8-0.6,1.5-2.1c-0.3,0-0.9,0-1.2,0
	c1.2-2.7-0.6-3.3-2.7-4.5c3.6-0.9,0.3-4.5-0.9-6.1c0.3-2.1-2.4-3.9-3-6.1l-1.8,1.2c0,2.1-2.7,3-3,5.1c0.3,0,0.9,0,1.5,0
	c0.9,2.7-1.8,3.6-3.9,4.8c4.8,3.3-5.4,5.7,0.3,8.8c-0.9,0.6-1.5,1.5-1.8,2.4c-0.3,0.6-0.3,2.1-0.6,3c0,0.3-1.2,1.2-1.2,1.8
	c0,0.3,0,2.1-0.3,2.7c-0.6,2.1-2.1,1.8-3,3.6c-0.9,1.5,0.3,4.8,0,6.7c-0.3,2.1,0.3,5.4-2.7,5.4c0.6,0.3,0.9,1.8,1.5,2.1
	c-1.2,0.6-5.1,0.3-5.7,1.2c-0.6,0.9,0.3,0.9,0.3,1.5c0,1.8,2.1,3.6,3.3,4.8c0,0.3-0.3,0.3-0.3,0.6"/>
<path class="st1" d="M255.6,430c0.3-1.8-0.9-6.1,0.9-7c-0.9-1.2-1.5-2.7-0.3-3.9c-0.6,0-3.3-3-3.3-3.9c0-0.6,1.8-1.2,2.1-1.8
	c0.6-0.9,0.6-2.1,1.2-3c-1.2-1.5-7.3-3.6-4.2-6.4c-2.7-0.6-1.2-4.5-1.8-6.4c-0.9-2.4-3.6-6.1-1.2-8.8c-1.2-0.9-2.7-2.1-3.9-2.7
	c-1.8-1.2-2.1,0.3-2.4-2.4c0-2.1,4.5-6.7,0.3-6.7c-0.3-1.2-0.3-2.7-0.3-3.6c0,0-0.9-1.5-0.9-1.8s0.9-0.6,0.6-1.2
	c-0.3-0.6-1.2-0.9-1.2-1.2c-1.2-2.7-5.4-5.1-4.8-8.8l-0.6,0.3c-0.9,0.9-2.4,2.1-2.7,3.6c-0.3,1.2,0.6,2.1,0,3.3
	c-0.3,1.2-1.8,1.2-2.1,2.4c0,0.6,0.3,1.2,0.3,1.5s0.9,0.6,0.9,1.5c-0.3,1.5-3.3,2.7-4.5,3.3c0.9,1.2,1.2,5.7,0.9,7
	c-0.6,1.8-2.7,2.4-3.3,3.9c0,0-0.3,3-0.3,3.3c-0.3,2.4-0.3,5.1-1.2,7.6c-0.6,1.5-2.4,2.7-1.5,4.2c-1.2,1.2-3.6,2.7-1.2,4.2
	c-1.5,0.9-3.3,3.3-1.5,4.8c-1.8,1.8-1.2,3.6-1.5,5.7c-0.3,2.4-1.5,4.5-3,6.4c0.3,0.3,0.6,0.6,0.9,0.6c-3,2.1-1.2,8.2-5.1,9.1"/>
<path class="st2" d="M256.8,439.9c-0.3-0.3-0.3-0.3-0.3-0.9c1.5,0,1.5-0.6,1.2-1.5c-0.3-0.6-1.5-1.8-2.1-2.4
	c-0.3-0.6-0.6-0.9-1.2-1.2c0.3,0,0.6-0.3,1.2-0.3c-0.9-1.2-1.2-1.5-1.5-2.4c-0.3-0.3,0-0.9-0.3-1.5c-0.6-1.2-2.7-1.5-2.7-2.7
	c3.3-0.3-1.8-7,0.3-8.2c0-1.2-0.3-2.7-0.9-3.6c-0.6-1.2-1.5,0.3-1.5-1.8c0-0.9,1.2-0.6,1.2-1.5c-0.3,0-0.6,0-0.9,0
	c0.9-2.1-0.6-2.4-1.8-3.3c2.7-0.6,0-3.3-0.6-4.2c0.3-1.5-1.8-3-2.4-4.5l-1.5,0.9c0,1.8-1.8,2.4-2.1,3.9c0.3,0,0.6,0,0.9,0
	c0.6,2.1-1.5,2.7-3,3.6c3.6,2.4-3.9,4.2,0.3,6.7c-0.9,0.6-1.2,1.2-1.5,1.8c-0.3,0.3-0.3,1.5-0.3,2.1c0,0.3-0.9,0.9-0.9,1.2
	s0,1.5-0.3,1.8c-0.3,1.5-1.5,1.5-2.1,2.7s0.3,3.6,0,5.1c-0.3,1.5,0.3,3.9-2.1,4.2c0.3,0.3,0.6,1.2,1.2,1.5c-0.9,0.3-3.9,0.3-4.2,0.9
	c-0.3,0.6,0.3,0.6,0.3,1.2c0,1.5,1.5,2.7,2.4,3.6c0,0.3-0.3,0.3-0.3,0.6"/>
<path class="st1" d="M35.9,318.6c-1.2-4.8,3.3-8.5,0-12.1c4.2-1.2,1.5-5.4,2.7-8.2c0.6-1.5,2.4-2.1,3-3.6c0.6-1.2-0.3-3.6,0.3-4.8
	c1.8-3.3,5.1-1.2,4.8-6.4c0-1.2,0-2.4-0.3-3.6c-0.3-0.9-3-1.8-2.7-3.3c0.6-1.8,3.6-1.2,4.5-2.7c0.6-0.9-0.3-2.7,0-3.6
	c0.9-3.3,3.3-6.1,4.2-9.1c0.9-2.4,0.9-6.4,2.1-8.8c1.5-2.4,4.5-4.2,6.1-7.3c0.3,2.7,2.7,3.9,3.6,6.4c0.6,1.2-0.6,2.1-0.3,3.3
	c0.3,1.2,1.5,1.2,1.5,3.3c0,1.8-1.2,3-0.9,4.8c0.3,1.2,1.5,1.5,1.8,2.7c0.3,1.5,0,3,0.3,4.5c0.3,2.4,1.2,6.1,2.4,8.2
	c2.1,3.3,4.2,5.1,5.7,8.8c0.9,2.1,0.6,4.8,0.9,7c1.2,5.1,0.3,11.5,3.6,16.6c-3.3,2.7-0.3,7,2.1,8.8"/>
<path class="st2" d="M151.5,276.3c-0.3-0.6-0.6-0.9-0.6-1.8c3.6,0,3.3-1.5,2.7-3.9c-0.3-1.5-3.9-4.5-4.5-6.1c-0.6-1.2-1.5-2.4-2.7-3
	c0.9,0,1.8-0.6,2.7-0.9c-1.8-2.4-2.7-3.9-3.6-6.1c-0.3-0.9-0.3-2.4-0.6-3.6c-1.5-3-6.4-3.9-6.7-6.4c7.6-0.9-4.5-16.6,0.6-19.1
	c-0.3-3-0.9-6.4-1.8-8.2c-1.5-3-3.6,0.6-3.3-3.9c0-2.1,3-1.2,2.4-3.6c-0.6,0-1.5-0.3-2.4-0.3c2.4-4.8-1.2-6.1-4.5-8.2
	c6.4-1.2,0.3-7.9-1.5-10.3c0.6-3.6-3.9-7-5.4-10.6l-3.3,1.8c0,3.9-4.5,5.4-5.1,9.1c0.6,0,1.8,0.3,2.4,0c1.5,4.8-3.3,6.4-7,8.2
	c8.5,6.1-9.7,10.3,0.6,15.7c-1.8,1.2-2.7,2.7-3.3,4.2c-0.6,1.2-0.6,3.9-0.9,5.1c0,0.3-2.1,2.1-2.4,3c-0.3,0.3-0.3,3.6-0.6,4.5
	c-0.9,3.6-3.9,3.3-5.4,6.4c-1.2,2.7,0.3,8.2-0.3,11.8c-0.6,3.9,0.6,9.7-5.1,9.7c0.9,0.9,1.5,3,2.7,3.9c-2.1,0.9-9.1,0.6-10,2.4
	c-0.9,1.5,0.6,1.5,0.6,2.7c0,3.3,3.6,6.7,6.1,8.8c-0.3,0.3-0.3,0.6-0.6,1.2"/>
<path class="st1" d="M384.4,302c-0.6-0.3-0.9-0.6-1.5-0.9c0.3-0.6,0.6-1.5,0.6-2.1c1.2,0,2.1-0.3,3-0.3c-1.2-0.9-3.9-0.9-3.3-3.3
	c0.6-1.2,2.1-0.9,2.1-2.4c-0.9-0.6-0.6-1.5-0.3-2.1c-0.3,0-0.3,0-0.6,0c-0.3-0.6-0.9-1.2-0.6-1.8c0.3-1.2,2.4-0.9,2.7-2.1
	c0.6-1.2-0.6-0.6-0.9-1.8c-0.6-2.1,1.5-2.4,2.1-3.3c0.9-1.2,0-2.7,0.3-4.2c0.3-1.8,0.9-3.3,3-3.9c-2.1-2.4-1.8-2.1-0.3-4.8
	c0.3-0.3,0-0.9,0.3-1.2c0.3-0.6,0.9-0.9,1.2-1.5c-0.3,0-0.6-0.3-0.9-0.3c0.3-0.6,0.9-0.9,1.5-1.5c-0.3,0-0.3,0-0.6,0.3
	c1.2-0.6,0.9-2.1,0.9-3c-0.3-2.4-0.3-1.8,2.1-3.3c-1.5-1.5,1.8-5.1-0.9-5.7c1.5-0.6,3.3-2.1,3.6-3.3l1.5-0.6c0.3,1.2,1.5,1.8,2.1,3
	c-2.1,0-0.6,1.5,0.3,2.4c-1.5,0.9,0,1.8,0.3,3c0,0.3,0,1.2,0,1.2c0.3,0.6,0.9,0.9,1.5,1.5c0.3,0.3,0,0.9,0.3,1.2
	c0.3,0.6,1.2,0.3,1.2,0.9c0,0.3-0.9,0.6-0.6,0.9c0.3,0.6,1.2,0.9,1.5,1.8c-0.3,0-0.3,0.3-0.6,0.3c0.6,1.2,1.2,1.8,1.2,3
	c0,0.3-0.6,1.2-0.6,1.8c0.9,0.9,1.5,2.1,1.5,3c0.3,0.9,0,1.8,0.9,2.7c-1.8,1.2,1.5,1.8,0.3,3.3c1.5,1.8,1.2,4.2,3,5.7
	c-0.3,0.9,0,1.2-0.3,1.8c0.6,0.6,1.2,0.9,1.5,1.5c0.3,0.6-0.6,0.6-0.6,0.9c0,0.6,1.2,1.2,1.2,1.8c0,0.3-0.3,1.2-0.3,1.2
	c0.3,1.2,2.1,3.3,1.5,4.8c1.8,1.8,0.9,3.6,2.4,5.7"/>
<path class="st1" d="M222.6,68.2c-0.3-0.3-0.3-0.6-0.3-0.9c2.1,0,1.8-0.9,1.5-2.1c-0.3-0.9-2.1-2.4-2.7-3.3
	c-0.3-0.6-0.9-1.5-1.5-1.8c0.6,0,0.9-0.3,1.5-0.6c-1.2-1.5-1.5-2.1-2.1-3.3c-0.3-0.6,0-1.5-0.3-2.1c-0.9-1.5-3.6-2.1-3.9-3.6
	c4.2-0.6-2.4-9.4,0.3-10.9c0-1.8-0.6-3.6-1.2-4.8c-0.9-1.8-2.1,0.3-1.8-2.1c0-1.2,1.8-0.6,1.5-2.1c-0.3,0-0.9,0-1.2,0
	c1.2-2.7-0.6-3.3-2.7-4.5c3.6-0.9,0.3-4.5-0.9-5.7c0.3-2.1-2.4-3.9-3-6.1l-1.8,1.2c0,2.1-2.7,3-3,5.1c0.3,0,0.9,0,1.5,0
	c0.9,2.7-1.8,3.6-3.9,4.5c4.8,3.3-5.4,5.7,0.3,8.8c-0.9,0.6-1.5,1.5-1.8,2.4c-0.3,0.6-0.3,2.1-0.6,3c0,0.3-1.2,1.2-1.2,1.8
	c0,0.3,0,2.1-0.3,2.7c-0.6,2.1-2.1,1.8-3,3.6c-0.9,1.5,0.3,4.5,0,6.7c-0.3,2.1,0.3,5.4-2.7,5.4c0.6,0.3,0.9,1.8,1.5,2.1
	c-1.2,0.6-5.1,0.3-5.7,1.2c-0.6,0.9,0.3,0.9,0.3,1.5c0,1.8,2.1,3.6,3.3,4.8c0,0.3-0.3,0.3-0.3,0.6"/>
<path class="st1" d="M167.8,204.6c-0.9-0.6-1.5-0.9-2.4-1.8c0.6-0.9,0.6-2.1,0.9-3.3c1.8,0.3,3.3-0.6,5.1-0.6
	c-2.1-1.5-6.4-1.8-5.1-5.4c0.9-2.1,3.6-1.5,3.6-3.9c-1.5-1.2-0.9-2.4-0.3-3.6c-0.3,0-0.6,0-0.9,0c-0.6-1.2-1.2-1.8-0.9-3
	c0.6-1.8,3.6-1.8,4.5-3.3c0.9-2.1-0.9-1.2-1.5-2.7c-0.9-3.6,2.4-3.6,3.6-5.4c1.2-1.8,0-4.5,0.3-7c0.6-3,1.5-5.4,4.8-6.1
	c-3.3-3.6-3-3.3-0.3-7.9c0.3-0.3,0-1.2,0.3-1.8c0.6-0.9,1.5-1.2,1.8-2.4c-0.6,0-0.9-0.3-1.2-0.3c0.6-0.9,1.8-1.5,2.4-2.1
	c-0.3,0-0.6,0.3-0.9,0.3c1.8-0.9,1.5-3.3,1.5-5.1c-0.3-3.6-0.6-3,3.3-5.1c-2.4-2.1,2.7-8.2-1.5-9.1c2.4-0.9,5.1-3.3,5.7-5.4l2.1-0.6
	c0.3,2.1,2.7,2.7,3.3,4.8c-3.3,0.3-1.2,2.7,0.3,3.9c-2.4,1.5,0,2.7,0.6,4.8c0,0.3,0,1.8,0,1.8c0.6,0.9,1.5,1.2,2.1,2.1
	c0.6,0.6,0,1.2,0.3,1.8c0.6,0.9,1.8,0.6,2.1,1.5c0.3,0.6-1.5,0.9-1.2,1.5c0.3,1.2,1.8,1.8,2.1,2.7c-0.3,0.3-0.6,0.3-0.9,0.6
	c0.9,2.1,1.8,3,1.8,4.5c0,0.6-0.9,1.8-0.9,2.7c1.2,1.5,2.1,3.6,2.7,5.1c0.3,1.5,0,2.7,1.2,4.2c-3,2.1,2.4,3,0.3,5.1
	c2.4,2.7,1.8,7,5.1,9.4c-0.3,1.2,0,2.1-0.6,3c0.9,0.9,1.8,1.5,2.4,2.7c0.3,0.9-0.9,0.9-0.9,1.5c0.3,1.2,1.8,1.8,2.1,3
	c0.3,0.6-0.6,1.8-0.6,1.8c0.6,1.8,3.3,5.4,2.4,7.9c3,2.7,1.2,6.1,3.9,9.4"/>
<path class="st1" d="M263.1,141.4c-0.6-3.3,2.1-5.7,0-8.5c3-0.9,1.2-3.6,1.8-5.7c0.3-1.2,1.5-1.5,2.1-2.4c0.3-0.9-0.3-2.4,0.3-3.3
	c1.2-2.4,3.3-0.9,3.3-4.5c0-0.9,0-1.8,0-2.4c-0.3-0.6-2.1-1.2-1.8-2.1c0.3-1.2,2.4-0.9,3-1.8c0.3-0.6-0.3-1.8,0-2.4
	c0.6-2.1,2.1-3.9,3-6.4c0.6-1.8,0.6-4.5,1.5-6.1c0.9-1.8,3-3,3.9-4.8c0,1.8,1.8,2.7,2.4,4.2c0.3,0.9-0.3,1.5-0.3,2.1
	c0.3,0.9,0.9,0.9,1.2,2.4c0,1.2-0.9,2.1-0.6,3.3c0,0.9,0.9,1.2,1.2,1.8c0.3,0.9,0,2.1,0.3,3c0.3,1.5,0.9,4.2,1.8,5.4
	c1.5,2.1,3,3.6,3.9,6.1c0.6,1.5,0.3,3.3,0.6,4.8c0.9,3.6,0.3,7.9,2.4,11.2c-2.4,1.8-0.3,4.8,1.5,6.1"/>
<path class="st1" d="M285.2,68.5c-0.9-3.6,2.4-6.4,0-9.1c3-0.9,1.2-3.9,1.8-6.1c0.3-1.2,1.8-1.5,2.1-2.7c0.3-0.9-0.3-2.7,0.3-3.6
	c1.5-2.4,3.6-0.9,3.6-4.8c0-0.9,0-1.8-0.3-2.7c-0.3-0.6-2.1-1.2-1.8-2.4c0.3-1.5,2.7-0.9,3.3-2.1c0.3-0.6-0.3-2.1,0-2.7
	c0.6-2.4,2.4-4.5,3.3-6.7c0.6-1.8,0.6-4.8,1.5-6.4c1.2-1.8,3.3-3,4.5-5.4c0,1.8,2.1,3,2.7,4.5c0.3,0.9-0.3,1.5-0.3,2.4
	c0.3,0.9,1.2,0.9,1.2,2.4c0,1.2-0.9,2.4-0.6,3.6c0,0.9,1.2,1.2,1.2,1.8c0.3,1.2,0,2.1,0.3,3.3c0.3,1.8,0.9,4.5,1.8,6.1
	c1.5,2.4,3,3.9,4.2,6.4c0.6,1.5,0.3,3.6,0.9,5.1c0.9,3.9,0.3,8.5,2.7,12.4c-2.7,1.8-0.3,5.1,1.5,6.7"/>
<g>
	<path class="st3" d="M208.1,225.5c0,2.4-0.6,4.2-1.8,6.1c-1.2,1.5-3,2.7-5.1,3c-5.4,0.9-12.7-27.5-21.2-85.3
		c-1.2-8.5-1.8-13.3-2.1-14.8c-2.7,20.9-5.1,38.7-6.7,53.8s-2.1,29.9-2.1,44.5c0,1.5-0.6,3.3-2.1,4.8s-3,2.4-4.5,2.7
		c-5.7,0.9-8.5-4.5-8.5-16.3c0-7.3-3.3-33-9.7-77.1c-6.4-44.2-10.3-68.4-12.1-72.6c1.8-3.9,4.8-6.1,8.2-6.7c3.6-0.6,6.7,7,9.7,22.4
		c3,15.4,5.4,34.5,7.6,56.9c2.1,22.4,3,33.6,3.3,33.9c0.3-2.1,0.9-8.8,2.4-19.7c1.2-10.9,2.4-19.7,3-26.6c2.1-20.3,3.3-34.5,3.3-43
		v-4.2c0-1.5,0.6-3.3,1.8-5.1c1.2-1.8,2.7-2.7,4.2-3c5.4-0.9,8.2,1.2,8.2,5.4v3.3c0,14.8,3.3,35.7,10.3,62.6
		c3,11.8,5.1,21.5,6.4,28.4c0.9-8.5,2.4-20.9,4.5-37.2c4.8-35.4,7.3-62.6,7.3-81.4c0-3.3,0.6-5.7,1.8-7.6c1.2-1.8,3-2.7,5.4-3
		c2.4-0.3,4.5,0,6.1,0.9c1.5,0.9,2.1,2.4,2.1,4.2c0,1.8-0.9,3.6-2.4,5.4c0,22.4-3,49.6-8.8,82.3
		C210.8,175.5,208.1,203.1,208.1,225.5z"/>
	<path class="st3" d="M268.9,187.3c-3.6,0.6-5.4-0.6-5.4-3.6V161c-1.8-0.9-4.5-1.5-9.1-1.5c-4.2-0.3-8.2-0.3-11.5,0
		c-1.2,2.1-2.1,5.4-3,9.4c-0.9,3.9-1.5,7.9-2.4,12.1c-0.9,3.9-1.8,7.3-3.3,9.7c-4.5,0.6-7.3-0.3-7.9-2.4c1.5-2.4,4.2-14.5,7.9-36
		c3.6-21.5,6.7-38.4,8.8-50.5c2.4-12.1,4.8-22.4,7.6-30.9c2.7-8.5,5.1-12.7,7.9-13.3c2.4-0.3,4.2,0,5.7,0.6c0,4.2,1.2,15.1,3.3,33.3
		c2.4,17.8,3.3,29.6,3.3,35.1c0,5.4,0.6,14.2,1.8,26.6s1.8,21.5,1.8,27.8C274.6,184.3,272.8,186.7,268.9,187.3z M261.6,131.4
		c-0.9-10.3-1.8-20-2.7-29c-0.9-9.1-1.2-14.8-1.2-16.6c0-1.8,0-3,0-3.3c-1.8,2.1-4.5,13-7.9,32.4c-3.3,19.4-5.4,31.8-5.4,36.9
		c4.8,0.6,9.1,0.6,12.4,0.3c3.3-0.6,5.7-0.9,7-1.5C263.1,147.7,262.5,141.4,261.6,131.4z"/>
	<path class="st3" d="M299.4,139.8l0.3,6.4v0.9c0.6,11.8,0.9,29.6,0.9,53.5v5.1l15.7-2.1c3,1.5,4.5,3.3,4.5,5.1
		c0,1.8-0.6,3.3-1.5,4.5c-0.9,1.2-2.1,2.1-3,2.1c-1.2,0.3-2.4,0-3.6-0.3c-1.2,0.3-2.4,0.6-3.9,0.9l-6.7,0.6c-1.5,1.8-3.3,3-5.4,3.3
		c-2.1,0.3-3.9,0-5.4-1.2s-2.1-2.4-2.1-4.2l1.2-9.1c0-15.4-0.6-38.7-2.1-69.9s-2.1-54.1-2.1-69.9c0-1.2,0.6-2.4,1.5-3.3
		c0.9-0.9,2.4-1.5,3.9-1.8c1.5-0.3,3,0.3,4.2,1.2c1.2,0.9,1.8,2.4,1.8,3.9L299.4,139.8z"/>
	<path class="st3" d="M323.9,107.2l0.3-37.8c0-6.7-0.6-14.2-1.5-22.7c-0.9-8.5-1.5-14.2-1.5-16.9c0-2.7,0.6-4.8,1.5-6.1
		c1.2-1.5,2.4-2.1,3.9-2.4c4.8-0.6,7.6,4.2,7.6,15.1c0,0-0.3,13.6-0.9,40.8c0.6-1.2,1.8-4.5,3.9-10.3c2.1-5.7,4.2-11.5,6.4-16.9
		c2.4-5.7,4.8-11.5,7.3-17.8c5.7-13.9,10-20.9,12.4-21.5c1.5-0.3,2.7,0,3.9,0.9c1.2,0.9,1.8,1.8,1.8,3.3s-3.6,10.3-10.9,26.3
		c-7.3,16-11.5,26.3-12.4,30.6v3.6c1.8,4.5,7.3,20,16,46c8.8,26,13,39.9,13,41.4s-0.6,3-1.8,4.5c-1.2,1.2-2.7,2.1-4.5,2.1h-4.8
		c-3.3-18.5-6.7-34.2-10.3-47.8c-3.6-13.6-8.2-26-14.2-38.1c-3.9,7.6-6.1,12.1-6.4,13.6c-0.3,3.9-0.6,7.3-0.6,9.7l1.8,36.6v16.3
		c0,7-2.4,10.9-7,11.5c-3.9,0.6-5.7-2.4-5.7-9.1c0-6.7,0.3-16,1.2-28.1C323.6,122,323.9,112.9,323.9,107.2z"/>
</g>
<path class="st1" d="M30.5,49.7c-0.9-3.3,2.1-5.7,0-8.5c3-0.9,1.2-3.6,1.8-5.7c0.3-1.2,1.5-1.5,2.1-2.4c0.3-0.9-0.3-2.4,0.3-3.3
	c1.2-2.4,3.3-0.9,3.3-4.5c0-0.9,0-1.8,0-2.4c-0.3-0.6-2.1-1.2-1.8-2.1c0.3-1.2,2.4-0.9,3-1.8c0.3-0.6-0.3-1.8,0-2.4
	c0.6-2.1,2.1-3.9,3-6.4c0.6-1.8,0.6-4.5,1.5-6.1c0.9-1.8,3-3,3.9-4.8c0,1.8,1.8,2.7,2.4,4.2c0.3,0.9-0.3,1.5-0.3,2.1
	c0.3,0.9,0.9,0.9,1.2,2.4c0,1.2-0.9,2.1-0.6,3.3c0,0.9,0.9,1.2,1.2,1.8c0.3,0.9,0,2.1,0.3,3c0.3,1.5,0.9,3.9,1.8,5.4
	c1.5,2.1,3,3.6,3.9,6.1c0.6,1.5,0.3,3.3,0.6,4.8c0.9,3.6,0.3,7.9,2.4,11.2c-2.4,1.8-0.3,4.8,1.5,6.1"/>
<path class="st1" d="M47.1,101.4c-1.8-1.5-0.3-3.3,0.6-5.1c1.5-3,1.5-1.8,4.5-3c-0.9-0.9-2.1-1.2-3.3-1.8c0.9-0.9,1.2-3.3,1.8-4.8
	c0.9-2.4,1.5-3,3.9-3.9c-5.1-1.8-3.9-4.2-1.8-7.6c0.9-1.2,0.6-3,1.5-4.5c1.5-2.7,2.7-2.1,2.4-5.7c0-1.5-0.9-1.2-0.3-3
	c0.6-1.2,2.4-1.8,3.3-2.7c0.9-1.2,1.2-3.9,2.1-5.4c0.6-1.5,1.5-1.5,1.8-3.3c0-0.9-0.6-2.1-0.3-3.3c0.3-1.5,1.8-2.1,2.4-3.6
	c0.3-1.2-0.9-2.7,0-4.2c0.6-1.2,1.5-2.1,1.8-3c0.6-1.2-0.6-1.8,1.2-2.7c-1.8-2.7-0.6-5.7,0.9-8.2c0.6-1.5,2.4-2.7,2.1-4.5
	c0-1.5-1.5-2.1-1.5-3.6c4.5-0.9,2.7-1.2,3-4.2c0-1.5,0.9-1.8,0.9-3.6c0-1.8-1.8-2.7-1.8-3.9c0-2.1,4.2-3,5.7-4.2V0.7
	c1.5,2.1,3,3.9,3.3,6.7c0,0.9-0.6,1.8-0.3,3c0.3,1.5,3,3.3,3,4.5c0,1.5-1.8,0.9-1.8,2.1c0,1.5,2.7,2.7,3.3,3.9
	c0.3,1.2-0.6,1.8,0,3.6c0.6,1.8,2.1,2.1,0.9,3.9c1.2,1.2,2.4,2.4,3.9,3.6c-0.9,1.5-1.5,4.2-1.5,6.1c0,0.9,0.9,1.8,0.9,2.7
	c0,0.3-0.3,2.1-0.3,2.1c0.6,2.1,3.3,2.7,3.9,4.5c0,0.3-0.6,3.3-0.6,3.9c-0.3,3,0.9,3.9,1.2,6.7c0,0.9-0.6,1.5-0.3,2.7
	c0.3,1.2,0.9,2.7,1.5,3.6c0.3,1.2,0.6,1.8,1.2,3c0.3,0.6,0.6,2.1,0.9,2.4c1.8,2.4,1.5,2.1,2.1,4.8c0,0.6,0.6,2.7,0.6,2.7
	c0.3,0.6,1.5,2.4,1.5,3.3c0,1.5-2.1,0.9-0.9,3.6c0.6,1.5,1.5,2.4,2.7,3.6c1.8,1.8,3.9,3,4.5,5.7c-3.3,1.2-0.9,4.5-1.2,7"/>
<path class="st1" d="M43.8,151c-1.8-0.6-2.4-2.1-2.1-4.2c-0.6,0-1.2-0.6-1.5-0.9c0.9-0.3,0.6-0.9,1.8-0.6c-0.9-2.4-1.8-3.9-4.2-4.2
	c0-2.4-0.9-4.8-0.3-7.3c0.9-4.8,0.9-3-3.6-7c0.9-0.6,0.9-1.8-0.3-2.4c0.3-2.4-2.7-3-2.1-5.7c0.6,0,1.5-0.9,2.1-0.9
	c-2.7-2.4-0.3-3-0.3-4.8c0-2.4-2.4-3.3-4.2-4.2c0.6-0.3,1.5-1.2,2.1-1.2c-0.9-0.9-1.5-1.8-2.1-2.7c-0.3-0.6-0.9-0.9-1.2-1.5
	c-0.3-0.3,0.3-1.2,0-1.5c-0.9-1.5-4.8-4.2-0.9-4.8c-0.6-0.9-0.6-1.8-1.2-2.4c-0.3-0.6-1.8-1.8-2.1-2.4c-0.6-2.1,1.5-3.9,3-4.5
	c-1.8-1.2-3-1.8-3.9-3.3c-0.6-0.6-1.2-1.8-1.2-2.4c-0.9-1.8-0.9-3.9-2.7-6.1l-0.3,0.6c0,3.3-4.5,3.6-3.9,6.7c0.6,0,1.5,0.3,2.1,0
	c0,1.2-1.8,4.2-2.4,5.4c-0.9,1.2-3.3,2.7-3,4.2c0,1.2,1.8,1.5,1.8,2.7c0,0.6-1.2,1.5-1.5,2.1c-0.9,1.5-1.5,3.6-1.5,5.4
	c-0.3,1.5-0.3,2.4-0.9,3.6c-0.6,1.5-1.8,2.4-2.1,3.3c-0.6,2.1,0.3,2.4,0.6,4.5c0,2.1-2.4,1.2,0.3,3.9c-1.5,1.8-7.6,6.7-4.5,9.4
	c-0.6,0.6-1.8,0.9-2.7,1.8c0.6,0,1.8,0.9,2.4,1.2c-2.7,1.5-2.1,2.1-3.3,4.5c-0.6,1.8-3,3.6-3.3,5.4c0.6,0,1.5,0.6,2.1,0.6
	c-0.9,1.2-1.2,3.6-3.3,3.6c0,1.2,0.9,2.1,1.5,3.3c-1.5,0.9-1.2,2.4-1.2,3.9c0.3,0,0.6,0,0.9,0"/>
<path class="st1" d="M62.3,237.6c-0.3-0.3-0.3-0.6-0.3-0.9c2.1,0,1.8-0.9,1.5-2.1c-0.3-0.9-2.1-2.4-2.7-3.3
	c-0.3-0.6-0.9-1.5-1.5-1.8c0.6,0,0.9-0.3,1.5-0.6c-1.2-1.5-1.5-2.1-2.1-3.3c-0.3-0.6,0-1.5-0.3-2.1c-0.9-1.5-3.6-2.1-3.9-3.6
	c4.2-0.6-2.4-9.4,0.3-10.9c0-1.8-0.6-3.6-1.2-4.8c-0.9-1.8-2.1,0.3-1.8-2.1c0-1.2,1.8-0.6,1.5-2.1c-0.3,0-0.9,0-1.2,0
	c1.2-2.7-0.6-3.3-2.7-4.5c3.6-0.9,0.3-4.5-0.9-5.7c0.3-2.1-2.4-3.9-3-6.1l-1.8,1.2c0,2.1-2.7,3-3,5.1c0.3,0,0.9,0,1.5,0
	c0.9,2.7-1.8,3.6-3.9,4.5c4.8,3.3-5.4,5.7,0.3,8.8c-0.9,0.6-1.5,1.5-1.8,2.4c-0.3,0.6-0.3,2.1-0.6,3c0,0.3-1.2,1.2-1.2,1.8
	c0,0.3,0,2.1-0.3,2.7c-0.6,2.1-2.1,1.8-3,3.6c-0.9,1.5,0.3,4.5,0,6.7c-0.3,2.1,0.3,5.4-2.7,5.4c0.6,0.3,0.9,1.8,1.5,2.1
	c-1.2,0.6-5.1,0.3-5.7,1.2c-0.6,0.9,0.3,0.9,0.3,1.5c0,1.8,2.1,3.6,3.3,4.8c0,0.3-0.3,0.3-0.3,0.6"/>
<path class="st1" d="M424.1,116.3c-1.8-0.6-2.4-2.1-2.1-4.2c-0.6,0-1.2-0.6-1.5-0.9c0.9-0.3,0.6-0.9,1.8-0.6
	c-0.9-2.4-1.8-3.9-4.2-4.2c0-2.4-0.9-4.8-0.3-7.3c0.9-4.8,0.9-3-3.6-7c0.9-0.6,0.9-1.8-0.3-2.4c0.3-2.4-2.7-3-2.1-5.7
	c0.6,0,1.5-0.9,2.1-0.9c-2.7-2.4-0.3-3-0.3-4.8c0-2.4-2.4-3.3-4.2-4.2c0.6-0.3,1.5-1.2,2.1-1.2c-0.9-0.9-1.5-1.8-2.1-2.7
	c-0.3-0.6-0.9-0.9-1.2-1.5c-0.3-0.3,0.3-1.2,0-1.5c-0.9-1.5-4.8-4.2-0.9-4.8c-0.6-0.9-0.6-1.8-1.2-2.4c-0.3-0.6-1.8-1.8-2.1-2.4
	c-0.6-2.1,1.5-3.9,3-4.5c-1.8-1.2-3-1.8-3.9-3.3c-0.6-0.6-0.9-1.8-1.2-2.4c-0.9-2.1-0.9-3.9-2.7-6.1l-0.3,0.6c0,3.3-4.5,3.6-3.9,6.7
	c0.6,0,1.5,0.3,2.1,0c0,1.2-1.8,4.2-2.4,5.4c-0.9,1.2-3.3,2.7-3,4.2c0,1.2,1.8,1.5,1.8,2.7c0,0.6-1.2,1.5-1.5,2.1
	c-0.9,1.5-1.5,3.6-1.5,5.4c-0.3,1.5-0.3,2.4-0.9,3.6c-0.6,1.5-1.8,2.4-2.1,3.3c-0.6,2.1,0.3,2.4,0.6,4.5c0,2.1-2.4,1.2,0.3,3.9
	c-1.5,1.8-7.6,6.7-4.5,9.4c-0.6,0.6-1.8,0.9-2.7,1.8c0.6,0,1.8,0.9,2.4,1.2c-2.7,1.5-2.1,2.1-3.3,4.5c-0.6,1.8-3,3.6-3.3,5.4
	c0.6,0,1.5,0.6,2.1,0.6c-0.9,1.2-1.2,3.6-3.3,3.6c0,1.2,0.9,2.1,1.5,3.3c-1.5,0.9-1.2,2.4-1.2,3.9c0.3,0,0.6,0,0.9,0"/>
<path class="st1" d="M405.9,80c1.8-0.6,2.4-2.1,2.1-4.2c0.6,0,1.2-0.6,1.5-0.9c-0.9-0.3-0.6-0.9-1.8-0.6c0.9-2.4,1.8-3.9,4.2-4.2
	c0-2.4,0.9-4.8,0.3-7.3c-0.9-4.8-0.9-3,3.6-7c-0.9-0.6-0.9-1.8,0.3-2.4c-0.3-2.4,2.7-3,2.1-5.7c-0.6,0-1.5-0.9-2.1-0.9
	c2.7-2.4,0.3-3,0.3-4.8c0-2.4,2.4-3.3,4.2-4.2c-0.6-0.3-1.5-1.2-2.1-1.2c0.9-0.9,1.5-1.8,2.1-2.7c0.3-0.6,0.9-0.9,1.2-1.5
	c0.3-0.3-0.3-1.2,0-1.5c0.9-1.5,4.8-4.2,0.9-4.8c0.6-0.9,0.6-1.8,1.2-2.4c0.3-0.6,1.8-1.8,2.1-2.4c0.6-2.1-1.5-3.9-3-4.5
	c1.8-1.2,3-1.8,3.9-3.3c0.6-0.6,1.2-1.8,1.2-2.4c0.9-1.8,0.9-3.9,2.7-6.1l0.3,0.6c0,3.3,4.5,3.6,3.9,6.7c-0.6,0-1.5,0.3-2.1,0
	c0,1.2,1.8,4.2,2.4,5.4c0.9,1.2,3.3,2.7,3,4.2c0,1.2-1.8,1.5-1.8,2.7c0,0.6,1.2,1.5,1.5,2.1c0.9,1.5,1.5,3.6,1.5,5.4
	c0.3,1.5,0.3,2.4,0.9,3.6c0.6,1.5,1.8,2.4,2.1,3.3c0.6,2.1-0.3,2.4-0.6,4.5c0,2.1,2.4,1.2-0.3,3.9c1.5,1.8,7.6,6.7,4.5,9.4
	c0.6,0.6,1.8,0.9,2.7,1.8c-0.6,0-1.8,0.9-2.4,1.2c2.7,1.5,2.1,2.1,3.3,4.5c0.6,1.8,3,3.6,3.3,5.4c-0.6,0-1.5,0.6-2.1,0.6
	c0.9,1.2,1.2,3.6,3.3,3.6c0,1.2-0.9,2.1-1.5,3.3c1.5,0.9,1.2,2.4,1.2,3.9c-0.3,0-0.6,0-0.9,0"/>
<path class="st1" d="M13.9,330.4c-1.5-1.2-0.3-2.7,0.3-4.2c1.2-2.4,1.2-1.5,3.6-2.4c-0.9-0.6-1.8-0.9-2.7-1.5
	c0.9-0.9,0.9-2.7,1.5-3.9c0.9-2.1,1.2-2.7,3.3-3.3c-4.2-1.5-3-3.6-1.5-6.4c0.6-1.2,0.6-2.7,1.2-3.6c1.2-2.1,2.1-1.8,1.8-4.5
	c0-1.2-0.9-1.2-0.3-2.4c0.3-0.9,2.1-1.5,2.7-2.4c0.9-1.2,1.2-3.3,1.8-4.5c0.6-1.2,1.2-1.2,1.5-2.7c0-0.6-0.6-1.8-0.3-2.7
	c0.3-1.2,1.5-1.8,1.8-3c0.3-0.9-0.6-2.1,0-3.3c0.3-0.9,1.2-1.8,1.5-2.7c0.6-0.9-0.3-1.5,0.9-2.1c-1.5-2.1-0.6-4.5,0.6-6.7
	c0.6-1.2,1.8-2.4,1.8-3.6c0-1.2-1.2-1.8-1.2-3c3.9-0.6,2.1-1.2,2.4-3.3c0-1.2,0.9-1.5,0.9-3c0-1.5-1.5-2.4-1.5-3
	c0-1.8,3.3-2.4,4.8-3.6v-0.3c1.2,1.8,2.7,3.3,2.7,5.7c0,0.9-0.6,1.5-0.3,2.4c0.3,1.2,2.4,2.7,2.4,3.6c0,1.2-1.5,0.6-1.5,1.8
	c0,1.2,2.4,2.1,2.7,3.3c0.3,0.9-0.3,1.5,0,3c0.6,1.5,1.8,1.5,0.9,3.3c0.9,1.2,2.1,2.1,3.3,3c-0.6,1.2-1.2,3.3-1.2,4.8
	c0,0.9,0.6,1.5,0.9,2.1c0,0.3-0.3,1.8-0.3,1.8c0.6,1.8,2.7,2.1,3,3.6c0,0.3-0.6,2.7-0.6,3c-0.3,2.4,0.9,3.3,1.2,5.4
	c0,0.6-0.6,1.2-0.3,2.4c0.3,0.9,0.9,2.1,1.2,3c0.3,0.9,0.6,1.5,0.9,2.4c0.3,0.3,0.6,1.8,0.9,2.1c1.5,2.1,1.2,1.8,1.8,3.9
	c0,0.3,0.6,2.4,0.6,2.4c0.3,0.6,1.2,1.8,1.2,2.7c0,1.5-1.5,0.6-0.9,3c0.3,1.2,1.2,2.1,2.1,3c1.5,1.5,3.3,2.7,3.6,4.8
	c-2.7,0.9-0.9,3.9-0.9,5.7"/>
<path class="st1" d="M83.7,324.1c-0.6,0.3-1.8,0.3-2.1-0.3c0.9,0,1.5,0,2.4-0.3c-0.3-0.9,0.3-2.4-0.3-3c0.3-0.6,0.6-1.2,0-1.8
	c0.3,0,1.5-1.2,1.5-1.5s-0.6-0.6-0.9-0.9c-0.3-0.3-0.3-0.9-0.6-1.2c0.3-0.6,3-1.5,1.8-2.7c1.2-0.3,0.6-1.8,0.9-2.7
	c0.3-0.9,1.5-2.4,0.6-3.6c0.6-0.3,1.2-0.9,1.5-1.2c0.9-0.3,0.9,0,0.9-0.9c0-0.9-1.8-2.7,0-2.7c0-0.6,0-1.2,0.3-1.5l0.3-0.6
	c0,0-0.3-0.3-0.3-0.6s0.6-0.3,0.6-0.6c0.6-1.2,2.4-2.1,2.1-3.6l0.3,0.3c0.3,0.3,0.9,0.9,1.2,1.5c0.3,0.6-0.3,0.9,0,1.5
	c0.3,0.3,0.9,0.6,0.9,0.9s-0.3,0.6-0.3,0.6s-0.3,0.3-0.3,0.6c0,0.6,1.5,1.2,1.8,1.5c-0.3,0.6-0.6,2.4-0.3,3c0.3,0.9,1.2,0.9,1.5,1.8
	v1.2c0,0.9,0,2.1,0.6,3c0.3,0.6,0.9,1.2,0.6,1.8c0.6,0.6,1.5,1.2,0.6,1.8c0.6,0.3,1.5,1.5,0.6,2.1c0.9,0.9,0.6,1.5,0.6,2.4
	c0.3,0.9,0.6,1.8,1.2,2.7l-0.3,0.3c1.2,0.9,0.6,3.3,2.1,3.9"/>
<path class="st2" d="M111.9,240.3c-1.2-0.6-1.8-1.5-1.5-3c-0.6,0-0.9-0.6-0.9-0.6c0.6-0.3,0.3-0.6,1.2-0.6c-0.6-1.5-1.2-2.7-3-3
	c0-1.5-0.6-3.3-0.3-5.1c0.6-3.3,0.6-2.1-2.4-4.8c0.6-0.3,0.6-1.2-0.3-1.5c0.3-1.8-2.1-2.1-1.5-3.9c0.6,0,0.9-0.6,1.5-0.6
	c-1.8-1.8-0.3-2.1-0.3-3.3c0-1.8-1.5-2.4-3-3c0.3,0,1.2-0.9,1.5-0.9c-0.6-0.6-0.9-1.2-1.5-1.8c-0.3-0.3-0.6-0.6-0.9-0.9
	c0-0.3,0.3-0.9,0-0.9c-0.6-1.2-3.3-3-0.6-3.3c-0.6-0.6-0.6-1.2-0.9-1.8c-0.3-0.6-1.2-1.2-1.5-1.8c-0.6-1.5,0.9-2.7,2.1-3.3
	c-1.2-0.9-2.1-1.2-2.7-2.1c-0.3-0.3-0.6-1.2-0.9-1.8c-0.6-1.5-0.6-2.7-1.8-4.2l-0.3,0.6c0,2.4-3,2.7-2.7,4.5c0.3,0,1.2,0.3,1.5,0
	c0,0.9-1.2,3-1.8,3.9c-0.6,0.9-2.4,1.8-2.1,3c0,0.9,1.2,0.9,1.2,1.8c0,0.6-0.9,1.2-0.9,1.5c-0.6,1.2-0.9,2.4-1.2,3.9
	c0,1.2-0.3,1.5-0.6,2.4c-0.3,0.9-1.2,1.5-1.5,2.4c-0.6,1.5,0.3,1.8,0.3,3c0,1.5-1.8,0.9,0.3,2.7c-0.9,1.2-5.1,4.5-3,6.4
	c-0.6,0.6-1.2,0.6-1.8,1.2c0.6,0,1.2,0.6,1.5,0.6c-1.8,1.2-1.5,1.5-2.4,3.3c-0.6,1.2-2.1,2.4-2.4,3.6c0.6,0,0.9,0.3,1.5,0.3
	c-0.6,0.9-0.9,2.4-2.4,2.7c0,0.9,0.6,1.5,0.9,2.4c-0.9,0.6-0.9,1.5-0.9,2.7c0.3,0,0.6,0,0.6,0"/>
<path class="st1" d="M290.4,252.4c-1.8-0.6-2.4-2.1-2.1-4.2c-0.6,0-1.2-0.6-1.5-0.9c0.9-0.3,0.6-0.9,1.8-0.6
	c-0.9-2.4-1.8-3.9-4.2-4.2c0-2.4-0.9-4.8-0.3-7.3c0.9-4.8,0.9-3-3.6-7c0.9-0.6,0.9-1.8-0.3-2.4c0.3-2.4-2.7-3-2.1-5.7
	c0.6,0,1.5-0.9,2.1-0.9c-2.7-2.4-0.3-3-0.3-4.8c0-2.4-2.4-3.3-4.2-4.2c0.6-0.3,1.5-1.2,2.1-1.2c-0.9-0.9-1.5-1.8-2.1-2.7
	c-0.3-0.6-0.9-0.9-1.2-1.5c-0.3-0.3,0.3-1.2,0-1.5c-0.9-1.5-4.8-4.2-0.9-4.8c-0.6-0.9-0.6-1.8-1.2-2.4c-0.3-0.6-1.8-1.8-2.1-2.4
	c-0.6-2.1,1.5-3.9,3-4.5c-1.8-1.2-3-1.8-3.9-3.3c-0.6-0.6-1.2-1.8-1.2-2.4c-0.9-2.1-0.9-3.9-2.7-6.1l-0.3,0.6c0,3.3-4.5,3.6-3.9,6.7
	c0.6,0,1.5,0.3,2.1,0c0,1.2-1.8,4.2-2.4,5.4c-0.9,1.2-3.3,2.7-3,4.2c0,1.2,1.8,1.5,1.8,2.7c0,0.6-1.2,1.5-1.5,2.1
	c-0.9,1.5-1.5,3.6-1.5,5.4c-0.3,1.5-0.3,2.4-0.9,3.6c-0.6,1.5-1.8,2.4-2.1,3.3c-0.6,2.1,0.3,2.4,0.6,4.5c0,2.1-2.4,1.2,0.3,3.9
	c-1.5,1.8-7.6,6.7-4.5,9.4c-0.6,0.6-1.8,0.9-2.7,1.8c0.6,0,1.8,0.9,2.4,1.2c-2.7,1.5-2.1,2.1-3.3,4.5c-0.6,1.8-3,3.6-3.3,5.4
	c0.6,0,1.5,0.6,2.1,0.6c-0.9,1.2-1.2,3.6-3.3,3.6c0,1.2,0.9,2.1,1.5,3.3c-1.5,0.9-1.2,2.4-1.2,3.9c0.3,0,0.6,0,0.9,0"/>
<path class="st1" d="M455.8,104.8c-1.2,0.6-3.6,0.6-4.2-0.9c1.5,0,3,0,4.5-0.6c-0.3-1.5,0.9-4.8-0.9-5.7c0.6-0.9,1.2-2.1,0.3-3.3
	c0.6,0,2.7-2.4,2.7-3.3c0-0.6-1.5-0.9-1.8-1.5c-0.3-0.6-0.6-1.8-0.9-2.4c0.9-1.2,6.1-3,3.6-5.1c2.4-0.6,0.9-3.6,1.5-5.1
	c0.6-1.8,2.7-4.8,0.9-7.3c0.9-0.9,2.1-1.8,3-2.4c1.5-0.9,1.8,0.3,1.8-1.8c0-1.8-3.6-5.4-0.3-5.4c0.3-1.2,0.3-2.1,0.3-3
	c0,0,0.9-1.2,0.9-1.5c0-0.3-0.6-0.6-0.6-0.9c0.3-0.6,0.9-0.6,1.2-0.9c1.2-2.4,4.5-4.2,3.9-7l0.6,0.3c0.6,0.9,2.1,1.8,2.4,2.7
	c0.3,0.9-0.3,1.8,0,2.7c0.3,0.9,1.5,0.9,1.5,2.1c0,0.3-0.3,0.9-0.3,1.2c0,0.3-0.6,0.6-0.6,1.2c0.3,1.2,2.7,2.1,3.6,2.7
	c-0.9,0.9-0.9,4.8-0.6,5.7c0.6,1.5,2.1,2.1,2.7,3.3l0.3,2.7c0.3,1.8,0.3,4.2,0.9,6.1c0.6,1.2,1.8,2.1,1.2,3.6c0.9,1.2,3,2.1,0.9,3.3
	c1.2,0.6,2.7,2.7,1.2,3.9c1.5,1.5,0.9,2.7,1.2,4.8c0.3,1.8,1.2,3.6,2.4,5.1c-0.3,0.3-0.3,0.3-0.6,0.6c2.4,1.8,0.9,6.7,4.2,7.6"/>
<path class="st1" d="M433.4,198.2c-0.3-0.3-0.3-0.6-0.3-0.9c2.1,0,1.8-0.9,1.5-2.1c-0.3-0.9-2.1-2.4-2.7-3.3
	c-0.3-0.6-0.9-1.5-1.5-1.8c0.6,0,0.9-0.3,1.5-0.6c-1.2-1.5-1.5-2.1-2.1-3.3c-0.3-0.6,0-1.5-0.3-2.1c-0.9-1.5-3.6-2.1-3.9-3.6
	c4.2-0.6-2.4-9.4,0.3-10.9c0-1.8-0.6-3.6-1.2-4.8c-0.9-1.8-2.1,0.3-1.8-2.1c0-1.2,1.8-0.6,1.5-2.1c-0.3,0-0.9,0-1.2,0
	c1.2-2.7-0.6-3.3-2.7-4.5c3.6-0.9,0.3-4.5-0.9-5.7c0.3-2.1-2.4-3.9-3-6.1l-1.8,1.2c0,2.1-2.7,3-3,5.1c0.3,0,0.9,0,1.5,0
	c0.9,2.7-1.8,3.6-3.9,4.5c4.8,3.3-5.4,5.7,0.3,8.8c-0.9,0.6-1.5,1.5-1.8,2.4c-0.3,0.6-0.3,2.1-0.6,3c0,0.3-1.2,1.2-1.2,1.8
	c0,0.3,0,2.1-0.3,2.7c-0.6,2.1-2.1,1.8-3,3.6c-0.9,1.5,0.3,4.5,0,6.7c-0.3,2.1,0.3,5.4-2.7,5.4c0.6,0.3,0.9,1.8,1.5,2.1
	c-1.2,0.6-5.1,0.3-5.7,1.2c-0.6,0.9,0.3,0.9,0.3,1.5c0,1.8,2.1,3.6,3.3,4.8c0,0.3-0.3,0.3-0.3,0.6"/>
<path class="st1" d="M404.4,242.1c-1.2-0.6-1.8-1.5-1.5-3c-0.6,0-0.9-0.6-0.9-0.6c0.6-0.3,0.3-0.6,1.2-0.6c-0.6-1.5-1.2-2.7-3-3
	c0-1.5-0.6-3.3-0.3-5.1c0.6-3.3,0.6-2.1-2.4-4.8c0.6-0.3,0.6-1.2-0.3-1.5c0.3-1.8-2.1-2.1-1.5-3.9c0.6,0,0.9-0.6,1.5-0.6
	c-1.8-1.8-0.3-2.1-0.3-3.3c0-1.8-1.5-2.4-3-3c0.3,0,1.2-0.9,1.5-0.9c-0.6-0.6-0.9-1.2-1.5-1.8c-0.3-0.3-0.6-0.6-0.9-0.9
	c0-0.3,0.3-0.9,0-0.9c-0.6-1.2-3.3-3-0.6-3.3c-0.6-0.6-0.6-1.2-0.9-1.8c-0.3-0.6-1.2-1.2-1.5-1.8c-0.6-1.5,0.9-2.7,2.1-3.3
	c-1.2-0.9-2.1-1.2-2.7-2.1c-0.3-0.3-0.6-1.2-0.9-1.8c-0.6-1.5-0.6-2.7-1.8-4.2l-0.3,0.6c0,2.4-3,2.7-2.7,4.5c0.3,0,1.2,0.3,1.5,0
	c0,0.9-1.2,3-1.8,3.9c-0.6,0.9-2.4,1.8-2.1,3c0,0.9,1.2,0.9,1.2,1.8c0,0.6-0.9,1.2-0.9,1.5c-0.6,1.2-0.9,2.4-1.2,3.9
	c0,1.2-0.3,1.5-0.6,2.4c-0.3,0.9-1.2,1.5-1.5,2.4c-0.6,1.5,0.3,1.8,0.3,3c0,1.5-1.8,0.9,0.3,2.7c-0.9,1.2-5.1,4.5-3,6.4
	c-0.6,0.6-1.2,0.6-1.8,1.2c0.6,0,1.2,0.6,1.5,0.6c-1.8,1.2-1.5,1.5-2.4,3.3c-0.6,1.2-2.1,2.4-2.4,3.6c0.6,0,0.9,0.3,1.5,0.3
	c-0.6,0.9-0.9,2.4-2.4,2.7c0,0.9,0.6,1.5,0.9,2.4c-0.9,0.6-0.9,1.5-0.9,2.7c0.3,0,0.6,0,0.6,0"/>
<path class="st2" d="M420.7,139.5c-0.3-0.3-0.3-0.6-0.3-0.9c2.1,0,1.8-0.9,1.5-2.1c-0.3-0.9-2.1-2.4-2.7-3.3
	c-0.3-0.6-0.9-1.5-1.5-1.8c0.6,0,0.9-0.3,1.5-0.6c-1.2-1.5-1.5-2.1-2.1-3.3c-0.3-0.6,0-1.5-0.3-2.1c-0.9-1.5-3.6-2.1-3.9-3.6
	c4.2-0.6-2.4-9.4,0.3-10.9c0-1.8-0.6-3.6-1.2-4.8c-0.9-1.8-2.1,0.3-1.8-2.1c0-1.2,1.8-0.6,1.5-2.1c-0.3,0-0.9,0-1.2,0
	c1.2-2.7-0.6-3.3-2.7-4.5c3.6-0.9,0.3-4.5-0.9-5.7c0.3-2.1-2.4-3.9-3-6.1l-1.8,1.2c0,2.1-2.7,3-3,5.1c0.3,0,0.9,0,1.5,0
	c0.9,2.7-1.8,3.6-3.9,4.5c4.8,3.3-5.4,5.7,0.3,8.8c-0.9,0.6-1.5,1.5-1.8,2.4c-0.3,0.6-0.3,2.1-0.6,3c0,0.3-1.2,1.2-1.2,1.8
	c0,0.3,0,2.1-0.3,2.7c-0.6,2.1-2.1,1.8-3,3.6c-0.9,1.5,0.3,4.5,0,6.7c-0.3,2.1,0.3,5.4-2.7,5.4c0.6,0.3,0.9,1.8,1.5,2.1
	c-1.2,0.6-5.1,0.3-5.7,1.2c-0.6,0.9,0.3,0.9,0.3,1.5c0,1.8,2.1,3.6,3.3,4.8c0,0.3-0.3,0.3-0.3,0.6"/>
<path class="st2" d="M84,117.8c-0.3-0.3-0.3-0.6-0.3-0.9c2.1,0,1.8-0.9,1.5-2.1c-0.3-0.9-2.1-2.4-2.7-3.3c-0.3-0.6-0.9-1.5-1.5-1.8
	c0.6,0,0.9-0.3,1.5-0.6c-1.2-1.5-1.5-2.1-2.1-3.3c-0.3-0.6,0-1.5-0.3-2.1c-0.9-1.5-3.6-2.1-3.9-3.6c4.2-0.6-2.4-9.4,0.3-10.9
	c0-1.8-0.6-3.6-1.2-4.8c-0.9-1.8-2.1,0.3-1.8-2.1c0-1.2,1.8-0.6,1.5-2.1c-0.3,0-0.9,0-1.2,0c1.2-2.7-0.6-3.3-2.7-4.5
	c3.6-0.9,0.3-4.5-0.9-5.7c0.3-2.1-2.4-3.9-3-6.1l-1.8,1.2c0,2.1-2.7,3-3,5.1c0.3,0,0.9,0,1.5,0c0.9,2.7-1.8,3.6-3.9,4.5
	c4.8,3.3-5.4,5.7,0.3,8.8c-0.9,0.6-1.5,1.5-1.8,2.4c-0.3,0.6-0.3,2.1-0.6,3c0,0.3-1.2,1.2-1.2,1.8c0,0.3,0,2.1-0.3,2.7
	c-0.6,2.1-2.1,1.8-3,3.6c-0.9,1.5,0.3,4.5,0,6.7c-0.3,2.1,0.3,5.4-2.7,5.4c0.6,0.3,0.9,1.8,1.5,2.1c-1.2,0.6-5.1,0.3-5.7,1.2
	c-0.6,0.9,0.3,0.9,0.3,1.5c0,1.8,2.1,3.6,3.3,4.8c0,0.3-0.3,0.3-0.3,0.6"/>
<path class="st2" d="M465.2,141.7c-0.3-0.6-0.6-0.9-0.6-1.8c3.6,0,3.3-1.5,2.7-3.9c-0.3-1.5-3.9-4.5-4.5-6.1c-0.6-1.2-1.5-2.4-2.7-3
	c0.9,0,1.8-0.6,2.7-0.9c-1.8-2.4-2.7-3.9-3.6-6.1c-0.3-0.9-0.3-2.4-0.6-3.6c-1.5-3-6.4-3.9-6.7-6.4c7.6-0.9-4.5-16.6,0.6-19.1
	c-0.3-3-0.9-6.4-1.8-8.2c-1.5-3-3.6,0.6-3.3-3.9c0-2.1,3-1.2,2.4-3.6c-0.6,0-1.5-0.3-2.4-0.3c2.4-4.8-1.2-6.1-4.5-8.2
	c6.4-1.2,0.3-7.9-1.5-10.3c0.6-3.6-3.9-7-5.4-10.6l-3.3,1.8c0,3.9-4.5,5.4-5.1,9.1c0.6,0,1.8,0.3,2.4,0c1.5,4.8-3.3,6.4-7,8.2
	c8.5,6.1-9.7,10.3,0.6,15.7c-1.8,1.2-2.7,2.7-3.3,4.2c-0.6,1.2-0.6,3.9-0.9,5.1c0,0.3-2.1,2.1-2.4,3c-0.3,0.3-0.3,3.6-0.6,4.5
	c-0.9,3.6-3.9,3.3-5.4,6.4c-1.2,2.7,0.3,8.2-0.3,11.8c-0.6,3.9,0.6,9.7-5.1,9.7c0.9,0.9,1.5,3,2.7,3.9c-2.1,0.9-9.1,0.6-10,2.4
	c-0.9,1.5,0.6,1.5,0.6,2.7c0,3.3,3.6,6.7,6.1,8.8c-0.3,0.3-0.3,0.6-0.6,1.2"/>
<path class="st2" d="M85,369.8c-0.3-0.6-0.6-0.9-0.6-1.8c3.6,0,3.3-1.5,2.7-3.9c-0.3-1.5-3.9-4.5-4.5-6.1c-0.6-1.2-1.5-2.4-2.7-3
	c0.9,0,1.8-0.6,2.7-0.9c-1.8-2.4-2.7-3.9-3.6-6.1c-0.3-0.9-0.3-2.4-0.6-3.6c-1.5-3-6.4-3.9-6.7-6.4c7.6-0.9-4.5-16.6,0.6-19.1
	c-0.3-3-0.9-6.4-1.8-8.2c-1.5-3-3.6,0.6-3.3-3.9c0-2.1,3-1.2,2.4-3.6c-0.6,0-1.5-0.3-2.4-0.3c2.4-4.8-1.2-6.1-4.5-8.2
	c6.4-1.2,0.3-7.9-1.5-10.3c0.6-3.6-3.9-7-5.4-10.6l-3.3,1.8c0,3.9-4.5,5.4-5.1,9.1c0.6,0,1.8,0.3,2.4,0c1.5,4.8-3.3,6.4-7,8.2
	c8.5,6.1-9.7,10.3,0.6,15.7c-1.8,1.2-2.7,2.7-3.3,4.2c-0.6,1.2-0.6,3.9-0.9,5.1c0,0.3-2.1,2.1-2.4,3c-0.3,0.3-0.3,3.6-0.6,4.5
	c-0.9,3.6-3.9,3.3-5.4,6.4c-1.2,2.7,0.3,8.2-0.3,11.8c-0.6,3.9,0.6,9.7-5.1,9.7c0.9,0.9,1.5,3,2.7,3.9c-2.1,0.9-9.1,0.6-10,2.4
	c-0.9,1.5,0.6,1.5,0.6,2.7c0,3.3,3.6,6.7,6.1,8.8c-0.3,0.3-0.3,0.6-0.6,1.2"/>
<path class="st2" d="M26.3,158.9c-0.3-0.3-0.3-0.3-0.3-0.9c1.5,0,1.5-0.6,1.2-1.8c-0.3-0.6-1.8-1.8-2.1-2.7
	c-0.3-0.6-0.6-1.2-1.2-1.2c0.3,0,0.9-0.3,1.2-0.3c-0.9-1.2-1.2-1.8-1.5-2.7c-0.3-0.3,0-1.2-0.3-1.5c-0.6-1.2-2.7-1.8-3-2.7
	c3.3-0.3-2.1-7.3,0.3-8.5c0-1.5-0.3-2.7-0.9-3.6c-0.6-1.2-1.5,0.3-1.5-1.8c0-0.9,1.2-0.6,1.2-1.5c-0.3,0-0.6,0-0.9,0
	c0.9-2.1-0.6-2.7-2.1-3.6c2.7-0.6,0-3.6-0.6-4.5c0.3-1.5-1.8-3-2.4-4.5l-1.5,0.9c0,1.8-2.1,2.4-2.1,3.9c0.3,0,0.6,0,0.9,0
	c0.6,2.1-1.5,2.7-3,3.6c3.6,2.7-4.2,4.5,0.3,7c-0.9,0.6-1.2,1.2-1.5,1.8C6,134.7,6,135.9,6,136.2c0,0.3-0.9,0.9-0.9,1.2
	c0,0.3,0,1.5-0.3,2.1c-0.3,1.5-1.8,1.5-2.4,2.7c-0.6,1.2,0.3,3.6,0,5.1c-0.3,1.8,0.3,4.2-2.1,4.2c0.3,0.3,0.6,1.2,1.2,1.8
	c-0.9,0.3-3.9,0.3-4.5,0.9c-0.3,0.6,0.3,0.6,0.3,1.2c0,1.5,1.5,3,2.7,3.9c0,0.3-0.3,0.3-0.3,0.6"/>
<path class="st1" d="M425.3,167.7c-0.9-3.3,2.1-5.7,0-8.5c3-0.9,1.2-3.6,1.8-5.7c0.3-1.2,1.5-1.5,2.1-2.4c0.3-0.9-0.3-2.4,0.3-3.3
	c1.2-2.4,3.3-0.9,3.3-4.5c0-0.9,0-1.8,0-2.4c-0.3-0.6-2.1-1.2-1.8-2.1c0.3-1.2,2.4-0.9,3-1.8c0.3-0.6-0.3-1.8,0-2.4
	c0.6-2.1,2.1-3.9,3-6.4c0.6-1.8,0.6-4.5,1.5-6.1c0.9-1.8,3-3,3.9-4.8c0,1.8,1.8,2.7,2.4,4.2c0.3,0.9-0.3,1.5-0.3,2.1
	c0.3,0.9,0.9,0.9,1.2,2.4c0,1.2-0.9,2.1-0.6,3.3c0,0.9,0.9,1.2,1.2,1.8c0.3,0.9,0,2.1,0.3,3c0.3,1.5,0.9,3.9,1.8,5.4
	c1.5,2.1,3,3.6,3.9,6.1c0.6,1.5,0.3,3.3,0.6,4.8c0.9,3.6,0.3,7.9,2.4,11.2c-2.4,1.8-0.3,4.8,1.5,6.1"/>
<path class="st2" d="M459.2,180.4c-0.3-0.3-0.3-0.3-0.3-0.9c1.5,0,1.5-0.6,1.2-1.5c-0.3-0.6-1.5-1.8-2.1-2.4
	c-0.3-0.6-0.6-0.9-1.2-1.2c0.3,0,0.6-0.3,1.2-0.3c-0.9-1.2-1.2-1.5-1.5-2.4c-0.3-0.3,0-0.9-0.3-1.5c-0.6-1.2-2.7-1.5-2.7-2.7
	c3.3-0.3-1.8-7,0.3-8.2c0-1.2-0.3-2.7-0.9-3.6c-0.6-1.2-1.5,0.3-1.5-1.8c0-0.9,1.2-0.6,1.2-1.5c-0.3,0-0.6,0-0.9,0
	c0.9-2.1-0.6-2.4-1.8-3.3c2.7-0.6,0-3.3-0.6-4.2c0.3-1.5-1.8-3-2.4-4.5l-1.5,0.9c0,1.8-1.8,2.4-2.1,3.9c0.3,0,0.6,0,0.9,0
	c0.6,2.1-1.5,2.7-3,3.6c3.6,2.4-3.9,4.2,0.3,6.7c-0.9,0.6-1.2,1.2-1.5,1.8c-0.3,0.3-0.3,1.5-0.3,2.1c0,0.3-0.9,0.9-0.9,1.2
	c0,0.3,0,1.5-0.3,1.8c-0.3,1.5-1.5,1.5-2.1,2.7c-0.6,1.2,0.3,3.6,0,5.1c-0.3,1.5,0.3,3.9-2.1,4.2c0.3,0.3,0.6,1.2,1.2,1.5
	c-0.9,0.3-3.9,0.3-4.2,0.9c-0.3,0.6,0.3,0.6,0.3,1.2c0,1.5,1.5,2.7,2.4,3.6c0,0.3-0.3,0.3-0.3,0.6"/>
<path class="st2" d="M449.8,241.5c-0.3-0.6-0.6-0.9-0.6-1.5c3,0,3-1.2,2.4-3.3c-0.3-1.2-3.3-3.6-3.9-5.1c-0.6-0.9-1.2-2.1-2.1-2.7
	c0.6,0,1.5-0.6,2.1-0.9c-1.8-2.1-2.4-3.3-3-5.1c-0.3-0.6-0.3-2.1-0.6-3c-1.2-2.4-5.4-3.3-5.7-5.4c6.4-0.9-3.9-14.2,0.3-16
	c-0.3-2.7-0.6-5.4-1.5-7c-1.5-2.4-3,0.3-2.7-3.3c0-1.8,2.4-0.9,2.1-3.3c-0.6,0-1.2,0-1.8-0.3c1.8-3.9-0.9-5.1-3.9-7
	c5.4-1.2,0.3-6.7-1.5-8.8c0.6-3-3.3-5.7-4.5-8.8l-2.7,1.5c0,3.3-3.9,4.5-4.2,7.6c0.6,0,1.5,0,2.1,0c1.2,4.2-3,5.4-5.7,7
	c7.3,5.1-8.2,8.8,0.6,13.3c-1.5,0.9-2.1,2.1-2.7,3.6c-0.3,0.9-0.6,3.3-0.9,4.2c0,0.3-1.8,1.8-2.1,2.4c0,0.3-0.3,3-0.3,3.9
	c-0.9,3-3.3,3-4.5,5.4s0.3,7,0,10c-0.6,3.3,0.3,8.2-4.2,8.2c0.6,0.6,1.5,2.4,2.4,3.3c-1.8,0.9-7.6,0.6-8.5,2.1
	c-0.9,1.2,0.3,1.2,0.3,2.4c0,2.7,3,5.7,5.1,7.3c0,0.3-0.3,0.6-0.6,0.9"/>
<path class="st1" d="M421,257.5c1.8-0.6,2.4-2.1,2.1-4.2c0.6,0,1.2-0.6,1.5-0.9c-0.9-0.3-0.6-0.9-1.8-0.6c0.9-2.4,1.8-3.9,4.2-4.2
	c0-2.4,0.9-4.8,0.3-7.3c-0.9-4.8-0.9-3,3.6-7c-0.9-0.6-0.9-1.8,0.3-2.4c-0.3-2.4,2.7-3,2.1-5.7c-0.6,0-1.5-0.9-2.1-0.9
	c2.7-2.4,0.3-3,0.3-4.8c0-2.4,2.4-3.3,4.2-4.2c-0.6-0.3-1.5-1.2-2.1-1.2c0.9-0.9,1.5-1.8,2.1-2.7c0.3-0.6,0.9-0.9,1.2-1.5
	c0.3-0.3-0.3-1.2,0-1.5c0.9-1.5,4.8-4.2,0.9-4.8c0.6-0.9,0.6-1.8,1.2-2.4c0.3-0.6,1.8-1.8,2.1-2.4c0.6-2.1-1.5-3.9-3-4.5
	c1.8-1.2,3-1.8,3.9-3.3c0.6-0.6,0.9-1.8,1.2-2.4c0.9-1.8,0.9-3.9,2.7-6.1l0.3,0.6c0,3.3,4.5,3.6,3.9,6.7c-0.6,0-1.5,0.3-2.1,0
	c0,1.2,1.8,4.2,2.4,5.4c0.9,1.2,3.3,2.7,3,4.2c0,1.2-1.8,1.5-1.8,2.7c0,0.6,1.2,1.5,1.5,2.1c0.9,1.5,1.5,3.6,1.5,5.4
	c0.3,1.5,0.3,2.4,0.9,3.6c0.6,1.5,1.8,2.4,2.1,3.3c0.6,2.1-0.3,2.4-0.6,4.5c0,2.1,2.4,1.2-0.3,3.9c1.5,1.8,7.6,6.7,4.5,9.4
	c0.6,0.6,1.8,0.9,2.7,1.8c-0.6,0-1.8,0.9-2.4,1.2c2.7,1.5,2.1,2.1,3.3,4.5c0.6,1.8,3,3.6,3.3,5.4c-0.6,0-1.5,0.6-2.1,0.6
	c0.9,1.2,1.2,3.6,3.3,3.6c0,1.2-0.9,2.1-1.5,3.3c1.5,0.9,1.2,2.4,1.2,3.9c-0.3,0-0.6,0-0.9,0"/>
<path class="st1" d="M130.6,430c-1.8-0.6-2.4-2.1-2.4-4.5c-0.6,0-1.2-0.6-1.5-0.9c0.9-0.3,0.6-0.9,1.8-0.6c-0.9-2.4-1.8-3.9-4.5-4.2
	c0-2.4-0.9-4.8-0.3-7.3c0.9-4.8,0.9-3-3.6-7c1.2-0.6,0.9-1.8-0.3-2.4c0.3-2.4-3-3-2.4-5.7c0.6,0,1.5-0.9,2.1-0.9
	c-2.7-2.4-0.3-3-0.3-4.8c0-2.4-2.4-3.3-4.5-4.2c0.6-0.3,1.8-1.2,2.1-1.2c-0.9-0.9-1.5-1.8-2.1-2.7c-0.3-0.6-0.9-0.9-1.2-1.5
	c-0.3-0.3,0.3-1.2,0-1.5c-0.9-1.5-4.8-4.2-0.9-4.8c-0.6-0.9-0.6-1.8-1.2-2.7c-0.3-0.6-1.8-1.8-2.1-2.4c-0.6-2.1,1.5-3.9,3.3-4.8
	c-1.8-1.2-3-1.8-4.2-3.3c-0.6-0.6-1.2-1.8-1.2-2.4c-0.9-2.1-0.9-3.9-2.7-6.1l-0.3,0.6c0,3.3-4.5,3.6-3.9,6.7c0.6,0,1.5,0.3,2.1,0
	c0,1.2-1.8,4.5-2.7,5.4c-0.9,1.2-3.3,2.7-3.3,4.5c0,1.2,1.8,1.5,1.8,2.7c0,0.6-1.2,1.5-1.5,2.1c-0.9,1.5-1.5,3.6-1.5,5.4
	c-0.3,1.5-0.3,2.4-0.9,3.6c-0.6,1.5-1.8,2.4-2.1,3.3c-0.9,2.1,0.3,2.7,0.6,4.5c0,2.1-2.4,1.5,0.3,3.9c-1.5,1.8-7.6,6.7-4.5,9.4
	c-0.9,0.6-1.8,0.9-2.7,1.8c0.6,0,1.8,0.9,2.4,1.2c-2.7,1.5-2.4,2.1-3.3,4.5c-0.9,1.8-3,3.6-3.3,5.4c0.6,0,1.5,0.6,2.1,0.6
	c-0.9,1.2-1.2,3.6-3.3,3.6c0,1.2,0.9,2.1,1.5,3.3c-1.5,0.9-1.2,2.4-1.2,3.9c0.3,0,0.6,0,1.2,0"/>
<path class="st2" d="M316.4,323.5c-0.3-0.9-0.9-1.2-0.6-2.1c4.2,0,3.9-1.8,3-4.2c-0.6-1.5-4.5-5.1-5.4-7c-0.6-1.2-1.8-2.7-3-3.6
	c0.9,0,2.1-0.9,3-0.9c-2.1-3-3-4.5-4.2-7c-0.3-0.9-0.3-2.7-0.9-3.9c-1.5-3.3-7.3-4.2-7.6-7.3c8.8-1.2-5.1-19.1,0.6-21.8
	c-0.3-3.6-0.9-7.3-2.1-9.4c-1.8-3.3-4.2,0.6-3.9-4.5c0.3-2.1,3.3-1.2,3-4.2c-0.9,0-1.8-0.3-2.7-0.3c2.7-5.4-1.5-7-5.4-9.4
	c7.6-1.5,0.3-9.1-1.8-11.8c0.9-4.2-4.5-7.9-6.1-12.1l-3.6,2.1c-0.3,4.5-5.1,6.4-5.7,10.3c0.9,0,1.8,0.3,2.7,0.3
	c1.5,5.7-3.9,7.3-7.9,9.4c9.7,7-10.9,11.5,0.6,17.8c-2.1,1.2-3,3-3.9,4.8c-0.6,1.2-0.6,4.5-1.2,5.7c0,0.3-2.4,2.4-2.7,3.3
	c-0.3,0.3-0.3,4.2-0.6,5.1c-1.2,3.9-4.5,3.9-6.1,7.3c-1.5,3.3,0.3,9.4-0.3,13.6c-0.6,4.2,0.6,10.9-5.7,11.2c0.9,0.9,1.8,3.3,3.3,4.5
	c-2.4,1.2-10.3,0.9-11.5,2.7c-1.2,1.5,0.6,1.8,0.6,3c0,3.9,4.2,7.6,7,10c-0.3,0.3-0.6,0.9-0.6,1.2"/>
<g>
	<g>
		<path class="st3" d="M177.8,463.5c0,2.4-0.6,4.2-1.8,5.7c-1.2,1.5-3,2.1-5.1,2.1c-5.7,0-12.7-29.3-21.2-88
			c-1.2-8.8-2.1-13.6-2.4-15.1c-3,20.3-5.1,38.1-6.7,52.9c-1.5,14.8-2.4,29.6-2.4,44.2c0,1.5-0.6,3-2.1,4.5c-1.5,1.2-3,1.8-4.5,1.8
			c-5.7,0-8.5-5.7-8.5-17.5c0-7.3-3.3-33.3-9.7-78.7c-6.4-45.1-10.6-69.9-12.4-74.1c2.1-3.6,4.8-5.4,8.5-5.4c3.6,0,7,7.9,9.7,23.9
			c3,16,5.4,35.1,7.6,57.8c2.1,22.7,3.3,34.2,3.3,34.5c0.3-2.1,0.9-8.5,2.4-19.4c1.2-10.9,2.4-19.4,3-26c2.4-20,3.3-33.9,3.3-42.4
			v-4.2c0-1.5,0.6-3.3,1.8-4.8c1.2-1.5,2.7-2.4,4.2-2.4c5.4,0,8.5,2.1,8.5,6.7v3.3c0,14.8,3.6,36.3,10.6,64.1
			c3,12.1,5.1,22.1,6.7,29.3c0.9-8.5,2.4-20.6,4.5-36.6c4.8-34.8,7.3-61.7,7.3-80.5c0-3.3,0.6-5.7,1.8-7.3c1.2-1.5,3-2.4,5.7-2.4
			c2.7,0,4.5,0.6,6.1,1.8c1.5,1.2,2.1,2.7,2.1,4.5c0,1.8-0.9,3.6-2.4,5.1c0,22.4-3,49.3-8.8,81.1
			C180.5,414.2,177.8,441.1,177.8,463.5z"/>
		<path class="st3" d="M260.1,399.1l-2.1,29v0.9c-0.9,4.2-1.5,8.8-1.5,13.9c0,4.8-0.9,9.7-2.7,14.2c-1.8,4.5-4.5,8.8-7.9,12.1
			c-3.3,3.3-7.6,5.4-11.8,5.4c-4.2,0-8.2-1.5-11.8-4.2c-3.6-2.7-6.4-6.4-8.8-10.9c-2.4-4.5-4.2-9.7-6.1-16c-1.8-6.1-3-12.1-3.9-18.2
			c-0.9-5.7-1.8-12.1-2.4-18.5c-0.9-10-1.2-17.5-1.2-23c0-5.4,0-10.3,0-14.2c0-3.9-0.3-7.6-0.3-10.6c0-1.5,0-3.3,0-5.1s0-3.9,0-6.1
			c0-4.5,0.3-8.5,0.3-11.8c0.3-3.6,0.6-7.3,0.9-11.5c0.6-3.9,1.2-7.6,1.8-10.9c0.9-3,1.8-6.1,3-9.1c1.5-3,3-5.4,4.5-7.6
			c3.9-4.2,8.2-6.4,13-6.4c4.8,0,9.1,0.9,12.7,2.7c3.6,1.8,6.4,4.5,8.8,8.5c2.4,3.9,4.5,7.6,6.4,11.2c1.8,3.6,3.3,8.8,4.2,15.4
			c0.9,6.7,1.8,11.8,2.4,15.7c0.6,4.2,0.9,10,1.2,17.5c0.3,10.3,0.6,18.2,0.6,23.9v13.3L260.1,399.1L260.1,399.1z M239.2,315
			c-1.5-3.9-3.6-7-5.7-9.1c-2.4-2.1-4.5-3.3-7-3.3s-4.2,0.9-5.7,2.4c-1.5,1.5-2.7,3.9-3.6,6.7c-0.9,3-1.8,6.1-2.7,9.4
			c-0.9,3.3-1.5,7-1.8,11.5c-0.3,4.2-0.9,8.2-1.2,11.8c-0.3,3.3-0.3,7.3-0.6,11.5c-0.3,7-0.3,12.4-0.3,16.3v0.9
			c0,10.3,0.9,21.2,2.4,33s3.3,21.5,4.8,29c1.5,7.6,3.9,13.9,7,19.1c3,5.1,6.1,7.9,9.7,7.9c3,0,5.7-3,7.9-8.8
			c2.1-5.7,3.6-13,4.5-21.5c1.5-15.1,2.4-26,2.4-32.1s0-10.6,0-13.6c0-2.7-0.3-7-0.3-12.4c-0.3-5.4-0.6-10.6-0.9-15.1
			c-0.6-4.8-0.9-10-1.8-15.7c-0.6-5.7-1.8-10.9-2.7-15.4C242.3,323.2,240.7,318.9,239.2,315z"/>
		<path class="st3" d="M326.7,399.1l-2.1,29v0.9c-0.9,4.2-1.5,8.8-1.5,13.9c0,4.8-0.9,9.7-2.7,14.2s-4.5,8.8-7.9,12.1
			c-3.6,3.6-7.6,5.4-11.8,5.4s-8.2-1.5-11.8-4.2c-3.6-2.7-6.4-6.4-8.8-10.9s-4.2-9.7-6.1-16s-3-12.1-3.9-18.2
			c-0.9-5.7-1.8-12.1-2.4-18.5c-0.9-10-1.2-17.5-1.2-23c0-5.4,0-10.3,0-14.2c0-3.9-0.3-7.6-0.3-10.6c0-1.5,0-3.3,0-5.1s0-3.9,0-6.1
			c0-4.5,0.3-8.5,0.3-11.8c0.3-3.6,0.6-7.3,0.9-11.5c0.6-3.9,1.2-7.6,1.8-10.9c0.9-3,1.8-6.1,3-9.1c1.5-3,3-5.4,4.5-7.6
			c3.9-4.2,8.2-6.4,13-6.4c4.8,0,9.1,0.9,12.7,2.7c3.6,1.8,6.4,4.5,8.8,8.5c2.4,3.9,4.5,7.6,6.4,11.2c1.8,3.6,3.3,8.8,4.2,15.4
			c0.9,6.7,1.8,11.8,2.4,15.7c0.6,4.2,0.9,10,1.2,17.5c0.3,10.3,0.6,18.2,0.6,23.9v13.3L326.7,399.1L326.7,399.1z M306.1,315
			c-1.5-3.9-3.6-7-5.7-9.1c-2.4-2.1-4.5-3.3-7-3.3c-2.4,0-4.2,0.9-5.7,2.4c-1.5,1.5-2.7,3.9-3.6,6.7c-0.9,2.7-1.8,6.1-2.7,9.4
			c-0.9,3.3-1.5,7-1.8,11.5c-0.3,4.2-0.9,8.2-1.2,11.8c-0.3,3.3-0.3,7.3-0.6,11.5c-0.3,7-0.3,12.4-0.3,16.3v0.9
			c0,10.3,0.9,21.2,2.4,33s3.3,21.5,4.8,29c1.5,7.6,3.9,13.9,7,19.1c3,5.1,6.1,7.9,9.7,7.9c3,0,5.7-3,7.9-8.8
			c2.1-5.7,3.6-13,4.5-21.5c1.5-15.1,2.4-26,2.4-32.1s0-10.6,0-13.6c0-2.7-0.3-7-0.3-12.4c-0.3-5.4-0.6-10.6-0.9-15.1
			c-0.6-4.8-0.9-10-1.8-15.7c-0.6-5.7-1.8-10.9-2.7-15.4C309.1,323.2,307.6,318.9,306.1,315z"/>
		<path class="st3" d="M394.1,384l0.6,4.8c0,10.9-2.7,23.6-8.8,38.4c-6.7,16.9-14.5,28.7-23.9,35.7c-5.1,3.9-10.6,6.1-16,6.1
			c-3,0-5.4-0.6-7.9-1.8c-2.4-1.2-3.6-3.3-3.6-5.7c3.3-3.6,5.1-12.4,5.1-26.9c0-8.5-0.6-21.2-2.1-38.1s-2.1-29.3-2.1-37.8l0.6-25.1
			c0-3.9-0.9-9.4-2.4-16.3c-1.5-7-2.4-11.8-2.4-14.5c0-5.4,6.1-7.9,17.8-7.9h3.6c16,0,27.5,8.8,34.5,26.3c5.1,12.1,7.6,29,7.6,50.5
			v10.6C394.4,382.5,394.1,383.1,394.1,384z M351.2,433.6v22.1c5.7-3.6,10.9-9.1,15.4-15.7c4.2-6.7,7.6-13.9,10-21.8
			c4.2-15.1,6.4-30.3,6.4-45.4c0-17.2-2.1-30.9-6.7-41.1c-4.5-10.3-10-17.2-16.6-20.3c-4.2-2.1-8.8-3-13.9-3v0.3
			c0,13.9,0.9,34.5,2.7,62.3C350.3,398.8,351.2,419.7,351.2,433.6z"/>
		<path class="st3" d="M398.4,465.7c0-4.2,1.8-6.1,5.1-6.1c1.8,0,3.9,0.6,7,1.8c2.7,1.2,5.4,1.8,7.6,1.8s4.2-1.2,6.7-3.9
			c2.4-2.7,4.2-5.7,5.7-9.7c2.7-7.9,4.2-15.1,4.2-21.5s-1.2-13.3-3.3-20.6c-2.4-7.3-5.1-14.2-8.5-20.6c-3.3-6.4-6.7-12.7-10-19.4
			c-7.9-15.4-11.8-29.3-11.8-41.7c0-11.8,3.6-21.2,11.5-28.1c4.2-3.6,9.1-5.4,14.5-5.4c2.7,0,5.4,0.9,8.2,2.4s4.5,3.6,5.7,6.1
			l-3.9,4.8c-3.9,0-7-0.6-9.1-2.1c-3,0.3-5.4,1.5-7.6,3.9c-3.9,4.5-5.7,10-5.7,16.3c0,6.4,0.9,12.7,2.4,18.8
			c1.8,6.1,3.6,11.5,6.4,16.3c2.4,4.8,5.1,10,8.2,15.7c3,5.7,5.7,11.2,8.2,16.3c5.7,12.1,8.8,25.1,8.8,39.3c0,10-2.4,19.4-7.6,28.4
			c-2.4,4.2-5.7,7.9-10,10.6c-4.2,2.7-9.1,4.2-14.2,4.2c-5.7,0-10-0.9-13.3-2.4S398.4,467.5,398.4,465.7z"/>
	</g>
</g>
<path class="st4" d="M349.3,482.6c1.8-0.6,2.4-2.1,2.1-4.2c0.6,0,1.2-0.6,1.5-0.9c-0.9-0.3-0.6-0.9-1.8-0.6c0.9-2.4,1.8-3.9,4.2-4.2
	c0-2.4,0.9-4.8,0.3-7.3c-0.9-4.8-0.9-3,3.6-7c-0.9-0.6-0.9-1.8,0.3-2.4c-0.3-2.4,2.7-3,2.1-5.7c-0.6,0-1.5-0.9-2.1-0.9
	c2.7-2.4,0.3-3,0.3-4.8c0-2.4,2.4-3.3,4.2-4.2c-0.6-0.3-1.5-1.2-2.1-1.2c0.9-0.9,1.5-1.8,2.1-2.7c0.3-0.6,0.9-0.9,1.2-1.5
	c0.3-0.3-0.3-1.2,0-1.5c0.9-1.5,4.8-4.2,0.9-4.8c0.6-0.9,0.6-1.8,1.2-2.4c0.3-0.6,1.8-1.8,2.1-2.4c0.6-2.1-1.5-3.9-3-4.5
	c1.8-1.2,3-1.8,3.9-3.3c0.6-0.6,0.9-1.8,1.2-2.4c0.9-1.8,0.9-3.9,2.7-6.1l0.3,0.6c0,3.3,4.5,3.6,3.9,6.7c-0.6,0-1.5,0.3-2.1,0
	c0,1.2,1.8,4.2,2.4,5.4c0.9,1.2,3.3,2.7,3,4.2c0,1.2-1.8,1.5-1.8,2.7c0,0.6,1.2,1.5,1.5,2.1c0.9,1.5,1.5,3.6,1.5,5.4
	c0.3,1.5,0.3,2.4,0.9,3.6c0.6,1.5,1.8,2.4,2.1,3.3c0.6,2.1-0.3,2.4-0.6,4.5c0,2.1,2.4,1.2-0.3,3.9c1.5,1.8,7.6,6.7,4.5,9.4
	c0.6,0.6,1.8,0.9,2.7,1.8c-0.6,0-1.8,0.9-2.4,1.2c2.7,1.5,2.1,2.1,3.3,4.5c0.6,1.8,3,3.6,3.3,5.4c-0.6,0-1.5,0.6-2.1,0.6
	c0.9,1.2,1.2,3.6,3.3,3.6c0,1.2-0.9,2.1-1.5,3.3c1.5,0.9,1.2,2.4,1.2,3.9c-0.3,0-0.6,0-0.9,0"/>
<path class="st2" d="M129.1,106c-0.3-0.6-0.6-0.9-0.6-1.5c3,0,2.7-1.2,2.1-3c-0.3-1.2-3-3.6-3.6-4.8c-0.6-0.9-1.2-2.1-2.1-2.4
	c0.6,0,1.5-0.6,2.1-0.6c-1.5-2.1-2.1-3-3-4.8c-0.3-0.6-0.3-1.8-0.6-2.7c-1.2-2.4-5.1-3-5.4-5.1c6.1-0.9-3.6-13.3,0.3-15.4
	c-0.3-2.4-0.6-5.1-1.5-6.7c-1.2-2.4-3,0.3-2.7-3.3c0-1.5,2.4-0.9,2.1-3c-0.6,0-1.2,0-1.8-0.3c1.8-3.9-0.9-4.8-3.6-6.7
	c5.1-1.2,0.3-6.4-1.2-8.5c0.6-3-3.3-5.4-4.2-8.5l-2.7,1.5c0,3-3.6,4.5-4.2,7.3c0.6,0,1.2,0,1.8,0c1.2,3.9-2.7,5.1-5.4,6.7
	c7,4.8-7.6,8.2,0.6,12.7c-1.5,0.9-2.1,2.1-2.7,3.3c-0.3,0.9-0.6,3-0.6,3.9c0,0.3-1.5,1.8-1.8,2.4c0,0.3-0.3,3-0.3,3.6
	c-0.9,2.7-3,2.7-4.2,5.1c-1.2,2.1,0.3,6.7,0,9.7c-0.6,3,0.3,7.9-3.9,7.9c0.6,0.6,1.2,2.4,2.1,3c-1.8,0.9-7.3,0.6-8.2,1.8
	c-0.9,1.2,0.3,1.2,0.3,2.1c0,2.7,3,5.4,4.8,7c0,0.3-0.3,0.6-0.6,0.9"/>
<path class="st1" d="M86.5,161.3c1.8,0,3.6,0,5.4-0.9c-0.3-1.8,0.9-6.1-0.9-7c0.9-1.2,1.5-2.7,0.3-3.9c0.6,0,3.3-3,3.3-3.9
	c0-0.6-1.8-1.2-2.1-1.8c-0.6-0.9-0.6-2.1-1.2-3c1.2-1.5,7.3-3.6,4.2-6.4c2.7-0.6,1.2-4.5,1.8-6.4c0.9-2.4,3.6-6.1,1.2-8.8
	c1.2-0.9,2.7-2.1,3.9-2.7c1.8-1.2,2.1,0.3,2.4-2.4c0-2.1-4.5-6.7-0.3-6.7c0.3-1.2,0.3-2.7,0.3-3.6c0,0,0.9-1.5,0.9-1.8
	s-0.9-0.6-0.6-1.2c0.3-0.6,1.2-0.9,1.2-1.2c1.2-2.7,5.4-5.1,4.8-8.8l0.6,0.3c0.9,0.9,2.4,2.1,2.7,3.6c0.3,1.2-0.6,2.1,0,3.3
	c0.3,1.2,1.8,1.2,2.1,2.4c0,0.6-0.3,1.2-0.3,1.5s-0.9,0.6-0.9,1.5c0.3,1.5,3.3,2.7,4.5,3.3c-0.9,1.2-1.2,5.7-0.9,7
	c0.6,1.8,2.7,2.4,3.3,3.9c0,0,0.3,3,0.3,3.3c0.3,2.4,0.3,5.1,1.2,7.6c0.6,1.5,2.4,2.7,1.5,4.2c1.2,1.2,3.6,2.7,1.2,4.2
	c1.5,0.9,3.3,3.3,1.5,4.8c1.8,1.8,1.2,3.6,1.5,5.7c0.3,2.4,1.5,4.5,3,6.4c-0.3,0.3-0.6,0.6-0.9,0.6c3,2.1,1.2,8.2,5.1,9.1"/>
<path class="st1" d="M55.3,209.1c-0.3,0.3-0.3,0.3-0.6,0.3c-0.3-0.6,0-1.5,0-2.1c0.9,0,1.5-0.6,2.1-0.9c-3.3-2.7-2.1-3.3,0-5.7
	c-1.2-0.6-1.5-1.5-1.5-2.7c3.3-0.6,0.6-1.8,1.2-2.7c0.9-1.8,4.2-1.8,4.5-3.9c-0.9-0.3-2.1-0.6-3-1.2c0.3-1.8,3.3-1.2,4.5-2.4
	c-2.1-1.2-3.9-1.8-3.3-4.5c-0.6-0.3-1.2-0.9-1.5-1.2c3.9-1.2,6.1-3.9,4.8-8.2c1.5-0.6,3-1.5,3.3-3c-0.3,0-0.9,0-1.5,0
	c0.9-0.9,0.6-2.1,1.2-3c0.9-1.2,2.1-1.8,3.3-2.7c-0.6-0.6-2.1-1.2-2.4-2.1c0-0.6,0.6-0.6,0.6-0.9c-0.3-1.2,1.2-1.8-0.6-2.7
	c0.9-0.3,1.2-1.2,1.8-1.5c-3.3-2.1,5.7-3.3,1.8-7c1.2-0.6,2.7-0.9,3-2.1c-0.9,0-1.8-0.6-2.4-0.9c1.8-1.8,2.7-4.5,4.5-6.4
	c-0.3,0-0.6-0.6-1.2-0.9c0.6-2.1,1.5-3.9,1.5-6.4c1.8-0.6,3.6-1.8,5.1-2.7c-3.3-0.6,0.6-4.5-1.5-6.4c0.9-0.6,1.5-0.9,1.5-2.1
	c-0.9-0.3-1.2-0.9-1.8-1.5c3.3-1.8,1.2-7,5.7-8.2l0.6,1.2c0.6,1.8,2.4,2.7,2.7,4.8c-3.3,0.6,0.3,3.9,1.5,5.1c-4.5,0.6-0.9,3,0,4.8
	c0.6,0.9,0.6,2.7,1.2,3.6c0.9,1.8,1.2,2.4,3,3.9c-0.6,1.2-1.8,1.5-2.7,2.1c0.6,1.2,2.1,1.8,2.7,2.7c0.3,0.6-0.6,1.2-0.3,1.5
	c0.3,0.9,0.6,2.4,1.2,3.3c1.8,3,2.7,6.1,5.4,8.8c-0.9,1.2-0.3,2.4,0.3,3.6c-2.4,1.2,0.3,2.4,0.9,3.9c0.6,1.8-1.5,3-1.2,4.2
	c0.3,0.9,3,0.6,3.3,2.4c0.3,1.2-1.2,1.8-1.2,3c0,0.9,1.5,1.5,1.8,2.1c0.3,0.6-0.3,1.2,0,1.8c0.3,1.2,0.6,2.1,1.2,3.3
	c0.6,1.5,0.3,3,0.9,4.5c0.3,0.9,1.5,0.9,1.8,1.8c0.3,0.6,0.3,1.5,0.3,2.1c-0.3,0-0.3,0-0.6,0c-0.3,1.2,0.9,3.6,1.5,4.5
	c0.6,0.9,2.4,2.4,1.5,3.6c0.9,1.8,2.1,3,3.3,4.8c-4.8,0,0.9,4.5-0.6,7"/>
<path class="st2" d="M140,234.5c-0.3-0.6-0.6-0.9-0.6-1.8c3.6,0,3.3-1.5,2.7-3.9c-0.3-1.5-3.9-4.5-4.5-6.1c-0.6-1.2-1.5-2.4-2.7-3
	c0.9,0,1.8-0.6,2.7-0.9c-1.8-2.4-2.7-3.9-3.6-6.1c-0.3-0.9-0.3-2.4-0.6-3.6c-1.5-3-6.4-3.9-6.7-6.4c7.6-0.9-4.5-16.6,0.6-19.1
	c-0.3-3-0.9-6.4-1.8-8.2c-1.5-3-3.6,0.6-3.3-3.9c0-2.1,3-1.2,2.4-3.6c-0.6,0-1.5-0.3-2.4-0.3c2.4-4.8-1.2-6.1-4.5-8.2
	c6.4-1.2,0.3-7.9-1.5-10.3c0.6-3.6-3.9-7-5.4-10.6l-3.3,1.8c0,3.9-4.5,5.4-5.1,9.1c0.6,0,1.8,0.3,2.4,0c1.5,4.8-3.3,6.4-7,8.2
	c8.5,6.1-9.7,10.3,0.6,15.7c-1.8,1.2-2.7,2.7-3.3,4.2c-0.6,1.2-0.6,3.9-0.9,5.1c0,0.3-2.1,2.1-2.4,3c-0.3,0.3-0.3,3.6-0.6,4.5
	c-0.9,3.6-3.9,3.3-5.4,6.4c-1.2,2.7,0.3,8.2-0.3,11.8c-0.6,3.9,0.6,9.7-5.1,9.7c0.9,0.9,1.5,3,2.7,3.9c-2.1,0.9-9.1,0.6-10,2.4
	c-0.9,1.5,0.6,1.5,0.6,2.7c0,3.3,3.6,6.7,6.1,8.8c-0.3,0.3-0.3,0.6-0.6,1.2"/>
<path class="st1" d="M85.6,275.1c-0.9-4.2,3-7.6,0-11.2c3.9-1.2,1.5-4.8,2.4-7.6c0.6-1.5,2.1-2.1,2.7-3.3c0.6-1.2-0.3-3.3,0.3-4.2
	c1.8-3,4.5-1.2,4.5-5.7c0-1.2,0-2.4-0.3-3.3s-2.7-1.5-2.4-3c0.3-1.8,3.3-1.2,3.9-2.4c0.6-0.9-0.3-2.4,0-3.3c0.9-3,3-5.4,3.9-8.2
	c0.9-2.1,0.9-5.7,1.8-7.9c1.2-2.4,4.2-3.9,5.4-6.7c0.3,2.4,2.4,3.6,3.3,5.7c0.6,1.2-0.6,1.8-0.3,3c0.3,1.2,1.2,1.2,1.5,3
	c0,1.5-1.2,3-0.9,4.5c0.3,0.9,1.2,1.5,1.5,2.4c0.3,1.5,0,2.7,0.3,4.2c0.3,2.1,0.9,5.4,2.1,7.3c1.8,3,3.9,4.5,5.1,7.9
	c0.6,1.8,0.6,4.2,0.9,6.4c0.9,4.5,0.3,10.3,3.3,14.8c-3,2.4-0.3,6.4,2.1,7.9"/>
<path class="st4" d="M329.1,492c1.2-0.6,1.5-1.5,1.5-2.7c0.3,0,0.6-0.3,0.9-0.6c-0.6-0.3-0.3-0.6-1.2-0.3c0.6-1.5,1.2-2.4,2.7-2.4
	c0-1.5,0.6-3,0.3-4.5c-0.6-3-0.6-1.8,2.1-4.2c-0.6-0.3-0.6-1.2,0.3-1.5c-0.3-1.5,1.8-1.8,1.5-3.6c-0.6,0-0.9-0.6-1.2-0.6
	c1.5-1.5,0.3-1.8,0.3-3c0-1.5,1.5-2.1,2.7-2.7c-0.3,0-0.9-0.6-1.2-0.9c0.6-0.6,0.9-1.2,1.2-1.5c0.3-0.3,0.6-0.6,0.9-0.9
	c0-0.3,0-0.6,0-0.9c0.6-0.9,3-2.7,0.6-3c0.3-0.6,0.6-1.2,0.6-1.5c0.3-0.3,1.2-1.2,1.2-1.5c0.3-1.2-0.9-2.4-1.8-3
	c1.2-0.6,1.8-1.2,2.4-2.1c0.3-0.3,0.6-1.2,0.9-1.5c0.6-1.2,0.6-2.4,1.8-3.6l0.3,0.6c0,2.1,2.7,2.4,2.4,3.9c-0.3,0-0.9,0.3-1.2,0
	c0,0.6,1.2,2.7,1.5,3.3c0.6,0.9,2.1,1.5,1.8,2.7c0,0.6-1.2,0.9-1.2,1.5c0,0.3,0.6,0.9,0.9,1.5c0.6,0.9,0.9,2.1,0.9,3.3
	c0,0.9,0.3,1.5,0.6,2.1c0.3,0.9,0.9,1.5,1.2,2.1c0.6,1.2-0.3,1.5-0.3,2.7s1.5,0.9-0.3,2.4c0.9,1.2,4.5,4.2,2.7,5.7
	c0.6,0.3,1.2,0.6,1.5,1.2c-0.3,0-1.2,0.6-1.5,0.6c1.8,0.9,1.5,1.2,2.1,2.7c0.6,1.2,1.8,2.1,2.1,3.3c-0.3,0-0.9,0.3-1.2,0.3
	c0.6,0.9,0.6,2.1,2.1,2.4c0,0.9-0.6,1.2-0.9,2.1c0.9,0.6,0.9,1.5,0.6,2.4c-0.3,0-0.3,0-0.6,0"/>
<path class="st1" d="M163.3,480.5c-0.9-3.3,2.1-5.7,0-8.5c3-0.9,1.2-3.6,1.8-5.7c0.3-1.2,1.5-1.5,2.1-2.4c0.3-0.9-0.3-2.4,0.3-3.3
	c1.2-2.4,3.3-0.9,3.3-4.5c0-0.9,0-1.8,0-2.4c-0.3-0.6-2.1-1.2-1.8-2.1c0.3-1.2,2.4-0.9,3-1.8c0.3-0.6-0.3-1.8,0-2.4
	c0.6-2.1,2.1-3.9,3-6.4c0.6-1.8,0.6-4.5,1.5-6.1c0.9-1.8,3-3,3.9-4.8c0,1.8,1.8,2.7,2.4,4.2c0.3,0.9-0.3,1.5-0.3,2.1
	c0.3,0.9,0.9,0.9,1.2,2.4c0,1.2-0.9,2.1-0.6,3.3c0,0.9,0.9,1.2,1.2,1.8c0.3,0.9,0,2.1,0.3,3c0.3,1.5,0.9,3.9,1.8,5.4
	c1.5,2.1,3,3.6,3.9,6.1c0.6,1.5,0.3,3.3,0.6,4.8c0.9,3.6,0.3,7.9,2.4,11.2c-2.4,1.8-0.3,4.8,1.5,6.1"/>
<path class="st2" d="M202.3,484.7c-0.3-0.3-0.3-0.3-0.3-0.9c1.5,0,1.5-0.6,1.2-1.5c-0.3-0.6-1.5-1.8-2.1-2.4
	c-0.3-0.6-0.6-0.9-1.2-1.2c0.3,0,0.6-0.3,1.2-0.3c-0.9-1.2-1.2-1.5-1.5-2.4c-0.3-0.3,0-0.9-0.3-1.5c-0.6-1.2-2.7-1.5-2.7-2.7
	c3.3-0.3-1.8-7,0.3-8.2c0-1.2-0.3-2.7-0.9-3.6c-0.6-1.2-1.5,0.3-1.5-1.8c0-0.9,1.2-0.6,1.2-1.5c-0.3,0-0.6,0-0.9,0
	c0.9-2.1-0.6-2.4-1.8-3.3c2.7-0.6,0-3.3-0.6-4.2c0.3-1.5-1.8-3-2.4-4.5l-1.5,0.9c0,1.8-1.8,2.4-2.1,3.9c0.3,0,0.6,0,0.9,0
	c0.6,2.1-1.5,2.7-3,3.6c3.6,2.4-3.9,4.2,0.3,6.7c-0.9,0.6-1.2,1.2-1.5,1.8c-0.3,0.3-0.3,1.5-0.3,2.1c0,0.3-0.9,0.9-0.9,1.2
	c0,0.3,0,1.5-0.3,1.8c-0.3,1.5-1.5,1.5-2.1,2.7c-0.6,1.2,0.3,3.6,0,5.1c-0.3,1.5,0.3,3.9-2.1,4.2c0.3,0.3,0.6,1.2,1.2,1.5
	c-0.9,0.3-3.9,0.3-4.2,0.9c-0.3,0.6,0.3,0.6,0.3,1.2c0,1.5,1.5,2.7,2.4,3.6c0,0.3-0.3,0.3-0.3,0.6"/>
<path class="st1" d="M101.9,454.5c-0.3-0.6-0.6-0.9-0.6-1.5c3,0,3-1.2,2.4-3.3c-0.3-1.2-3.3-3.6-3.9-5.1c-0.6-0.9-1.2-2.1-2.1-2.7
	c0.6,0,1.5-0.6,2.1-0.9c-1.8-2.1-2.4-3.3-3-5.1c-0.3-0.6-0.3-2.1-0.6-3c-1.2-2.4-5.4-3.3-5.7-5.4c6.4-0.9-3.9-14.2,0.3-16
	c-0.3-2.7-0.6-5.4-1.5-7c-1.5-2.4-3,0.3-2.7-3.3c0-1.8,2.4-0.9,2.1-3.3c-0.6,0-1.2,0-1.8-0.3c1.8-3.9-0.9-5.1-3.9-7
	c5.4-1.2,0.3-6.7-1.5-8.8c0.6-3-3.3-5.7-4.5-8.8l-2.7,1.5c0,3.3-3.9,4.5-4.2,7.6c0.6,0,1.5,0,2.1,0c1.2,4.2-3,5.4-5.7,7
	c7.3,5.1-8.2,8.8,0.6,13.3c-1.5,0.9-2.1,2.1-2.7,3.6c-0.3,0.9-0.6,3.3-0.9,4.2c0,0.3-1.8,1.8-2.1,2.4c0,0.3-0.3,3-0.3,3.9
	c-0.9,3-3.3,3-4.5,5.4s0.3,7,0,10c-0.6,3.3,0.3,8.2-4.2,8.2c0.6,0.6,1.5,2.4,2.4,3.3c-1.8,0.9-7.6,0.6-8.5,2.1
	c-0.9,1.2,0.3,1.2,0.3,2.4c0,2.7,3,5.7,5.1,7.3c0,0.3-0.3,0.6-0.6,0.9"/>
<path class="st2" d="M360.5,227.9c-0.3-0.3-0.3-0.6-0.3-0.9c2.1,0,1.8-0.9,1.5-2.1c-0.3-0.9-2.1-2.4-2.7-3.3
	c-0.3-0.6-0.9-1.5-1.5-1.8c0.6,0,0.9-0.3,1.5-0.6c-1.2-1.5-1.5-2.1-2.1-3.3c-0.3-0.6,0-1.5-0.3-2.1c-0.9-1.5-3.6-2.1-3.9-3.6
	c4.2-0.6-2.4-9.4,0.3-10.9c0-1.8-0.6-3.6-1.2-4.8c-0.9-1.8-2.1,0.3-1.8-2.1c0-1.2,1.8-0.6,1.5-2.1c-0.3,0-0.9,0-1.2,0
	c1.2-2.7-0.6-3.3-2.7-4.5c3.6-0.9,0.3-4.5-0.9-5.7c0.3-2.1-2.4-3.9-3-6.1l-1.8,1.2c0,2.1-2.7,3-3,5.1c0.3,0,0.9,0,1.5,0
	c0.9,2.7-1.8,3.6-3.9,4.5c4.8,3.3-5.4,5.7,0.3,8.8c-0.9,0.6-1.5,1.5-1.8,2.4c-0.3,0.6-0.3,2.1-0.6,3c0,0.3-1.2,1.2-1.2,1.8
	c0,0.3,0,2.1-0.3,2.7c-0.6,2.1-2.1,1.8-3,3.6c-0.9,1.5,0.3,4.5,0,6.7c-0.3,2.1,0.3,5.4-2.7,5.4c0.6,0.3,0.9,1.8,1.5,2.1
	c-1.2,0.6-5.1,0.3-5.7,1.2c-0.6,0.9,0.3,0.9,0.3,1.5c0,1.8,2.1,3.6,3.3,4.8c0,0.3-0.3,0.3-0.3,0.6"/>
<path class="st2" d="M372.9,204.9c-0.3-0.6-0.6-0.9-0.6-1.5c3,0,2.7-1.2,2.1-3c-0.3-1.2-3-3.6-3.6-4.8c-0.6-0.9-1.2-2.1-2.1-2.4
	c0.6,0,1.5-0.6,2.1-0.6c-1.5-2.1-2.1-3-3-4.8c-0.3-0.6-0.3-1.8-0.6-2.7c-1.2-2.4-5.1-3-5.4-5.1c6.1-0.9-3.6-13.3,0.3-15.4
	c-0.3-2.4-0.6-5.1-1.5-6.7c-1.2-2.4-3,0.3-2.7-3.3c0-1.5,2.4-0.9,2.1-3c-0.6,0-1.2,0-1.8-0.3c1.8-3.9-0.9-4.8-3.6-6.7
	c5.1-1.2,0.3-6.4-1.2-8.5c0.6-3-3.3-5.4-4.2-8.5l-2.7,1.5c0,3-3.6,4.5-4.2,7.3c0.6,0,1.2,0,1.8,0c1.2,3.9-2.7,5.1-5.4,6.7
	c7,4.8-7.6,8.2,0.6,12.7c-1.5,0.9-2.1,2.1-2.7,3.3c-0.3,0.9-0.6,3-0.6,3.9c0,0.3-1.5,1.8-1.8,2.4c0,0.3-0.3,3-0.3,3.6
	c-0.9,2.7-3,2.7-4.2,5.1c-1.2,2.1,0.3,6.7,0,9.7c-0.6,3,0.3,7.9-3.9,7.9c0.6,0.6,1.2,2.4,2.1,3c-1.8,0.9-7.3,0.6-8.2,1.8
	c-0.9,1.2,0.3,1.2,0.3,2.1c0,2.7,3,5.4,4.8,7c0,0.3-0.3,0.6-0.6,0.9"/>
<path class="st1" d="M384.1,187.9c0.3-1.8-0.9-6.1,0.9-7c-0.9-1.2-1.5-2.7-0.3-3.9c-0.6,0-3.3-3-3.3-3.9c0-0.6,1.8-1.2,2.1-1.8
	c0.6-0.9,0.6-2.1,1.2-3c-1.2-1.5-7.3-3.6-4.2-6.4c-2.7-0.6-1.2-4.5-1.8-6.4c-0.9-2.4-3.6-6.1-1.2-8.8c-1.2-0.9-2.7-2.1-3.9-2.7
	c-1.8-1.2-2.1,0.3-2.4-2.4c0-2.1,4.5-6.7,0.3-6.7c-0.3-1.2-0.3-2.7-0.3-3.6c0,0-0.9-1.5-0.9-1.8s0.9-0.6,0.6-1.2
	c-0.3-0.6-1.2-0.9-1.2-1.2c-1.2-2.7-5.4-5.1-4.8-8.8l-0.6,0.3c-0.9,0.9-2.4,2.1-2.7,3.6c-0.3,1.2,0.6,2.1,0,3.3
	c-0.3,1.2-1.8,1.2-2.1,2.4c0,0.6,0.3,1.2,0.3,1.5c0,0.3,0.9,0.6,0.9,1.5c-0.3,1.5-3.3,2.7-4.5,3.3c0.9,1.2,1.2,5.7,0.9,7
	c-0.6,1.8-2.7,2.4-3.3,3.9c0,0-0.3,3-0.3,3.3c-0.3,2.4-0.3,5.1-1.2,7.6c-0.6,1.5-2.4,2.7-1.5,4.2c-1.2,1.2-3.6,2.7-1.2,4.2
	c-1.5,0.9-3.3,3.3-1.5,4.8c-1.8,1.8-1.2,3.6-1.5,5.7c-0.3,2.4-1.5,4.5-3,6.4c0.3,0.3,0.6,0.6,0.9,0.6c-3,2.1-1.2,8.2-5.1,9.1"/>
<path class="st2" d="M381.1,197.9c-0.3-0.3-0.3-0.3-0.3-0.9c1.5,0,1.5-0.6,1.2-1.5c-0.3-0.6-1.5-1.8-2.1-2.4
	c-0.3-0.6-0.6-0.9-1.2-1.2c0.3,0,0.6-0.3,1.2-0.3c-0.9-1.2-1.2-1.5-1.5-2.4c-0.3-0.3,0-0.9-0.3-1.5c-0.6-1.2-2.7-1.5-2.7-2.7
	c3.3-0.3-1.8-7,0.3-8.2c0-1.2-0.3-2.7-0.9-3.6c-0.6-1.2-1.5,0.3-1.5-1.8c0-0.9,1.2-0.6,1.2-1.5c-0.3,0-0.6,0-0.9,0
	c0.9-2.1-0.6-2.4-1.8-3.3c2.7-0.6,0-3.3-0.6-4.2c0.3-1.5-1.8-2.7-2.4-4.5l-1.5,0.9c0,1.8-1.8,2.4-2.1,3.9c0.3,0,0.6,0,0.9,0
	c0.6,2.1-1.5,2.7-3,3.6c3.6,2.4-3.9,4.2,0.3,6.7c-0.9,0.6-1.2,1.2-1.5,1.8c-0.3,0.3-0.3,1.5-0.3,2.1c0,0.3-0.9,0.9-0.9,1.2
	c0,0.3,0,1.5-0.3,1.8c-0.3,1.5-1.5,1.5-2.1,2.7c-0.6,1.2,0.3,3.6,0,5.1s0.3,3.9-2.1,4.2c0.3,0.3,0.6,1.2,1.2,1.5
	c-0.9,0.3-3.9,0.3-4.2,0.9c-0.3,0.6,0.3,0.6,0.3,1.2c0,1.5,1.5,2.7,2.4,3.6c0,0.3-0.3,0.3-0.3,0.6"/>
<path class="st2" d="M106.4,483.5c-0.3-0.6-0.6-0.9-0.6-1.5c3,0,3-1.2,2.4-3.3c-0.3-1.2-3.3-3.6-3.9-5.1c-0.6-0.9-1.2-2.1-2.1-2.7
	c0.6,0,1.5-0.6,2.1-0.9c-1.8-2.1-2.4-3.3-3-5.1c-0.3-0.6-0.3-2.1-0.6-3c-1.2-2.4-5.4-3.3-5.7-5.4c6.4-0.9-3.9-14.2,0.3-16
	c-0.3-2.7-0.6-5.4-1.5-7c-1.5-2.4-3,0.3-2.7-3.3c0-1.8,2.4-0.9,2.1-3.3c-0.6,0-1.2,0-1.8-0.3c1.8-3.9-0.9-5.1-3.9-7
	c5.4-1.2,0.3-6.7-1.5-8.8c0.6-3-3.3-5.7-4.5-8.8l-2.7,1.5c0,3.3-3.9,4.5-4.2,7.6c0.6,0,1.5,0,2.1,0c1.2,4.2-3,5.4-5.7,7
	c7.3,5.1-8.2,8.8,0.6,13.3c-1.5,0.9-2.1,2.1-2.7,3.6c-0.3,0.9-0.6,3.3-0.9,4.2c0,0.3-1.8,1.8-2.1,2.4c0,0.3-0.3,3-0.3,3.9
	c-0.9,3-3.3,3-4.5,5.4c-1.2,2.4,0.3,7,0,10c-0.6,3.3,0.3,8.2-4.2,8.2c0.6,0.6,1.5,2.4,2.4,3.3c-1.8,0.9-7.6,0.6-8.5,2.1
	c-0.9,1.2,0.3,1.2,0.3,2.4c0,2.7,3,5.7,5.1,7.3c0,0.3-0.3,0.6-0.6,0.9"/>
<path class="st2" d="M113.4,455.7c-0.3-0.3-0.3-0.3-0.3-0.9c1.5,0,1.5-0.6,1.2-1.8c-0.3-0.6-1.8-1.8-2.1-2.7
	c-0.3-0.6-0.6-1.2-1.2-1.2c0.3,0,0.9-0.3,1.2-0.3c-0.9-1.2-1.2-1.8-1.5-2.7c-0.3-0.3,0-1.2-0.3-1.5c-0.6-1.2-2.7-1.8-3-2.7
	c3.3-0.3-1.8-7.3,0.3-8.5c0-1.5-0.3-2.7-0.9-3.6c-0.6-1.2-1.5,0.3-1.5-1.8c0-0.9,1.2-0.6,1.2-1.5c-0.3,0-0.6,0-0.9,0
	c0.9-2.1-0.6-2.7-2.1-3.6c2.7-0.6,0-3.6-0.6-4.5c0.3-1.5-1.8-3-2.4-4.5l-1.5,0.9c0,1.8-2.1,2.4-2.1,3.9c0.3,0,0.6,0,0.9,0
	c0.6,2.1-1.5,2.7-3,3.6c3.6,2.7-4.2,4.5,0.3,7c-0.9,0.6-1.2,1.2-1.5,1.8c-0.3,0.6-0.3,1.8-0.3,2.1s-0.9,0.9-0.9,1.2s0,1.5-0.3,2.1
	c-0.3,1.5-1.8,1.5-2.4,2.7c-0.6,1.2,0.3,3.6,0,5.1c-0.3,1.8,0.3,4.2-2.1,4.2c0.3,0.3,0.6,1.2,1.2,1.8c-0.9,0.3-3.9,0.3-4.5,0.9
	c-0.3,0.6,0.3,0.6,0.3,1.2c0,1.5,1.5,3,2.7,3.9c0,0.3-0.3,0.3-0.3,0.6"/>
<path class="st1" d="M163.6,254.8c-1.8-0.6-2.4-2.1-2.1-4.2c-0.6,0-1.2-0.6-1.5-0.9c0.9-0.3,0.6-0.9,1.8-0.6
	c-0.9-2.4-1.8-3.9-4.2-4.2c0-2.4-0.9-4.8-0.3-7.3c0.9-4.8,0.9-3-3.6-7c0.9-0.6,0.9-1.8-0.3-2.4c0.3-2.4-2.7-3-2.1-5.7
	c0.6,0,1.5-0.9,2.1-0.9c-2.7-2.4-0.3-3-0.3-4.8c0-2.4-2.4-3.3-4.2-4.2c0.6-0.3,1.5-1.2,2.1-1.2c-0.9-0.9-1.5-1.8-2.1-2.7
	c-0.3-0.6-0.9-0.9-1.2-1.5c-0.3-0.3,0.3-1.2,0-1.5c-0.9-1.5-4.8-4.2-0.9-4.8c-0.6-0.9-0.6-1.8-1.2-2.4c-0.3-0.6-1.8-1.8-2.1-2.4
	c-0.6-2.1,1.5-3.9,3-4.5c-1.8-1.2-3-1.8-3.9-3.3c-0.6-0.6-1.2-1.8-1.2-2.4c-0.9-1.8-0.9-3.9-2.7-6.1l-0.3,0.6c0,3.3-4.5,3.6-3.9,6.7
	c0.6,0,1.5,0.3,2.1,0c0,1.2-1.8,4.2-2.4,5.4c-0.9,1.2-3.3,2.7-3,4.2c0,1.2,1.8,1.5,1.8,2.7c0,0.6-1.2,1.5-1.5,2.1
	c-0.9,1.5-1.5,3.6-1.5,5.4c-0.3,1.5-0.3,2.4-0.9,3.6c-0.6,1.5-1.8,2.4-2.1,3.3c-0.6,2.1,0.3,2.4,0.6,4.5c0,2.1-2.4,1.2,0.3,3.9
	c-1.5,1.8-7.6,6.7-4.5,9.4c-0.6,0.6-1.8,0.9-2.7,1.8c0.6,0,1.8,0.9,2.4,1.2c-2.7,1.5-2.1,2.1-3.3,4.5c-0.6,1.8-3,3.6-3.3,5.4
	c0.6,0,1.5,0.6,2.1,0.6c-0.9,1.2-1.2,3.6-3.3,3.6c0,1.2,0.9,2.1,1.5,3.3c-1.5,0.9-1.2,2.4-1.2,3.9c0.3,0,0.6,0,0.9,0"/>
<path class="st2" d="M158.5,260.9c-0.3-0.3-0.3-0.3-0.3-0.9c1.5,0,1.5-0.6,1.2-1.5c-0.3-0.6-1.5-1.8-2.1-2.4
	c-0.3-0.6-0.6-0.9-1.2-1.2c0.3,0,0.6-0.3,1.2-0.3c-0.9-1.2-1.2-1.5-1.5-2.4c-0.3-0.3,0-0.9-0.3-1.5c-0.6-1.2-2.7-1.5-2.7-2.7
	c3.3-0.3-1.8-7,0.3-8.2c0-1.2-0.3-2.7-0.9-3.6c-0.6-1.2-1.5,0.3-1.5-1.8c0-0.9,1.2-0.6,1.2-1.5c-0.3,0-0.6,0-0.9,0
	c0.9-2.1-0.6-2.4-1.8-3.3c2.7-0.6,0-3.3-0.6-4.2c0.3-1.5-1.8-2.7-2.4-4.5l-1.5,0.9c0,1.8-1.8,2.4-2.1,3.9c0.3,0,0.6,0,0.9,0
	c0.6,2.1-1.5,2.7-3,3.6c3.6,2.4-3.9,4.2,0.3,6.7c-0.9,0.6-1.2,1.2-1.5,1.8c-0.3,0.3-0.3,1.5-0.3,2.1c0,0.3-0.9,0.9-0.9,1.2
	c0,0.3,0,1.5-0.3,1.8c-0.3,1.5-1.5,1.5-2.1,2.7c-0.6,1.2,0.3,3.6,0,5.1c-0.3,1.5,0.3,3.9-2.1,4.2c0.3,0.3,0.6,1.2,1.2,1.5
	c-0.9,0.3-3.9,0.3-4.2,0.9c-0.3,0.6,0.3,0.6,0.3,1.2c0,1.5,1.5,2.7,2.4,3.6c0,0.3-0.3,0.3-0.3,0.6"/>
<path class="st1" d="M322.7,275.1c-1.2-4.8,3.3-8.5,0-12.1c4.2-1.2,1.5-5.4,2.7-8.2c0.6-1.5,2.4-2.1,3-3.6c0.6-1.2-0.3-3.6,0.3-4.8
	c1.8-3.3,5.1-1.2,4.8-6.4c0-1.2,0-2.4-0.3-3.6c-0.3-0.9-3-1.8-2.7-3.3c0.6-1.8,3.6-1.2,4.5-2.7c0.6-0.9-0.3-2.7,0-3.6
	c0.9-3.3,3.3-6.1,4.2-9.1c0.9-2.4,0.9-6.4,2.1-8.8c1.5-2.4,4.5-4.2,6.1-7.3c0.3,2.7,2.7,3.9,3.6,6.4c0.6,1.2-0.6,2.1-0.3,3.3
	c0.3,1.2,1.5,1.2,1.5,3.3c0,1.8-1.2,3-0.9,4.8c0.3,1.2,1.5,1.5,1.8,2.7c0.3,1.5,0,3,0.3,4.5c0.3,2.4,1.2,6.1,2.4,8.2
	c2.1,3.3,4.2,5.1,5.7,8.8c0.9,2.1,0.6,4.8,0.9,7c1.2,5.1,0.3,11.5,3.6,16.6c-3.3,2.7-0.3,7,2.1,8.8"/>
<path class="st1" d="M348.4,230c-0.3-0.3-0.9-0.6-1.2-0.9c0.3-0.6,0.3-1.2,0.6-1.8c0.9,0,1.8-0.3,2.7-0.3c-1.2-0.9-3.3-0.9-2.7-2.7
	c0.3-1.2,1.8-0.6,1.8-2.1c-0.6-0.6-0.6-1.2-0.3-1.8c-0.3,0-0.3,0-0.6,0c-0.3-0.6-0.6-0.9-0.3-1.5c0.3-0.9,1.8-0.9,2.1-1.8
	c0.6-1.2-0.6-0.6-0.6-1.5c-0.6-1.8,1.2-1.8,1.8-2.7c0.6-0.9,0-2.4,0.3-3.6c0.3-1.5,0.6-2.7,2.4-3c-1.5-1.8-1.5-1.8-0.3-3.9
	c0-0.3,0-0.6,0.3-0.9c0.3-0.6,0.9-0.6,0.9-1.2c-0.3,0-0.3,0-0.6-0.3c0.3-0.3,0.9-0.6,1.2-1.2c-0.3,0-0.3,0-0.6,0
	c0.9-0.3,0.9-1.5,0.6-2.7c-0.3-1.8-0.3-1.5,1.8-2.7c-1.2-1.2,1.5-4.2-0.6-4.5c1.2-0.3,2.7-1.5,3-2.7l1.2-0.3
	c0.3,1.2,1.2,1.5,1.8,2.4c-1.8,0-0.6,1.2,0.3,2.1c-1.2,0.9,0,1.5,0.3,2.4c0,0.3,0,0.9,0,0.9c0.3,0.6,0.9,0.6,1.2,1.2
	c0.3,0.3,0,0.6,0.3,0.9c0.3,0.3,0.9,0.3,1.2,0.9c0,0.3-0.6,0.3-0.6,0.6c0.3,0.6,0.9,0.9,1.2,1.5c-0.3,0-0.3,0.3-0.3,0.3
	c0.3,0.9,0.9,1.5,0.9,2.4c0,0.3-0.3,0.9-0.3,1.5c0.6,0.9,1.2,1.8,1.2,2.7c0.3,0.6,0,1.5,0.6,2.1c-1.5,0.9,1.2,1.5,0.3,2.7
	c1.2,1.5,0.9,3.6,2.7,4.8c-0.3,0.6,0,1.2-0.3,1.5c0.6,0.6,0.9,0.6,1.2,1.2c0.3,0.3-0.6,0.6-0.3,0.6c0,0.6,0.9,0.9,0.9,1.5
	c0,0.3-0.3,0.9-0.3,0.9c0.3,0.9,1.8,2.7,1.2,3.9c1.5,1.5,0.6,3,2.1,4.8"/>
<g>
	<g>
		<path class="st3" d="M204.7,269c-1.2,5.1-1.8,8.8-1.8,11.8c0.6,0.6,1.2,1.5,1.2,2.4c0,0.6-0.3,1.2-0.9,1.2c-0.9,0-1.5-0.6-2.4-2.1
			c-0.6-1.2-0.9-2.4-0.9-4.2c0-1.5,0.6-5.7,2.1-13c0-0.6-0.3-1.2-0.3-1.2c0-0.6,0.3-0.9,0.9-1.2c2.1,0,3,1.2,3,2.7
			C205.7,266.6,205.4,267.8,204.7,269z M206.9,248.8c-2.1-0.3-3-1.5-3-3.3c0-0.3,0-0.6,0-0.9c0-1.2,0.9-2.1,2.4-2.4
			c1.8,0.3,2.7,1.5,2.7,3.6C208.7,247.5,208.1,248.4,206.9,248.8z"/>
		<path class="st3" d="M229.6,276.3c-0.3,1.8-0.3,4.2-0.9,7.3c0,0.6-0.3,0.9-0.9,0.9s-1.2-0.3-1.5-0.6c-0.3-0.6-0.6-1.2-0.6-1.5
			c0-0.6,0.3-1.8,0.3-3.3l0.9-9.1c-5.1,3.6-8.8,7.3-10.6,11.2c-0.3,0.6-0.6,1.5-0.9,2.1c-0.3,0.6-0.6,1.2-0.9,1.2
			c-1.2,0-1.8-0.6-2.1-1.8c-0.6-1.8-0.9-4.2-0.9-7.6c0-3.3,0.6-7.6,1.8-13c0-0.6,0.3-0.9,0.9-0.9s1.2,0.3,1.8,0.9
			c0.3,0.6,0.6,1.2,0.6,1.8c0,0.6-0.3,1.2-0.3,1.8c-0.9,3.6-1.2,7.6-1.2,12.1c4.2-5.4,8.8-9.4,13-12.1c0.6,0,1.2,0.3,1.8,0.6
			c0.6,0.6,0.9,1.2,0.9,1.5C230.2,269.6,229.9,272.7,229.6,276.3z"/>
		<path class="st3" d="M265.9,266.3h-0.9c-0.6,0-0.9-0.3-1.2-0.6c-0.6,0-1.5,0-3.3,0c-1.8,0-3,0-3.3,0c-1.2,5.4-1.8,8.2-1.8,8.5
			c-0.6,3.3-0.9,6.1-0.9,8.8c0.6,0.3,0.9,0.9,0.9,1.5c0,0.3-0.3,0.9-0.6,1.2c-0.3,0.3-0.9,0.6-1.2,0.6c-1.5,0-2.1-1.2-2.1-3.9
			c0-1.5,0.3-4.2,0.9-7.9l1.8-8.8c-1.8,0-2.7-0.6-2.7-1.8c0-1.2,1.2-1.8,3.3-1.8c0.6-3,1.8-7.9,3.6-13.9c0.3-0.9,0.9-1.5,1.5-1.5
			c1.2,0,1.8,0.6,1.8,1.8c0,0.3,0,0.6-0.3,1.2c-0.3,0.6-0.6,2.1-1.2,3.9c-0.9,3.3-1.5,6.1-2.1,8.5c0.3,0,0.9,0,2.1,0
			c1.2,0,2.1,0,2.4,0c2.7,0,3.9,0.9,3.9,2.4C266.8,264.8,266.5,265.7,265.9,266.3z"/>
		<path class="st3" d="M285.8,285.1c-1.8,0-2.7-1.8-3-5.7l-0.3-9.4c-5.1,3.3-8.5,6.7-10.3,10c-0.3,0.9-0.9,1.5-1.2,2.4
			c-0.6,1.2-0.9,2.1-1.2,2.1c-0.6,0-1.2-0.3-1.8-0.9c-0.6-0.6-0.6-1.2-0.6-1.5c0,0,0-0.3,0-0.9s0-0.9,0-0.9s0-0.6,0-1.2
			c0-0.6,0-1.2,0-1.2c0-3.6,0.3-7.9,1.2-13c0-0.3,0.6-4.2,2.1-12.1l0.9-6.1c0.3-1.2,0.3-1.8,0.6-2.1c0.3-0.3,0.3-0.6,0.9-0.6
			c0.6,0,1.2,0.3,1.5,0.9c0.3,0.6,0.6,1.2,0.6,1.8c0,0.3-0.3,1.5-0.9,4.2c-2.1,10.6-3.6,19.1-4.2,25.4c1.8-2.1,3.9-4.2,7-6.7
			c3.3-2.4,5.4-3.9,6.4-3.9c0.6,0,1.2,0.3,1.8,0.9c0.3,0.6,0.6,1.2,0.6,2.1c0,0.3,0,1.2-0.3,2.1c0,1.2,0,2.1,0,2.7
			c0,1.5,0,4.2,0.3,7.3c0,0.9,0.3,2.1,0.3,3.3C286.4,284.8,286.1,285.1,285.8,285.1z"/>
		<path class="st3" d="M305.2,284.8c-4.2,0-7.3-2.1-9.1-6.1c-0.3,0-0.9,0.3-1.5,0.3c-1.8,0-3.3-0.3-4.5-0.9
			c-1.2-0.6-2.1-1.5-2.1-2.4c0-1.2,0.6-1.8,1.5-1.8c0.3,0,0.6,0.3,1.5,0.9s1.8,0.9,2.7,0.9c0.3,0,0.6,0,0.9,0
			c-0.3-0.9-0.3-1.5-0.3-2.4c0-2.4,0.6-5.1,1.8-7.6c1.5-2.7,3.3-4.2,5.4-4.2c1.2,0,2.7,0.6,4.2,2.1c0.9,1.2,1.5,2.4,1.5,3.6
			c0,2.1-0.9,4.2-2.7,6.1c-1.5,1.8-3.6,3.3-6.1,4.2c1.2,2.1,2.7,3.3,5.1,3.3c0.6,0,1.2,0,2.4-0.3c0.9,0,1.5-0.3,1.8-0.3
			s0.9,0.3,1.2,0.6c0.3,0.3,0.6,0.9,0.6,1.2C310.3,283.8,308.5,284.8,305.2,284.8z M304,265.7c-0.6-0.6-1.2-0.6-1.8-0.6
			c-1.2,0-2.1,0.9-2.7,2.4c-0.9,1.5-1.2,3.3-1.2,5.1c0,0.6,0,1.5,0.3,2.1c1.8-0.6,3.3-1.8,4.5-3c1.2-1.2,1.8-2.4,1.8-3.9
			C304.9,266.9,304.6,266.3,304,265.7z"/>
	</g>
</g>
</svg>
