<?xml version="1.0" encoding="utf-8"?>
<!-- Generator: Adobe Illustrator 20.1.0, SVG Export Plug-In . SVG Version: 6.00 Build 0)  -->
<svg version="1.1" id="Layer_1" xmlns="http://www.w3.org/2000/svg" xmlns:xlink="http://www.w3.org/1999/xlink" x="0px" y="0px"
	 viewBox="0 0 500 500" style="enable-background:new 0 0 500 500;" xml:space="preserve">
<style type="text/css">
	.st0{fill:#CDCCCC;stroke:#CDCCCC;}
	.st1{fill:none;}
	.st2{fill:#1A2F24;}
	.st3{fill:#010101;}
	.st4{opacity:0.45;}
	.st5{fill:#CDCCCC;}
	.st6{fill:#006838;stroke:#006838;stroke-width:1.1358;stroke-linecap:round;stroke-linejoin:round;stroke-miterlimit:10;}
	.st7{fill:#FFFFFF;stroke:#FFFFFF;stroke-width:0.5679;stroke-miterlimit:10;}
</style>
<rect class="st0" width="500" height="500"/>
<g>
	<g>
		<line class="st1" x1="230" y1="293.7" x2="260.9" y2="244.3"/>
		<g id="Male_FRONT_1_">
			<g>
				<path class="st2" d="M209.8,52.6c5.3,2,17.6,10.7,42.1,9.5s40.6-10.7,45.2-9.5c4.5,1.2,6.9,6.9,8.6,7.6
					c1.7,0.7,15.2,5.2,36.6,13.8s30.7,11.4,33.5,15.7c2.9,4.3,7.4,13.1,14.7,21.2c7.4,8.1,37.3,40.9,46.1,49.4
					c8.8,8.6,10.5,10.7,10.5,12.1c0,1.4-9.8,8.3-19,15.2c-9.3,6.9-24.5,17.6-32.3,16.4c-7.8-1.2-22.3-21.9-31.4-28.3
					c0,0-5.2,30.4-9,47.8c-3.8,17.3-8.1,77.5-7.4,105.5s10.2,78.7,9,85.1s-36.2,35.9-90.6,31.4s-65.6-3.2-86-4.7
					c-20.4-1.4-30.3-7-35.6-15.8c-5.2-8.8,6.4-50.4,10.2-87.2s1.9-67.5-0.9-101c-2.9-33.5-4.3-46.6-8.8-53s-24.7,8.6-29.9,15
					c-5.2,6.4-8.3,9-9.7,9.3c-1.4,0.2-10.9,0-15.4-2.9S71,194.3,64.6,187.9c-6.4-6.4-9.7-10-9.7-12.1s19-23.1,28-33.8
					s40.2-50.9,49.4-57c9.3-6.2,29.7-8.1,40.9-13.1s25.2-12.8,25.2-12.8S207.3,51.6,209.8,52.6"/>
				<path class="st3" d="M277.6,446.9c-3.7,0-7.5-0.2-11.3-0.5c-35.4-2.9-52.3-3.4-65.8-3.8c-7-0.2-13.1-0.4-20.2-0.9
					c-19.2-1.3-30.4-6.4-36.3-16.2c-3.4-5.7-0.3-23.1,3.6-45.1c2.4-13.3,5-28.5,6.5-42.7c3.9-37.4,1.8-69-1-100.9
					c-2.9-33.9-4.3-46.4-8.6-52.5c-0.5-0.8-1.4-1.2-2.7-1.2c-6.8,0-21.2,10.7-25.7,16.2c-4.9,6.1-8.4,9.3-10.3,9.6
					c-0.4,0.1-1.1,0.1-1.6,0.1c-3.6,0-10.7-0.6-14.5-3.1c-0.9-0.6-2.3-1.4-3.9-2.3c-6.3-3.7-16.8-10-22-15.2c-7-7-10-10.3-10-12.8
					c0-1.6,4.7-7.2,18.7-23.3c3.6-4.1,7-8,9.6-11.1c2.1-2.5,5.5-6.6,9.3-11.5c13.2-16.3,33.1-40.9,40.3-45.8
					c5.4-3.6,14.4-5.8,23.1-7.9c6.5-1.6,13.1-3.2,17.9-5.3c11-4.9,25-12.7,25.1-12.8c0.7-0.6,8.3-6.6,11.6-6.6c0.3,0,0.6,0,0.9,0.1
					c1,0.4,2.1,0.9,3.6,1.6c6.7,3.2,18.2,8.8,38.1,7.8c14.9-0.7,26.8-4.6,34.7-7.2c5.3-1.7,8.8-2.8,10.7-2.3
					c3.2,0.8,5.4,3.7,6.9,5.7c0.6,0.8,1.4,1.8,1.7,1.9c0.4,0.2,1.7,0.6,3.7,1.4c5.6,2,17.1,6.1,32.9,12.4c4.2,1.7,7.9,3.1,11.2,4.4
					c13.9,5.4,20.2,7.9,22.7,11.6c0.7,1.1,1.5,2.4,2.4,3.9c2.8,4.7,6.7,11.1,12.2,17.1c11.1,12.2,37.8,41.4,46.1,49.4
					c9.3,9,10.8,11,10.8,12.8c0,1.5-2.9,3.8-14.7,12.5c-1.6,1.2-3.2,2.3-4.8,3.5c-10.2,7.6-25,17.8-33,16.6c-5-0.8-11.8-8.2-19.1-16
					c-4.2-4.5-8.1-8.8-11.5-11.5c-1.1,6.4-5.5,31.3-8.8,46.3c-3.9,17.6-8,77.7-7.3,105.3c0.4,15.4,3.5,37.8,5.9,55.7
					c2.1,15.4,3.6,26.5,3.1,29.5C356.6,421.2,324.8,446.9,277.6,446.9 M141.7,181.2c1.9,0,3.4,0.7,4.3,2c4.6,6.6,6,19.1,9,53.5
					c2.7,31.9,4.8,63.6,0.9,101.2c-1.5,14.3-4.2,29.5-6.5,42.8c-3.7,20.8-6.8,38.7-3.8,43.8c5.5,9.3,16.3,14,34.8,15.3
					c7.1,0.5,13.1,0.7,20.2,0.9c13.5,0.4,30.4,0.8,65.9,3.8c3.7,0.3,7.5,0.5,11.2,0.5c48.3,0,77.5-25.8,78.5-31.1
					c0.5-2.7-1.2-14.9-3.1-28.9c-2.5-18-5.6-40.4-5.9-55.9c-0.7-27.8,3.5-88.1,7.4-105.8c3.8-17.1,9-47.4,9-47.7l0.3-1.5l1.2,0.9
					c3.7,2.7,8.2,7.5,13,12.7c6.4,6.9,13.6,14.8,18,15.4c8.1,1.2,25.9-12,31.6-16.2c1.6-1.2,3.2-2.4,4.8-3.5
					c6-4.4,13.4-9.9,13.9-11.1c0-1-2.6-3.9-10.2-11.3c-8.3-8.1-35-37.3-46.1-49.5c-5.6-6.2-9.6-12.7-12.4-17.4
					c-0.9-1.5-1.7-2.8-2.4-3.9c-2.1-3.2-8.7-5.8-21.8-10.9c-3.3-1.3-7.1-2.8-11.3-4.4c-15.7-6.3-27.3-10.4-32.8-12.4
					c-2.1-0.7-3.4-1.2-3.8-1.4c-0.8-0.4-1.5-1.3-2.5-2.5c-1.5-1.9-3.3-4.3-5.9-5c-0.2,0-0.4-0.1-0.7-0.1c-1.8,0-5,1-9,2.4
					c-8,2.6-20,6.5-35.2,7.3c-20.4,1-32.7-4.9-39-8c-1.4-0.7-2.5-1.2-3.4-1.5c0,0-0.1,0-0.2,0c-2,0-7.5,3.9-10.5,6.3
					c-0.3,0.2-14.3,8-25.4,13c-4.9,2.2-11.7,3.8-18.2,5.4c-8.6,2.1-17.4,4.2-22.5,7.6c-7,4.7-26.8,29.2-39.9,45.4
					c-3.9,4.8-7.3,9-9.4,11.5c-2.6,3.1-6,7-9.6,11.1c-7.5,8.6-17.8,20.4-18.2,22.1c0,1.7,4.1,6,9.5,11.4c5,5,15.4,11.2,21.6,14.9
					c1.6,1,3,1.8,3.9,2.4c3.5,2.2,10.3,2.8,13.5,2.8c0.6,0,1.1,0,1.3-0.1c0.4-0.1,2.5-0.8,9.2-8.9
					C118.6,193.1,133.5,181.2,141.7,181.2"/>
				<g class="st4">
					<g>
						<rect x="365.4" y="145.3" class="st1" width="76.8" height="55.9"/>
						<path class="st5" d="M422.2,145.3c16.1,17.3,5.1,29-8.8,35.9c-13.9,6.9-27-17.7-27-17.7l4.6,15.6c-8.5-4-10.9-21.1-10.9-21.1
							c-0.3,7.2,0.3,19.4,0.3,19.4c-4.1-1.9-6-9.6-6-9.6l-0.3,8.4c-5.9-8.1-2.3-18.1-2.3-18.1l-6.5,16.9c0.3,0,0.7,0,1,0.2
							c2.6,1.4,5.8,3.7,7.6,6.2c2.3,3,4.5,5.3,7.2,8c3.8,3.8,7.9,7.4,11.3,11.6c3.6,0.8,7.9,0.5,12.3-1.1
							c7.6-2.7,37.4-22.7,37.4-27.7C442.2,166.9,422.2,145.3,422.2,145.3"/>
					</g>
				</g>
				<g class="st4">
					<g>
						<rect x="145.4" y="167.3" class="st1" width="97.8" height="272.2"/>
					</g>
				</g>
				<g class="st4">
					<g>
						<rect x="327.7" y="186.7" class="st1" width="31.3" height="246.7"/>
						<path class="st5" d="M354.8,190c-3.6,6-15.3,22.9-11.6,41.4c3.7,18.5-24,78.9-10.8,111.1s15,53.3,9,50.7c0,0,12.6,8.6,10.9,16
							l-15.1,8.8l-9.4,15.4c0,0,22.3-11.7,26.4-19.8c0,0-8.9-58.9-8.6-88.2c0.3-29.2,2.2-66.8,3.6-80.8c1.4-14,9-49,9.7-53.2
							C359.6,187.1,358.4,184.1,354.8,190"/>
					</g>
				</g>
				<g class="st4">
					<g>
						<rect x="207.9" y="55.5" class="st1" width="85.5" height="12.9"/>
						<path class="st5" d="M223.3,66.3c-11-2.3-14.4-6.1-15.2-8.7c-0.4-1.2,0.2-2.2,0.2-2.2c2.4-0.6,13.3,8.5,40.9,8.5
							c27.7,0,33.8-5.5,42.4-8.2c8.6-2.6-13,12.6-48.9,12.6C234.4,68.4,228.1,67.3,223.3,66.3"/>
					</g>
				</g>
				<g class="st4">
					<g>
						<rect x="272.7" y="63.3" class="st1" width="140.5" height="98.6"/>
						<path class="st5" d="M305.6,63.3c0,0-10.8,12.5-33,16.9c0,0,42.8-10.4,66.5,0c23.8,10.4,36.3,15.3,32.1,75.6
							c0,0,3.6-14.3,5.9-9.5c0,0,0.1-8.7,3.5-11.3c0,0,5,7.2,5.4,12c0,0,13.3-0.7,18.1,8.8c0,0,6.1,2.1,8.9,6.1
							c0,0-21.1-27.6-27.1-52.7c0,0-7.4-8.3-8.9-13.9c0,0-0.8-3.3-6.4-6.4S340,76,330.1,72.2C320.5,68.3,305.6,63.3,305.6,63.3"/>
					</g>
				</g>
				<g class="st4">
					<g>
						<rect x="131.1" y="55.5" class="st1" width="85.8" height="66.7"/>
						<path class="st5" d="M216.8,75.5c0,0-10-4.6-6.3-14.2c0,0-4.5-2.9-3.2-5.8l-8,7c0,0-17.8,10-29.1,13s-30.4,5.9-38.3,13.1
							c0,0-1.7,19.6-0.2,33.6c0,0,4.2-26,26.6-34.5C180.8,79.1,216.8,75.5,216.8,75.5"/>
					</g>
				</g>
				<g class="st4">
					<g>
						<rect x="194.3" y="198.8" class="st1" width="104" height="8.3"/>
					</g>
				</g>
				<g class="st4">
					<g>
						<rect x="332.6" y="258.8" class="st1" width="8.9" height="73"/>
					</g>
				</g>
				<g class="st4">
					<g>
						<rect x="91.4" y="145.5" class="st1" width="52.4" height="56.8"/>
						<path class="st5" d="M138.7,182.6c2.9-0.8,5,0.4,5,0.4c-0.3-0.7-7.5-20.7-8.9-30c0,0-1.2,16.2-9,18.1l-0.9-14.3
							c0,0-9.2,6.9-9.9,16.8l2.8-28.1c0,0-24.7,8.6-26.6,45.8l20.3,11c0,0,9-9.8,15.3-13.6C130.5,186.6,135.2,183.6,138.7,182.6"/>
					</g>
				</g>
				<g class="st4">
					<g>
						<rect x="60.5" y="150.2" class="st1" width="22.3" height="34.5"/>
						<path class="st5" d="M74.2,151.7c0,0-0.9,5,1.8,7.8l6.7-9.3c0,0-7.8,18-2.2,34.5l-20.1-16.5L74.2,151.7z"/>
					</g>
				</g>
				<g class="st4">
					<g>
						<rect x="54.6" y="168.5" class="st1" width="58.2" height="39.5"/>
						<path class="st5" d="M60.3,168.5l13.1,10.3c0,0,10.1,23.6,19.9,25.3s8.1-6.3,8.1-6.3l11.5,4.5c0,0-3.2,7.1-13.5,5.5
							s-30.9-16.5-30.9-16.5L57.9,181l-3.2-5.3l2.6-4L60.3,168.5z"/>
					</g>
				</g>
				<path class="st3" d="M280.8,59.1c8.4-2.2,12.8-4.5,15-4.5s-6.2,14.2-57.1,13.9c0,0,34-0.4,49.8-10.3L280.8,59.1z"/>
				<path class="st3" d="M208.1,56.8c-0.1-1.3,0.8-2.7,0.8-2.7s-2.2,1.1-1.4,3.6c0.3,1.1,7,15.4,59.9,9.2c0,0-43,6.7-58-7.6
					C209.2,59,208.1,58,208.1,56.8"/>
				<path class="st3" d="M394,190c-12.7-20.9-6.3-60.5-13.3-74.5c0,0,3.9,6.8,5.4,31.4S394,190,394,190"/>
				<path class="st3" d="M399.5,132.2l17.3,30.5c-19.6-24.3-29.5-55.5-29.5-55.5L399.5,132.2z"/>
				<path class="st3" d="M413.4,174.2c-0.2-0.3-0.3-0.7-0.5-1c-12.3-25.8-30.2-57-35.6-71.9c0,0,10.5,25.7,19.3,42.5"/>
				<path class="st3" d="M132.1,84.9c-1.2,19.7-2.2,63.8,13.1,98.9l-2.8-1.5c0,0-2.6-5.1-7.1-27.2c-4.6-22.1-4.7-68.9-4.7-68.9
					L132.1,84.9z"/>
				<path class="st3" d="M375.9,90.1c0.6,9.3,0.9,24.7-0.8,41.8c-1.5,14.9-4.5,31.1-10.7,45.5l2.5-0.2c0,0,2.3-5.7,6.3-25.2
					s4.1-60.8,4.1-60.8L375.9,90.1z"/>
				<path class="st3" d="M383.9,195.3c-8.8-26.6,0.9-61.5-5-74.8c4,16.2-3.6,51.9,3.4,73.1"/>
				<path class="st3" d="M375.1,186c-3.4-20.8,3.6-34.5,2.1-48.3c0.6,17.3-5.7,32.6-3.8,46.5"/>
				<path class="st3" d="M126.1,103.2c5,7.1-3.5,22.3-6.6,37.3s-5,40.6-5,40.6s1-25.4,3.8-40.9c2.9-15.4,7.1-21.1,8.1-27.2
					C127.5,106.9,126.1,103.2,126.1,103.2"/>
				<path class="st3" d="M125,145.3c-1,7.4-1.2,23.3,3.8,36.4C125.9,171.2,125,145.3,125,145.3"/>
				<path class="st3" d="M114.5,110.6c0,10.9-36.6,38-43.5,60.6c0,0,4.1-15.4,19-30.3C105,125.9,114.5,110.6,114.5,110.6"/>
				<path class="st3" d="M439.1,162.7c-12.8,12.3-34.6,29.3-53,34.8l1.3,2.2c0,0,17.1-9.2,30.4-18.5s22.4-17.4,22.4-17.4"/>
				<path class="st3" d="M112.1,202.4c0,0-12.4-4.4-25.3-13c-12.8-8.6-26.9-20.6-26.9-20.6l1.5-1.9c11.2,14.4,36.2,27.5,51.5,34.6"
					/>
				<path class="st3" d="M143.6,412.2c12.4,14.3,38.7,14,72.6,18.1s100.3,9.6,140.3-24.4c-34.1,28.3-97.1,29.9-130.7,24.2
					c-33.6-5.7-72.1-4-82-19.6"/>
				<path class="st3" d="M305.6,60.2c-3.1,2.6-6.4,6-10.8,8.4c-18.1,9.9-47.8,16.4-78,6.9c-7.1-2.2-12-5.8-17.6-13
					c0,0,10.1,18,52.4,16.2s52.9-19.5,52.9-19.5L305.6,60.2z"/>
				<path class="st3" d="M277.6,446.9c-3.7,0-7.5-0.2-11.3-0.5c-35.4-2.9-52.3-3.4-65.8-3.8c-7-0.2-13.1-0.4-20.2-0.9
					c-19.2-1.3-30.4-6.4-36.3-16.2c-3.4-5.7-0.3-23.1,3.6-45.1c2.4-13.3,5-28.5,6.5-42.7c3.9-37.4,1.8-69-1-100.9
					c-2.9-33.9-4.3-46.4-8.6-52.5c-0.5-0.8-1.4-1.2-2.7-1.2c-6.8,0-21.2,10.7-25.7,16.2c-4.9,6.1-8.4,9.3-10.3,9.6
					c-0.4,0.1-1.1,0.1-1.6,0.1c-3.6,0-10.7-0.6-14.5-3.1c-0.9-0.6-2.3-1.4-3.9-2.3c-6.3-3.7-16.8-10-22-15.2c-7-7-10-10.3-10-12.8
					c0-1.6,4.7-7.2,18.7-23.3c3.6-4.1,7-8,9.6-11.1c2.1-2.5,5.5-6.6,9.3-11.5c13.2-16.3,33.1-40.9,40.3-45.8
					c5.4-3.6,14.4-5.8,23.1-7.9c6.5-1.6,13.1-3.2,17.9-5.3c11-4.9,25-12.7,25.1-12.8c0.7-0.6,8.3-6.6,11.6-6.6c0.3,0,0.6,0,0.9,0.1
					c1,0.4,2.1,0.9,3.6,1.6c6.7,3.2,18.2,8.8,38.1,7.8c14.9-0.7,26.8-4.6,34.7-7.2c5.3-1.7,8.8-2.8,10.7-2.3
					c3.2,0.8,5.4,3.7,6.9,5.7c0.6,0.8,1.4,1.8,1.7,1.9c0.4,0.2,1.7,0.6,3.7,1.4c5.6,2,17.1,6.1,32.9,12.4c4.2,1.7,7.9,3.1,11.2,4.4
					c13.9,5.4,20.2,7.9,22.7,11.6c0.7,1.1,1.5,2.4,2.4,3.9c2.8,4.7,6.7,11.1,12.2,17.1c11.1,12.2,37.8,41.4,46.1,49.4
					c9.3,9,10.8,11,10.8,12.8c0,1.5-2.9,3.8-14.7,12.5c-1.6,1.2-3.2,2.3-4.8,3.5c-10.2,7.6-25,17.8-33,16.6c-5-0.8-11.8-8.2-19.1-16
					c-4.2-4.5-8.1-8.8-11.5-11.5c-1.1,6.4-5.5,31.3-8.8,46.3c-3.9,17.6-8,77.7-7.3,105.3c0.4,15.4,3.5,37.8,5.9,55.7
					c2.1,15.4,3.6,26.5,3.1,29.5C356.6,421.2,324.8,446.9,277.6,446.9 M141.7,181.2c1.9,0,3.4,0.7,4.3,2c4.6,6.6,6,19.1,9,53.5
					c2.7,31.9,4.8,63.6,0.9,101.2c-1.5,14.3-4.2,29.5-6.5,42.8c-3.7,20.8-6.8,38.7-3.8,43.8c5.5,9.3,16.3,14,34.8,15.3
					c7.1,0.5,13.1,0.7,20.2,0.9c13.5,0.4,30.4,0.8,65.9,3.8c3.7,0.3,7.5,0.5,11.2,0.5c48.3,0,77.5-25.8,78.5-31.1
					c0.5-2.7-1.2-14.9-3.1-28.9c-2.5-18-5.6-40.4-5.9-55.9c-0.7-27.8,3.5-88.1,7.4-105.8c3.8-17.1,9-47.4,9-47.7l0.3-1.5l1.2,0.9
					c3.7,2.7,8.2,7.5,13,12.7c6.4,6.9,13.6,14.8,18,15.4c8.1,1.2,25.9-12,31.6-16.2c1.6-1.2,3.2-2.4,4.8-3.5
					c6-4.4,13.4-9.9,13.9-11.1c0-1-2.6-3.9-10.2-11.3c-8.3-8.1-35-37.3-46.1-49.5c-5.6-6.2-9.6-12.7-12.4-17.4
					c-0.9-1.5-1.7-2.8-2.4-3.9c-2.1-3.2-8.7-5.8-21.8-10.9c-3.3-1.3-7.1-2.8-11.3-4.4c-15.7-6.3-27.3-10.4-32.8-12.4
					c-2.1-0.7-3.4-1.2-3.8-1.4c-0.8-0.4-1.5-1.3-2.5-2.5c-1.5-1.9-3.3-4.3-5.9-5c-1.4-0.4-5,0.8-9.7,2.3c-8,2.6-20,6.5-35.2,7.3
					c-20.4,1-32.7-4.9-39-8c-1.4-0.7-2.5-1.2-3.4-1.5c0,0-0.1,0-0.2,0c-2,0-7.5,3.9-10.5,6.3c-0.3,0.2-14.3,8-25.4,13
					c-4.9,2.2-11.7,3.8-18.2,5.4c-8.6,2.1-17.4,4.2-22.5,7.6c-7,4.7-26.8,29.2-39.9,45.4c-3.9,4.8-7.3,9-9.4,11.5
					c-2.6,3.1-6,7-9.6,11.1c-7.5,8.6-17.8,20.4-18.2,22.1c0,1.7,4.1,6,9.5,11.4c5,5,15.4,11.2,21.6,14.9c1.6,1,3,1.8,3.9,2.4
					c3.5,2.2,10.3,2.8,13.5,2.8c0.6,0,1.1,0,1.3-0.1c0.4-0.1,2.5-0.8,9.2-8.9C118.6,193.1,133.5,181.2,141.7,181.2"/>
			</g>
		</g>
	</g>
	<path class="st6" d="M223.8,178.2c-1.1-0.6-1-1.3-1-2.3c1.2-0.1,0.9-1.3,0.8-2c0-0.1-0.3-0.3-0.3-0.5c0-0.1,0.4-0.3,0.4-0.4
		c0-0.2-0.3-0.6-0.2-0.8c0.2-0.6,0.9-1.1,1.1-1.8c0.2-0.9,0.2-1.4-0.5-2.1c0.4-0.4,0.8-0.5,1.1-0.9c0.1-0.2,0.4-0.9,0.5-1.1
		c0.3-0.7,0-1.1,0.1-1.7c0.1-0.6,0.5-0.6,0.7-1.1c0.1-0.3-0.4-0.9-0.3-1.3c0.1-0.5,0.8-0.6,0.9-1c0.1-0.6-0.5-0.3-0.6-0.8
		c-0.1-0.7,0.6-1.1,0.6-1.7l0.2,0.2c1.2,0.7,1.2,1.7,0.9,2.7c0.4,0.2,0.7,0.2,0.9,0.6c0.2,0.3-0.2,0.9-0.1,1.2
		c0.1,1,0.9,0.8,1.3,1.6c0.3,0.7-0.2,0.5-0.4,1.2c-0.3,0.8,0.3,1.8,0.7,2.5c0.2,0.3,0.4,0.6,0.5,1c0.1,0.3-0.1,0.7,0,0.9
		c0.1,0.3,0.3,0.4,0.4,0.8c0,0.2-0.2,0.6-0.1,0.8c0.1,0.5,0.3,0.6,0.4,1c0.1,0.4,0,0.7,0.1,1.1c0.1,0.3,0.5,0.5,0.6,0.8
		c0,0.1,0,0.4,0,0.4c0.1,0.2,0.1,0.5,0.2,0.6c0.2,0.5,1.2,1.1,0.3,1.6"/>
	<path class="st6" d="M226.5,177.9c-0.1-0.1-0.1-0.2-0.1-0.4c0.7,0,0.7-0.3,0.5-0.8c-0.1-0.3-0.8-0.9-0.9-1.2
		c-0.1-0.2-0.3-0.5-0.5-0.6c0.2,0,0.3-0.2,0.5-0.2c-0.4-0.5-0.5-0.8-0.7-1.2c-0.1-0.2,0-0.5-0.1-0.7c-0.3-0.6-1.3-0.8-1.3-1.3
		c1.5-0.2-0.9-3.3,0.1-3.8c0-0.6-0.2-1.3-0.4-1.6c-0.3-0.6-0.7,0.1-0.7-0.8c0-0.4,0.6-0.2,0.5-0.7c-0.1,0-0.3,0-0.5,0
		c0.5-0.9-0.2-1.2-0.9-1.6c1.3-0.3,0.1-1.6-0.3-2.1c0.1-0.7-0.8-1.4-1.1-2.1l-0.6,0.4c0,0.8-0.9,1.1-1,1.8c0.1,0,0.3,0,0.5,0
		c0.3,1-0.7,1.3-1.4,1.6c1.7,1.2-1.9,2,0.1,3.1c-0.4,0.2-0.5,0.5-0.7,0.8c-0.1,0.2-0.1,0.8-0.2,1c0,0.1-0.4,0.4-0.5,0.6
		c0,0.1,0,0.7-0.1,0.9c-0.2,0.7-0.8,0.7-1.1,1.3s0.1,1.6,0,2.4c-0.1,0.8,0.1,1.9-1,1.9c0.2,0.2,0.3,0.6,0.6,0.8
		c-0.4,0.2-1.8,0.2-2,0.5s0.1,0.3,0.1,0.5c0,0.7,0.7,1.3,1.2,1.7c0,0.1-0.1,0.1-0.1,0.2"/>
	<path class="st2" d="M227.3,181.1c-0.1-0.1-0.1-0.2-0.1-0.3c0.7,0,0.6-0.3,0.5-0.7c-0.1-0.3-0.7-0.8-0.9-1.1
		c-0.1-0.2-0.3-0.5-0.5-0.6c0.2,0,0.3-0.1,0.5-0.2c-0.4-0.5-0.5-0.7-0.7-1.1c-0.1-0.2,0-0.5-0.1-0.7c-0.3-0.6-1.2-0.7-1.3-1.2
		c1.4-0.2-0.8-3.2,0.1-3.6c0-0.6-0.2-1.2-0.4-1.6c-0.3-0.6-0.7,0.1-0.6-0.7c0-0.4,0.6-0.2,0.5-0.7c-0.1,0-0.3,0-0.4,0
		c0.4-0.9-0.2-1.1-0.9-1.5c1.2-0.3,0.1-1.5-0.3-2c0.1-0.7-0.8-1.3-1-2l-0.6,0.4c0,0.7-0.9,1-1,1.7c0.1,0,0.3,0,0.5,0
		c0.3,0.9-0.6,1.2-1.3,1.6c1.6,1.1-1.8,1.9,0.1,2.9c-0.3,0.2-0.5,0.5-0.6,0.8c-0.1,0.2-0.1,0.7-0.2,1c0,0.1-0.4,0.4-0.4,0.6
		c0,0.1,0,0.7-0.1,0.9c-0.2,0.7-0.7,0.6-1,1.2c-0.3,0.5,0.1,1.6,0,2.2c-0.1,0.7,0.1,1.8-0.9,1.8c0.2,0.1,0.3,0.6,0.5,0.7
		c-0.4,0.2-1.7,0.1-1.9,0.4c-0.2,0.3,0.1,0.3,0.1,0.5c0,0.6,0.7,1.2,1.1,1.6c0,0.1-0.1,0.1-0.1,0.2"/>
	<path class="st6" d="M253.1,299.7c0.1-0.6-0.3-2,0.3-2.3c-0.3-0.4-0.5-0.9-0.1-1.3c-0.2,0-1.1-1-1.1-1.3c0-0.2,0.6-0.4,0.7-0.6
		c0.2-0.3,0.2-0.7,0.4-1c-0.4-0.5-2.4-1.2-1.4-2.1c-0.9-0.2-0.4-1.5-0.6-2.1c-0.3-0.8-1.2-2-0.4-2.9c-0.4-0.3-0.9-0.7-1.3-0.9
		c-0.6-0.4-0.7,0.1-0.8-0.8c0-0.7,1.5-2.2,0.1-2.2c-0.1-0.4-0.1-0.9-0.1-1.2c0,0-0.3-0.5-0.3-0.6s0.3-0.2,0.2-0.4
		c-0.1-0.2-0.4-0.3-0.4-0.4c-0.4-0.9-1.8-1.7-1.6-2.9l-0.2,0.1c-0.3,0.3-0.8,0.7-0.9,1.2c-0.1,0.4,0.2,0.7,0,1.1
		c-0.1,0.4-0.6,0.4-0.7,0.8c0,0.2,0.1,0.4,0.1,0.5s0.3,0.2,0.3,0.5c-0.1,0.5-1.1,0.9-1.5,1.1c0.3,0.4,0.4,1.9,0.3,2.3
		c-0.2,0.6-0.9,0.8-1.1,1.3c0,0-0.1,1-0.1,1.1c-0.1,0.8-0.1,1.7-0.4,2.5c-0.2,0.5-0.8,0.9-0.5,1.4c-0.4,0.4-1.2,0.9-0.4,1.4
		c-0.5,0.3-1.1,1.1-0.5,1.6c-0.6,0.6-0.4,1.2-0.5,1.9c-0.1,0.8-0.5,1.5-1,2.1c0.1,0.1,0.2,0.2,0.3,0.2c-1,0.7-0.4,2.7-1.7,3"/>
	<path class="st2" d="M253.5,303c-0.1-0.1-0.1-0.1-0.1-0.3c0.5,0,0.5-0.2,0.4-0.5c-0.1-0.2-0.5-0.6-0.7-0.8
		c-0.1-0.2-0.2-0.3-0.4-0.4c0.1,0,0.2-0.1,0.4-0.1c-0.3-0.4-0.4-0.5-0.5-0.8c-0.1-0.1,0-0.3-0.1-0.5c-0.2-0.4-0.9-0.5-0.9-0.9
		c1.1-0.1-0.6-2.3,0.1-2.7c0-0.4-0.1-0.9-0.3-1.2c-0.2-0.4-0.5,0.1-0.5-0.6c0-0.3,0.4-0.2,0.4-0.5c-0.1,0-0.2,0-0.3,0
		c0.3-0.7-0.2-0.8-0.6-1.1c0.9-0.2,0-1.1-0.2-1.4c0.1-0.5-0.6-1-0.8-1.5l-0.5,0.3c0,0.6-0.6,0.8-0.7,1.3c0.1,0,0.2,0,0.3,0
		c0.2,0.7-0.5,0.9-1,1.2c1.2,0.8-1.3,1.4,0.1,2.2c-0.3,0.2-0.4,0.4-0.5,0.6c-0.1,0.1-0.1,0.5-0.1,0.7c0,0.1-0.3,0.3-0.3,0.4
		s0,0.5-0.1,0.6c-0.1,0.5-0.5,0.5-0.7,0.9s0.1,1.2,0,1.7s0.1,1.3-0.7,1.4c0.1,0.1,0.2,0.4,0.4,0.5c-0.3,0.1-1.3,0.1-1.4,0.3
		c-0.1,0.2,0.1,0.2,0.1,0.4c0,0.5,0.5,0.9,0.8,1.2c0,0.1-0.1,0.1-0.1,0.2"/>
	<path class="st6" d="M180.5,262.9c-0.4-1.6,1.1-2.8,0-4c1.4-0.4,0.5-1.8,0.9-2.7c0.2-0.5,0.8-0.7,1-1.2c0.2-0.4-0.1-1.2,0.1-1.6
		c0.6-1.1,1.7-0.4,1.6-2.1c0-0.4,0-0.8-0.1-1.2c-0.1-0.3-1-0.6-0.9-1.1c0.2-0.6,1.2-0.4,1.5-0.9c0.2-0.3-0.1-0.9,0-1.2
		c0.3-1.1,1.1-2,1.4-3c0.3-0.8,0.3-2.1,0.7-2.9c0.5-0.8,1.5-1.4,2-2.4c0.1,0.9,0.9,1.3,1.2,2.1c0.2,0.4-0.2,0.7-0.1,1.1
		c0.1,0.4,0.5,0.4,0.5,1.1c0,0.6-0.4,1-0.3,1.6c0.1,0.4,0.5,0.5,0.6,0.9c0.1,0.5,0,1,0.1,1.5c0.1,0.8,0.4,2,0.8,2.7
		c0.7,1.1,1.4,1.7,1.9,2.9c0.3,0.7,0.2,1.6,0.3,2.3c0.4,1.7,0.1,3.8,1.2,5.5c-1.1,0.9-0.1,2.3,0.7,2.9"/>
	<path class="st2" d="M218.7,248.9c-0.1-0.2-0.2-0.3-0.2-0.6c1.2,0,1.1-0.5,0.9-1.3c-0.1-0.5-1.3-1.5-1.5-2c-0.2-0.4-0.5-0.8-0.9-1
		c0.3,0,0.6-0.2,0.9-0.3c-0.6-0.8-0.9-1.3-1.2-2c-0.1-0.3-0.1-0.8-0.2-1.2c-0.5-1-2.1-1.3-2.2-2.1c2.5-0.3-1.5-5.5,0.2-6.3
		c-0.1-1-0.3-2.1-0.6-2.7c-0.5-1-1.2,0.2-1.1-1.3c0-0.7,1-0.4,0.8-1.2c-0.2,0-0.5-0.1-0.8-0.1c0.8-1.6-0.4-2-1.5-2.7
		c2.1-0.4,0.1-2.6-0.5-3.4c0.2-1.2-1.3-2.3-1.8-3.5l-1.1,0.6c0,1.3-1.5,1.8-1.7,3c0.2,0,0.6,0.1,0.8,0c0.5,1.6-1.1,2.1-2.3,2.7
		c2.8,2-3.2,3.4,0.2,5.2c-0.6,0.4-0.9,0.9-1.1,1.4c-0.2,0.4-0.2,1.3-0.3,1.7c0,0.1-0.7,0.7-0.8,1c-0.1,0.1-0.1,1.2-0.2,1.5
		c-0.3,1.2-1.3,1.1-1.8,2.1c-0.4,0.9,0.1,2.7-0.1,3.9c-0.2,1.3,0.2,3.2-1.7,3.2c0.3,0.3,0.5,1,0.9,1.3c-0.7,0.3-3,0.2-3.3,0.8
		c-0.3,0.5,0.2,0.5,0.2,0.9c0,1.1,1.2,2.2,2,2.9c-0.1,0.1-0.1,0.2-0.2,0.4"/>
	<path class="st6" d="M295.7,257.4c-0.2-0.1-0.3-0.2-0.5-0.3c0.1-0.2,0.2-0.5,0.2-0.7c0.4,0,0.7-0.1,1-0.1c-0.4-0.3-1.3-0.3-1.1-1.1
		c0.2-0.4,0.7-0.3,0.7-0.8c-0.3-0.2-0.2-0.5-0.1-0.7c-0.1,0-0.1,0-0.2,0c-0.1-0.2-0.3-0.4-0.2-0.6c0.1-0.4,0.8-0.3,0.9-0.7
		c0.2-0.4-0.2-0.2-0.3-0.6c-0.2-0.7,0.5-0.8,0.7-1.1c0.3-0.4,0-0.9,0.1-1.4c0.1-0.6,0.3-1.1,1-1.3c-0.7-0.8-0.6-0.7-0.1-1.6
		c0.1-0.1,0-0.3,0.1-0.4c0.1-0.2,0.3-0.3,0.4-0.5c-0.1,0-0.2-0.1-0.3-0.1c0.1-0.2,0.3-0.3,0.5-0.5c-0.1,0-0.1,0-0.2,0.1
		c0.4-0.2,0.3-0.7,0.3-1c-0.1-0.8-0.1-0.6,0.7-1.1c-0.5-0.5,0.6-1.7-0.3-1.9c0.5-0.2,1.1-0.7,1.2-1.1l0.5-0.2c0.1,0.4,0.5,0.6,0.7,1
		c-0.7,0-0.2,0.5,0.1,0.8c-0.5,0.3,0,0.6,0.1,1c0,0.1,0,0.4,0,0.4c0.1,0.2,0.3,0.3,0.5,0.5c0.1,0.1,0,0.3,0.1,0.4
		c0.1,0.2,0.4,0.1,0.4,0.3c0,0.1-0.3,0.2-0.2,0.3c0.1,0.2,0.4,0.3,0.5,0.6c-0.1,0-0.1,0.1-0.2,0.1c0.2,0.4,0.4,0.6,0.4,1
		c0,0.1-0.2,0.4-0.2,0.6c0.3,0.3,0.5,0.7,0.5,1c0.1,0.3,0,0.6,0.3,0.9c-0.6,0.4,0.5,0.6,0.1,1.1c0.5,0.6,0.4,1.4,1,1.9
		c-0.1,0.3,0,0.4-0.1,0.6c0.2,0.2,0.4,0.3,0.5,0.5s-0.2,0.2-0.2,0.3c0,0.2,0.4,0.4,0.4,0.6c0,0.1-0.1,0.4-0.1,0.4
		c0.1,0.4,0.7,1.1,0.5,1.6c0.6,0.6,0.3,1.2,0.8,1.9"/>
	<path class="st6" d="M242.2,180.1c-0.1-0.1-0.1-0.2-0.1-0.3c0.7,0,0.6-0.3,0.5-0.7c-0.1-0.3-0.7-0.8-0.9-1.1
		c-0.1-0.2-0.3-0.5-0.5-0.6c0.2,0,0.3-0.1,0.5-0.2c-0.4-0.5-0.5-0.7-0.7-1.1c-0.1-0.2,0-0.5-0.1-0.7c-0.3-0.5-1.2-0.7-1.3-1.2
		c1.4-0.2-0.8-3.1,0.1-3.6c0-0.6-0.2-1.2-0.4-1.6c-0.3-0.6-0.7,0.1-0.6-0.7c0-0.4,0.6-0.2,0.5-0.7c-0.1,0-0.3,0-0.4,0
		c0.4-0.9-0.2-1.1-0.9-1.5c1.2-0.3,0.1-1.5-0.3-1.9c0.1-0.7-0.8-1.3-1-2l-0.6,0.4c0,0.7-0.9,1-1,1.7c0.1,0,0.3,0,0.5,0
		c0.3,0.9-0.6,1.2-1.3,1.5c1.6,1.1-1.8,1.9,0.1,2.9c-0.3,0.2-0.5,0.5-0.6,0.8c-0.1,0.2-0.1,0.7-0.2,1c0,0.1-0.4,0.4-0.4,0.6
		c0,0.1,0,0.7-0.1,0.9c-0.2,0.7-0.7,0.6-1,1.2c-0.3,0.5,0.1,1.5,0,2.2s0.1,1.8-0.9,1.8c0.2,0.1,0.3,0.6,0.5,0.7
		c-0.4,0.2-1.7,0.1-1.9,0.4c-0.2,0.3,0.1,0.3,0.1,0.5c0,0.6,0.7,1.2,1.1,1.6c0,0.1-0.1,0.1-0.1,0.2"/>
	<path class="st6" d="M224.1,225.2c-0.3-0.2-0.5-0.3-0.8-0.6c0.2-0.3,0.2-0.7,0.3-1.1c0.6,0.1,1.1-0.2,1.7-0.2
		c-0.7-0.5-2.1-0.6-1.7-1.8c0.3-0.7,1.2-0.5,1.2-1.3c-0.5-0.4-0.3-0.8-0.1-1.2c-0.1,0-0.2,0-0.3,0c-0.2-0.4-0.4-0.6-0.3-1
		c0.2-0.6,1.2-0.6,1.5-1.1c0.3-0.7-0.3-0.4-0.5-0.9c-0.3-1.2,0.8-1.2,1.2-1.8s0-1.5,0.1-2.3c0.2-1,0.5-1.8,1.6-2
		c-1.1-1.2-1-1.1-0.1-2.6c0.1-0.1,0-0.4,0.1-0.6c0.2-0.3,0.5-0.4,0.6-0.8c-0.2,0-0.3-0.1-0.4-0.1c0.2-0.3,0.6-0.5,0.8-0.7
		c-0.1,0-0.2,0.1-0.3,0.1c0.6-0.3,0.5-1.1,0.5-1.7c-0.1-1.2-0.2-1,1.1-1.7c-0.8-0.7,0.9-2.7-0.5-3c0.8-0.3,1.7-1.1,1.9-1.8l0.7-0.2
		c0.1,0.7,0.9,0.9,1.1,1.6c-1.1,0.1-0.4,0.9,0.1,1.3c-0.8,0.5,0,0.9,0.2,1.6c0,0.1,0,0.6,0,0.6c0.2,0.3,0.5,0.4,0.7,0.7
		c0.2,0.2,0,0.4,0.1,0.6c0.2,0.3,0.6,0.2,0.7,0.5c0.1,0.2-0.5,0.3-0.4,0.5c0.1,0.4,0.6,0.6,0.7,0.9c-0.1,0.1-0.2,0.1-0.3,0.2
		c0.3,0.7,0.6,1,0.6,1.5c0,0.2-0.3,0.6-0.3,0.9c0.4,0.5,0.7,1.2,0.9,1.7c0.1,0.5,0,0.9,0.4,1.4c-1,0.7,0.8,1,0.1,1.7
		c0.8,0.9,0.6,2.3,1.7,3.1c-0.1,0.4,0,0.7-0.2,1c0.3,0.3,0.6,0.5,0.8,0.9c0.1,0.3-0.3,0.3-0.3,0.5c0.1,0.4,0.6,0.6,0.7,1
		c0.1,0.2-0.2,0.6-0.2,0.6c0.2,0.6,1.1,1.8,0.8,2.6c1,0.9,0.4,2,1.3,3.1"/>
	<path class="st6" d="M255.6,204.3c-0.2-1.1,0.7-1.9,0-2.8c1-0.3,0.4-1.2,0.6-1.9c0.1-0.4,0.5-0.5,0.7-0.8c0.1-0.3-0.1-0.8,0.1-1.1
		c0.4-0.8,1.1-0.3,1.1-1.5c0-0.3,0-0.6,0-0.8c-0.1-0.2-0.7-0.4-0.6-0.7c0.1-0.4,0.8-0.3,1-0.6c0.1-0.2-0.1-0.6,0-0.8
		c0.2-0.7,0.7-1.3,1-2.1c0.2-0.6,0.2-1.5,0.5-2c0.3-0.6,1-1,1.3-1.6c0,0.6,0.6,0.9,0.8,1.4c0.1,0.3-0.1,0.5-0.1,0.7
		c0.1,0.3,0.3,0.3,0.4,0.8c0,0.4-0.3,0.7-0.2,1.1c0,0.3,0.3,0.4,0.4,0.6c0.1,0.3,0,0.7,0.1,1c0.1,0.5,0.3,1.4,0.6,1.8
		c0.5,0.7,1,1.2,1.3,2c0.2,0.5,0.1,1.1,0.2,1.6c0.3,1.2,0.1,2.6,0.8,3.7c-0.8,0.6-0.1,1.6,0.5,2"/>
	<path class="st6" d="M262.9,180.2c-0.3-1.2,0.8-2.1,0-3c1-0.3,0.4-1.3,0.6-2c0.1-0.4,0.6-0.5,0.7-0.9c0.1-0.3-0.1-0.9,0.1-1.2
		c0.5-0.8,1.2-0.3,1.2-1.6c0-0.3,0-0.6-0.1-0.9c-0.1-0.2-0.7-0.4-0.6-0.8c0.1-0.5,0.9-0.3,1.1-0.7c0.1-0.2-0.1-0.7,0-0.9
		c0.2-0.8,0.8-1.5,1.1-2.2c0.2-0.6,0.2-1.6,0.5-2.1c0.4-0.6,1.1-1,1.5-1.8c0,0.6,0.7,1,0.9,1.5c0.1,0.3-0.1,0.5-0.1,0.8
		c0.1,0.3,0.4,0.3,0.4,0.8c0,0.4-0.3,0.8-0.2,1.2c0,0.3,0.4,0.4,0.4,0.6c0.1,0.4,0,0.7,0.1,1.1c0.1,0.6,0.3,1.5,0.6,2
		c0.5,0.8,1,1.3,1.4,2.1c0.2,0.5,0.1,1.2,0.3,1.7c0.3,1.3,0.1,2.8,0.9,4.1c-0.9,0.6-0.1,1.7,0.5,2.2"/>
	<g>
		<path class="st7" d="M237.4,232.1c0,0.8-0.2,1.4-0.6,2c-0.4,0.5-1,0.9-1.7,1c-1.8,0.3-4.2-9.1-7-28.2c-0.4-2.8-0.6-4.4-0.7-4.9
			c-0.9,6.9-1.7,12.8-2.2,17.8s-0.7,9.9-0.7,14.7c0,0.5-0.2,1.1-0.7,1.6s-1,0.8-1.5,0.9c-1.9,0.3-2.8-1.5-2.8-5.4
			c0-2.4-1.1-10.9-3.2-25.5c-2.1-14.6-3.4-22.6-4-24c0.6-1.3,1.6-2,2.7-2.2c1.2-0.2,2.2,2.3,3.2,7.4c1,5.1,1.8,11.4,2.5,18.8
			c0.7,7.4,1,11.1,1.1,11.2c0.1-0.7,0.3-2.9,0.8-6.5c0.4-3.6,0.8-6.5,1-8.8c0.7-6.7,1.1-11.4,1.1-14.2v-1.4c0-0.5,0.2-1.1,0.6-1.7
			c0.4-0.6,0.9-0.9,1.4-1c1.8-0.3,2.7,0.4,2.7,1.8v1.1c0,4.9,1.1,11.8,3.4,20.7c1,3.9,1.7,7.1,2.1,9.4c0.3-2.8,0.8-6.9,1.5-12.3
			c1.6-11.7,2.4-20.7,2.4-26.9c0-1.1,0.2-1.9,0.6-2.5c0.4-0.6,1-0.9,1.8-1s1.5,0,2,0.3s0.7,0.8,0.7,1.4c0,0.6-0.3,1.2-0.8,1.8
			c0,7.4-1,16.4-2.9,27.2C238.3,215.6,237.4,224.7,237.4,232.1z"/>
		<path class="st7" d="M257.5,219.5c-1.2,0.2-1.8-0.2-1.8-1.2v-7.5c-0.6-0.3-1.5-0.5-3-0.5c-1.4-0.1-2.7-0.1-3.8,0
			c-0.4,0.7-0.7,1.8-1,3.1s-0.5,2.6-0.8,4c-0.3,1.3-0.6,2.4-1.1,3.2c-1.5,0.2-2.4-0.1-2.6-0.8c0.5-0.8,1.4-4.8,2.6-11.9
			c1.2-7.1,2.2-12.7,2.9-16.7c0.8-4,1.6-7.4,2.5-10.2s1.7-4.2,2.6-4.4c0.8-0.1,1.4,0,1.9,0.2c0,1.4,0.4,5,1.1,11
			c0.8,5.9,1.1,9.8,1.1,11.6s0.2,4.7,0.6,8.8s0.6,7.1,0.6,9.2C259.4,218.5,258.8,219.3,257.5,219.5z M255.1,201
			c-0.3-3.4-0.6-6.6-0.9-9.6c-0.3-3-0.4-4.9-0.4-5.5s0-1,0-1.1c-0.6,0.7-1.5,4.3-2.6,10.7s-1.8,10.5-1.8,12.2c1.6,0.2,3,0.2,4.1,0.1
			c1.1-0.2,1.9-0.3,2.3-0.5C255.6,206.4,255.4,204.3,255.1,201z"/>
		<path class="st7" d="M267.6,203.8l0.1,2.1v0.3c0.2,3.9,0.3,9.8,0.3,17.7v1.7l5.2-0.7c1,0.5,1.5,1.1,1.5,1.7c0,0.6-0.2,1.1-0.5,1.5
			s-0.7,0.7-1,0.7c-0.4,0.1-0.8,0-1.2-0.1c-0.4,0.1-0.8,0.2-1.3,0.3l-2.2,0.2c-0.5,0.6-1.1,1-1.8,1.1c-0.7,0.1-1.3,0-1.8-0.4
			s-0.7-0.8-0.7-1.4l0.4-3c0-5.1-0.2-12.8-0.7-23.1s-0.7-17.9-0.7-23.1c0-0.4,0.2-0.8,0.5-1.1s0.8-0.5,1.3-0.6s1,0.1,1.4,0.4
			c0.4,0.3,0.6,0.8,0.6,1.3L267.6,203.8z"/>
		<path class="st7" d="M275.7,193l0.1-12.5c0-2.2-0.2-4.7-0.5-7.5s-0.5-4.7-0.5-5.6c0-0.9,0.2-1.6,0.5-2c0.4-0.5,0.8-0.7,1.3-0.8
			c1.6-0.2,2.5,1.4,2.5,5c0,0-0.1,4.5-0.3,13.5c0.2-0.4,0.6-1.5,1.3-3.4c0.7-1.9,1.4-3.8,2.1-5.6c0.8-1.9,1.6-3.8,2.4-5.9
			c1.9-4.6,3.3-6.9,4.1-7.1c0.5-0.1,0.9,0,1.3,0.3s0.6,0.6,0.6,1.1s-1.2,3.4-3.6,8.7s-3.8,8.7-4.1,10.1v1.2
			c0.6,1.5,2.4,6.6,5.3,15.2c2.9,8.6,4.3,13.2,4.3,13.7s-0.2,1-0.6,1.5c-0.4,0.4-0.9,0.7-1.5,0.7h-1.6c-1.1-6.1-2.2-11.3-3.4-15.8
			c-1.2-4.5-2.7-8.6-4.7-12.6c-1.3,2.5-2,4-2.1,4.5c-0.1,1.3-0.2,2.4-0.2,3.2L279,205v5.4c0,2.3-0.8,3.6-2.3,3.8
			c-1.3,0.2-1.9-0.8-1.9-3s0.1-5.3,0.4-9.3C275.6,197.9,275.7,194.9,275.7,193z"/>
	</g>
	<path class="st6" d="M178.7,174c-0.3-1.1,0.7-1.9,0-2.8c1-0.3,0.4-1.2,0.6-1.9c0.1-0.4,0.5-0.5,0.7-0.8c0.1-0.3-0.1-0.8,0.1-1.1
		c0.4-0.8,1.1-0.3,1.1-1.5c0-0.3,0-0.6,0-0.8c-0.1-0.2-0.7-0.4-0.6-0.7c0.1-0.4,0.8-0.3,1-0.6c0.1-0.2-0.1-0.6,0-0.8
		c0.2-0.7,0.7-1.3,1-2.1c0.2-0.6,0.2-1.5,0.5-2c0.3-0.6,1-1,1.3-1.6c0,0.6,0.6,0.9,0.8,1.4c0.1,0.3-0.1,0.5-0.1,0.7
		c0.1,0.3,0.3,0.3,0.4,0.8c0,0.4-0.3,0.7-0.2,1.1c0,0.3,0.3,0.4,0.4,0.6c0.1,0.3,0,0.7,0.1,1c0.1,0.5,0.3,1.3,0.6,1.8
		c0.5,0.7,1,1.2,1.3,2c0.2,0.5,0.1,1.1,0.2,1.6c0.3,1.2,0.1,2.6,0.8,3.7c-0.8,0.6-0.1,1.6,0.5,2"/>
	<path class="st6" d="M184.2,191.1c-0.6-0.5-0.1-1.1,0.2-1.7c0.5-1,0.5-0.6,1.5-1c-0.3-0.3-0.7-0.4-1.1-0.6c0.3-0.3,0.4-1.1,0.6-1.6
		c0.3-0.8,0.5-1,1.3-1.3c-1.7-0.6-1.3-1.4-0.6-2.5c0.3-0.4,0.2-1,0.5-1.5c0.5-0.9,0.9-0.7,0.8-1.9c0-0.5-0.3-0.4-0.1-1
		c0.2-0.4,0.8-0.6,1.1-0.9c0.3-0.4,0.4-1.3,0.7-1.8c0.2-0.5,0.5-0.5,0.6-1.1c0-0.3-0.2-0.7-0.1-1.1c0.1-0.5,0.6-0.7,0.8-1.2
		c0.1-0.4-0.3-0.9,0-1.4c0.2-0.4,0.5-0.7,0.6-1c0.2-0.4-0.2-0.6,0.4-0.9c-0.6-0.9-0.2-1.9,0.3-2.7c0.2-0.5,0.8-0.9,0.7-1.5
		c0-0.5-0.5-0.7-0.5-1.2c1.5-0.3,0.9-0.4,1-1.4c0-0.5,0.3-0.6,0.3-1.2c0-0.6-0.6-0.9-0.6-1.3c0-0.7,1.4-1,1.9-1.4v-0.1
		c0.5,0.7,1,1.3,1.1,2.2c0,0.3-0.2,0.6-0.1,1c0.1,0.5,1,1.1,1,1.5c0,0.5-0.6,0.3-0.6,0.7c0,0.5,0.9,0.9,1.1,1.3
		c0.1,0.4-0.2,0.6,0,1.2c0.2,0.6,0.7,0.7,0.3,1.3c0.4,0.4,0.8,0.8,1.3,1.2c-0.3,0.5-0.5,1.4-0.5,2c0,0.3,0.3,0.6,0.3,0.9
		c0,0.1-0.1,0.7-0.1,0.7c0.2,0.7,1.1,0.9,1.3,1.5c0,0.1-0.2,1.1-0.2,1.3c-0.1,1,0.3,1.3,0.4,2.2c0,0.3-0.2,0.5-0.1,0.9
		c0.1,0.4,0.3,0.9,0.5,1.2c0.1,0.4,0.2,0.6,0.4,1c0.1,0.2,0.2,0.7,0.3,0.8c0.6,0.8,0.5,0.7,0.7,1.6c0,0.2,0.2,0.9,0.2,0.9
		c0.1,0.2,0.5,0.8,0.5,1.1c0,0.5-0.7,0.3-0.3,1.2c0.2,0.5,0.5,0.8,0.9,1.2c0.6,0.6,1.3,1,1.5,1.9c-1.1,0.4-0.3,1.5-0.4,2.3"/>
	<path class="st6" d="M183.1,207.5c-0.6-0.2-0.8-0.7-0.7-1.4c-0.2,0-0.4-0.2-0.5-0.3c0.3-0.1,0.2-0.3,0.6-0.2
		c-0.3-0.8-0.6-1.3-1.4-1.4c0-0.8-0.3-1.6-0.1-2.4c0.3-1.6,0.3-1-1.2-2.3c0.3-0.2,0.3-0.6-0.1-0.8c0.1-0.8-0.9-1-0.7-1.9
		c0.2,0,0.5-0.3,0.7-0.3c-0.9-0.8-0.1-1-0.1-1.6c0-0.8-0.8-1.1-1.4-1.4c0.2-0.1,0.5-0.4,0.7-0.4c-0.3-0.3-0.5-0.6-0.7-0.9
		c-0.1-0.2-0.3-0.3-0.4-0.5c-0.1-0.1,0.1-0.4,0-0.5c-0.3-0.5-1.6-1.4-0.3-1.6c-0.2-0.3-0.2-0.6-0.4-0.8c-0.1-0.2-0.6-0.6-0.7-0.8
		c-0.2-0.7,0.5-1.3,1-1.5c-0.6-0.4-1-0.6-1.3-1.1c-0.2-0.2-0.4-0.6-0.4-0.8c-0.3-0.6-0.3-1.3-0.9-2l-0.1,0.2c0,1.1-1.5,1.2-1.3,2.2
		c0.2,0,0.5,0.1,0.7,0c0,0.4-0.6,1.4-0.8,1.8c-0.3,0.4-1.1,0.9-1,1.4c0,0.4,0.6,0.5,0.6,0.9c0,0.2-0.4,0.5-0.5,0.7
		c-0.3,0.5-0.5,1.2-0.5,1.8c-0.1,0.5-0.1,0.8-0.3,1.2c-0.2,0.5-0.6,0.8-0.7,1.1c-0.2,0.7,0.1,0.8,0.2,1.5c0,0.7-0.8,0.4,0.1,1.3
		c-0.5,0.6-2.5,2.2-1.5,3.1c-0.2,0.2-0.6,0.3-0.9,0.6c0.2,0,0.6,0.3,0.8,0.4c-0.9,0.5-0.7,0.7-1.1,1.5c-0.2,0.6-1,1.2-1.1,1.8
		c0.2,0,0.5,0.2,0.7,0.2c-0.3,0.4-0.4,1.2-1.1,1.2c0,0.4,0.3,0.7,0.5,1.1c-0.5,0.3-0.4,0.8-0.4,1.3c0.1,0,0.2,0,0.3,0"/>
	<path class="st6" d="M189.2,236.1c-0.1-0.1-0.1-0.2-0.1-0.3c0.7,0,0.6-0.3,0.5-0.7c-0.1-0.3-0.7-0.8-0.9-1.1
		c-0.1-0.2-0.3-0.5-0.5-0.6c0.2,0,0.3-0.1,0.5-0.2c-0.4-0.5-0.5-0.7-0.7-1.1c-0.1-0.2,0-0.5-0.1-0.7c-0.3-0.5-1.2-0.7-1.3-1.2
		c1.4-0.2-0.8-3.1,0.1-3.6c0-0.6-0.2-1.2-0.4-1.6c-0.3-0.6-0.7,0.1-0.6-0.7c0-0.4,0.6-0.2,0.5-0.7c-0.1,0-0.3,0-0.4,0
		c0.4-0.9-0.2-1.1-0.9-1.5c1.2-0.3,0.1-1.5-0.3-1.9c0.1-0.7-0.8-1.3-1-2l-0.6,0.4c0,0.7-0.9,1-1,1.7c0.1,0,0.3,0,0.5,0
		c0.3,0.9-0.6,1.2-1.3,1.5c1.6,1.1-1.8,1.9,0.1,2.9c-0.3,0.2-0.5,0.5-0.6,0.8c-0.1,0.2-0.1,0.7-0.2,1c0,0.1-0.4,0.4-0.4,0.6
		c0,0.1,0,0.7-0.1,0.9c-0.2,0.7-0.7,0.6-1,1.2c-0.3,0.5,0.1,1.5,0,2.2s0.1,1.8-0.9,1.8c0.2,0.1,0.3,0.6,0.5,0.7
		c-0.4,0.2-1.7,0.1-1.9,0.4c-0.2,0.3,0.1,0.3,0.1,0.5c0,0.6,0.7,1.2,1.1,1.6c0,0.1-0.1,0.1-0.1,0.2"/>
	<path class="st6" d="M308.8,196c-0.6-0.2-0.8-0.7-0.7-1.4c-0.2,0-0.4-0.2-0.5-0.3c0.3-0.1,0.2-0.3,0.6-0.2
		c-0.3-0.8-0.6-1.3-1.4-1.4c0-0.8-0.3-1.6-0.1-2.4c0.3-1.6,0.3-1-1.2-2.3c0.3-0.2,0.3-0.6-0.1-0.8c0.1-0.8-0.9-1-0.7-1.9
		c0.2,0,0.5-0.3,0.7-0.3c-0.9-0.8-0.1-1-0.1-1.6c0-0.8-0.8-1.1-1.4-1.4c0.2-0.1,0.5-0.4,0.7-0.4c-0.3-0.3-0.5-0.6-0.7-0.9
		c-0.1-0.2-0.3-0.3-0.4-0.5c-0.1-0.1,0.1-0.4,0-0.5c-0.3-0.5-1.6-1.4-0.3-1.6c-0.2-0.3-0.2-0.6-0.4-0.8c-0.1-0.2-0.6-0.6-0.7-0.8
		c-0.2-0.7,0.5-1.3,1-1.5c-0.6-0.4-1-0.6-1.3-1.1c-0.2-0.2-0.3-0.6-0.4-0.8c-0.3-0.7-0.3-1.3-0.9-2l-0.1,0.2c0,1.1-1.5,1.2-1.3,2.2
		c0.2,0,0.5,0.1,0.7,0c0,0.4-0.6,1.4-0.8,1.8c-0.3,0.4-1.1,0.9-1,1.4c0,0.4,0.6,0.5,0.6,0.9c0,0.2-0.4,0.5-0.5,0.7
		c-0.3,0.5-0.5,1.2-0.5,1.8c-0.1,0.5-0.1,0.8-0.3,1.2c-0.2,0.5-0.6,0.8-0.7,1.1c-0.2,0.7,0.1,0.8,0.2,1.5c0,0.7-0.8,0.4,0.1,1.3
		c-0.5,0.6-2.5,2.2-1.5,3.1c-0.2,0.2-0.6,0.3-0.9,0.6c0.2,0,0.6,0.3,0.8,0.4c-0.9,0.5-0.7,0.7-1.1,1.5c-0.2,0.6-1,1.2-1.1,1.8
		c0.2,0,0.5,0.2,0.7,0.2c-0.3,0.4-0.4,1.2-1.1,1.2c0,0.4,0.3,0.7,0.5,1.1c-0.5,0.3-0.4,0.8-0.4,1.3c0.1,0,0.2,0,0.3,0"/>
	<path class="st6" d="M302.8,184c0.6-0.2,0.8-0.7,0.7-1.4c0.2,0,0.4-0.2,0.5-0.3c-0.3-0.1-0.2-0.3-0.6-0.2c0.3-0.8,0.6-1.3,1.4-1.4
		c0-0.8,0.3-1.6,0.1-2.4c-0.3-1.6-0.3-1,1.2-2.3c-0.3-0.2-0.3-0.6,0.1-0.8c-0.1-0.8,0.9-1,0.7-1.9c-0.2,0-0.5-0.3-0.7-0.3
		c0.9-0.8,0.1-1,0.1-1.6c0-0.8,0.8-1.1,1.4-1.4c-0.2-0.1-0.5-0.4-0.7-0.4c0.3-0.3,0.5-0.6,0.7-0.9c0.1-0.2,0.3-0.3,0.4-0.5
		c0.1-0.1-0.1-0.4,0-0.5c0.3-0.5,1.6-1.4,0.3-1.6c0.2-0.3,0.2-0.6,0.4-0.8c0.1-0.2,0.6-0.6,0.7-0.8c0.2-0.7-0.5-1.3-1-1.5
		c0.6-0.4,1-0.6,1.3-1.1c0.2-0.2,0.4-0.6,0.4-0.8c0.3-0.6,0.3-1.3,0.9-2l0.1,0.2c0,1.1,1.5,1.2,1.3,2.2c-0.2,0-0.5,0.1-0.7,0
		c0,0.4,0.6,1.4,0.8,1.8c0.3,0.4,1.1,0.9,1,1.4c0,0.4-0.6,0.5-0.6,0.9c0,0.2,0.4,0.5,0.5,0.7c0.3,0.5,0.5,1.2,0.5,1.8
		c0.1,0.5,0.1,0.8,0.3,1.2c0.2,0.5,0.6,0.8,0.7,1.1c0.2,0.7-0.1,0.8-0.2,1.5c0,0.7,0.8,0.4-0.1,1.3c0.5,0.6,2.5,2.2,1.5,3.1
		c0.2,0.2,0.6,0.3,0.9,0.6c-0.2,0-0.6,0.3-0.8,0.4c0.9,0.5,0.7,0.7,1.1,1.5c0.2,0.6,1,1.2,1.1,1.8c-0.2,0-0.5,0.2-0.7,0.2
		c0.3,0.4,0.4,1.2,1.1,1.2c0,0.4-0.3,0.7-0.5,1.1c0.5,0.3,0.4,0.8,0.4,1.3c-0.1,0-0.2,0-0.3,0"/>
	<path class="st6" d="M173.2,266.8c-0.5-0.4-0.1-0.9,0.1-1.4c0.4-0.8,0.4-0.5,1.2-0.8c-0.3-0.2-0.6-0.3-0.9-0.5
		c0.3-0.3,0.3-0.9,0.5-1.3c0.3-0.7,0.4-0.9,1.1-1.1c-1.4-0.5-1-1.2-0.5-2.1c0.2-0.4,0.2-0.9,0.4-1.2c0.4-0.7,0.7-0.6,0.6-1.5
		c0-0.4-0.3-0.4-0.1-0.8c0.1-0.3,0.7-0.5,0.9-0.8c0.3-0.4,0.4-1.1,0.6-1.5c0.2-0.4,0.4-0.4,0.5-0.9c0-0.2-0.2-0.6-0.1-0.9
		c0.1-0.4,0.5-0.6,0.6-1c0.1-0.3-0.2-0.7,0-1.1c0.1-0.3,0.4-0.6,0.5-0.9c0.2-0.3-0.1-0.5,0.3-0.7c-0.5-0.7-0.2-1.5,0.2-2.2
		c0.2-0.4,0.6-0.8,0.6-1.2s-0.4-0.6-0.4-1c1.3-0.2,0.7-0.4,0.8-1.1c0-0.4,0.3-0.5,0.3-1s-0.5-0.8-0.5-1c0-0.6,1.1-0.8,1.6-1.2v-0.1
		c0.4,0.6,0.9,1.1,0.9,1.9c0,0.3-0.2,0.5-0.1,0.8c0.1,0.4,0.8,0.9,0.8,1.2c0,0.4-0.5,0.2-0.5,0.6c0,0.4,0.8,0.7,0.9,1.1
		c0.1,0.3-0.1,0.5,0,1c0.2,0.5,0.6,0.5,0.3,1.1c0.3,0.4,0.7,0.7,1.1,1c-0.2,0.4-0.4,1.1-0.4,1.6c0,0.3,0.2,0.5,0.3,0.7
		c0,0.1-0.1,0.6-0.1,0.6c0.2,0.6,0.9,0.7,1,1.2c0,0.1-0.2,0.9-0.2,1c-0.1,0.8,0.3,1.1,0.4,1.8c0,0.2-0.2,0.4-0.1,0.8
		c0.1,0.3,0.3,0.7,0.4,1c0.1,0.3,0.2,0.5,0.3,0.8c0.1,0.1,0.2,0.6,0.3,0.7c0.5,0.7,0.4,0.6,0.6,1.3c0,0.1,0.2,0.8,0.2,0.8
		c0.1,0.2,0.4,0.6,0.4,0.9c0,0.5-0.5,0.2-0.3,1c0.1,0.4,0.4,0.7,0.7,1c0.5,0.5,1.1,0.9,1.2,1.6c-0.9,0.3-0.3,1.3-0.3,1.9"/>
	<path class="st6" d="M196.3,264.7c-0.2,0.1-0.6,0.1-0.7-0.1c0.3,0,0.5,0,0.8-0.1c-0.1-0.3,0.1-0.8-0.1-1c0.1-0.2,0.2-0.4,0-0.6
		c0.1,0,0.5-0.4,0.5-0.5s-0.2-0.2-0.3-0.3c-0.1-0.1-0.1-0.3-0.2-0.4c0.1-0.2,1-0.5,0.6-0.9c0.4-0.1,0.2-0.6,0.3-0.9s0.5-0.8,0.2-1.2
		c0.2-0.1,0.4-0.3,0.5-0.4c0.3-0.1,0.3,0,0.3-0.3s-0.6-0.9,0-0.9c0-0.2,0-0.4,0.1-0.5l0.1-0.2c0,0-0.1-0.1-0.1-0.2s0.2-0.1,0.2-0.2
		c0.2-0.4,0.8-0.7,0.7-1.2l0.1,0.1c0.1,0.1,0.3,0.3,0.4,0.5c0.1,0.2-0.1,0.3,0,0.5c0.1,0.1,0.3,0.2,0.3,0.3s-0.1,0.2-0.1,0.2
		s-0.1,0.1-0.1,0.2c0,0.2,0.5,0.4,0.6,0.5c-0.1,0.2-0.2,0.8-0.1,1c0.1,0.3,0.4,0.3,0.5,0.6v0.4c0,0.3,0,0.7,0.2,1
		c0.1,0.2,0.3,0.4,0.2,0.6c0.2,0.2,0.5,0.4,0.2,0.6c0.2,0.1,0.5,0.5,0.2,0.7c0.3,0.3,0.2,0.5,0.2,0.8c0.1,0.3,0.2,0.6,0.4,0.9
		l-0.1,0.1c0.4,0.3,0.2,1.1,0.7,1.3"/>
	<path class="st2" d="M205.6,237c-0.4-0.2-0.6-0.5-0.5-1c-0.2,0-0.3-0.2-0.3-0.2c0.2-0.1,0.1-0.2,0.4-0.2c-0.2-0.5-0.4-0.9-1-1
		c0-0.5-0.2-1.1-0.1-1.7c0.2-1.1,0.2-0.7-0.8-1.6c0.2-0.1,0.2-0.4-0.1-0.5c0.1-0.6-0.7-0.7-0.5-1.3c0.2,0,0.3-0.2,0.5-0.2
		c-0.6-0.6-0.1-0.7-0.1-1.1c0-0.6-0.5-0.8-1-1c0.1,0,0.4-0.3,0.5-0.3c-0.2-0.2-0.3-0.4-0.5-0.6c-0.1-0.1-0.2-0.2-0.3-0.3
		c0-0.1,0.1-0.3,0-0.3c-0.2-0.4-1.1-1-0.2-1.1c-0.2-0.2-0.2-0.4-0.3-0.6c-0.1-0.2-0.4-0.4-0.5-0.6c-0.2-0.5,0.3-0.9,0.7-1.1
		c-0.4-0.3-0.7-0.4-0.9-0.7c-0.1-0.1-0.2-0.4-0.3-0.6c-0.2-0.5-0.2-0.9-0.6-1.4l-0.1,0.2c0,0.8-1,0.9-0.9,1.5c0.1,0,0.4,0.1,0.5,0
		c0,0.3-0.4,1-0.6,1.3c-0.2,0.3-0.8,0.6-0.7,1c0,0.3,0.4,0.3,0.4,0.6c0,0.2-0.3,0.4-0.3,0.5c-0.2,0.4-0.3,0.8-0.4,1.3
		c0,0.4-0.1,0.5-0.2,0.8c-0.1,0.3-0.4,0.5-0.5,0.8c-0.2,0.5,0.1,0.6,0.1,1c0,0.5-0.6,0.3,0.1,0.9c-0.3,0.4-1.7,1.5-1,2.1
		c-0.2,0.2-0.4,0.2-0.6,0.4c0.2,0,0.4,0.2,0.5,0.2c-0.6,0.4-0.5,0.5-0.8,1.1c-0.2,0.4-0.7,0.8-0.8,1.2c0.2,0,0.3,0.1,0.5,0.1
		c-0.2,0.3-0.3,0.8-0.8,0.9c0,0.3,0.2,0.5,0.3,0.8c-0.3,0.2-0.3,0.5-0.3,0.9c0.1,0,0.2,0,0.2,0"/>
	<path class="st6" d="M264.6,241c-0.6-0.2-0.8-0.7-0.7-1.4c-0.2,0-0.4-0.2-0.5-0.3c0.3-0.1,0.2-0.3,0.6-0.2
		c-0.3-0.8-0.6-1.3-1.4-1.4c0-0.8-0.3-1.6-0.1-2.4c0.3-1.6,0.3-1-1.2-2.3c0.3-0.2,0.3-0.6-0.1-0.8c0.1-0.8-0.9-1-0.7-1.9
		c0.2,0,0.5-0.3,0.7-0.3c-0.9-0.8-0.1-1-0.1-1.6c0-0.8-0.8-1.1-1.4-1.4c0.2-0.1,0.5-0.4,0.7-0.4c-0.3-0.3-0.5-0.6-0.7-0.9
		c-0.1-0.2-0.3-0.3-0.4-0.5c-0.1-0.1,0.1-0.4,0-0.5c-0.3-0.5-1.6-1.4-0.3-1.6c-0.2-0.3-0.2-0.6-0.4-0.8c-0.1-0.2-0.6-0.6-0.7-0.8
		c-0.2-0.7,0.5-1.3,1-1.5c-0.6-0.4-1-0.6-1.3-1.1c-0.2-0.2-0.4-0.6-0.4-0.8c-0.3-0.7-0.3-1.3-0.9-2l-0.1,0.2c0,1.1-1.5,1.2-1.3,2.2
		c0.2,0,0.5,0.1,0.7,0c0,0.4-0.6,1.4-0.8,1.8c-0.3,0.4-1.1,0.9-1,1.4c0,0.4,0.6,0.5,0.6,0.9c0,0.2-0.4,0.5-0.5,0.7
		c-0.3,0.5-0.5,1.2-0.5,1.8c-0.1,0.5-0.1,0.8-0.3,1.2c-0.2,0.5-0.6,0.8-0.7,1.1c-0.2,0.7,0.1,0.8,0.2,1.5c0,0.7-0.8,0.4,0.1,1.3
		c-0.5,0.6-2.5,2.2-1.5,3.1c-0.2,0.2-0.6,0.3-0.9,0.6c0.2,0,0.6,0.3,0.8,0.4c-0.9,0.5-0.7,0.7-1.1,1.5c-0.2,0.6-1,1.2-1.1,1.8
		c0.2,0,0.5,0.2,0.7,0.2c-0.3,0.4-0.4,1.2-1.1,1.2c0,0.4,0.3,0.7,0.5,1.1c-0.5,0.3-0.4,0.8-0.4,1.3c0.1,0,0.2,0,0.3,0"/>
	<path class="st6" d="M319.3,192.2c-0.4,0.2-1.2,0.2-1.4-0.3c0.5,0,1,0,1.5-0.2c-0.1-0.5,0.3-1.6-0.3-1.9c0.2-0.3,0.4-0.7,0.1-1.1
		c0.2,0,0.9-0.8,0.9-1.1c0-0.2-0.5-0.3-0.6-0.5s-0.2-0.6-0.3-0.8c0.3-0.4,2-1,1.2-1.7c0.8-0.2,0.3-1.2,0.5-1.7
		c0.2-0.6,0.9-1.6,0.3-2.4c0.3-0.3,0.7-0.6,1-0.8c0.5-0.3,0.6,0.1,0.6-0.6c0-0.6-1.2-1.8-0.1-1.8c0.1-0.4,0.1-0.7,0.1-1
		c0,0,0.3-0.4,0.3-0.5s-0.2-0.2-0.2-0.3c0.1-0.2,0.3-0.2,0.4-0.3c0.4-0.8,1.5-1.4,1.3-2.3l0.2,0.1c0.2,0.3,0.7,0.6,0.8,0.9
		c0.1,0.3-0.1,0.6,0,0.9c0.1,0.3,0.5,0.3,0.5,0.7c0,0.1-0.1,0.3-0.1,0.4c0,0.1-0.2,0.2-0.2,0.4c0.1,0.4,0.9,0.7,1.2,0.9
		c-0.3,0.3-0.3,1.6-0.2,1.9c0.2,0.5,0.7,0.7,0.9,1.1l0.1,0.9c0.1,0.6,0.1,1.4,0.3,2c0.2,0.4,0.6,0.7,0.4,1.2c0.3,0.4,1,0.7,0.3,1.1
		c0.4,0.2,0.9,0.9,0.4,1.3c0.5,0.5,0.3,0.9,0.4,1.6c0.1,0.6,0.4,1.2,0.8,1.7c-0.1,0.1-0.1,0.1-0.2,0.2c0.8,0.6,0.3,2.2,1.4,2.5"/>
	<path class="st6" d="M311.9,223.1c-0.1-0.1-0.1-0.2-0.1-0.3c0.7,0,0.6-0.3,0.5-0.7c-0.1-0.3-0.7-0.8-0.9-1.1
		c-0.1-0.2-0.3-0.5-0.5-0.6c0.2,0,0.3-0.1,0.5-0.2c-0.4-0.5-0.5-0.7-0.7-1.1c-0.1-0.2,0-0.5-0.1-0.7c-0.3-0.5-1.2-0.7-1.3-1.2
		c1.4-0.2-0.8-3.1,0.1-3.6c0-0.6-0.2-1.2-0.4-1.6c-0.3-0.6-0.7,0.1-0.6-0.7c0-0.4,0.6-0.2,0.5-0.7c-0.1,0-0.3,0-0.4,0
		c0.4-0.9-0.2-1.1-0.9-1.5c1.2-0.3,0.1-1.5-0.3-1.9c0.1-0.7-0.8-1.3-1-2l-0.6,0.4c0,0.7-0.9,1-1,1.7c0.1,0,0.3,0,0.5,0
		c0.3,0.9-0.6,1.2-1.3,1.5c1.6,1.1-1.8,1.9,0.1,2.9c-0.3,0.2-0.5,0.5-0.6,0.8c-0.1,0.2-0.1,0.7-0.2,1c0,0.1-0.4,0.4-0.4,0.6
		c0,0.1,0,0.7-0.1,0.9c-0.2,0.7-0.7,0.6-1,1.2c-0.3,0.5,0.1,1.5,0,2.2s0.1,1.8-0.9,1.8c0.2,0.1,0.3,0.6,0.5,0.7
		c-0.4,0.2-1.7,0.1-1.9,0.4c-0.2,0.3,0.1,0.3,0.1,0.5c0,0.6,0.7,1.2,1.1,1.6c0,0.1-0.1,0.1-0.1,0.2"/>
	<path class="st6" d="M302.3,237.6c-0.4-0.2-0.6-0.5-0.5-1c-0.2,0-0.3-0.2-0.3-0.2c0.2-0.1,0.1-0.2,0.4-0.2c-0.2-0.5-0.4-0.9-1-1
		c0-0.5-0.2-1.1-0.1-1.7c0.2-1.1,0.2-0.7-0.8-1.6c0.2-0.1,0.2-0.4-0.1-0.5c0.1-0.6-0.7-0.7-0.5-1.3c0.2,0,0.3-0.2,0.5-0.2
		c-0.6-0.6-0.1-0.7-0.1-1.1c0-0.6-0.5-0.8-1-1c0.1,0,0.4-0.3,0.5-0.3c-0.2-0.2-0.3-0.4-0.5-0.6c-0.1-0.1-0.2-0.2-0.3-0.3
		c0-0.1,0.1-0.3,0-0.3c-0.2-0.4-1.1-1-0.2-1.1c-0.2-0.2-0.2-0.4-0.3-0.6c-0.1-0.2-0.4-0.4-0.5-0.6c-0.2-0.5,0.3-0.9,0.7-1.1
		c-0.4-0.3-0.7-0.4-0.9-0.7c-0.1-0.1-0.2-0.4-0.3-0.6c-0.2-0.5-0.2-0.9-0.6-1.4l-0.1,0.2c0,0.8-1,0.9-0.9,1.5c0.1,0,0.4,0.1,0.5,0
		c0,0.3-0.4,1-0.6,1.3s-0.8,0.6-0.7,1c0,0.3,0.4,0.3,0.4,0.6c0,0.2-0.3,0.4-0.3,0.5c-0.2,0.4-0.3,0.8-0.4,1.3c0,0.4-0.1,0.5-0.2,0.8
		s-0.4,0.5-0.5,0.8c-0.2,0.5,0.1,0.6,0.1,1c0,0.5-0.6,0.3,0.1,0.9c-0.3,0.4-1.7,1.5-1,2.1c-0.2,0.2-0.4,0.2-0.6,0.4
		c0.2,0,0.4,0.2,0.5,0.2c-0.6,0.4-0.5,0.5-0.8,1.1c-0.2,0.4-0.7,0.8-0.8,1.2c0.2,0,0.3,0.1,0.5,0.1c-0.2,0.3-0.3,0.8-0.8,0.9
		c0,0.3,0.2,0.5,0.3,0.8c-0.3,0.2-0.3,0.5-0.3,0.9c0.1,0,0.2,0,0.2,0"/>
	<path class="st2" d="M307.7,203.7c-0.1-0.1-0.1-0.2-0.1-0.3c0.7,0,0.6-0.3,0.5-0.7c-0.1-0.3-0.7-0.8-0.9-1.1
		c-0.1-0.2-0.3-0.5-0.5-0.6c0.2,0,0.3-0.1,0.5-0.2c-0.4-0.5-0.5-0.7-0.7-1.1c-0.1-0.2,0-0.5-0.1-0.7c-0.3-0.5-1.2-0.7-1.3-1.2
		c1.4-0.2-0.8-3.1,0.1-3.6c0-0.6-0.2-1.2-0.4-1.6c-0.3-0.6-0.7,0.1-0.6-0.7c0-0.4,0.6-0.2,0.5-0.7c-0.1,0-0.3,0-0.4,0
		c0.4-0.9-0.2-1.1-0.9-1.5c1.2-0.3,0.1-1.5-0.3-1.9c0.1-0.7-0.8-1.3-1-2l-0.6,0.4c0,0.7-0.9,1-1,1.7c0.1,0,0.3,0,0.5,0
		c0.3,0.9-0.6,1.2-1.3,1.5c1.6,1.1-1.8,1.9,0.1,2.9c-0.3,0.2-0.5,0.5-0.6,0.8c-0.1,0.2-0.1,0.7-0.2,1c0,0.1-0.4,0.4-0.4,0.6
		c0,0.1,0,0.7-0.1,0.9c-0.2,0.7-0.7,0.6-1,1.2c-0.3,0.5,0.1,1.5,0,2.2s0.1,1.8-0.9,1.8c0.2,0.1,0.3,0.6,0.5,0.7
		c-0.4,0.2-1.7,0.1-1.9,0.4c-0.2,0.3,0.1,0.3,0.1,0.5c0,0.6,0.7,1.2,1.1,1.6c0,0.1-0.1,0.1-0.1,0.2"/>
	<path class="st2" d="M196.4,196.5c-0.1-0.1-0.1-0.2-0.1-0.3c0.7,0,0.6-0.3,0.5-0.7c-0.1-0.3-0.7-0.8-0.9-1.1
		c-0.1-0.2-0.3-0.5-0.5-0.6c0.2,0,0.3-0.1,0.5-0.2c-0.4-0.5-0.5-0.7-0.7-1.1c-0.1-0.2,0-0.5-0.1-0.7c-0.3-0.5-1.2-0.7-1.3-1.2
		c1.4-0.2-0.8-3.1,0.1-3.6c0-0.6-0.2-1.2-0.4-1.6c-0.3-0.6-0.7,0.1-0.6-0.7c0-0.4,0.6-0.2,0.5-0.7c-0.1,0-0.3,0-0.4,0
		c0.4-0.9-0.2-1.1-0.9-1.5c1.2-0.3,0.1-1.5-0.3-1.9c0.1-0.7-0.8-1.3-1-2l-0.6,0.4c0,0.7-0.9,1-1,1.7c0.1,0,0.3,0,0.5,0
		c0.3,0.9-0.6,1.2-1.3,1.5c1.6,1.1-1.8,1.9,0.1,2.9c-0.3,0.2-0.5,0.5-0.6,0.8c-0.1,0.2-0.1,0.7-0.2,1c0,0.1-0.4,0.4-0.4,0.6
		c0,0.1,0,0.7-0.1,0.9c-0.2,0.7-0.7,0.6-1,1.2c-0.3,0.5,0.1,1.5,0,2.2s0.1,1.8-0.9,1.8c0.2,0.1,0.3,0.6,0.5,0.7
		c-0.4,0.2-1.7,0.1-1.9,0.4c-0.2,0.3,0.1,0.3,0.1,0.5c0,0.6,0.7,1.2,1.1,1.6c0,0.1-0.1,0.1-0.1,0.2"/>
	<path class="st2" d="M322.4,204.4c-0.1-0.2-0.2-0.3-0.2-0.6c1.2,0,1.1-0.5,0.9-1.3c-0.1-0.5-1.3-1.5-1.5-2c-0.2-0.4-0.5-0.8-0.9-1
		c0.3,0,0.6-0.2,0.9-0.3c-0.6-0.8-0.9-1.3-1.2-2c-0.1-0.3-0.1-0.8-0.2-1.2c-0.5-1-2.1-1.3-2.2-2.1c2.5-0.3-1.5-5.5,0.2-6.3
		c-0.1-1-0.3-2.1-0.6-2.7c-0.5-1-1.2,0.2-1.1-1.3c0-0.7,1-0.4,0.8-1.2c-0.2,0-0.5-0.1-0.8-0.1c0.8-1.6-0.4-2-1.5-2.7
		c2.1-0.4,0.1-2.6-0.5-3.4c0.2-1.2-1.3-2.3-1.8-3.5l-1.1,0.6c0,1.3-1.5,1.8-1.7,3c0.2,0,0.6,0.1,0.8,0c0.5,1.6-1.1,2.1-2.3,2.7
		c2.8,2-3.2,3.4,0.2,5.2c-0.6,0.4-0.9,0.9-1.1,1.4c-0.2,0.4-0.2,1.3-0.3,1.7c0,0.1-0.7,0.7-0.8,1c-0.1,0.1-0.1,1.2-0.2,1.5
		c-0.3,1.2-1.3,1.1-1.8,2.1c-0.4,0.9,0.1,2.7-0.1,3.9c-0.2,1.3,0.2,3.2-1.7,3.2c0.3,0.3,0.5,1,0.9,1.3c-0.7,0.3-3,0.2-3.3,0.8
		c-0.3,0.5,0.2,0.5,0.2,0.9c0,1.1,1.2,2.2,2,2.9c-0.1,0.1-0.1,0.2-0.2,0.4"/>
	<path class="st2" d="M196.7,279.8c-0.1-0.2-0.2-0.3-0.2-0.6c1.2,0,1.1-0.5,0.9-1.3c-0.1-0.5-1.3-1.5-1.5-2c-0.2-0.4-0.5-0.8-0.9-1
		c0.3,0,0.6-0.2,0.9-0.3c-0.6-0.8-0.9-1.3-1.2-2c-0.1-0.3-0.1-0.8-0.2-1.2c-0.5-1-2.1-1.3-2.2-2.1c2.5-0.3-1.5-5.5,0.2-6.3
		c-0.1-1-0.3-2.1-0.6-2.7c-0.5-1-1.2,0.2-1.1-1.3c0-0.7,1-0.4,0.8-1.2c-0.2,0-0.5-0.1-0.8-0.1c0.8-1.6-0.4-2-1.5-2.7
		c2.1-0.4,0.1-2.6-0.5-3.4c0.2-1.2-1.3-2.3-1.8-3.5l-1.1,0.6c0,1.3-1.5,1.8-1.7,3c0.2,0,0.6,0.1,0.8,0c0.5,1.6-1.1,2.1-2.3,2.7
		c2.8,2-3.2,3.4,0.2,5.2c-0.6,0.4-0.9,0.9-1.1,1.4c-0.2,0.4-0.2,1.3-0.3,1.7c0,0.1-0.7,0.7-0.8,1c-0.1,0.1-0.1,1.2-0.2,1.5
		c-0.3,1.2-1.3,1.1-1.8,2.1c-0.4,0.9,0.1,2.7-0.1,3.9c-0.2,1.3,0.2,3.2-1.7,3.2c0.3,0.3,0.5,1,0.9,1.3c-0.7,0.3-3,0.2-3.3,0.8
		c-0.3,0.5,0.2,0.5,0.2,0.9c0,1.1,1.2,2.2,2,2.9c-0.1,0.1-0.1,0.2-0.2,0.4"/>
	<path class="st2" d="M177.3,210.1c-0.1-0.1-0.1-0.1-0.1-0.3c0.5,0,0.5-0.2,0.4-0.6c-0.1-0.2-0.6-0.6-0.7-0.9
		c-0.1-0.2-0.2-0.4-0.4-0.4c0.1,0,0.3-0.1,0.4-0.1c-0.3-0.4-0.4-0.6-0.5-0.9c-0.1-0.1,0-0.4-0.1-0.5c-0.2-0.4-0.9-0.6-1-0.9
		c1.1-0.1-0.7-2.4,0.1-2.8c0-0.5-0.1-0.9-0.3-1.2c-0.2-0.4-0.5,0.1-0.5-0.6c0-0.3,0.4-0.2,0.4-0.5c-0.1,0-0.2,0-0.3,0
		c0.3-0.7-0.2-0.9-0.7-1.2c0.9-0.2,0-1.2-0.2-1.5c0.1-0.5-0.6-1-0.8-1.5l-0.5,0.3c0,0.6-0.7,0.8-0.7,1.3c0.1,0,0.2,0,0.3,0
		c0.2,0.7-0.5,0.9-1,1.2c1.2,0.9-1.4,1.5,0.1,2.3c-0.3,0.2-0.4,0.4-0.5,0.6c-0.1,0.2-0.1,0.6-0.1,0.7c0,0.1-0.3,0.3-0.3,0.4
		c0,0.1,0,0.5-0.1,0.7c-0.1,0.5-0.6,0.5-0.8,0.9s0.1,1.2,0,1.7c-0.1,0.6,0.1,1.4-0.7,1.4c0.1,0.1,0.2,0.4,0.4,0.6
		c-0.3,0.1-1.3,0.1-1.5,0.3c-0.1,0.2,0.1,0.2,0.1,0.4c0,0.5,0.5,1,0.9,1.3c0,0.1-0.1,0.1-0.1,0.2"/>
	<path class="st6" d="M309.2,213c-0.3-1.1,0.7-1.9,0-2.8c1-0.3,0.4-1.2,0.6-1.9c0.1-0.4,0.5-0.5,0.7-0.8c0.1-0.3-0.1-0.8,0.1-1.1
		c0.4-0.8,1.1-0.3,1.1-1.5c0-0.3,0-0.6,0-0.8c-0.1-0.2-0.7-0.4-0.6-0.7c0.1-0.4,0.8-0.3,1-0.6c0.1-0.2-0.1-0.6,0-0.8
		c0.2-0.7,0.7-1.3,1-2.1c0.2-0.6,0.2-1.5,0.5-2c0.3-0.6,1-1,1.3-1.6c0,0.6,0.6,0.9,0.8,1.4c0.1,0.3-0.1,0.5-0.1,0.7
		c0.1,0.3,0.3,0.3,0.4,0.8c0,0.4-0.3,0.7-0.2,1.1c0,0.3,0.3,0.4,0.4,0.6c0.1,0.3,0,0.7,0.1,1c0.1,0.5,0.3,1.3,0.6,1.8
		c0.5,0.7,1,1.2,1.3,2c0.2,0.5,0.1,1.1,0.2,1.6c0.3,1.2,0.1,2.6,0.8,3.7c-0.8,0.6-0.1,1.6,0.5,2"/>
	<path class="st2" d="M320.4,217.2c-0.1-0.1-0.1-0.1-0.1-0.3c0.5,0,0.5-0.2,0.4-0.5c-0.1-0.2-0.5-0.6-0.7-0.8
		c-0.1-0.2-0.2-0.3-0.4-0.4c0.1,0,0.2-0.1,0.4-0.1c-0.3-0.4-0.4-0.5-0.5-0.8c-0.1-0.1,0-0.3-0.1-0.5c-0.2-0.4-0.9-0.5-0.9-0.9
		c1.1-0.1-0.6-2.3,0.1-2.7c0-0.4-0.1-0.9-0.3-1.2c-0.2-0.4-0.5,0.1-0.5-0.6c0-0.3,0.4-0.2,0.4-0.5c-0.1,0-0.2,0-0.3,0
		c0.3-0.7-0.2-0.8-0.6-1.1c0.9-0.2,0-1.1-0.2-1.4c0.1-0.5-0.6-1-0.8-1.5l-0.5,0.3c0,0.6-0.6,0.8-0.7,1.3c0.1,0,0.2,0,0.3,0
		c0.2,0.7-0.5,0.9-1,1.2c1.2,0.8-1.3,1.4,0.1,2.2c-0.3,0.2-0.4,0.4-0.5,0.6c-0.1,0.1-0.1,0.5-0.1,0.7c0,0.1-0.3,0.3-0.3,0.4
		c0,0.1,0,0.5-0.1,0.6c-0.1,0.5-0.5,0.5-0.7,0.9s0.1,1.2,0,1.7s0.1,1.3-0.7,1.4c0.1,0.1,0.2,0.4,0.4,0.5c-0.3,0.1-1.3,0.1-1.4,0.3
		s0.1,0.2,0.1,0.4c0,0.5,0.5,0.9,0.8,1.2c0,0.1-0.1,0.1-0.1,0.2"/>
	<path class="st2" d="M317.3,237.4c-0.1-0.2-0.2-0.3-0.2-0.5c1,0,1-0.4,0.8-1.1c-0.1-0.4-1.1-1.2-1.3-1.7c-0.2-0.3-0.4-0.7-0.7-0.9
		c0.2,0,0.5-0.2,0.7-0.3c-0.6-0.7-0.8-1.1-1-1.7c-0.1-0.2-0.1-0.7-0.2-1c-0.4-0.8-1.8-1.1-1.9-1.8c2.1-0.3-1.3-4.7,0.1-5.3
		c-0.1-0.9-0.2-1.8-0.5-2.3c-0.5-0.8-1,0.1-0.9-1.1c0-0.6,0.8-0.3,0.7-1.1c-0.2,0-0.4,0-0.6-0.1c0.6-1.3-0.3-1.7-1.3-2.3
		c1.8-0.4,0.1-2.2-0.5-2.9c0.2-1-1.1-1.9-1.5-2.9l-0.9,0.5c0,1.1-1.3,1.5-1.4,2.5c0.2,0,0.5,0,0.7,0c0.4,1.4-1,1.8-1.9,2.3
		c2.4,1.7-2.7,2.9,0.2,4.4c-0.5,0.3-0.7,0.7-0.9,1.2c-0.1,0.3-0.2,1.1-0.3,1.4c0,0.1-0.6,0.6-0.7,0.8c0,0.1-0.1,1-0.1,1.3
		c-0.3,1-1.1,1-1.5,1.8s0.1,2.3,0,3.3c-0.2,1.1,0.1,2.7-1.4,2.7c0.2,0.2,0.5,0.8,0.8,1.1c-0.6,0.3-2.5,0.2-2.8,0.7
		c-0.3,0.4,0.1,0.4,0.1,0.8c0,0.9,1,1.9,1.7,2.4c0,0.1-0.1,0.2-0.2,0.3"/>
	<path class="st6" d="M307.8,242.7c0.6-0.2,0.8-0.7,0.7-1.4c0.2,0,0.4-0.2,0.5-0.3c-0.3-0.1-0.2-0.3-0.6-0.2
		c0.3-0.8,0.6-1.3,1.4-1.4c0-0.8,0.3-1.6,0.1-2.4c-0.3-1.6-0.3-1,1.2-2.3c-0.3-0.2-0.3-0.6,0.1-0.8c-0.1-0.8,0.9-1,0.7-1.9
		c-0.2,0-0.5-0.3-0.7-0.3c0.9-0.8,0.1-1,0.1-1.6c0-0.8,0.8-1.1,1.4-1.4c-0.2-0.1-0.5-0.4-0.7-0.4c0.3-0.3,0.5-0.6,0.7-0.9
		c0.1-0.2,0.3-0.3,0.4-0.5c0.1-0.1-0.1-0.4,0-0.5c0.3-0.5,1.6-1.4,0.3-1.6c0.2-0.3,0.2-0.6,0.4-0.8c0.1-0.2,0.6-0.6,0.7-0.8
		c0.2-0.7-0.5-1.3-1-1.5c0.6-0.4,1-0.6,1.3-1.1c0.2-0.2,0.3-0.6,0.4-0.8c0.3-0.6,0.3-1.3,0.9-2l0.1,0.2c0,1.1,1.5,1.2,1.3,2.2
		c-0.2,0-0.5,0.1-0.7,0c0,0.4,0.6,1.4,0.8,1.8c0.3,0.4,1.1,0.9,1,1.4c0,0.4-0.6,0.5-0.6,0.9c0,0.2,0.4,0.5,0.5,0.7
		c0.3,0.5,0.5,1.2,0.5,1.8c0.1,0.5,0.1,0.8,0.3,1.2c0.2,0.5,0.6,0.8,0.7,1.1c0.2,0.7-0.1,0.8-0.2,1.5c0,0.7,0.8,0.4-0.1,1.3
		c0.5,0.6,2.5,2.2,1.5,3.1c0.2,0.2,0.6,0.3,0.9,0.6c-0.2,0-0.6,0.3-0.8,0.4c0.9,0.5,0.7,0.7,1.1,1.5c0.2,0.6,1,1.2,1.1,1.8
		c-0.2,0-0.5,0.2-0.7,0.2c0.3,0.4,0.4,1.2,1.1,1.2c0,0.4-0.3,0.7-0.5,1.1c0.5,0.3,0.4,0.8,0.4,1.3c-0.1,0-0.2,0-0.3,0"/>
	<path class="st6" d="M211.8,299.7c-0.6-0.2-0.8-0.7-0.8-1.5c-0.2,0-0.4-0.2-0.5-0.3c0.3-0.1,0.2-0.3,0.6-0.2
		c-0.3-0.8-0.6-1.3-1.5-1.4c0-0.8-0.3-1.6-0.1-2.4c0.3-1.6,0.3-1-1.2-2.3c0.4-0.2,0.3-0.6-0.1-0.8c0.1-0.8-1-1-0.8-1.9
		c0.2,0,0.5-0.3,0.7-0.3c-0.9-0.8-0.1-1-0.1-1.6c0-0.8-0.8-1.1-1.5-1.4c0.2-0.1,0.6-0.4,0.7-0.4c-0.3-0.3-0.5-0.6-0.7-0.9
		c-0.1-0.2-0.3-0.3-0.4-0.5c-0.1-0.1,0.1-0.4,0-0.5c-0.3-0.5-1.6-1.4-0.3-1.6c-0.2-0.3-0.2-0.6-0.4-0.9c-0.1-0.2-0.6-0.6-0.7-0.8
		c-0.2-0.7,0.5-1.3,1.1-1.6c-0.6-0.4-1-0.6-1.4-1.1c-0.2-0.2-0.4-0.6-0.4-0.8c-0.3-0.7-0.3-1.3-0.9-2l-0.1,0.2
		c0,1.1-1.5,1.2-1.3,2.2c0.2,0,0.5,0.1,0.7,0c0,0.4-0.6,1.5-0.9,1.8c-0.3,0.4-1.1,0.9-1.1,1.5c0,0.4,0.6,0.5,0.6,0.9
		c0,0.2-0.4,0.5-0.5,0.7c-0.3,0.5-0.5,1.2-0.5,1.8c-0.1,0.5-0.1,0.8-0.3,1.2c-0.2,0.5-0.6,0.8-0.7,1.1c-0.3,0.7,0.1,0.9,0.2,1.5
		c0,0.7-0.8,0.5,0.1,1.3c-0.5,0.6-2.5,2.2-1.5,3.1c-0.3,0.2-0.6,0.3-0.9,0.6c0.2,0,0.6,0.3,0.8,0.4c-0.9,0.5-0.8,0.7-1.1,1.5
		c-0.3,0.6-1,1.2-1.1,1.8c0.2,0,0.5,0.2,0.7,0.2c-0.3,0.4-0.4,1.2-1.1,1.2c0,0.4,0.3,0.7,0.5,1.1c-0.5,0.3-0.4,0.8-0.4,1.3
		c0.1,0,0.2,0,0.4,0"/>
	<path class="st2" d="M273.2,264.5c-0.1-0.3-0.3-0.4-0.2-0.7c1.4,0,1.3-0.6,1-1.4c-0.2-0.5-1.5-1.7-1.8-2.3c-0.2-0.4-0.6-0.9-1-1.2
		c0.3,0,0.7-0.3,1-0.3c-0.7-1-1-1.5-1.4-2.3c-0.1-0.3-0.1-0.9-0.3-1.3c-0.5-1.1-2.4-1.4-2.5-2.4c2.9-0.4-1.7-6.3,0.2-7.2
		c-0.1-1.2-0.3-2.4-0.7-3.1c-0.6-1.1-1.4,0.2-1.3-1.5c0.1-0.7,1.1-0.4,1-1.4c-0.3,0-0.6-0.1-0.9-0.1c0.9-1.8-0.5-2.3-1.8-3.1
		c2.5-0.5,0.1-3-0.6-3.9c0.3-1.4-1.5-2.6-2-4l-1.2,0.7c-0.1,1.5-1.7,2.1-1.9,3.4c0.3,0,0.6,0.1,0.9,0.1c0.5,1.9-1.3,2.4-2.6,3.1
		c3.2,2.3-3.6,3.8,0.2,5.9c-0.7,0.4-1,1-1.3,1.6c-0.2,0.4-0.2,1.5-0.4,1.9c0,0.1-0.8,0.8-0.9,1.1c-0.1,0.1-0.1,1.4-0.2,1.7
		c-0.4,1.3-1.5,1.3-2,2.4c-0.5,1.1,0.1,3.1-0.1,4.5c-0.2,1.4,0.2,3.6-1.9,3.7c0.3,0.3,0.6,1.1,1.1,1.5c-0.8,0.4-3.4,0.3-3.8,0.9
		c-0.4,0.5,0.2,0.6,0.2,1c0,1.3,1.4,2.5,2.3,3.3c-0.1,0.1-0.2,0.3-0.2,0.4"/>
	<g>
		<g>
			<path class="st7" d="M227.4,310.8c0,0.8-0.2,1.4-0.6,1.9c-0.4,0.5-1,0.7-1.7,0.7c-1.9,0-4.2-9.7-7-29.1c-0.4-2.9-0.7-4.5-0.8-5
				c-1,6.7-1.7,12.6-2.2,17.5s-0.8,9.8-0.8,14.6c0,0.5-0.2,1-0.7,1.5c-0.5,0.4-1,0.6-1.5,0.6c-1.9,0-2.8-1.9-2.8-5.8
				c0-2.4-1.1-11-3.2-26c-2.1-14.9-3.5-23.1-4.1-24.5c0.7-1.2,1.6-1.8,2.8-1.8s2.3,2.6,3.2,7.9c1,5.3,1.8,11.6,2.5,19.1
				s1.1,11.3,1.1,11.4c0.1-0.7,0.3-2.8,0.8-6.4c0.4-3.6,0.8-6.4,1-8.6c0.8-6.6,1.1-11.2,1.1-14v-1.4c0-0.5,0.2-1.1,0.6-1.6
				c0.4-0.5,0.9-0.8,1.4-0.8c1.8,0,2.8,0.7,2.8,2.2v1.1c0,4.9,1.2,12,3.5,21.2c1,4,1.7,7.3,2.2,9.7c0.3-2.8,0.8-6.8,1.5-12.1
				c1.6-11.5,2.4-20.4,2.4-26.6c0-1.1,0.2-1.9,0.6-2.4c0.4-0.5,1-0.8,1.9-0.8s1.5,0.2,2,0.6s0.7,0.9,0.7,1.5c0,0.6-0.3,1.2-0.8,1.7
				c0,7.4-1,16.3-2.9,26.8C228.3,294.5,227.4,303.4,227.4,310.8z"/>
			<path class="st7" d="M254.6,289.5l-0.7,9.6v0.3c-0.3,1.4-0.5,2.9-0.5,4.6c0,1.6-0.3,3.2-0.9,4.7c-0.6,1.5-1.5,2.9-2.6,4
				s-2.5,1.8-3.9,1.8s-2.7-0.5-3.9-1.4s-2.1-2.1-2.9-3.6c-0.8-1.5-1.4-3.2-2-5.3c-0.6-2-1-4-1.3-6c-0.3-1.9-0.6-4-0.8-6.1
				c-0.3-3.3-0.4-5.8-0.4-7.6c0-1.8,0-3.4,0-4.7c0-1.3-0.1-2.5-0.1-3.5c0-0.5,0-1.1,0-1.7s0-1.3,0-2c0-1.5,0.1-2.8,0.1-3.9
				c0.1-1.2,0.2-2.4,0.3-3.8c0.2-1.3,0.4-2.5,0.6-3.6c0.3-1,0.6-2,1-3c0.5-1,1-1.8,1.5-2.5c1.3-1.4,2.7-2.1,4.3-2.1s3,0.3,4.2,0.9
				c1.2,0.6,2.1,1.5,2.9,2.8c0.8,1.3,1.5,2.5,2.1,3.7s1.1,2.9,1.4,5.1c0.3,2.2,0.6,3.9,0.8,5.2c0.2,1.4,0.3,3.3,0.4,5.8
				c0.1,3.4,0.2,6,0.2,7.9v4.4H254.6z M247.7,261.7c-0.5-1.3-1.2-2.3-1.9-3c-0.8-0.7-1.5-1.1-2.3-1.1s-1.4,0.3-1.9,0.8
				s-0.9,1.3-1.2,2.2c-0.3,1-0.6,2-0.9,3.1c-0.3,1.1-0.5,2.3-0.6,3.8c-0.1,1.4-0.3,2.7-0.4,3.9c-0.1,1.1-0.1,2.4-0.2,3.8
				c-0.1,2.3-0.1,4.1-0.1,5.4v0.3c0,3.4,0.3,7,0.8,10.9s1.1,7.1,1.6,9.6s1.3,4.6,2.3,6.3c1,1.7,2,2.6,3.2,2.6c1,0,1.9-1,2.6-2.9
				c0.7-1.9,1.2-4.3,1.5-7.1c0.5-5,0.8-8.6,0.8-10.6s0-3.5,0-4.5c0-0.9-0.1-2.3-0.1-4.1c-0.1-1.8-0.2-3.5-0.3-5
				c-0.2-1.6-0.3-3.3-0.6-5.2c-0.2-1.9-0.6-3.6-0.9-5.1C248.7,264.4,248.2,263,247.7,261.7z"/>
			<path class="st7" d="M276.6,289.5l-0.7,9.6v0.3c-0.3,1.4-0.5,2.9-0.5,4.6c0,1.6-0.3,3.2-0.9,4.7s-1.5,2.9-2.6,4
				c-1.2,1.2-2.5,1.8-3.9,1.8s-2.7-0.5-3.9-1.4c-1.2-0.9-2.1-2.1-2.9-3.6s-1.4-3.2-2-5.3s-1-4-1.3-6c-0.3-1.9-0.6-4-0.8-6.1
				c-0.3-3.3-0.4-5.8-0.4-7.6c0-1.8,0-3.4,0-4.7c0-1.3-0.1-2.5-0.1-3.5c0-0.5,0-1.1,0-1.7s0-1.3,0-2c0-1.5,0.1-2.8,0.1-3.9
				c0.1-1.2,0.2-2.4,0.3-3.8c0.2-1.3,0.4-2.5,0.6-3.6c0.3-1,0.6-2,1-3c0.5-1,1-1.8,1.5-2.5c1.3-1.4,2.7-2.1,4.3-2.1
				c1.6,0,3,0.3,4.2,0.9c1.2,0.6,2.1,1.5,2.9,2.8s1.5,2.5,2.1,3.7s1.1,2.9,1.4,5.1s0.6,3.9,0.8,5.2c0.2,1.4,0.3,3.3,0.4,5.8
				c0.1,3.4,0.2,6,0.2,7.9v4.4H276.6z M269.8,261.7c-0.5-1.3-1.2-2.3-1.9-3c-0.8-0.7-1.5-1.1-2.3-1.1s-1.4,0.3-1.9,0.8
				s-0.9,1.3-1.2,2.2s-0.6,2-0.9,3.1s-0.5,2.3-0.6,3.8c-0.1,1.4-0.3,2.7-0.4,3.9c-0.1,1.1-0.1,2.4-0.2,3.8c-0.1,2.3-0.1,4.1-0.1,5.4
				v0.3c0,3.4,0.3,7,0.8,10.9s1.1,7.1,1.6,9.6s1.3,4.6,2.3,6.3c1,1.7,2,2.6,3.2,2.6c1,0,1.9-1,2.6-2.9s1.2-4.3,1.5-7.1
				c0.5-5,0.8-8.6,0.8-10.6s0-3.5,0-4.5c0-0.9-0.1-2.3-0.1-4.1c-0.1-1.8-0.2-3.5-0.3-5c-0.2-1.6-0.3-3.3-0.6-5.2
				c-0.2-1.9-0.6-3.6-0.9-5.1C270.8,264.4,270.3,263,269.8,261.7z"/>
			<path class="st7" d="M298.9,284.5l0.2,1.6c0,3.6-0.9,7.8-2.9,12.7c-2.2,5.6-4.8,9.5-7.9,11.8c-1.7,1.3-3.5,2-5.3,2
				c-1,0-1.8-0.2-2.6-0.6c-0.8-0.4-1.2-1.1-1.2-1.9c1.1-1.2,1.7-4.1,1.7-8.9c0-2.8-0.2-7-0.7-12.6s-0.7-9.7-0.7-12.5l0.2-8.3
				c0-1.3-0.3-3.1-0.8-5.4s-0.8-3.9-0.8-4.8c0-1.8,2-2.6,5.9-2.6h1.2c5.3,0,9.1,2.9,11.4,8.7c1.7,4,2.5,9.6,2.5,16.7v3.5
				C299,284,298.9,284.2,298.9,284.5z M284.7,300.9v7.3c1.9-1.2,3.6-3,5.1-5.2c1.4-2.2,2.5-4.6,3.3-7.2c1.4-5,2.1-10,2.1-15
				c0-5.7-0.7-10.2-2.2-13.6s-3.3-5.7-5.5-6.7c-1.4-0.7-2.9-1-4.6-1v0.1c0,4.6,0.3,11.4,0.9,20.6
				C284.4,289.4,284.7,296.3,284.7,300.9z"/>
			<path class="st7" d="M300.3,311.5c0-1.4,0.6-2,1.7-2c0.6,0,1.3,0.2,2.3,0.6c0.9,0.4,1.8,0.6,2.5,0.6s1.4-0.4,2.2-1.3
				c0.8-0.9,1.4-1.9,1.9-3.2c0.9-2.6,1.4-5,1.4-7.1s-0.4-4.4-1.1-6.8c-0.8-2.4-1.7-4.7-2.8-6.8c-1.1-2.1-2.2-4.2-3.3-6.4
				c-2.6-5.1-3.9-9.7-3.9-13.8c0-3.9,1.2-7,3.8-9.3c1.4-1.2,3-1.8,4.8-1.8c0.9,0,1.8,0.3,2.7,0.8s1.5,1.2,1.9,2l-1.3,1.6
				c-1.3,0-2.3-0.2-3-0.7c-1,0.1-1.8,0.5-2.5,1.3c-1.3,1.5-1.9,3.3-1.9,5.4s0.3,4.2,0.8,6.2c0.6,2,1.2,3.8,2.1,5.4
				c0.8,1.6,1.7,3.3,2.7,5.2c1,1.9,1.9,3.7,2.7,5.4c1.9,4,2.9,8.3,2.9,13c0,3.3-0.8,6.4-2.5,9.4c-0.8,1.4-1.9,2.6-3.3,3.5
				s-3,1.4-4.7,1.4c-1.9,0-3.3-0.3-4.4-0.8S300.3,312.1,300.3,311.5z"/>
		</g>
	</g>
	<path class="st6" d="M284.1,317.1c0.6-0.2,0.8-0.7,0.7-1.4c0.2,0,0.4-0.2,0.5-0.3c-0.3-0.1-0.2-0.3-0.6-0.2
		c0.3-0.8,0.6-1.3,1.4-1.4c0-0.8,0.3-1.6,0.1-2.4c-0.3-1.6-0.3-1,1.2-2.3c-0.3-0.2-0.3-0.6,0.1-0.8c-0.1-0.8,0.9-1,0.7-1.9
		c-0.2,0-0.5-0.3-0.7-0.3c0.9-0.8,0.1-1,0.1-1.6c0-0.8,0.8-1.1,1.4-1.4c-0.2-0.1-0.5-0.4-0.7-0.4c0.3-0.3,0.5-0.6,0.7-0.9
		c0.1-0.2,0.3-0.3,0.4-0.5c0.1-0.1-0.1-0.4,0-0.5c0.3-0.5,1.6-1.4,0.3-1.6c0.2-0.3,0.2-0.6,0.4-0.8c0.1-0.2,0.6-0.6,0.7-0.8
		c0.2-0.7-0.5-1.3-1-1.5c0.6-0.4,1-0.6,1.3-1.1c0.2-0.2,0.3-0.6,0.4-0.8c0.3-0.6,0.3-1.3,0.9-2l0.1,0.2c0,1.1,1.5,1.2,1.3,2.2
		c-0.2,0-0.5,0.1-0.7,0c0,0.4,0.6,1.4,0.8,1.8c0.3,0.4,1.1,0.9,1,1.4c0,0.4-0.6,0.5-0.6,0.9c0,0.2,0.4,0.5,0.5,0.7
		c0.3,0.5,0.5,1.2,0.5,1.8c0.1,0.5,0.1,0.8,0.3,1.2c0.2,0.5,0.6,0.8,0.7,1.1c0.2,0.7-0.1,0.8-0.2,1.5c0,0.7,0.8,0.4-0.1,1.3
		c0.5,0.6,2.5,2.2,1.5,3.1c0.2,0.2,0.6,0.3,0.9,0.6c-0.2,0-0.6,0.3-0.8,0.4c0.9,0.5,0.7,0.7,1.1,1.5c0.2,0.6,1,1.2,1.1,1.8
		c-0.2,0-0.5,0.2-0.7,0.2c0.3,0.4,0.4,1.2,1.1,1.2c0,0.4-0.3,0.7-0.5,1.1c0.5,0.3,0.4,0.8,0.4,1.3c-0.1,0-0.2,0-0.3,0"/>
	<path class="st2" d="M211.3,192.6c-0.1-0.2-0.2-0.3-0.2-0.5c1,0,0.9-0.4,0.7-1c-0.1-0.4-1-1.2-1.2-1.6c-0.2-0.3-0.4-0.7-0.7-0.8
		c0.2,0,0.5-0.2,0.7-0.2c-0.5-0.7-0.7-1-1-1.6c-0.1-0.2-0.1-0.6-0.2-0.9c-0.4-0.8-1.7-1-1.8-1.7c2-0.3-1.2-4.4,0.1-5.1
		c-0.1-0.8-0.2-1.7-0.5-2.2c-0.4-0.8-1,0.1-0.9-1.1c0-0.5,0.8-0.3,0.7-1c-0.2,0-0.4,0-0.6-0.1c0.6-1.3-0.3-1.6-1.2-2.2
		c1.7-0.4,0.1-2.1-0.4-2.8c0.2-1-1.1-1.8-1.4-2.8l-0.9,0.5c0,1-1.2,1.5-1.4,2.4c0.2,0,0.4,0,0.6,0c0.4,1.3-0.9,1.7-1.8,2.2
		c2.3,1.6-2.5,2.7,0.2,4.2c-0.5,0.3-0.7,0.7-0.9,1.1c-0.1,0.3-0.2,1-0.2,1.3c0,0.1-0.5,0.6-0.6,0.8c0,0.1-0.1,1-0.1,1.2
		c-0.3,0.9-1,0.9-1.4,1.7c-0.4,0.7,0.1,2.2,0,3.2c-0.2,1,0.1,2.6-1.3,2.6c0.2,0.2,0.4,0.8,0.7,1c-0.6,0.3-2.4,0.2-2.7,0.6
		c-0.3,0.4,0.1,0.4,0.1,0.7c0,0.9,1,1.8,1.6,2.3c0,0.1-0.1,0.2-0.2,0.3"/>
	<path class="st6" d="M197.2,210.9c0.6,0,1.2,0,1.8-0.3c-0.1-0.6,0.3-2-0.3-2.3c0.3-0.4,0.5-0.9,0.1-1.3c0.2,0,1.1-1,1.1-1.3
		c0-0.2-0.6-0.4-0.7-0.6c-0.2-0.3-0.2-0.7-0.4-1c0.4-0.5,2.4-1.2,1.4-2.1c0.9-0.2,0.4-1.5,0.6-2.1c0.3-0.8,1.2-2,0.4-2.9
		c0.4-0.3,0.9-0.7,1.3-0.9c0.6-0.4,0.7,0.1,0.8-0.8c0-0.7-1.5-2.2-0.1-2.2c0.1-0.4,0.1-0.9,0.1-1.2c0,0,0.3-0.5,0.3-0.6
		s-0.3-0.2-0.2-0.4s0.4-0.3,0.4-0.4c0.4-0.9,1.8-1.7,1.6-2.9l0.2,0.1c0.3,0.3,0.8,0.7,0.9,1.2c0.1,0.4-0.2,0.7,0,1.1
		c0.1,0.4,0.6,0.4,0.7,0.8c0,0.2-0.1,0.4-0.1,0.5s-0.3,0.2-0.3,0.5c0.1,0.5,1.1,0.9,1.5,1.1c-0.3,0.4-0.4,1.9-0.3,2.3
		c0.2,0.6,0.9,0.8,1.1,1.3c0,0,0.1,1,0.1,1.1c0.1,0.8,0.1,1.7,0.4,2.5c0.2,0.5,0.8,0.9,0.5,1.4c0.4,0.4,1.2,0.9,0.4,1.4
		c0.5,0.3,1.1,1.1,0.5,1.6c0.6,0.6,0.4,1.2,0.5,1.9c0.1,0.8,0.5,1.5,1,2.1c-0.1,0.1-0.2,0.2-0.3,0.2c1,0.7,0.4,2.7,1.7,3"/>
	<path class="st6" d="M186.9,226.7c-0.1,0.1-0.1,0.1-0.2,0.1c-0.1-0.2,0-0.5,0-0.7c0.3,0,0.5-0.2,0.7-0.3c-1.1-0.9-0.7-1.1,0-1.9
		c-0.4-0.2-0.5-0.5-0.5-0.9c1.1-0.2,0.2-0.6,0.4-0.9c0.3-0.6,1.4-0.6,1.5-1.3c-0.3-0.1-0.7-0.2-1-0.4c0.1-0.6,1.1-0.4,1.5-0.8
		c-0.7-0.4-1.3-0.6-1.1-1.5c-0.2-0.1-0.4-0.3-0.5-0.4c1.3-0.4,2-1.3,1.6-2.7c0.5-0.2,1-0.5,1.1-1c-0.1,0-0.3,0-0.5,0
		c0.3-0.3,0.2-0.7,0.4-1c0.3-0.4,0.7-0.6,1.1-0.9c-0.2-0.2-0.7-0.4-0.8-0.7c0-0.2,0.2-0.2,0.2-0.3c-0.1-0.4,0.4-0.6-0.2-0.9
		c0.3-0.1,0.4-0.4,0.6-0.5c-1.1-0.7,1.9-1.1,0.6-2.3c0.4-0.2,0.9-0.3,1-0.7c-0.3,0-0.6-0.2-0.8-0.3c0.6-0.6,0.9-1.5,1.5-2.1
		c-0.1,0-0.2-0.2-0.4-0.3c0.2-0.7,0.5-1.3,0.5-2.1c0.6-0.2,1.2-0.6,1.7-0.9c-1.1-0.2,0.2-1.5-0.5-2.1c0.3-0.2,0.5-0.3,0.5-0.7
		c-0.3-0.1-0.4-0.3-0.6-0.5c1.1-0.6,0.4-2.3,1.9-2.7l0.2,0.4c0.2,0.6,0.8,0.9,0.9,1.6c-1.1,0.2,0.1,1.3,0.5,1.7
		c-1.5,0.2-0.3,1,0,1.6c0.2,0.3,0.2,0.9,0.4,1.2c0.3,0.6,0.4,0.8,1,1.3c-0.2,0.4-0.6,0.5-0.9,0.7c0.2,0.4,0.7,0.6,0.9,0.9
		c0.1,0.2-0.2,0.4-0.1,0.5c0.1,0.3,0.2,0.8,0.4,1.1c0.6,1,0.9,2,1.8,2.9c-0.3,0.4-0.1,0.8,0.1,1.2c-0.8,0.4,0.1,0.8,0.3,1.3
		c0.2,0.6-0.5,1-0.4,1.4c0.1,0.3,1,0.2,1.1,0.8c0.1,0.4-0.4,0.6-0.4,1c0,0.3,0.5,0.5,0.6,0.7s-0.1,0.4,0,0.6
		c0.1,0.4,0.2,0.7,0.4,1.1c0.2,0.5,0.1,1,0.3,1.5c0.1,0.3,0.5,0.3,0.6,0.6c0.1,0.2,0.1,0.5,0.1,0.7c-0.1,0-0.1,0-0.2,0
		c-0.1,0.4,0.3,1.2,0.5,1.5s0.8,0.8,0.5,1.2c0.3,0.6,0.7,1,1.1,1.6c-1.6,0,0.3,1.5-0.2,2.3"/>
	<path class="st2" d="M214.9,235.1c-0.1-0.2-0.2-0.3-0.2-0.6c1.2,0,1.1-0.5,0.9-1.3c-0.1-0.5-1.3-1.5-1.5-2c-0.2-0.4-0.5-0.8-0.9-1
		c0.3,0,0.6-0.2,0.9-0.3c-0.6-0.8-0.9-1.3-1.2-2c-0.1-0.3-0.1-0.8-0.2-1.2c-0.5-1-2.1-1.3-2.2-2.1c2.5-0.3-1.5-5.5,0.2-6.3
		c-0.1-1-0.3-2.1-0.6-2.7c-0.5-1-1.2,0.2-1.1-1.3c0-0.7,1-0.4,0.8-1.2c-0.2,0-0.5-0.1-0.8-0.1c0.8-1.6-0.4-2-1.5-2.7
		c2.1-0.4,0.1-2.6-0.5-3.4c0.2-1.2-1.3-2.3-1.8-3.5l-1.1,0.6c0,1.3-1.5,1.8-1.7,3c0.2,0,0.6,0.1,0.8,0c0.5,1.6-1.1,2.1-2.3,2.7
		c2.8,2-3.2,3.4,0.2,5.2c-0.6,0.4-0.9,0.9-1.1,1.4c-0.2,0.4-0.2,1.3-0.3,1.7c0,0.1-0.7,0.7-0.8,1c-0.1,0.1-0.1,1.2-0.2,1.5
		c-0.3,1.2-1.3,1.1-1.8,2.1c-0.4,0.9,0.1,2.7-0.1,3.9c-0.2,1.3,0.2,3.2-1.7,3.2c0.3,0.3,0.5,1,0.9,1.3c-0.7,0.3-3,0.2-3.3,0.8
		c-0.3,0.5,0.2,0.5,0.2,0.9c0,1.1,1.2,2.2,2,2.9c-0.1,0.1-0.1,0.2-0.2,0.4"/>
	<path class="st6" d="M196.9,248.5c-0.3-1.4,1-2.5,0-3.7c1.3-0.4,0.5-1.6,0.8-2.5c0.2-0.5,0.7-0.7,0.9-1.1c0.2-0.4-0.1-1.1,0.1-1.4
		c0.6-1,1.5-0.4,1.5-1.9c0-0.4,0-0.8-0.1-1.1s-0.9-0.5-0.8-1c0.1-0.6,1.1-0.4,1.3-0.8c0.2-0.3-0.1-0.8,0-1.1c0.3-1,1-1.8,1.3-2.7
		c0.3-0.7,0.3-1.9,0.6-2.6c0.4-0.8,1.4-1.3,1.8-2.2c0.1,0.8,0.8,1.2,1.1,1.9c0.2,0.4-0.2,0.6-0.1,1c0.1,0.4,0.4,0.4,0.5,1
		c0,0.5-0.4,1-0.3,1.5c0.1,0.3,0.4,0.5,0.5,0.8c0.1,0.5,0,0.9,0.1,1.4c0.1,0.7,0.3,1.8,0.7,2.4c0.6,1,1.3,1.5,1.7,2.6
		c0.2,0.6,0.2,1.4,0.3,2.1c0.3,1.5,0.1,3.4,1.1,4.9c-1,0.8-0.1,2.1,0.7,2.6"/>
	<path class="st6" d="M277.4,320.2c0.4-0.2,0.5-0.5,0.5-0.9c0.1,0,0.2-0.1,0.3-0.2c-0.2-0.1-0.1-0.2-0.4-0.1
		c0.2-0.5,0.4-0.8,0.9-0.8c0-0.5,0.2-1,0.1-1.5c-0.2-1-0.2-0.6,0.7-1.4c-0.2-0.1-0.2-0.4,0.1-0.5c-0.1-0.5,0.6-0.6,0.5-1.2
		c-0.2,0-0.3-0.2-0.4-0.2c0.5-0.5,0.1-0.6,0.1-1c0-0.5,0.5-0.7,0.9-0.9c-0.1,0-0.3-0.2-0.4-0.3c0.2-0.2,0.3-0.4,0.4-0.5
		s0.2-0.2,0.3-0.3c0-0.1,0-0.2,0-0.3c0.2-0.3,1-0.9,0.2-1c0.1-0.2,0.2-0.4,0.2-0.5c0.1-0.1,0.4-0.4,0.4-0.5c0.1-0.4-0.3-0.8-0.6-1
		c0.4-0.2,0.6-0.4,0.8-0.7c0.1-0.1,0.2-0.4,0.3-0.5c0.2-0.4,0.2-0.8,0.6-1.2l0.1,0.2c0,0.7,0.9,0.8,0.8,1.3c-0.1,0-0.3,0.1-0.4,0
		c0,0.2,0.4,0.9,0.5,1.1c0.2,0.3,0.7,0.5,0.6,0.9c0,0.2-0.4,0.3-0.4,0.5c0,0.1,0.2,0.3,0.3,0.5c0.2,0.3,0.3,0.7,0.3,1.1
		c0,0.3,0.1,0.5,0.2,0.7c0.1,0.3,0.3,0.5,0.4,0.7c0.2,0.4-0.1,0.5-0.1,0.9s0.5,0.3-0.1,0.8c0.3,0.4,1.5,1.4,0.9,1.9
		c0.2,0.1,0.4,0.2,0.5,0.4c-0.1,0-0.4,0.2-0.5,0.2c0.6,0.3,0.5,0.4,0.7,0.9c0.2,0.4,0.6,0.7,0.7,1.1c-0.1,0-0.3,0.1-0.4,0.1
		c0.2,0.3,0.2,0.7,0.7,0.8c0,0.3-0.2,0.4-0.3,0.7c0.3,0.2,0.3,0.5,0.2,0.8c-0.1,0-0.1,0-0.2,0"/>
	<path class="st6" d="M222.6,316.4c-0.3-1.1,0.7-1.9,0-2.8c1-0.3,0.4-1.2,0.6-1.9c0.1-0.4,0.5-0.5,0.7-0.8c0.1-0.3-0.1-0.8,0.1-1.1
		c0.4-0.8,1.1-0.3,1.1-1.5c0-0.3,0-0.6,0-0.8c-0.1-0.2-0.7-0.4-0.6-0.7c0.1-0.4,0.8-0.3,1-0.6c0.1-0.2-0.1-0.6,0-0.8
		c0.2-0.7,0.7-1.3,1-2.1c0.2-0.6,0.2-1.5,0.5-2c0.3-0.6,1-1,1.3-1.6c0,0.6,0.6,0.9,0.8,1.4c0.1,0.3-0.1,0.5-0.1,0.7
		c0.1,0.3,0.3,0.3,0.4,0.8c0,0.4-0.3,0.7-0.2,1.1c0,0.3,0.3,0.4,0.4,0.6c0.1,0.3,0,0.7,0.1,1c0.1,0.5,0.3,1.3,0.6,1.8
		c0.5,0.7,1,1.2,1.3,2c0.2,0.5,0.1,1.1,0.2,1.6c0.3,1.2,0.1,2.6,0.8,3.7c-0.8,0.6-0.1,1.6,0.5,2"/>
	<path class="st2" d="M235.5,317.8c-0.1-0.1-0.1-0.1-0.1-0.3c0.5,0,0.5-0.2,0.4-0.5c-0.1-0.2-0.5-0.6-0.7-0.8
		c-0.1-0.2-0.2-0.3-0.4-0.4c0.1,0,0.2-0.1,0.4-0.1c-0.3-0.4-0.4-0.5-0.5-0.8c-0.1-0.1,0-0.3-0.1-0.5c-0.2-0.4-0.9-0.5-0.9-0.9
		c1.1-0.1-0.6-2.3,0.1-2.7c0-0.4-0.1-0.9-0.3-1.2c-0.2-0.4-0.5,0.1-0.5-0.6c0-0.3,0.4-0.2,0.4-0.5c-0.1,0-0.2,0-0.3,0
		c0.3-0.7-0.2-0.8-0.6-1.1c0.9-0.2,0-1.1-0.2-1.4c0.1-0.5-0.6-1-0.8-1.5l-0.5,0.3c0,0.6-0.6,0.8-0.7,1.3c0.1,0,0.2,0,0.3,0
		c0.2,0.7-0.5,0.9-1,1.2c1.2,0.8-1.3,1.4,0.1,2.2c-0.3,0.2-0.4,0.4-0.5,0.6c-0.1,0.1-0.1,0.5-0.1,0.7c0,0.1-0.3,0.3-0.3,0.4
		s0,0.5-0.1,0.6c-0.1,0.5-0.5,0.5-0.7,0.9s0.1,1.2,0,1.7s0.1,1.3-0.7,1.4c0.1,0.1,0.2,0.4,0.4,0.5c-0.3,0.1-1.3,0.1-1.4,0.3
		c-0.1,0.2,0.1,0.2,0.1,0.4c0,0.5,0.5,0.9,0.8,1.2c0,0.1-0.1,0.1-0.1,0.2"/>
	<path class="st6" d="M202.3,307.8c-0.1-0.2-0.2-0.3-0.2-0.5c1,0,1-0.4,0.8-1.1c-0.1-0.4-1.1-1.2-1.3-1.7c-0.2-0.3-0.4-0.7-0.7-0.9
		c0.2,0,0.5-0.2,0.7-0.3c-0.6-0.7-0.8-1.1-1-1.7c-0.1-0.2-0.1-0.7-0.2-1c-0.4-0.8-1.8-1.1-1.9-1.8c2.1-0.3-1.3-4.7,0.1-5.3
		c-0.1-0.9-0.2-1.8-0.5-2.3c-0.5-0.8-1,0.1-0.9-1.1c0-0.6,0.8-0.3,0.7-1.1c-0.2,0-0.4,0-0.6-0.1c0.6-1.3-0.3-1.7-1.3-2.3
		c1.8-0.4,0.1-2.2-0.5-2.9c0.2-1-1.1-1.9-1.5-2.9l-0.9,0.5c0,1.1-1.3,1.5-1.4,2.5c0.2,0,0.5,0,0.7,0c0.4,1.4-1,1.8-1.9,2.3
		c2.4,1.7-2.7,2.9,0.2,4.4c-0.5,0.3-0.7,0.7-0.9,1.2c-0.1,0.3-0.2,1.1-0.3,1.4c0,0.1-0.6,0.6-0.7,0.8c0,0.1-0.1,1-0.1,1.3
		c-0.3,1-1.1,1-1.5,1.8s0.1,2.3,0,3.3c-0.2,1.1,0.1,2.7-1.4,2.7c0.2,0.2,0.5,0.8,0.8,1.1c-0.6,0.3-2.5,0.2-2.8,0.7
		c-0.3,0.4,0.1,0.4,0.1,0.8c0,0.9,1,1.9,1.7,2.4c0,0.1-0.1,0.2-0.2,0.3"/>
	<path class="st2" d="M287.8,232.9c-0.1-0.1-0.1-0.2-0.1-0.3c0.7,0,0.6-0.3,0.5-0.7c-0.1-0.3-0.7-0.8-0.9-1.1
		c-0.1-0.2-0.3-0.5-0.5-0.6c0.2,0,0.3-0.1,0.5-0.2c-0.4-0.5-0.5-0.7-0.7-1.1c-0.1-0.2,0-0.5-0.1-0.7c-0.3-0.5-1.2-0.7-1.3-1.2
		c1.4-0.2-0.8-3.1,0.1-3.6c0-0.6-0.2-1.2-0.4-1.6c-0.3-0.6-0.7,0.1-0.6-0.7c0-0.4,0.6-0.2,0.5-0.7c-0.1,0-0.3,0-0.4,0
		c0.4-0.9-0.2-1.1-0.9-1.5c1.2-0.3,0.1-1.5-0.3-1.9c0.1-0.7-0.8-1.3-1-2l-0.6,0.4c0,0.7-0.9,1-1,1.7c0.1,0,0.3,0,0.5,0
		c0.3,0.9-0.6,1.2-1.3,1.5c1.6,1.1-1.8,1.9,0.1,2.9c-0.3,0.2-0.5,0.5-0.6,0.8c-0.1,0.2-0.1,0.7-0.2,1c0,0.1-0.4,0.4-0.4,0.6
		c0,0.1,0,0.7-0.1,0.9c-0.2,0.7-0.7,0.6-1,1.2c-0.3,0.5,0.1,1.5,0,2.2s0.1,1.8-0.9,1.8c0.2,0.1,0.3,0.6,0.5,0.7
		c-0.4,0.2-1.7,0.1-1.9,0.4c-0.2,0.3,0.1,0.3,0.1,0.5c0,0.6,0.7,1.2,1.1,1.6c0,0.1-0.1,0.1-0.1,0.2"/>
	<path class="st2" d="M291.9,225.3c-0.1-0.2-0.2-0.3-0.2-0.5c1,0,0.9-0.4,0.7-1c-0.1-0.4-1-1.2-1.2-1.6c-0.2-0.3-0.4-0.7-0.7-0.8
		c0.2,0,0.5-0.2,0.7-0.2c-0.5-0.7-0.7-1-1-1.6c-0.1-0.2-0.1-0.6-0.2-0.9c-0.4-0.8-1.7-1-1.8-1.7c2-0.3-1.2-4.4,0.1-5.1
		c-0.1-0.8-0.2-1.7-0.5-2.2c-0.4-0.8-1,0.1-0.9-1.1c0-0.5,0.8-0.3,0.7-1c-0.2,0-0.4,0-0.6-0.1c0.6-1.3-0.3-1.6-1.2-2.2
		c1.7-0.4,0.1-2.1-0.4-2.8c0.2-1-1.1-1.8-1.4-2.8l-0.9,0.5c0,1-1.2,1.5-1.4,2.4c0.2,0,0.4,0,0.6,0c0.4,1.3-0.9,1.7-1.8,2.2
		c2.3,1.6-2.5,2.7,0.2,4.2c-0.5,0.3-0.7,0.7-0.9,1.1c-0.1,0.3-0.2,1-0.2,1.3c0,0.1-0.5,0.6-0.6,0.8c0,0.1-0.1,1-0.1,1.2
		c-0.3,0.9-1,0.9-1.4,1.7c-0.4,0.7,0.1,2.2,0,3.2c-0.2,1,0.1,2.6-1.3,2.6c0.2,0.2,0.4,0.8,0.7,1c-0.6,0.3-2.4,0.2-2.7,0.6
		c-0.3,0.4,0.1,0.4,0.1,0.7c0,0.9,1,1.8,1.6,2.3c0,0.1-0.1,0.2-0.2,0.3"/>
	<path class="st6" d="M295.6,219.7c0.1-0.6-0.3-2,0.3-2.3c-0.3-0.4-0.5-0.9-0.1-1.3c-0.2,0-1.1-1-1.1-1.3c0-0.2,0.6-0.4,0.7-0.6
		c0.2-0.3,0.2-0.7,0.4-1c-0.4-0.5-2.4-1.2-1.4-2.1c-0.9-0.2-0.4-1.5-0.6-2.1c-0.3-0.8-1.2-2-0.4-2.9c-0.4-0.3-0.9-0.7-1.3-0.9
		c-0.6-0.4-0.7,0.1-0.8-0.8c0-0.7,1.5-2.2,0.1-2.2c-0.1-0.4-0.1-0.9-0.1-1.2c0,0-0.3-0.5-0.3-0.6s0.3-0.2,0.2-0.4
		c-0.1-0.2-0.4-0.3-0.4-0.4c-0.4-0.9-1.8-1.7-1.6-2.9l-0.2,0.1c-0.3,0.3-0.8,0.7-0.9,1.2c-0.1,0.4,0.2,0.7,0,1.1
		c-0.1,0.4-0.6,0.4-0.7,0.8c0,0.2,0.1,0.4,0.1,0.5s0.3,0.2,0.3,0.5c-0.1,0.5-1.1,0.9-1.5,1.1c0.3,0.4,0.4,1.9,0.3,2.3
		c-0.2,0.6-0.9,0.8-1.1,1.3c0,0-0.1,1-0.1,1.1c-0.1,0.8-0.1,1.7-0.4,2.5c-0.2,0.5-0.8,0.9-0.5,1.4c-0.4,0.4-1.2,0.9-0.4,1.4
		c-0.5,0.3-1.1,1.1-0.5,1.6c-0.6,0.6-0.4,1.2-0.5,1.9c-0.1,0.8-0.5,1.5-1,2.1c0.1,0.1,0.2,0.2,0.3,0.2c-1,0.7-0.4,2.7-1.7,3"/>
	<path class="st2" d="M294.6,223c-0.1-0.1-0.1-0.1-0.1-0.3c0.5,0,0.5-0.2,0.4-0.5c-0.1-0.2-0.5-0.6-0.7-0.8
		c-0.1-0.2-0.2-0.3-0.4-0.4c0.1,0,0.2-0.1,0.4-0.1c-0.3-0.4-0.4-0.5-0.5-0.8c-0.1-0.1,0-0.3-0.1-0.5c-0.2-0.4-0.9-0.5-0.9-0.9
		c1.1-0.1-0.6-2.3,0.1-2.7c0-0.4-0.1-0.9-0.3-1.2c-0.2-0.4-0.5,0.1-0.5-0.6c0-0.3,0.4-0.2,0.4-0.5c-0.1,0-0.2,0-0.3,0
		c0.3-0.7-0.2-0.8-0.6-1.1c0.9-0.2,0-1.1-0.2-1.4c0.1-0.5-0.6-0.9-0.8-1.5L290,210c0,0.6-0.6,0.8-0.7,1.3c0.1,0,0.2,0,0.3,0
		c0.2,0.7-0.5,0.9-1,1.2c1.2,0.8-1.3,1.4,0.1,2.2c-0.3,0.2-0.4,0.4-0.5,0.6c-0.1,0.1-0.1,0.5-0.1,0.7c0,0.1-0.3,0.3-0.3,0.4
		c0,0.1,0,0.5-0.1,0.6c-0.1,0.5-0.5,0.5-0.7,0.9s0.1,1.2,0,1.7s0.1,1.3-0.7,1.4c0.1,0.1,0.2,0.4,0.4,0.5c-0.3,0.1-1.3,0.1-1.4,0.3
		s0.1,0.2,0.1,0.4c0,0.5,0.5,0.9,0.8,1.2c0,0.1-0.1,0.1-0.1,0.2"/>
	<path class="st2" d="M203.8,317.4c-0.1-0.2-0.2-0.3-0.2-0.5c1,0,1-0.4,0.8-1.1c-0.1-0.4-1.1-1.2-1.3-1.7c-0.2-0.3-0.4-0.7-0.7-0.9
		c0.2,0,0.5-0.2,0.7-0.3c-0.6-0.7-0.8-1.1-1-1.7c-0.1-0.2-0.1-0.7-0.2-1c-0.4-0.8-1.8-1.1-1.9-1.8c2.1-0.3-1.3-4.7,0.1-5.3
		c-0.1-0.9-0.2-1.8-0.5-2.3c-0.5-0.8-1,0.1-0.9-1.1c0-0.6,0.8-0.3,0.7-1.1c-0.2,0-0.4,0-0.6-0.1c0.6-1.3-0.3-1.7-1.3-2.3
		c1.8-0.4,0.1-2.2-0.5-2.9c0.2-1-1.1-1.9-1.5-2.9l-0.9,0.5c0,1.1-1.3,1.5-1.4,2.5c0.2,0,0.5,0,0.7,0c0.4,1.4-1,1.8-1.9,2.3
		c2.4,1.7-2.7,2.9,0.2,4.4c-0.5,0.3-0.7,0.7-0.9,1.2c-0.1,0.3-0.2,1.1-0.3,1.4c0,0.1-0.6,0.6-0.7,0.8c0,0.1-0.1,1-0.1,1.3
		c-0.3,1-1.1,1-1.5,1.8s0.1,2.3,0,3.3c-0.2,1.1,0.1,2.7-1.4,2.7c0.2,0.2,0.5,0.8,0.8,1.1c-0.6,0.3-2.5,0.2-2.8,0.7
		c-0.3,0.4,0.1,0.4,0.1,0.8c0,0.9,1,1.9,1.7,2.4c0,0.1-0.1,0.2-0.2,0.3"/>
	<path class="st2" d="M206.1,308.2c-0.1-0.1-0.1-0.1-0.1-0.3c0.5,0,0.5-0.2,0.4-0.6c-0.1-0.2-0.6-0.6-0.7-0.9
		c-0.1-0.2-0.2-0.4-0.4-0.4c0.1,0,0.3-0.1,0.4-0.1c-0.3-0.4-0.4-0.6-0.5-0.9c-0.1-0.1,0-0.4-0.1-0.5c-0.2-0.4-0.9-0.6-1-0.9
		c1.1-0.1-0.6-2.4,0.1-2.8c0-0.5-0.1-0.9-0.3-1.2c-0.2-0.4-0.5,0.1-0.5-0.6c0-0.3,0.4-0.2,0.4-0.5c-0.1,0-0.2,0-0.3,0
		c0.3-0.7-0.2-0.9-0.7-1.2c0.9-0.2,0-1.2-0.2-1.5c0.1-0.5-0.6-1-0.8-1.5l-0.5,0.3c0,0.6-0.7,0.8-0.7,1.3c0.1,0,0.2,0,0.3,0
		c0.2,0.7-0.5,0.9-1,1.2c1.2,0.9-1.4,1.5,0.1,2.3c-0.3,0.2-0.4,0.4-0.5,0.6s-0.1,0.6-0.1,0.7s-0.3,0.3-0.3,0.4s0,0.5-0.1,0.7
		c-0.1,0.5-0.6,0.5-0.8,0.9s0.1,1.2,0,1.7c-0.1,0.6,0.1,1.4-0.7,1.4c0.1,0.1,0.2,0.4,0.4,0.6c-0.3,0.1-1.3,0.1-1.5,0.3
		c-0.1,0.2,0.1,0.2,0.1,0.4c0,0.5,0.5,1,0.9,1.3c0,0.1-0.1,0.1-0.1,0.2"/>
	<path class="st6" d="M222.7,241.8c-0.6-0.2-0.8-0.7-0.7-1.4c-0.2,0-0.4-0.2-0.5-0.3c0.3-0.1,0.2-0.3,0.6-0.2
		c-0.3-0.8-0.6-1.3-1.4-1.4c0-0.8-0.3-1.6-0.1-2.4c0.3-1.6,0.3-1-1.2-2.3c0.3-0.2,0.3-0.6-0.1-0.8c0.1-0.8-0.9-1-0.7-1.9
		c0.2,0,0.5-0.3,0.7-0.3c-0.9-0.8-0.1-1-0.1-1.6c0-0.8-0.8-1.1-1.4-1.4c0.2-0.1,0.5-0.4,0.7-0.4c-0.3-0.3-0.5-0.6-0.7-0.9
		c-0.1-0.2-0.3-0.3-0.4-0.5c-0.1-0.1,0.1-0.4,0-0.5c-0.3-0.5-1.6-1.4-0.3-1.6c-0.2-0.3-0.2-0.6-0.4-0.8c-0.1-0.2-0.6-0.6-0.7-0.8
		c-0.2-0.7,0.5-1.3,1-1.5c-0.6-0.4-1-0.6-1.3-1.1c-0.2-0.2-0.4-0.6-0.4-0.8c-0.3-0.6-0.3-1.3-0.9-2l-0.1,0.2c0,1.1-1.5,1.2-1.3,2.2
		c0.2,0,0.5,0.1,0.7,0c0,0.4-0.6,1.4-0.8,1.8c-0.3,0.4-1.1,0.9-1,1.4c0,0.4,0.6,0.5,0.6,0.9c0,0.2-0.4,0.5-0.5,0.7
		c-0.3,0.5-0.5,1.2-0.5,1.8c-0.1,0.5-0.1,0.8-0.3,1.2c-0.2,0.5-0.6,0.8-0.7,1.1c-0.2,0.7,0.1,0.8,0.2,1.5c0,0.7-0.8,0.4,0.1,1.3
		c-0.5,0.6-2.5,2.2-1.5,3.1c-0.2,0.2-0.6,0.3-0.9,0.6c0.2,0,0.6,0.3,0.8,0.4c-0.9,0.5-0.7,0.7-1.1,1.5c-0.2,0.6-1,1.2-1.1,1.8
		c0.2,0,0.5,0.2,0.7,0.2c-0.3,0.4-0.4,1.2-1.1,1.2c0,0.4,0.3,0.7,0.5,1.1c-0.5,0.3-0.4,0.8-0.4,1.3c0.1,0,0.2,0,0.3,0"/>
	<path class="st2" d="M221,243.8c-0.1-0.1-0.1-0.1-0.1-0.3c0.5,0,0.5-0.2,0.4-0.5c-0.1-0.2-0.5-0.6-0.7-0.8
		c-0.1-0.2-0.2-0.3-0.4-0.4c0.1,0,0.2-0.1,0.4-0.1c-0.3-0.4-0.4-0.5-0.5-0.8c-0.1-0.1,0-0.3-0.1-0.5c-0.2-0.4-0.9-0.5-0.9-0.9
		c1.1-0.1-0.6-2.3,0.1-2.7c0-0.4-0.1-0.9-0.3-1.2c-0.2-0.4-0.5,0.1-0.5-0.6c0-0.3,0.4-0.2,0.4-0.5c-0.1,0-0.2,0-0.3,0
		c0.3-0.7-0.2-0.8-0.6-1.1c0.9-0.2,0-1.1-0.2-1.4c0.1-0.5-0.6-0.9-0.8-1.5l-0.5,0.3c0,0.6-0.6,0.8-0.7,1.3c0.1,0,0.2,0,0.3,0
		c0.2,0.7-0.5,0.9-1,1.2c1.2,0.8-1.3,1.4,0.1,2.2c-0.3,0.2-0.4,0.4-0.5,0.6c-0.1,0.1-0.1,0.5-0.1,0.7c0,0.1-0.3,0.3-0.3,0.4
		c0,0.1,0,0.5-0.1,0.6c-0.1,0.5-0.5,0.5-0.7,0.9s0.1,1.2,0,1.7s0.1,1.3-0.7,1.4c0.1,0.1,0.2,0.4,0.4,0.5c-0.3,0.1-1.3,0.1-1.4,0.3
		c-0.1,0.2,0.1,0.2,0.1,0.4c0,0.5,0.5,0.9,0.8,1.2c0,0.1-0.1,0.1-0.1,0.2"/>
	<path class="st6" d="M275.3,248.5c-0.4-1.6,1.1-2.8,0-4c1.4-0.4,0.5-1.8,0.9-2.7c0.2-0.5,0.8-0.7,1-1.2c0.2-0.4-0.1-1.2,0.1-1.6
		c0.6-1.1,1.7-0.4,1.6-2.1c0-0.4,0-0.8-0.1-1.2c-0.1-0.3-1-0.6-0.9-1.1c0.2-0.6,1.2-0.4,1.5-0.9c0.2-0.3-0.1-0.9,0-1.2
		c0.3-1.1,1.1-2,1.4-3c0.3-0.8,0.3-2.1,0.7-2.9c0.5-0.8,1.5-1.4,2-2.4c0.1,0.9,0.9,1.3,1.2,2.1c0.2,0.4-0.2,0.7-0.1,1.1
		c0.1,0.4,0.5,0.4,0.5,1.1c0,0.6-0.4,1-0.3,1.6c0.1,0.4,0.5,0.5,0.6,0.9c0.1,0.5,0,1,0.1,1.5c0.1,0.8,0.4,2,0.8,2.7
		c0.7,1.1,1.4,1.7,1.9,2.9c0.3,0.7,0.2,1.6,0.3,2.3c0.4,1.7,0.1,3.8,1.2,5.5c-1.1,0.9-0.1,2.3,0.7,2.9"/>
	<path class="st6" d="M283.8,233.6c-0.1-0.1-0.3-0.2-0.4-0.3c0.1-0.2,0.1-0.4,0.2-0.6c0.3,0,0.6-0.1,0.9-0.1
		c-0.4-0.3-1.1-0.3-0.9-0.9c0.1-0.4,0.6-0.2,0.6-0.7c-0.2-0.2-0.2-0.4-0.1-0.6c-0.1,0-0.1,0-0.2,0c-0.1-0.2-0.2-0.3-0.1-0.5
		c0.1-0.3,0.6-0.3,0.7-0.6c0.2-0.4-0.2-0.2-0.2-0.5c-0.2-0.6,0.4-0.6,0.6-0.9c0.2-0.3,0-0.8,0.1-1.2c0.1-0.5,0.2-0.9,0.8-1
		c-0.5-0.6-0.5-0.6-0.1-1.3c0-0.1,0-0.2,0.1-0.3c0.1-0.2,0.3-0.2,0.3-0.4c-0.1,0-0.1,0-0.2-0.1c0.1-0.1,0.3-0.2,0.4-0.4
		c-0.1,0-0.1,0-0.2,0c0.3-0.1,0.3-0.5,0.2-0.9c-0.1-0.6-0.1-0.5,0.6-0.9c-0.4-0.4,0.5-1.4-0.2-1.5c0.4-0.1,0.9-0.5,1-0.9l0.4-0.1
		c0.1,0.4,0.4,0.5,0.6,0.8c-0.6,0-0.2,0.4,0.1,0.7c-0.4,0.3,0,0.5,0.1,0.8c0,0.1,0,0.3,0,0.3c0.1,0.2,0.3,0.2,0.4,0.4
		c0.1,0.1,0,0.2,0.1,0.3s0.3,0.1,0.4,0.3c0,0.1-0.2,0.1-0.2,0.2c0.1,0.2,0.3,0.3,0.4,0.5c-0.1,0-0.1,0.1-0.1,0.1
		c0.1,0.3,0.3,0.5,0.3,0.8c0,0.1-0.1,0.3-0.1,0.5c0.2,0.3,0.4,0.6,0.4,0.9c0.1,0.2,0,0.5,0.2,0.7c-0.5,0.3,0.4,0.5,0.1,0.9
		c0.4,0.5,0.3,1.2,0.9,1.6c-0.1,0.2,0,0.4-0.1,0.5c0.2,0.2,0.3,0.2,0.4,0.4c0.1,0.1-0.2,0.2-0.1,0.2c0,0.2,0.3,0.3,0.3,0.5
		c0,0.1-0.1,0.3-0.1,0.3c0.1,0.3,0.6,0.9,0.4,1.3c0.5,0.5,0.2,1,0.7,1.6"/>
	<g>
		<g>
			<path class="st7" d="M236.3,246.5c-0.4,1.7-0.6,2.9-0.6,3.9c0.2,0.2,0.4,0.5,0.4,0.8c0,0.2-0.1,0.4-0.3,0.4
				c-0.3,0-0.5-0.2-0.8-0.7c-0.2-0.4-0.3-0.8-0.3-1.4c0-0.5,0.2-1.9,0.7-4.3c0-0.2-0.1-0.4-0.1-0.4c0-0.2,0.1-0.3,0.3-0.4
				c0.7,0,1,0.4,1,0.9C236.6,245.7,236.5,246.1,236.3,246.5z M237,239.8c-0.7-0.1-1-0.5-1-1.1c0-0.1,0-0.2,0-0.3
				c0-0.4,0.3-0.7,0.8-0.8c0.6,0.1,0.9,0.5,0.9,1.2C237.6,239.4,237.4,239.7,237,239.8z"/>
			<path class="st7" d="M244.5,248.9c-0.1,0.6-0.1,1.4-0.3,2.4c0,0.2-0.1,0.3-0.3,0.3s-0.4-0.1-0.5-0.2c-0.1-0.2-0.2-0.4-0.2-0.5
				c0-0.2,0.1-0.6,0.1-1.1l0.3-3c-1.7,1.2-2.9,2.4-3.5,3.7c-0.1,0.2-0.2,0.5-0.3,0.7s-0.2,0.4-0.3,0.4c-0.4,0-0.6-0.2-0.7-0.6
				c-0.2-0.6-0.3-1.4-0.3-2.5s0.2-2.5,0.6-4.3c0-0.2,0.1-0.3,0.3-0.3s0.4,0.1,0.6,0.3c0.1,0.2,0.2,0.4,0.2,0.6
				c0,0.2-0.1,0.4-0.1,0.6c-0.3,1.2-0.4,2.5-0.4,4c1.4-1.8,2.9-3.1,4.3-4c0.2,0,0.4,0.1,0.6,0.2c0.2,0.2,0.3,0.4,0.3,0.5
				C244.7,246.7,244.6,247.7,244.5,248.9z"/>
			<path class="st7" d="M256.5,245.6h-0.3c-0.2,0-0.3-0.1-0.4-0.2c-0.2,0-0.5,0-1.1,0s-1,0-1.1,0c-0.4,1.8-0.6,2.7-0.6,2.8
				c-0.2,1.1-0.3,2-0.3,2.9c0.2,0.1,0.3,0.3,0.3,0.5c0,0.1-0.1,0.3-0.2,0.4c-0.1,0.1-0.3,0.2-0.4,0.2c-0.5,0-0.7-0.4-0.7-1.3
				c0-0.5,0.1-1.4,0.3-2.6l0.6-2.9c-0.6,0-0.9-0.2-0.9-0.6c0-0.4,0.4-0.6,1.1-0.6c0.2-1,0.6-2.6,1.2-4.6c0.1-0.3,0.3-0.5,0.5-0.5
				c0.4,0,0.6,0.2,0.6,0.6c0,0.1,0,0.2-0.1,0.4s-0.2,0.7-0.4,1.3c-0.3,1.1-0.5,2-0.7,2.8c0.1,0,0.3,0,0.7,0s0.7,0,0.8,0
				c0.9,0,1.3,0.3,1.3,0.8C256.8,245.1,256.7,245.4,256.5,245.6z"/>
			<path class="st7" d="M263.1,251.8c-0.6,0-0.9-0.6-1-1.9l-0.1-3.1c-1.7,1.1-2.8,2.2-3.4,3.3c-0.1,0.3-0.3,0.5-0.4,0.8
				c-0.2,0.4-0.3,0.7-0.4,0.7c-0.2,0-0.4-0.1-0.6-0.3s-0.2-0.4-0.2-0.5c0,0,0-0.1,0-0.3s0-0.3,0-0.3s0-0.2,0-0.4s0-0.4,0-0.4
				c0-1.2,0.1-2.6,0.4-4.3c0-0.1,0.2-1.4,0.7-4l0.3-2c0.1-0.4,0.1-0.6,0.2-0.7c0.1-0.1,0.1-0.2,0.3-0.2c0.2,0,0.4,0.1,0.5,0.3
				s0.2,0.4,0.2,0.6c0,0.1-0.1,0.5-0.3,1.4c-0.7,3.5-1.2,6.3-1.4,8.4c0.6-0.7,1.3-1.4,2.3-2.2c1.1-0.8,1.8-1.3,2.1-1.3
				c0.2,0,0.4,0.1,0.6,0.3c0.1,0.2,0.2,0.4,0.2,0.7c0,0.1,0,0.4-0.1,0.7c0,0.4,0,0.7,0,0.9c0,0.5,0,1.4,0.1,2.4
				c0,0.3,0.1,0.7,0.1,1.1C263.3,251.7,263.2,251.8,263.1,251.8z"/>
			<path class="st7" d="M269.5,251.7c-1.4,0-2.4-0.7-3-2c-0.1,0-0.3,0.1-0.5,0.1c-0.6,0-1.1-0.1-1.5-0.3s-0.7-0.5-0.7-0.8
				c0-0.4,0.2-0.6,0.5-0.6c0.1,0,0.2,0.1,0.5,0.3s0.6,0.3,0.9,0.3c0.1,0,0.2,0,0.3,0c-0.1-0.3-0.1-0.5-0.1-0.8
				c0-0.8,0.2-1.7,0.6-2.5c0.5-0.9,1.1-1.4,1.8-1.4c0.4,0,0.9,0.2,1.4,0.7c0.3,0.4,0.5,0.8,0.5,1.2c0,0.7-0.3,1.4-0.9,2
				c-0.5,0.6-1.2,1.1-2,1.4c0.4,0.7,0.9,1.1,1.7,1.1c0.2,0,0.4,0,0.8-0.1c0.3,0,0.5-0.1,0.6-0.1s0.3,0.1,0.4,0.2
				c0.1,0.1,0.2,0.3,0.2,0.4C271.2,251.4,270.6,251.7,269.5,251.7z M269.1,245.4c-0.2-0.2-0.4-0.2-0.6-0.2c-0.4,0-0.7,0.3-0.9,0.8
				c-0.3,0.5-0.4,1.1-0.4,1.7c0,0.2,0,0.5,0.1,0.7c0.6-0.2,1.1-0.6,1.5-1s0.6-0.8,0.6-1.3C269.4,245.8,269.3,245.6,269.1,245.4z"/>
		</g>
	</g>
	<g>
		<g>
			<path class="st7" d="M209.8,147.4c-0.3,1-0.8,2.3-1.4,4c-0.5,1.1-0.9,2.2-1.4,3.3c-0.2,0.4-0.3,0.7-0.3,0.8
				c-0.2,0.3-0.3,0.4-0.6,0.4s-0.6-0.3-0.8-0.8c-0.8-1.3-1.6-2.7-2.4-4.1c-0.5,0.9-1.3,2.1-2.2,3.8c-0.4,0.8-0.8,1.1-1.1,1.1
				s-0.6-0.3-0.9-1c-0.9-1.9-1.4-4.2-1.4-6.8c0-0.6,0-1.8,0.1-3.4c-0.4-0.1-0.5-0.3-0.5-0.6c0-0.5,0.2-1.4,0.5-2.4
				c0.1-0.2,0.2-0.4,0.4-0.4c0.3,0,0.5,0.2,0.5,0.6c0.1,0.6,0.2,1.2,0.2,1.7s0,1.3-0.1,2.4c0,1.1-0.1,1.9-0.1,2.4
				c0,2.7,0.5,4.7,1.4,5.8c0.1-0.2,0.5-0.8,1.3-2.1c0.3-0.5,0.8-1.3,1.5-2.4c0.1-0.2,0.3-0.3,0.5-0.3s0.3,0.1,0.4,0.4
				c0.8,1.6,1.7,3.2,2.6,4.7c0.6-1.5,1.2-3,1.8-4.5c0.7-1.8,1.1-3.3,1.4-4.6c0.1-0.4,0.3-0.6,0.6-0.6s0.4,0.2,0.4,0.5
				C210.2,145.7,210.1,146.4,209.8,147.4z"/>
			<path class="st7" d="M216,156.6c-1.4,0-2.4-0.7-3-2c-0.1,0-0.3,0.1-0.5,0.1c-0.6,0-1.1-0.1-1.5-0.3s-0.7-0.5-0.7-0.8
				c0-0.4,0.2-0.6,0.5-0.6c0.1,0,0.2,0.1,0.5,0.3s0.6,0.3,0.9,0.3c0.1,0,0.2,0,0.3,0c-0.1-0.3-0.1-0.5-0.1-0.8
				c0-0.8,0.2-1.7,0.6-2.5c0.5-0.9,1.1-1.4,1.8-1.4c0.4,0,0.9,0.2,1.4,0.7c0.3,0.4,0.5,0.8,0.5,1.2c0,0.7-0.3,1.4-0.9,2
				c-0.5,0.6-1.2,1.1-2,1.4c0.4,0.7,0.9,1.1,1.7,1.1c0.2,0,0.4,0,0.8-0.1c0.3,0,0.5-0.1,0.6-0.1s0.3,0.1,0.4,0.2
				c0.1,0.1,0.2,0.3,0.2,0.4C217.7,156.3,217.1,156.6,216,156.6z M215.6,150.4c-0.2-0.2-0.4-0.2-0.6-0.2c-0.4,0-0.7,0.3-0.9,0.8
				c-0.3,0.5-0.4,1.1-0.4,1.7c0,0.2,0,0.5,0.1,0.7c0.6-0.2,1.1-0.6,1.5-1s0.6-0.8,0.6-1.3C215.9,150.7,215.8,150.5,215.6,150.4z"/>
			<path class="st7" d="M220.4,143.1c-0.7,1.2-1.2,1.9-1.5,1.9c-0.4,0-0.5-0.2-0.5-0.5c0-0.2,0.1-0.3,0.2-0.5
				c0.3-0.4,0.4-0.7,0.6-0.9c0.1-0.2,0.2-0.6,0.4-1.2c0.2-0.6,0.3-1,0.4-1.2c0.2-0.4,0.4-0.6,0.8-0.6c0.4,0,0.6,0.2,0.6,0.7
				C221.4,141.2,221.1,141.9,220.4,143.1z"/>
			<path class="st7" d="M228.4,150.4c-0.3,0.1-0.6,0.2-0.7,0.2c0,0-0.1,0-0.4-0.1c-1.5,0.7-2.5,2.2-2.8,4.4
				c-0.2,1.2-0.4,1.8-0.6,1.8c-0.2,0-0.4-0.1-0.5-0.3s-0.2-0.4-0.2-0.7c0-0.2,0.1-0.5,0.2-0.9c0.1-0.5,0.1-1,0.1-1.5s-0.1-1-0.2-1.5
				c-0.2-0.2-0.3-0.5-0.4-0.7c-0.1-0.5-0.1-0.9-0.1-1.1c0-0.1,0-0.2,0.1-0.4c0.1-0.1,0.1-0.2,0.2-0.2c0.4,0,0.7,0.3,0.8,1
				s0.3,1.2,0.3,1.5c0.4-0.8,1-1.5,1.7-2s1.4-0.8,2.1-0.8c0.2,0,0.4,0.1,0.5,0.3s0.2,0.4,0.2,0.6C228.9,150,228.7,150.2,228.4,150.4
				z"/>
			<path class="st7" d="M234,156.6c-1.4,0-2.4-0.7-3-2c-0.1,0-0.3,0.1-0.5,0.1c-0.6,0-1.1-0.1-1.5-0.3s-0.7-0.5-0.7-0.8
				c0-0.4,0.2-0.6,0.5-0.6c0.1,0,0.2,0.1,0.5,0.3s0.6,0.3,0.9,0.3c0.1,0,0.2,0,0.3,0c-0.1-0.3-0.1-0.5-0.1-0.8
				c0-0.8,0.2-1.7,0.6-2.5c0.5-0.9,1.1-1.4,1.8-1.4c0.4,0,0.9,0.2,1.4,0.7c0.3,0.4,0.5,0.8,0.5,1.2c0,0.7-0.3,1.4-0.9,2
				c-0.5,0.6-1.2,1.1-2,1.4c0.4,0.7,0.9,1.1,1.7,1.1c0.2,0,0.4,0,0.8-0.1c0.3,0,0.5-0.1,0.6-0.1s0.3,0.1,0.4,0.2
				c0.1,0.1,0.2,0.3,0.2,0.4C235.6,156.3,235.1,156.6,234,156.6z M233.6,150.4c-0.2-0.2-0.4-0.2-0.6-0.2c-0.4,0-0.7,0.3-0.9,0.8
				c-0.3,0.5-0.4,1.1-0.4,1.7c0,0.2,0,0.5,0.1,0.7c0.6-0.2,1.1-0.6,1.5-1s0.6-0.8,0.6-1.3C233.9,150.7,233.8,150.5,233.6,150.4z"/>
			<path class="st7" d="M252.7,156.1c-0.6,0-1.1-1.4-1.4-4.1c-0.9,0.9-1.8,2-2.5,3.2c-0.3,0.5-0.6,0.8-0.9,0.8
				c-0.3,0-0.5-0.3-0.8-0.8c-0.4-0.9-0.6-2.1-0.6-3.6c-0.7,0.5-1.4,1.1-2,1.8c-0.8,0.9-1.3,1.7-1.5,2.5c-0.1,0.6-0.4,0.9-0.6,0.9
				c-0.5,0-0.7-0.4-0.7-1.2c0-0.6,0.1-1.4,0.4-2.6c0.3-1.4,0.4-2.4,0.4-2.8c0-0.3-0.1-0.7-0.3-1.1c0-0.2,0.2-0.4,0.4-0.5
				s0.3-0.2,0.5-0.2c0.4,0,0.6,0.5,0.6,1.5c0,0.5-0.1,1.1-0.3,1.8c-0.1,0.6-0.3,1.2-0.4,1.8c2.3-2.3,3.6-3.5,4.2-3.5
				c0.3,0,0.4,0.4,0.4,1.2c0,1.5,0.1,2.7,0.4,3.4c1.8-2.5,3.2-3.8,3.9-3.8c0.3,0,0.5,0.4,0.5,1.2c0,0.5,0.1,1.1,0.2,1.7
				c0.1,0.8,0.3,1.3,0.6,1.6c0.1,0.2,0.2,0.3,0.2,0.4C253.5,155.9,253.2,156.1,252.7,156.1z"/>
			<path class="st7" d="M259.4,153.8c-0.1,0.1-0.1,0.4-0.2,0.6c-0.2,0.5-0.5,0.9-1,1.3c-0.5,0.4-1,0.6-1.4,0.6c-0.8,0-1.4-0.3-1.8-1
				c-0.4-0.6-0.7-1.3-0.7-2.1c0-0.7,0.2-1.4,0.5-2.1c0.4-0.8,0.9-1.3,1.5-1.6c0.3-0.2,0.6-0.3,0.7-0.5c0.1,0,0.2,0,0.3,0
				c0,0,0.2,0,0.4,0.1c0.6,0.2,1.1,0.6,1.5,1.2c0.4,0.6,0.6,1.2,0.6,1.8C259.6,152.8,259.5,153.4,259.4,153.8z M257.9,150.7
				c-0.3,0-0.5-0.1-0.7-0.2c-0.6,0-1.1,0.4-1.5,1c-0.3,0.5-0.4,1.1-0.4,1.8c0,0.5,0.1,1,0.4,1.3c0.3,0.4,0.6,0.6,1,0.6
				c0.5,0,0.9-0.3,1.3-1c0.4-0.6,0.6-1.2,0.6-1.8C258.6,151.6,258.3,151,257.9,150.7z"/>
			<path class="st7" d="M266.4,150.4c-0.3,0.1-0.6,0.2-0.7,0.2c0,0-0.1,0-0.4-0.1c-1.5,0.7-2.5,2.2-2.8,4.4
				c-0.2,1.2-0.4,1.8-0.6,1.8s-0.4-0.1-0.5-0.3s-0.2-0.4-0.2-0.7c0-0.2,0.1-0.5,0.2-0.9c0.1-0.5,0.1-1,0.1-1.5s-0.1-1-0.2-1.5
				c-0.2-0.2-0.3-0.5-0.4-0.7c-0.1-0.5-0.1-0.9-0.1-1.1c0-0.1,0-0.2,0.1-0.4c0.1-0.1,0.1-0.2,0.2-0.2c0.4,0,0.7,0.3,0.8,1
				c0.1,0.7,0.3,1.2,0.3,1.5c0.4-0.8,1-1.5,1.7-2s1.4-0.8,2.1-0.8c0.2,0,0.4,0.1,0.5,0.3s0.2,0.4,0.2,0.6
				C267,150,266.8,150.2,266.4,150.4z"/>
			<path class="st7" d="M272.1,156.6c-1.4,0-2.4-0.7-3-2c-0.1,0-0.3,0.1-0.5,0.1c-0.6,0-1.1-0.1-1.5-0.3s-0.7-0.5-0.7-0.8
				c0-0.4,0.2-0.6,0.5-0.6c0.1,0,0.2,0.1,0.5,0.3s0.6,0.3,0.9,0.3c0.1,0,0.2,0,0.3,0c-0.1-0.3-0.1-0.5-0.1-0.8
				c0-0.8,0.2-1.7,0.6-2.5c0.5-0.9,1.1-1.4,1.8-1.4c0.4,0,0.9,0.2,1.4,0.7c0.3,0.4,0.5,0.8,0.5,1.2c0,0.7-0.3,1.4-0.9,2
				c-0.5,0.6-1.2,1.1-2,1.4c0.4,0.7,0.9,1.1,1.7,1.1c0.2,0,0.4,0,0.8-0.1c0.3,0,0.5-0.1,0.6-0.1s0.3,0.1,0.4,0.2
				c0.1,0.1,0.2,0.3,0.2,0.4C273.7,156.3,273.1,156.6,272.1,156.6z M271.6,150.4c-0.2-0.2-0.4-0.2-0.6-0.2c-0.4,0-0.7,0.3-0.9,0.8
				c-0.3,0.5-0.4,1.1-0.4,1.7c0,0.2,0,0.5,0.1,0.7c0.6-0.2,1.1-0.6,1.5-1s0.6-0.8,0.6-1.3C271.9,150.7,271.8,150.5,271.6,150.4z"/>
			<path class="st7" d="M285,150.5h-0.3c-0.2,0-0.3-0.1-0.4-0.2c-0.2,0-0.5,0-1.1,0s-1,0-1.1,0c-0.4,1.8-0.6,2.7-0.6,2.8
				c-0.2,1.1-0.3,2-0.3,2.9c0.2,0.1,0.3,0.3,0.3,0.5c0,0.1-0.1,0.3-0.2,0.4c-0.1,0.1-0.3,0.2-0.4,0.2c-0.5,0-0.7-0.4-0.7-1.3
				c0-0.5,0.1-1.4,0.3-2.6l0.6-2.9c-0.6,0-0.9-0.2-0.9-0.6c0-0.4,0.4-0.6,1.1-0.6c0.2-1,0.6-2.6,1.2-4.6c0.1-0.3,0.3-0.5,0.5-0.5
				c0.4,0,0.6,0.2,0.6,0.6c0,0.1,0,0.2-0.1,0.4s-0.2,0.7-0.4,1.3c-0.3,1.1-0.5,2-0.7,2.8c0.1,0,0.3,0,0.7,0c0.4,0,0.7,0,0.8,0
				c0.9,0,1.3,0.3,1.3,0.8C285.4,150.1,285.2,150.3,285,150.5z"/>
			<path class="st7" d="M291.6,156.7c-0.6,0-0.9-0.6-1-1.9l-0.1-3.1c-1.7,1.1-2.8,2.2-3.4,3.3c-0.1,0.3-0.3,0.5-0.4,0.8
				c-0.2,0.4-0.3,0.7-0.4,0.7c-0.2,0-0.4-0.1-0.6-0.3s-0.2-0.4-0.2-0.5c0,0,0-0.1,0-0.3s0-0.3,0-0.3s0-0.2,0-0.4s0-0.4,0-0.4
				c0-1.2,0.1-2.6,0.4-4.3c0-0.1,0.2-1.4,0.7-4l0.3-2c0.1-0.4,0.1-0.6,0.2-0.7c0.1-0.1,0.1-0.2,0.3-0.2c0.2,0,0.4,0.1,0.5,0.3
				s0.2,0.4,0.2,0.6c0,0.1-0.1,0.5-0.3,1.4c-0.7,3.5-1.2,6.3-1.4,8.4c0.6-0.7,1.3-1.4,2.3-2.2c1.1-0.8,1.8-1.3,2.1-1.3
				c0.2,0,0.4,0.1,0.6,0.3c0.1,0.2,0.2,0.4,0.2,0.7c0,0.1,0,0.4-0.1,0.7c0,0.4,0,0.7,0,0.9c0,0.5,0,1.4,0.1,2.4
				c0,0.3,0.1,0.7,0.1,1.1C291.8,156.6,291.8,156.7,291.6,156.7z"/>
			<path class="st7" d="M299,152.2c-0.3,0.7-0.4,1.5-0.4,2.3c0,0.3,0,0.6,0.1,0.9c0.1,0.5,0.2,0.8,0.2,0.8c0,0.3-0.2,0.5-0.6,0.5
				s-0.6-0.3-0.6-0.9c0-0.3-0.1-0.8-0.2-1.4c-1,1.2-1.9,1.7-2.9,1.7c-0.5,0-0.9-0.2-1.2-0.7c-0.3-0.4-0.5-0.8-0.5-1.4
				c0-0.8,0.4-1.7,1.1-2.6c0.1-0.2,0.4-0.5,0.8-0.8c1.2-1.1,2.2-1.6,3-1.6c0.2,0,0.4,0.1,0.6,0.2c0.2,0.2,0.3,0.3,0.3,0.5
				c0,0,0,0.1-0.1,0.2c0.1,0.4,0.2,0.8,0.2,1.2c0.1,0.2,0.2,0.3,0.2,0.5C299,152,299,152.1,299,152.2z M297.3,150.5
				c-0.2,0-0.6,0.2-1.1,0.6c-0.5,0.3-0.8,0.7-1.1,1c-0.8,0.8-1.1,1.5-1.1,2.1s0.2,0.9,0.7,0.9c0.7,0,1.3-0.4,2-1.2s1-1.6,1-2.4
				C297.8,150.8,297.6,150.5,297.3,150.5z"/>
			<path class="st7" d="M306.3,153.8c-0.1,0.6-0.1,1.4-0.3,2.4c0,0.2-0.1,0.3-0.3,0.3c-0.2,0-0.4-0.1-0.5-0.2
				c-0.1-0.2-0.2-0.4-0.2-0.5c0-0.2,0.1-0.6,0.1-1.1l0.3-3c-1.7,1.2-2.9,2.4-3.5,3.7c-0.1,0.2-0.2,0.5-0.3,0.7
				c-0.1,0.2-0.2,0.4-0.3,0.4c-0.4,0-0.6-0.2-0.7-0.6c-0.2-0.6-0.3-1.4-0.3-2.5s0.2-2.5,0.6-4.3c0-0.2,0.1-0.3,0.3-0.3
				c0.2,0,0.4,0.1,0.6,0.3c0.1,0.2,0.2,0.4,0.2,0.6c0,0.2-0.1,0.4-0.1,0.6c-0.3,1.2-0.4,2.5-0.4,4c1.4-1.8,2.9-3.1,4.3-4
				c0.2,0,0.4,0.1,0.6,0.2c0.2,0.2,0.3,0.4,0.3,0.5C306.4,151.6,306.4,152.6,306.3,153.8z"/>
			<path class="st7" d="M318.9,152.2c-0.3,0.7-0.4,1.5-0.4,2.3c0,0.3,0,0.6,0.1,0.9c0.1,0.5,0.2,0.8,0.2,0.8c0,0.3-0.2,0.5-0.6,0.5
				s-0.6-0.3-0.6-0.9c0-0.3-0.1-0.8-0.2-1.4c-1,1.2-1.9,1.7-2.9,1.7c-0.5,0-0.9-0.2-1.2-0.7c-0.3-0.4-0.5-0.8-0.5-1.4
				c0-0.8,0.4-1.7,1.1-2.6c0.1-0.2,0.4-0.5,0.8-0.8c1.2-1.1,2.2-1.6,3-1.6c0.2,0,0.4,0.1,0.6,0.2c0.2,0.2,0.3,0.3,0.3,0.5
				c0,0,0,0.1-0.1,0.2c0.1,0.4,0.2,0.8,0.2,1.2c0.1,0.2,0.2,0.3,0.2,0.5C319,152,318.9,152.1,318.9,152.2z M317.3,150.5
				c-0.2,0-0.6,0.2-1.1,0.6c-0.5,0.3-0.8,0.7-1.1,1c-0.8,0.8-1.1,1.5-1.1,2.1s0.2,0.9,0.7,0.9c0.7,0,1.3-0.4,2-1.2s1-1.6,1-2.4
				C317.7,150.8,317.6,150.5,317.3,150.5z"/>
		</g>
	</g>
</g>
</svg>
