<?xml version="1.0" encoding="utf-8"?>
<!-- Generator: Adobe Illustrator 21.0.0, SVG Export Plug-In . SVG Version: 6.00 Build 0)  -->
<svg version="1.1" id="Layer_1" xmlns="http://www.w3.org/2000/svg" xmlns:xlink="http://www.w3.org/1999/xlink" x="0px" y="0px"
	 viewBox="0 0 500 500" style="enable-background:new 0 0 500 500;" xml:space="preserve">
<style type="text/css">
	.st0{fill:#231F20;}
	.st1{fill:#006838;stroke:#006838;stroke-width:3.4359;stroke-linecap:round;stroke-linejoin:round;stroke-miterlimit:10;}
	.st2{fill:#1A2F24;}
	.st3{fill:#FFFFFF;stroke:#FFFFFF;stroke-width:1.7179;stroke-miterlimit:10;}
	.st4{fill:#006838;}
</style>
<rect class="st0" width="500" height="500"/>
<path class="st1" d="M196.4,132.6c-2-1.1-1.9-2.4-1.9-4.3c2.2-0.2,1.7-2.4,1.5-3.8c0-0.2-0.6-0.6-0.6-0.9c0-0.2,0.7-0.6,0.7-0.7
	c0-0.4-0.6-1.1-0.4-1.5c0.4-1.1,1.7-2,2-3.3c0.4-1.7,0.4-2.6-0.9-4c0.7-0.7,1.5-0.9,2-1.7c0.2-0.4,0.7-1.7,0.9-2
	c0.6-1.3,0-2,0.2-3.1s0.9-1.1,1.3-2c0.2-0.6-0.7-1.7-0.6-2.4c0.2-0.9,1.5-1.1,1.7-1.9c0.2-1.1-0.9-0.6-1.1-1.5
	c-0.2-1.3,1.1-2,1.1-3.1l0.4,0.4c2.2,1.3,2.2,3.1,1.7,5.1c0.7,0.4,1.3,0.4,1.7,1.1c0.4,0.6-0.4,1.7-0.2,2.2c0.2,1.9,1.7,1.5,2.4,3
	c0.6,1.3-0.4,0.9-0.7,2.2c-0.6,1.5,0.6,3.3,1.3,4.7c0.4,0.6,0.7,1.1,0.9,1.9c0.2,0.6-0.2,1.3,0,1.7c0.2,0.6,0.6,0.7,0.7,1.5
	c0,0.4-0.4,1.1-0.2,1.5c0.2,0.9,0.6,1.1,0.7,1.9c0.2,0.7,0,1.3,0.2,2c0.2,0.6,0.9,0.9,1.1,1.5c0,0.2,0,0.7,0,0.7
	c0.2,0.4,0.2,0.9,0.4,1.1c0.4,0.9,2.2,2,0.6,3"/>
<path class="st1" d="M201.5,132c-0.2-0.2-0.2-0.4-0.2-0.7c1.3,0,1.3-0.6,0.9-1.5c-0.2-0.6-1.5-1.7-1.7-2.2c-0.2-0.4-0.6-0.9-0.9-1.1
	c0.4,0,0.6-0.4,0.9-0.4c-0.7-0.9-0.9-1.5-1.3-2.2c-0.2-0.4,0-0.9-0.2-1.3c-0.6-1.1-2.4-1.5-2.4-2.4c2.8-0.4-1.7-6.2,0.2-7.1
	c0-1.1-0.4-2.4-0.7-3c-0.6-1.1-1.3,0.2-1.3-1.5c0-0.7,1.1-0.4,0.9-1.3c-0.2,0-0.6,0-0.9,0c0.9-1.7-0.4-2.2-1.7-3
	c2.4-0.6,0.2-3-0.6-4c0.2-1.3-1.5-2.6-2-4l-1.1,0.7c0,1.5-1.7,2-1.9,3.3c0.2,0,0.6,0,0.9,0c0.6,1.9-1.3,2.4-2.6,3
	c3.1,2.2-3.5,3.8,0.2,5.8c-0.7,0.4-0.9,0.9-1.3,1.5c-0.2,0.4-0.2,1.5-0.4,1.9c0,0.2-0.7,0.7-0.9,1.1c0,0.2,0,1.3-0.2,1.7
	c-0.4,1.3-1.5,1.3-2,2.4c-0.6,1.1,0.2,3,0,4.5c-0.2,1.5,0.2,3.5-1.9,3.5c0.4,0.4,0.6,1.1,1.1,1.5c-0.7,0.4-3.3,0.4-3.8,0.9
	c-0.4,0.6,0.2,0.6,0.2,0.9c0,1.3,1.3,2.4,2.2,3.1c0,0.2-0.2,0.2-0.2,0.4"/>
<path class="st2" d="M203,138c-0.2-0.2-0.2-0.4-0.2-0.6c1.3,0,1.1-0.6,0.9-1.3c-0.2-0.6-1.3-1.5-1.7-2c-0.2-0.4-0.6-0.9-0.9-1.1
	c0.4,0,0.6-0.2,0.9-0.4c-0.7-0.9-0.9-1.3-1.3-2c-0.2-0.4,0-0.9-0.2-1.3c-0.6-1.1-2.2-1.3-2.4-2.2c2.6-0.4-1.5-6,0.2-6.7
	c0-1.1-0.4-2.2-0.7-3c-0.6-1.1-1.3,0.2-1.1-1.3c0-0.7,1.1-0.4,0.9-1.3c-0.2,0-0.6,0-0.7,0c0.7-1.7-0.4-2-1.7-2.8
	c2.2-0.6,0.2-2.8-0.6-3.8c0.2-1.3-1.5-2.4-1.9-3.8l-1.1,0.7c0,1.3-1.7,1.9-1.9,3.1c0.2,0,0.6,0,0.9,0c0.6,1.7-1.1,2.2-2.4,3
	c3,2-3.3,3.5,0.2,5.4c-0.6,0.4-0.9,0.9-1.1,1.5c-0.2,0.4-0.2,1.3-0.4,1.9c0,0.2-0.7,0.7-0.7,1.1c0,0.2,0,1.3-0.2,1.7
	c-0.4,1.3-1.3,1.1-1.9,2.2c-0.6,0.9,0.2,3,0,4.1c-0.2,1.3,0.2,3.3-1.7,3.3c0.4,0.2,0.6,1.1,0.9,1.3c-0.7,0.4-3.1,0.2-3.5,0.7
	c-0.4,0.6,0.2,0.6,0.2,0.9c0,1.1,1.3,2.2,2,3c0,0.2-0.2,0.2-0.2,0.4"/>
<path class="st1" d="M251.2,359.5c0.2-1.1-0.6-3.8,0.6-4.3c-0.6-0.7-0.9-1.7-0.2-2.4c-0.4,0-2-1.9-2-2.4c0-0.4,1.1-0.7,1.3-1.1
	c0.4-0.6,0.4-1.3,0.7-1.9c-0.7-0.9-4.5-2.2-2.6-4c-1.7-0.4-0.7-2.8-1.1-4c-0.6-1.5-2.2-3.8-0.7-5.4c-0.7-0.6-1.7-1.3-2.4-1.7
	c-1.1-0.7-1.3,0.2-1.5-1.5c0-1.3,2.8-4.1,0.2-4.1c-0.2-0.7-0.2-1.7-0.2-2.2c0,0-0.6-0.9-0.6-1.1c0-0.2,0.6-0.4,0.4-0.7
	c-0.2-0.4-0.7-0.6-0.7-0.7c-0.7-1.7-3.3-3.1-3-5.4l-0.4,0.2c-0.6,0.6-1.5,1.3-1.7,2.2c-0.2,0.7,0.4,1.3,0,2
	c-0.2,0.7-1.1,0.7-1.3,1.5c0,0.4,0.2,0.7,0.2,0.9c0,0.2,0.6,0.4,0.6,0.9c-0.2,0.9-2,1.7-2.8,2c0.6,0.7,0.7,3.5,0.6,4.3
	c-0.4,1.1-1.7,1.5-2,2.4c0,0-0.2,1.9-0.2,2c-0.2,1.5-0.2,3.1-0.7,4.7c-0.4,0.9-1.5,1.7-0.9,2.6c-0.7,0.7-2.2,1.7-0.7,2.6
	c-0.9,0.6-2,2-0.9,3c-1.1,1.1-0.7,2.2-0.9,3.5c-0.2,1.5-0.9,2.8-1.9,4c0.2,0.2,0.4,0.4,0.6,0.4c-1.9,1.3-0.7,5.1-3.1,5.6"/>
<path class="st2" d="M251.9,365.6c-0.2-0.2-0.2-0.2-0.2-0.6c0.9,0,0.9-0.4,0.7-0.9c-0.2-0.4-0.9-1.1-1.3-1.5
	c-0.2-0.4-0.4-0.6-0.7-0.7c0.2,0,0.4-0.2,0.7-0.2c-0.6-0.7-0.7-0.9-0.9-1.5c-0.2-0.2,0-0.6-0.2-0.9c-0.4-0.7-1.7-0.9-1.7-1.7
	c2-0.2-1.1-4.3,0.2-5.1c0-0.7-0.2-1.7-0.6-2.2c-0.4-0.7-0.9,0.2-0.9-1.1c0-0.6,0.7-0.4,0.7-0.9c-0.2,0-0.4,0-0.6,0
	c0.6-1.3-0.4-1.5-1.1-2c1.7-0.4,0-2-0.4-2.6c0.2-0.9-1.1-1.9-1.5-2.8l-0.9,0.6c0,1.1-1.1,1.5-1.3,2.4c0.2,0,0.4,0,0.6,0
	c0.4,1.3-0.9,1.7-1.9,2.2c2.2,1.5-2.4,2.6,0.2,4.1c-0.6,0.4-0.7,0.7-0.9,1.1c-0.2,0.2-0.2,0.9-0.2,1.3c0,0.2-0.6,0.6-0.6,0.7
	s0,0.9-0.2,1.1c-0.2,0.9-0.9,0.9-1.3,1.7s0.2,2.2,0,3.1c-0.2,0.9,0.2,2.4-1.3,2.6c0.2,0.2,0.4,0.7,0.7,0.9c-0.6,0.2-2.4,0.2-2.6,0.6
	c-0.2,0.4,0.2,0.4,0.2,0.7c0,0.9,0.9,1.7,1.5,2.2c0,0.2-0.2,0.2-0.2,0.4"/>
<path class="st1" d="M115.5,290.8c-0.7-3,2-5.2,0-7.5c2.6-0.7,0.9-3.3,1.7-5.1c0.4-0.9,1.5-1.3,1.9-2.2c0.4-0.7-0.2-2.2,0.2-3
	c1.1-2,3.1-0.7,3-4c0-0.7,0-1.5-0.2-2.2c-0.2-0.6-1.9-1.1-1.7-2c0.4-1.1,2.2-0.7,2.8-1.7c0.4-0.6-0.2-1.7,0-2.2c0.6-2,2-3.8,2.6-5.6
	c0.6-1.5,0.6-4,1.3-5.4c0.9-1.5,2.8-2.6,3.8-4.5c0.2,1.7,1.7,2.4,2.2,4c0.4,0.7-0.4,1.3-0.2,2c0.2,0.7,0.9,0.7,0.9,2
	c0,1.1-0.7,1.9-0.6,3c0.2,0.7,0.9,0.9,1.1,1.7c0.2,0.9,0,1.9,0.2,2.8c0.2,1.5,0.7,3.8,1.5,5.1c1.3,2,2.6,3.1,3.5,5.4
	c0.6,1.3,0.4,3,0.6,4.3c0.7,3.1,0.2,7.1,2.2,10.2c-2,1.7-0.2,4.3,1.3,5.4"/>
<path class="st2" d="M186.9,264.6c-0.2-0.4-0.4-0.6-0.4-1.1c2.2,0,2-0.9,1.7-2.4c-0.2-0.9-2.4-2.8-2.8-3.8c-0.4-0.7-0.9-1.5-1.7-1.9
	c0.6,0,1.1-0.4,1.7-0.6c-1.1-1.5-1.7-2.4-2.2-3.8c-0.2-0.6-0.2-1.5-0.4-2.2c-0.9-1.9-4-2.4-4.1-4c4.7-0.6-2.8-10.2,0.4-11.8
	c-0.2-1.9-0.6-4-1.1-5.1c-0.9-1.9-2.2,0.4-2-2.4c0-1.3,1.9-0.7,1.5-2.2c-0.4,0-0.9-0.2-1.5-0.2c1.5-3-0.7-3.8-2.8-5.1
	c4-0.7,0.2-4.9-0.9-6.4c0.4-2.2-2.4-4.3-3.3-6.5l-2,1.1c0,2.4-2.8,3.3-3.1,5.6c0.4,0,1.1,0.2,1.5,0c0.9,3-2,4-4.3,5.1
	c5.2,3.8-6,6.4,0.4,9.7c-1.1,0.7-1.7,1.7-2,2.6c-0.4,0.7-0.4,2.4-0.6,3.1c0,0.2-1.3,1.3-1.5,1.9c-0.2,0.2-0.2,2.2-0.4,2.8
	c-0.6,2.2-2.4,2-3.3,4c-0.7,1.7,0.2,5.1-0.2,7.3c-0.4,2.4,0.4,6-3.1,6c0.6,0.6,0.9,1.9,1.7,2.4c-1.3,0.6-5.6,0.4-6.2,1.5
	c-0.6,0.9,0.4,0.9,0.4,1.7c0,2,2.2,4.1,3.8,5.4c-0.2,0.2-0.2,0.4-0.4,0.7"/>
<path class="st1" d="M330.7,280.5c-0.4-0.2-0.6-0.4-0.9-0.6c0.2-0.4,0.4-0.9,0.4-1.3c0.7,0,1.3-0.2,1.9-0.2c-0.7-0.6-2.4-0.6-2-2
	c0.4-0.7,1.3-0.6,1.3-1.5c-0.6-0.4-0.4-0.9-0.2-1.3c-0.2,0-0.2,0-0.4,0c-0.2-0.4-0.6-0.7-0.4-1.1c0.2-0.7,1.5-0.6,1.7-1.3
	c0.4-0.7-0.4-0.4-0.6-1.1c-0.4-1.3,0.9-1.5,1.3-2c0.6-0.7,0-1.7,0.2-2.6c0.2-1.1,0.6-2,1.9-2.4c-1.3-1.5-1.1-1.3-0.2-3
	c0.2-0.2,0-0.6,0.2-0.7c0.2-0.4,0.6-0.6,0.7-0.9c-0.2,0-0.4-0.2-0.6-0.2c0.2-0.4,0.6-0.6,0.9-0.9c-0.2,0-0.2,0-0.4,0.2
	c0.7-0.4,0.6-1.3,0.6-1.9c-0.2-1.5-0.2-1.1,1.3-2c-0.9-0.9,1.1-3.1-0.6-3.5c0.9-0.4,2-1.3,2.2-2l0.9-0.4c0.2,0.7,0.9,1.1,1.3,1.9
	c-1.3,0-0.4,0.9,0.2,1.5c-0.9,0.6,0,1.1,0.2,1.9c0,0.2,0,0.7,0,0.7c0.2,0.4,0.6,0.6,0.9,0.9c0.2,0.2,0,0.6,0.2,0.7
	c0.2,0.4,0.7,0.2,0.7,0.6c0,0.2-0.6,0.4-0.4,0.6c0.2,0.4,0.7,0.6,0.9,1.1c-0.2,0-0.2,0.2-0.4,0.2c0.4,0.7,0.7,1.1,0.7,1.9
	c0,0.2-0.4,0.7-0.4,1.1c0.6,0.6,0.9,1.3,0.9,1.9c0.2,0.6,0,1.1,0.6,1.7c-1.1,0.7,0.9,1.1,0.2,2c0.9,1.1,0.7,2.6,1.9,3.5
	c-0.2,0.6,0,0.7-0.2,1.1c0.4,0.4,0.7,0.6,0.9,0.9c0.2,0.4-0.4,0.4-0.4,0.6c0,0.4,0.7,0.7,0.7,1.1c0,0.2-0.2,0.7-0.2,0.7
	c0.2,0.7,1.3,2,0.9,3c1.1,1.1,0.6,2.2,1.5,3.5"/>
<path class="st1" d="M230.8,136.1c-0.2-0.2-0.2-0.4-0.2-0.6c1.3,0,1.1-0.6,0.9-1.3c-0.2-0.6-1.3-1.5-1.7-2c-0.2-0.4-0.6-0.9-0.9-1.1
	c0.4,0,0.6-0.2,0.9-0.4c-0.7-0.9-0.9-1.3-1.3-2c-0.2-0.4,0-0.9-0.2-1.3c-0.6-0.9-2.2-1.3-2.4-2.2c2.6-0.4-1.5-5.8,0.2-6.7
	c0-1.1-0.4-2.2-0.7-3c-0.6-1.1-1.3,0.2-1.1-1.3c0-0.7,1.1-0.4,0.9-1.3c-0.2,0-0.6,0-0.7,0c0.7-1.7-0.4-2-1.7-2.8
	c2.2-0.6,0.2-2.8-0.6-3.5c0.2-1.3-1.5-2.4-1.9-3.8l-1.1,0.7c0,1.3-1.7,1.9-1.9,3.1c0.2,0,0.6,0,0.9,0c0.6,1.7-1.1,2.2-2.4,2.8
	c3,2-3.3,3.5,0.2,5.4c-0.6,0.4-0.9,0.9-1.1,1.5c-0.2,0.4-0.2,1.3-0.4,1.9c0,0.2-0.7,0.7-0.7,1.1c0,0.2,0,1.3-0.2,1.7
	c-0.4,1.3-1.3,1.1-1.9,2.2c-0.6,0.9,0.2,2.8,0,4.1c-0.2,1.3,0.2,3.3-1.7,3.3c0.4,0.2,0.6,1.1,0.9,1.3c-0.7,0.4-3.1,0.2-3.5,0.7
	c-0.4,0.6,0.2,0.6,0.2,0.9c0,1.1,1.3,2.2,2,3c0,0.2-0.2,0.2-0.2,0.4"/>
<path class="st1" d="M197,220.4c-0.6-0.4-0.9-0.6-1.5-1.1c0.4-0.6,0.4-1.3,0.6-2c1.1,0.2,2-0.4,3.1-0.4c-1.3-0.9-4-1.1-3.1-3.3
	c0.6-1.3,2.2-0.9,2.2-2.4c-0.9-0.7-0.6-1.5-0.2-2.2c-0.2,0-0.4,0-0.6,0c-0.4-0.7-0.7-1.1-0.6-1.9c0.4-1.1,2.2-1.1,2.8-2
	c0.6-1.3-0.6-0.7-0.9-1.7c-0.6-2.2,1.5-2.2,2.2-3.3c0.7-1.1,0-2.8,0.2-4.3c0.4-1.9,0.9-3.3,3-3.8c-2-2.2-1.9-2-0.2-4.9
	c0.2-0.2,0-0.7,0.2-1.1c0.4-0.6,0.9-0.7,1.1-1.5c-0.4,0-0.6-0.2-0.7-0.2c0.4-0.6,1.1-0.9,1.5-1.3c-0.2,0-0.4,0.2-0.6,0.2
	c1.1-0.6,0.9-2,0.9-3.1c-0.2-2.2-0.4-1.9,2-3.1c-1.5-1.3,1.7-5.1-0.9-5.6c1.5-0.6,3.1-2,3.5-3.3l1.3-0.4c0.2,1.3,1.7,1.7,2,3
	c-2,0.2-0.7,1.7,0.2,2.4c-1.5,0.9,0,1.7,0.4,3c0,0.2,0,1.1,0,1.1c0.4,0.6,0.9,0.7,1.3,1.3c0.4,0.4,0,0.7,0.2,1.1
	c0.4,0.6,1.1,0.4,1.3,0.9c0.2,0.4-0.9,0.6-0.7,0.9c0.2,0.7,1.1,1.1,1.3,1.7c-0.2,0.2-0.4,0.2-0.6,0.4c0.6,1.3,1.1,1.9,1.1,2.8
	c0,0.4-0.6,1.1-0.6,1.7c0.7,0.9,1.3,2.2,1.7,3.1c0.2,0.9,0,1.7,0.7,2.6c-1.9,1.3,1.5,1.9,0.2,3.1c1.5,1.7,1.1,4.3,3.1,5.8
	c-0.2,0.7,0,1.3-0.4,1.9c0.6,0.6,1.1,0.9,1.5,1.7c0.2,0.6-0.6,0.6-0.6,0.9c0.2,0.7,1.1,1.1,1.3,1.9c0.2,0.4-0.4,1.1-0.4,1.1
	c0.4,1.1,2,3.3,1.5,4.9c1.9,1.7,0.7,3.8,2.4,5.8"/>
<path class="st1" d="M255.8,181.3c-0.4-2,1.3-3.5,0-5.2c1.9-0.6,0.7-2.2,1.1-3.5c0.2-0.7,0.9-0.9,1.3-1.5c0.2-0.6-0.2-1.5,0.2-2
	c0.7-1.5,2-0.6,2-2.8c0-0.6,0-1.1,0-1.5c-0.2-0.4-1.3-0.7-1.1-1.3c0.2-0.7,1.5-0.6,1.9-1.1c0.2-0.4-0.2-1.1,0-1.5
	c0.4-1.3,1.3-2.4,1.9-4c0.4-1.1,0.4-2.8,0.9-3.8c0.6-1.1,1.9-1.9,2.4-3c0,1.1,1.1,1.7,1.5,2.6c0.2,0.6-0.2,0.9-0.2,1.3
	c0.2,0.6,0.6,0.6,0.7,1.5c0,0.7-0.6,1.3-0.4,2c0,0.6,0.6,0.7,0.7,1.1c0.2,0.6,0,1.3,0.2,1.9c0.2,0.9,0.6,2.6,1.1,3.3
	c0.9,1.3,1.9,2.2,2.4,3.8c0.4,0.9,0.2,2,0.4,3c0.6,2.2,0.2,4.9,1.5,6.9c-1.5,1.1-0.2,3,0.9,3.8"/>
<path class="st1" d="M269.5,136.3c-0.6-2.2,1.5-4,0-5.6c1.9-0.6,0.7-2.4,1.1-3.8c0.2-0.7,1.1-0.9,1.3-1.7c0.2-0.6-0.2-1.7,0.2-2.2
	c0.9-1.5,2.2-0.6,2.2-3c0-0.6,0-1.1-0.2-1.7c-0.2-0.4-1.3-0.7-1.1-1.5c0.2-0.9,1.7-0.6,2-1.3c0.2-0.4-0.2-1.3,0-1.7
	c0.4-1.5,1.5-2.8,2-4.1c0.4-1.1,0.4-3,0.9-4c0.7-1.1,2-1.9,2.8-3.3c0,1.1,1.3,1.9,1.7,2.8c0.2,0.6-0.2,0.9-0.2,1.5
	c0.2,0.6,0.7,0.6,0.7,1.5c0,0.7-0.6,1.5-0.4,2.2c0,0.6,0.7,0.7,0.7,1.1c0.2,0.7,0,1.3,0.2,2c0.2,1.1,0.6,2.8,1.1,3.8
	c0.9,1.5,1.9,2.4,2.6,4c0.4,0.9,0.2,2.2,0.6,3.1c0.6,2.4,0.2,5.2,1.7,7.7c-1.7,1.1-0.2,3.1,0.9,4.1"/>
<path class="st3" d="M219.4,231.4c0,1.8-0.4,3.1-1.3,4.5c-0.9,1.1-2.2,2-3.8,2.2c-4,0.7-9.4-20.5-15.8-63.4c-0.9-6.3-1.3-9.9-1.6-11
	c-2,15.5-3.8,28.8-5,40s-1.6,22.2-1.6,33.1c0,1.1-0.4,2.5-1.6,3.6s-2.2,1.8-3.3,2c-4.2,0.7-6.3-3.3-6.3-12.1
	c0-5.4-2.5-24.5-7.2-57.3c-4.8-32.9-7.7-50.9-9-54c1.3-2.9,3.6-4.5,6.1-5c2.7-0.4,5,5.2,7.2,16.7s4,25.7,5.7,42.3
	c1.6,16.7,2.2,25,2.5,25.2c0.2-1.6,0.7-6.5,1.8-14.7c0.9-8.1,1.8-14.7,2.2-19.8c1.6-15.1,2.5-25.7,2.5-32v-3.1
	c0-1.1,0.4-2.5,1.3-3.8c0.9-1.3,2-2,3.1-2.2c4-0.7,6.1,0.9,6.1,4v2.5c0,11,2.5,26.5,7.7,46.6c2.2,8.8,3.8,16,4.8,21.1
	c0.7-6.3,1.8-15.5,3.3-27.7c3.6-26.3,5.4-46.6,5.4-60.5c0-2.5,0.4-4.2,1.3-5.7c0.9-1.3,2.2-2,4-2.2c1.8-0.2,3.3,0,4.5,0.7
	c1.1,0.7,1.6,1.8,1.6,3.1s-0.7,2.7-1.8,4c0,16.7-2.2,36.9-6.5,61.2C221.4,194.2,219.4,214.7,219.4,231.4z"/>
<path class="st3" d="M252.6,218.5c-2.2,0.4-3.3-0.4-3.3-2.2v-14c-1.1-0.6-2.8-0.9-5.6-0.9c-2.6-0.2-5.1-0.2-7.1,0
	c-0.7,1.3-1.3,3.3-1.9,5.8c-0.6,2.4-0.9,4.9-1.5,7.5c-0.6,2.4-1.1,4.5-2,6c-2.8,0.4-4.5-0.2-4.9-1.5c0.9-1.5,2.6-9,4.9-22.2
	c2.2-13.3,4.1-23.7,5.4-31.2c1.5-7.5,3-13.8,4.7-19.1c1.7-5.2,3.1-7.8,4.9-8.2c1.5-0.2,2.6,0,3.5,0.4c0,2.6,0.7,9.3,2,20.6
	c1.5,11,2,18.3,2,21.7c0,3.3,0.4,8.8,1.1,16.4c0.7,7.7,1.1,13.3,1.1,17.2C256.1,216.7,255,218.1,252.6,218.5z M248.1,184
	c-0.6-6.4-1.1-12.3-1.7-17.9c-0.6-5.6-0.7-9.1-0.7-10.2s0-1.9,0-2c-1.1,1.3-2.8,8-4.9,20c-2,12-3.3,19.6-3.3,22.8
	c3,0.4,5.6,0.4,7.7,0.2c2-0.4,3.5-0.6,4.3-0.9C249,194.1,248.6,190.2,248.1,184z"/>
<path class="st3" d="M272.8,191.3l0.2,4v0.6c0.4,7.3,0.6,18.3,0.6,33v3.1l9.7-1.3c1.9,0.9,2.8,2,2.8,3.1c0,1.1-0.4,2-0.9,2.8
	c-0.6,0.7-1.3,1.3-1.9,1.3c-0.7,0.2-1.5,0-2.2-0.2c-0.7,0.2-1.5,0.4-2.4,0.6l-4.1,0.4c-0.9,1.1-2,1.9-3.3,2s-2.4,0-3.3-0.7
	c-0.9-0.7-1.3-1.5-1.3-2.6l0.7-5.6c0-9.5-0.4-23.9-1.3-43.2c-0.9-19.3-1.3-33.4-1.3-43.2c0-0.7,0.4-1.5,0.9-2
	c0.6-0.6,1.5-0.9,2.4-1.1c0.9-0.2,1.9,0.2,2.6,0.7c0.7,0.6,1.1,1.5,1.1,2.4L272.8,191.3z"/>
<path class="st3" d="M283.7,165.7l0.2-26.2c0-4.6-0.4-9.9-1-15.8s-1-9.9-1-11.7c0-1.9,0.4-3.3,1-4.2c0.8-1,1.7-1.5,2.7-1.7
	c3.3-0.4,5.3,2.9,5.3,10.5c0,0-0.2,9.4-0.6,28.3c0.4-0.8,1.2-3.1,2.7-7.1c1.5-4,2.9-8,4.4-11.7c1.7-4,3.3-8,5.1-12.4
	c4-9.6,6.9-14.5,8.6-14.9c1-0.2,1.9,0,2.7,0.6c0.8,0.6,1.2,1.2,1.2,2.3s-2.5,7.1-7.6,18.3s-8,18.3-8.6,21.2v2.5
	c1.2,3.1,5.1,13.9,11.1,31.9c6.1,18,9,27.7,9,28.7c0,1-0.4,2.1-1.2,3.1c-0.8,0.8-1.9,1.5-3.1,1.5h-3.3c-2.3-12.8-4.6-23.7-7.1-33.2
	c-2.5-9.4-5.7-18-9.9-26.4c-2.7,5.3-4.2,8.4-4.4,9.4c-0.2,2.7-0.4,5.1-0.4,6.7l1.2,25.4v11.3c0,4.9-1.7,7.6-4.9,8
	c-2.7,0.4-4-1.7-4-6.3c0-4.6,0.2-11.1,0.8-19.5C283.5,176,283.7,169.7,283.7,165.7z"/>
<path class="st1" d="M112.2,124.7c-0.6-2,1.3-3.5,0-5.2c1.9-0.6,0.7-2.2,1.1-3.5c0.2-0.7,0.9-0.9,1.3-1.5c0.2-0.6-0.2-1.5,0.2-2
	c0.7-1.5,2-0.6,2-2.8c0-0.6,0-1.1,0-1.5c-0.2-0.4-1.3-0.7-1.1-1.3c0.2-0.7,1.5-0.6,1.9-1.1c0.2-0.4-0.2-1.1,0-1.5
	c0.4-1.3,1.3-2.4,1.9-4c0.4-1.1,0.4-2.8,0.9-3.8c0.6-1.1,1.9-1.9,2.4-3c0,1.1,1.1,1.7,1.5,2.6c0.2,0.6-0.2,0.9-0.2,1.3
	c0.2,0.6,0.6,0.6,0.7,1.5c0,0.7-0.6,1.3-0.4,2c0,0.6,0.6,0.7,0.7,1.1c0.2,0.6,0,1.3,0.2,1.9c0.2,0.9,0.6,2.4,1.1,3.3
	c0.9,1.3,1.9,2.2,2.4,3.8c0.4,0.9,0.2,2,0.4,3c0.6,2.2,0.2,4.9,1.5,6.9c-1.5,1.1-0.2,3,0.9,3.8"/>
<path class="st1" d="M122.5,156.6c-1.1-0.9-0.2-2,0.4-3.1c0.9-1.9,0.9-1.1,2.8-1.9c-0.6-0.6-1.3-0.7-2-1.1c0.6-0.6,0.7-2,1.1-3
	c0.6-1.5,0.9-1.9,2.4-2.4c-3.1-1.1-2.4-2.6-1.1-4.7c0.6-0.7,0.4-1.9,0.9-2.8c0.9-1.7,1.7-1.3,1.5-3.5c0-0.9-0.6-0.7-0.2-1.9
	c0.4-0.7,1.5-1.1,2-1.7c0.6-0.7,0.7-2.4,1.3-3.3c0.4-0.9,0.9-0.9,1.1-2c0-0.6-0.4-1.3-0.2-2c0.2-0.9,1.1-1.3,1.5-2.2
	c0.2-0.7-0.6-1.7,0-2.6c0.4-0.7,0.9-1.3,1.1-1.9c0.4-0.7-0.4-1.1,0.7-1.7c-1.1-1.7-0.4-3.5,0.6-5.1c0.4-0.9,1.5-1.7,1.3-2.8
	c0-0.9-0.9-1.3-0.9-2.2c2.8-0.6,1.7-0.7,1.9-2.6c0-0.9,0.6-1.1,0.6-2.2c0-1.1-1.1-1.7-1.1-2.4c0-1.3,2.6-1.9,3.5-2.6v-0.6
	c0.9,1.3,1.9,2.4,2,4.1c0,0.6-0.4,1.1-0.2,1.9c0.2,0.9,1.9,2,1.9,2.8c0,0.9-1.1,0.6-1.1,1.3c0,0.9,1.7,1.7,2,2.4
	c0.2,0.7-0.4,1.1,0,2.2c0.4,1.1,1.3,1.3,0.6,2.4c0.7,0.7,1.5,1.5,2.4,2.2c-0.6,0.9-0.9,2.6-0.9,3.8c0,0.6,0.6,1.1,0.6,1.7
	c0,0.2-0.2,1.3-0.2,1.3c0.4,1.3,2,1.7,2.4,2.8c0,0.2-0.4,2-0.4,2.4c-0.2,1.9,0.6,2.4,0.7,4.1c0,0.6-0.4,0.9-0.2,1.7
	c0.2,0.7,0.6,1.7,0.9,2.2c0.2,0.7,0.4,1.1,0.7,1.9c0.2,0.4,0.4,1.3,0.6,1.5c1.1,1.5,0.9,1.3,1.3,3c0,0.4,0.4,1.7,0.4,1.7
	c0.2,0.4,0.9,1.5,0.9,2c0,0.9-1.3,0.6-0.6,2.2c0.4,0.9,0.9,1.5,1.7,2.2c1.1,1.1,2.4,1.9,2.8,3.5c-2,0.7-0.6,2.8-0.7,4.3"/>
<path class="st1" d="M120.4,187.3c-1.1-0.4-1.5-1.3-1.3-2.6c-0.4,0-0.7-0.4-0.9-0.6c0.6-0.2,0.4-0.6,1.1-0.4
	c-0.6-1.5-1.1-2.4-2.6-2.6c0-1.5-0.6-3-0.2-4.5c0.6-3,0.6-1.9-2.2-4.3c0.6-0.4,0.6-1.1-0.2-1.5c0.2-1.5-1.7-1.9-1.3-3.5
	c0.4,0,0.9-0.6,1.3-0.6c-1.7-1.5-0.2-1.9-0.2-3c0-1.5-1.5-2-2.6-2.6c0.4-0.2,0.9-0.7,1.3-0.7c-0.6-0.6-0.9-1.1-1.3-1.7
	c-0.2-0.4-0.6-0.6-0.7-0.9c-0.2-0.2,0.2-0.7,0-0.9c-0.6-0.9-3-2.6-0.6-3c-0.4-0.6-0.4-1.1-0.7-1.5c-0.2-0.4-1.1-1.1-1.3-1.5
	c-0.4-1.3,0.9-2.4,1.9-2.8c-1.1-0.7-1.9-1.1-2.4-2c-0.4-0.4-0.7-1.1-0.7-1.5c-0.6-1.1-0.6-2.4-1.7-3.8l-0.2,0.4c0,2-2.8,2.2-2.4,4.1
	c0.4,0,0.9,0.2,1.3,0c0,0.7-1.1,2.6-1.5,3.3c-0.6,0.7-2,1.7-1.9,2.6c0,0.7,1.1,0.9,1.1,1.7c0,0.4-0.7,0.9-0.9,1.3
	c-0.6,0.9-0.9,2.2-0.9,3.3c-0.2,0.9-0.2,1.5-0.6,2.2c-0.4,0.9-1.1,1.5-1.3,2c-0.4,1.3,0.2,1.5,0.4,2.8c0,1.3-1.5,0.7,0.2,2.4
	c-0.9,1.1-4.7,4.1-2.8,5.8c-0.4,0.4-1.1,0.6-1.7,1.1c0.4,0,1.1,0.6,1.5,0.7c-1.7,0.9-1.3,1.3-2,2.8c-0.4,1.1-1.9,2.2-2,3.3
	c0.4,0,0.9,0.4,1.3,0.4c-0.6,0.7-0.7,2.2-2,2.2c0,0.7,0.6,1.3,0.9,2c-0.9,0.6-0.7,1.5-0.7,2.4c0.2,0,0.4,0,0.6,0"/>
<path class="st1" d="M131.8,240.7c-0.2-0.2-0.2-0.4-0.2-0.6c1.3,0,1.1-0.6,0.9-1.3c-0.2-0.6-1.3-1.5-1.7-2c-0.2-0.4-0.6-0.9-0.9-1.1
	c0.4,0,0.6-0.2,0.9-0.4c-0.7-0.9-0.9-1.3-1.3-2c-0.2-0.4,0-0.9-0.2-1.3c-0.6-0.9-2.2-1.3-2.4-2.2c2.6-0.4-1.5-5.8,0.2-6.7
	c0-1.1-0.4-2.2-0.7-3c-0.6-1.1-1.3,0.2-1.1-1.3c0-0.7,1.1-0.4,0.9-1.3c-0.2,0-0.6,0-0.7,0c0.7-1.7-0.4-2-1.7-2.8
	c2.2-0.6,0.2-2.8-0.6-3.5c0.2-1.3-1.5-2.4-1.9-3.8l-1.1,0.7c0,1.3-1.7,1.9-1.9,3.1c0.2,0,0.6,0,0.9,0c0.6,1.7-1.1,2.2-2.4,2.8
	c3,2-3.3,3.5,0.2,5.4c-0.6,0.4-0.9,0.9-1.1,1.5c-0.2,0.4-0.2,1.3-0.4,1.9c0,0.2-0.7,0.7-0.7,1.1c0,0.2,0,1.3-0.2,1.7
	c-0.4,1.3-1.3,1.1-1.9,2.2c-0.6,0.9,0.2,2.8,0,4.1c-0.2,1.3,0.2,3.3-1.7,3.3c0.4,0.2,0.6,1.1,0.9,1.3c-0.7,0.4-3.1,0.2-3.5,0.7
	c-0.4,0.6,0.2,0.6,0.2,0.9c0,1.1,1.3,2.2,2,3c0,0.2-0.2,0.2-0.2,0.4"/>
<path class="st1" d="M355.2,165.8c-1.1-0.4-1.5-1.3-1.3-2.6c-0.4,0-0.7-0.4-0.9-0.6c0.6-0.2,0.4-0.6,1.1-0.4
	c-0.6-1.5-1.1-2.4-2.6-2.6c0-1.5-0.6-3-0.2-4.5c0.6-3,0.6-1.9-2.2-4.3c0.6-0.4,0.6-1.1-0.2-1.5c0.2-1.5-1.7-1.9-1.3-3.5
	c0.4,0,0.9-0.6,1.3-0.6c-1.7-1.5-0.2-1.9-0.2-3c0-1.5-1.5-2-2.6-2.6c0.4-0.2,0.9-0.7,1.3-0.7c-0.6-0.6-0.9-1.1-1.3-1.7
	c-0.2-0.4-0.6-0.6-0.7-0.9c-0.2-0.2,0.2-0.7,0-0.9c-0.6-0.9-3-2.6-0.6-3c-0.4-0.6-0.4-1.1-0.7-1.5c-0.2-0.4-1.1-1.1-1.3-1.5
	c-0.4-1.3,0.9-2.4,1.9-2.8c-1.1-0.7-1.9-1.1-2.4-2c-0.4-0.4-0.6-1.1-0.7-1.5c-0.6-1.3-0.6-2.4-1.7-3.8l-0.2,0.4c0,2-2.8,2.2-2.4,4.1
	c0.4,0,0.9,0.2,1.3,0c0,0.7-1.1,2.6-1.5,3.3c-0.6,0.7-2,1.7-1.9,2.6c0,0.7,1.1,0.9,1.1,1.7c0,0.4-0.7,0.9-0.9,1.3
	c-0.6,0.9-0.9,2.2-0.9,3.3c-0.2,0.9-0.2,1.5-0.6,2.2c-0.4,0.9-1.1,1.5-1.3,2c-0.4,1.3,0.2,1.5,0.4,2.8c0,1.3-1.5,0.7,0.2,2.4
	c-0.9,1.1-4.7,4.1-2.8,5.8c-0.4,0.4-1.1,0.6-1.7,1.1c0.4,0,1.1,0.6,1.5,0.7c-1.7,0.9-1.3,1.3-2,2.8c-0.4,1.1-1.9,2.2-2,3.3
	c0.4,0,0.9,0.4,1.3,0.4c-0.6,0.7-0.7,2.2-2,2.2c0,0.7,0.6,1.3,0.9,2c-0.9,0.6-0.7,1.5-0.7,2.4c0.2,0,0.4,0,0.6,0"/>
<path class="st1" d="M344,143.4c1.1-0.4,1.5-1.3,1.3-2.6c0.4,0,0.7-0.4,0.9-0.6c-0.6-0.2-0.4-0.6-1.1-0.4c0.6-1.5,1.1-2.4,2.6-2.6
	c0-1.5,0.6-3,0.2-4.5c-0.6-3-0.6-1.9,2.2-4.3c-0.6-0.4-0.6-1.1,0.2-1.5c-0.2-1.5,1.7-1.9,1.3-3.5c-0.4,0-0.9-0.6-1.3-0.6
	c1.7-1.5,0.2-1.9,0.2-3c0-1.5,1.5-2,2.6-2.6c-0.4-0.2-0.9-0.7-1.3-0.7c0.6-0.6,0.9-1.1,1.3-1.7c0.2-0.4,0.6-0.6,0.7-0.9
	c0.2-0.2-0.2-0.7,0-0.9c0.6-0.9,3-2.6,0.6-3c0.4-0.6,0.4-1.1,0.7-1.5c0.2-0.4,1.1-1.1,1.3-1.5c0.4-1.3-0.9-2.4-1.9-2.8
	c1.1-0.7,1.9-1.1,2.4-2c0.4-0.4,0.7-1.1,0.7-1.5c0.6-1.1,0.6-2.4,1.7-3.8l0.2,0.4c0,2,2.8,2.2,2.4,4.1c-0.4,0-0.9,0.2-1.3,0
	c0,0.7,1.1,2.6,1.5,3.3c0.6,0.7,2,1.7,1.9,2.6c0,0.7-1.1,0.9-1.1,1.7c0,0.4,0.7,0.9,0.9,1.3c0.6,0.9,0.9,2.2,0.9,3.3
	c0.2,0.9,0.2,1.5,0.6,2.2c0.4,0.9,1.1,1.5,1.3,2c0.4,1.3-0.2,1.5-0.4,2.8c0,1.3,1.5,0.7-0.2,2.4c0.9,1.1,4.7,4.1,2.8,5.8
	c0.4,0.4,1.1,0.6,1.7,1.1c-0.4,0-1.1,0.6-1.5,0.7c1.7,0.9,1.3,1.3,2,2.8c0.4,1.1,1.9,2.2,2,3.3c-0.4,0-0.9,0.4-1.3,0.4
	c0.6,0.7,0.7,2.2,2,2.2c0,0.7-0.6,1.3-0.9,2c0.9,0.6,0.7,1.5,0.7,2.4c-0.2,0-0.4,0-0.6,0"/>
<path class="st1" d="M102,298c-0.9-0.7-0.2-1.7,0.2-2.6c0.7-1.5,0.7-0.9,2.2-1.5c-0.6-0.4-1.1-0.6-1.7-0.9c0.6-0.6,0.6-1.7,0.9-2.4
	c0.6-1.3,0.7-1.7,2-2c-2.6-0.9-1.9-2.2-0.9-4c0.4-0.7,0.4-1.7,0.7-2.2c0.7-1.3,1.3-1.1,1.1-2.8c0-0.7-0.6-0.7-0.2-1.5
	c0.2-0.6,1.3-0.9,1.7-1.5c0.6-0.7,0.7-2,1.1-2.8c0.4-0.7,0.7-0.7,0.9-1.7c0-0.4-0.4-1.1-0.2-1.7c0.2-0.7,0.9-1.1,1.1-1.9
	c0.2-0.6-0.4-1.3,0-2c0.2-0.6,0.7-1.1,0.9-1.7c0.4-0.6-0.2-0.9,0.6-1.3c-0.9-1.3-0.4-2.8,0.4-4.1c0.4-0.7,1.1-1.5,1.1-2.2
	s-0.7-1.1-0.7-1.9c2.4-0.4,1.3-0.7,1.5-2c0-0.7,0.6-0.9,0.6-1.9c0-0.9-0.9-1.5-0.9-1.9c0-1.1,2-1.5,3-2.2v-0.2
	c0.7,1.1,1.7,2,1.7,3.5c0,0.6-0.4,0.9-0.2,1.5c0.2,0.7,1.5,1.7,1.5,2.2c0,0.7-0.9,0.4-0.9,1.1c0,0.7,1.5,1.3,1.7,2
	c0.2,0.6-0.2,0.9,0,1.9c0.4,0.9,1.1,0.9,0.6,2c0.6,0.7,1.3,1.3,2,1.9c-0.4,0.7-0.7,2-0.7,3c0,0.6,0.4,0.9,0.6,1.3
	c0,0.2-0.2,1.1-0.2,1.1c0.4,1.1,1.7,1.3,1.9,2.2c0,0.2-0.4,1.7-0.4,1.9c-0.2,1.5,0.6,2,0.7,3.3c0,0.4-0.4,0.7-0.2,1.5
	c0.2,0.6,0.6,1.3,0.7,1.9c0.2,0.6,0.4,0.9,0.6,1.5c0.2,0.2,0.4,1.1,0.6,1.3c0.9,1.3,0.7,1.1,1.1,2.4c0,0.2,0.4,1.5,0.4,1.5
	c0.2,0.4,0.7,1.1,0.7,1.7c0,0.9-0.9,0.4-0.6,1.9c0.2,0.7,0.7,1.3,1.3,1.9c0.9,0.9,2,1.7,2.2,3c-1.7,0.6-0.6,2.4-0.6,3.5"/>
<path class="st1" d="M145.1,294.1c-0.4,0.2-1.1,0.2-1.3-0.2c0.6,0,0.9,0,1.5-0.2c-0.2-0.6,0.2-1.5-0.2-1.9c0.2-0.4,0.4-0.7,0-1.1
	c0.2,0,0.9-0.7,0.9-0.9s-0.4-0.4-0.6-0.6c-0.2-0.2-0.2-0.6-0.4-0.7c0.2-0.4,1.9-0.9,1.1-1.7c0.7-0.2,0.4-1.1,0.6-1.7
	c0.2-0.6,0.9-1.5,0.4-2.2c0.4-0.2,0.7-0.6,0.9-0.7c0.6-0.2,0.6,0,0.6-0.6c0-0.6-1.1-1.7,0-1.7c0-0.4,0-0.7,0.2-0.9l0.2-0.4
	c0,0-0.2-0.2-0.2-0.4c0-0.2,0.4-0.2,0.4-0.4c0.4-0.7,1.5-1.3,1.3-2.2l0.2,0.2c0.2,0.2,0.6,0.6,0.7,0.9c0.2,0.4-0.2,0.6,0,0.9
	c0.2,0.2,0.6,0.4,0.6,0.6s-0.2,0.4-0.2,0.4s-0.2,0.2-0.2,0.4c0,0.4,0.9,0.7,1.1,0.9c-0.2,0.4-0.4,1.5-0.2,1.9
	c0.2,0.6,0.7,0.6,0.9,1.1v0.7c0,0.6,0,1.3,0.4,1.9c0.2,0.4,0.6,0.7,0.4,1.1c0.4,0.4,0.9,0.7,0.4,1.1c0.4,0.2,0.9,0.9,0.4,1.3
	c0.6,0.6,0.4,0.9,0.4,1.5c0.2,0.6,0.4,1.1,0.7,1.7l-0.2,0.2c0.7,0.6,0.4,2,1.3,2.4"/>
<path class="st2" d="M162.5,242.4c-0.7-0.4-1.1-0.9-0.9-1.9c-0.4,0-0.6-0.4-0.6-0.4c0.4-0.2,0.2-0.4,0.7-0.4
	c-0.4-0.9-0.7-1.7-1.9-1.9c0-0.9-0.4-2-0.2-3.1c0.4-2,0.4-1.3-1.5-3c0.4-0.2,0.4-0.7-0.2-0.9c0.2-1.1-1.3-1.3-0.9-2.4
	c0.4,0,0.6-0.4,0.9-0.4c-1.1-1.1-0.2-1.3-0.2-2c0-1.1-0.9-1.5-1.9-1.9c0.2,0,0.7-0.6,0.9-0.6c-0.4-0.4-0.6-0.7-0.9-1.1
	c-0.2-0.2-0.4-0.4-0.6-0.6c0-0.2,0.2-0.6,0-0.6c-0.4-0.7-2-1.9-0.4-2c-0.4-0.4-0.4-0.7-0.6-1.1c-0.2-0.4-0.7-0.7-0.9-1.1
	c-0.4-0.9,0.6-1.7,1.3-2c-0.7-0.6-1.3-0.7-1.7-1.3c-0.2-0.2-0.4-0.7-0.6-1.1c-0.4-0.9-0.4-1.7-1.1-2.6l-0.2,0.4
	c0,1.5-1.9,1.7-1.7,2.8c0.2,0,0.7,0.2,0.9,0c0,0.6-0.7,1.9-1.1,2.4c-0.4,0.6-1.5,1.1-1.3,1.9c0,0.6,0.7,0.6,0.7,1.1
	c0,0.4-0.6,0.7-0.6,0.9c-0.4,0.7-0.6,1.5-0.7,2.4c0,0.7-0.2,0.9-0.4,1.5c-0.2,0.6-0.7,0.9-0.9,1.5c-0.4,0.9,0.2,1.1,0.2,1.9
	c0,0.9-1.1,0.6,0.2,1.7c-0.6,0.7-3.1,2.8-1.9,4c-0.4,0.4-0.7,0.4-1.1,0.7c0.4,0,0.7,0.4,0.9,0.4c-1.1,0.7-0.9,0.9-1.5,2
	c-0.4,0.7-1.3,1.5-1.5,2.2c0.4,0,0.6,0.2,0.9,0.2c-0.4,0.6-0.6,1.5-1.5,1.7c0,0.6,0.4,0.9,0.6,1.5c-0.6,0.4-0.6,0.9-0.6,1.7
	c0.2,0,0.4,0,0.4,0"/>
<path class="st1" d="M272.7,249.9c-1.1-0.4-1.5-1.3-1.3-2.6c-0.4,0-0.7-0.4-0.9-0.6c0.6-0.2,0.4-0.6,1.1-0.4
	c-0.6-1.5-1.1-2.4-2.6-2.6c0-1.5-0.6-3-0.2-4.5c0.6-3,0.6-1.9-2.2-4.3c0.6-0.4,0.6-1.1-0.2-1.5c0.2-1.5-1.7-1.9-1.3-3.5
	c0.4,0,0.9-0.6,1.3-0.6c-1.7-1.5-0.2-1.9-0.2-3c0-1.5-1.5-2-2.6-2.6c0.4-0.2,0.9-0.7,1.3-0.7c-0.6-0.6-0.9-1.1-1.3-1.7
	c-0.2-0.4-0.6-0.6-0.7-0.9c-0.2-0.2,0.2-0.7,0-0.9c-0.6-0.9-3-2.6-0.6-3c-0.4-0.6-0.4-1.1-0.7-1.5c-0.2-0.4-1.1-1.1-1.3-1.5
	c-0.4-1.3,0.9-2.4,1.9-2.8c-1.1-0.7-1.9-1.1-2.4-2c-0.4-0.4-0.7-1.1-0.7-1.5c-0.6-1.3-0.6-2.4-1.7-3.8l-0.2,0.4c0,2-2.8,2.2-2.4,4.1
	c0.4,0,0.9,0.2,1.3,0c0,0.7-1.1,2.6-1.5,3.3c-0.6,0.7-2,1.7-1.9,2.6c0,0.7,1.1,0.9,1.1,1.7c0,0.4-0.7,0.9-0.9,1.3
	c-0.6,0.9-0.9,2.2-0.9,3.3c-0.2,0.9-0.2,1.5-0.6,2.2c-0.4,0.9-1.1,1.5-1.3,2c-0.4,1.3,0.2,1.5,0.4,2.8c0,1.3-1.5,0.7,0.2,2.4
	c-0.9,1.1-4.7,4.1-2.8,5.8c-0.4,0.4-1.1,0.6-1.7,1.1c0.4,0,1.1,0.6,1.5,0.7c-1.7,0.9-1.3,1.3-2,2.8c-0.4,1.1-1.9,2.2-2,3.3
	c0.4,0,0.9,0.4,1.3,0.4c-0.6,0.7-0.7,2.2-2,2.2c0,0.7,0.6,1.3,0.9,2c-0.9,0.6-0.7,1.5-0.7,2.4c0.2,0,0.4,0,0.6,0"/>
<path class="st1" d="M374.8,158.7c-0.7,0.4-2.2,0.4-2.6-0.6c0.9,0,1.9,0,2.8-0.4c-0.2-0.9,0.6-3-0.6-3.5c0.4-0.6,0.7-1.3,0.2-2
	c0.4,0,1.7-1.5,1.7-2c0-0.4-0.9-0.6-1.1-0.9s-0.4-1.1-0.6-1.5c0.6-0.7,3.8-1.9,2.2-3.1c1.5-0.4,0.6-2.2,0.9-3.1
	c0.4-1.1,1.7-3,0.6-4.5c0.6-0.6,1.3-1.1,1.9-1.5c0.9-0.6,1.1,0.2,1.1-1.1c0-1.1-2.2-3.3-0.2-3.3c0.2-0.7,0.2-1.3,0.2-1.9
	c0,0,0.6-0.7,0.6-0.9c0-0.2-0.4-0.4-0.4-0.6c0.2-0.4,0.6-0.4,0.7-0.6c0.7-1.5,2.8-2.6,2.4-4.3l0.4,0.2c0.4,0.6,1.3,1.1,1.5,1.7
	c0.2,0.6-0.2,1.1,0,1.7c0.2,0.6,0.9,0.6,0.9,1.3c0,0.2-0.2,0.6-0.2,0.7c0,0.2-0.4,0.4-0.4,0.7c0.2,0.7,1.7,1.3,2.2,1.7
	c-0.6,0.6-0.6,3-0.4,3.5c0.4,0.9,1.3,1.3,1.7,2l0.2,1.7c0.2,1.1,0.2,2.6,0.6,3.8c0.4,0.7,1.1,1.3,0.7,2.2c0.6,0.7,1.9,1.3,0.6,2
	c0.7,0.4,1.7,1.7,0.7,2.4c0.9,0.9,0.6,1.7,0.7,3c0.2,1.1,0.7,2.2,1.5,3.1c-0.2,0.2-0.2,0.2-0.4,0.4c1.5,1.1,0.6,4.1,2.6,4.7"/>
<path class="st1" d="M361,216.4c-0.2-0.2-0.2-0.4-0.2-0.6c1.3,0,1.1-0.6,0.9-1.3c-0.2-0.6-1.3-1.5-1.7-2c-0.2-0.4-0.6-0.9-0.9-1.1
	c0.4,0,0.6-0.2,0.9-0.4c-0.7-0.9-0.9-1.3-1.3-2c-0.2-0.4,0-0.9-0.2-1.3c-0.6-0.9-2.2-1.3-2.4-2.2c2.6-0.4-1.5-5.8,0.2-6.7
	c0-1.1-0.4-2.2-0.7-3c-0.6-1.1-1.3,0.2-1.1-1.3c0-0.7,1.1-0.4,0.9-1.3c-0.2,0-0.6,0-0.7,0c0.7-1.7-0.4-2-1.7-2.8
	c2.2-0.6,0.2-2.8-0.6-3.5c0.2-1.3-1.5-2.4-1.9-3.8l-1.1,0.7c0,1.3-1.7,1.9-1.9,3.1c0.2,0,0.6,0,0.9,0c0.6,1.7-1.1,2.2-2.4,2.8
	c3,2-3.3,3.5,0.2,5.4c-0.6,0.4-0.9,0.9-1.1,1.5c-0.2,0.4-0.2,1.3-0.4,1.9c0,0.2-0.7,0.7-0.7,1.1c0,0.2,0,1.3-0.2,1.7
	c-0.4,1.3-1.3,1.1-1.9,2.2c-0.6,0.9,0.2,2.8,0,4.1c-0.2,1.3,0.2,3.3-1.7,3.3c0.4,0.2,0.6,1.1,0.9,1.3c-0.7,0.4-3.1,0.2-3.5,0.7
	c-0.4,0.6,0.2,0.6,0.2,0.9c0,1.1,1.3,2.2,2,3c0,0.2-0.2,0.2-0.2,0.4"/>
<path class="st1" d="M343.1,243.5c-0.7-0.4-1.1-0.9-0.9-1.9c-0.4,0-0.6-0.4-0.6-0.4c0.4-0.2,0.2-0.4,0.7-0.4
	c-0.4-0.9-0.7-1.7-1.9-1.9c0-0.9-0.4-2-0.2-3.1c0.4-2,0.4-1.3-1.5-3c0.4-0.2,0.4-0.7-0.2-0.9c0.2-1.1-1.3-1.3-0.9-2.4
	c0.4,0,0.6-0.4,0.9-0.4c-1.1-1.1-0.2-1.3-0.2-2c0-1.1-0.9-1.5-1.9-1.9c0.2,0,0.7-0.6,0.9-0.6c-0.4-0.4-0.6-0.7-0.9-1.1
	c-0.2-0.2-0.4-0.4-0.6-0.6c0-0.2,0.2-0.6,0-0.6c-0.4-0.7-2-1.9-0.4-2c-0.4-0.4-0.4-0.7-0.6-1.1c-0.2-0.4-0.7-0.7-0.9-1.1
	c-0.4-0.9,0.6-1.7,1.3-2c-0.7-0.6-1.3-0.7-1.7-1.3c-0.2-0.2-0.4-0.7-0.6-1.1c-0.4-0.9-0.4-1.7-1.1-2.6l-0.2,0.4
	c0,1.5-1.9,1.7-1.7,2.8c0.2,0,0.7,0.2,0.9,0c0,0.6-0.7,1.9-1.1,2.4c-0.4,0.6-1.5,1.1-1.3,1.9c0,0.6,0.7,0.6,0.7,1.1
	c0,0.4-0.6,0.7-0.6,0.9c-0.4,0.7-0.6,1.5-0.7,2.4c0,0.7-0.2,0.9-0.4,1.5c-0.2,0.6-0.7,0.9-0.9,1.5c-0.4,0.9,0.2,1.1,0.2,1.9
	c0,0.9-1.1,0.6,0.2,1.7c-0.6,0.7-3.1,2.8-1.9,4c-0.4,0.4-0.7,0.4-1.1,0.7c0.4,0,0.7,0.4,0.9,0.4c-1.1,0.7-0.9,0.9-1.5,2
	c-0.4,0.7-1.3,1.5-1.5,2.2c0.4,0,0.6,0.2,0.9,0.2c-0.4,0.6-0.6,1.5-1.5,1.7c0,0.6,0.4,0.9,0.6,1.5c-0.6,0.4-0.6,0.9-0.6,1.7
	c0.2,0,0.4,0,0.4,0"/>
<path class="st2" d="M353.1,180.2c-0.2-0.2-0.2-0.4-0.2-0.6c1.3,0,1.1-0.6,0.9-1.3c-0.2-0.6-1.3-1.5-1.7-2c-0.2-0.4-0.6-0.9-0.9-1.1
	c0.4,0,0.6-0.2,0.9-0.4c-0.7-0.9-0.9-1.3-1.3-2c-0.2-0.4,0-0.9-0.2-1.3c-0.6-0.9-2.2-1.3-2.4-2.2c2.6-0.4-1.5-5.8,0.2-6.7
	c0-1.1-0.4-2.2-0.7-3c-0.6-1.1-1.3,0.2-1.1-1.3c0-0.7,1.1-0.4,0.9-1.3c-0.2,0-0.6,0-0.7,0c0.7-1.7-0.4-2-1.7-2.8
	c2.2-0.6,0.2-2.8-0.6-3.5c0.2-1.3-1.5-2.4-1.9-3.8l-1.1,0.7c0,1.3-1.7,1.9-1.9,3.1c0.2,0,0.6,0,0.9,0c0.6,1.7-1.1,2.2-2.4,2.8
	c3,2-3.3,3.5,0.2,5.4c-0.6,0.4-0.9,0.9-1.1,1.5c-0.2,0.4-0.2,1.3-0.4,1.9c0,0.2-0.7,0.7-0.7,1.1c0,0.2,0,1.3-0.2,1.7
	c-0.4,1.3-1.3,1.1-1.9,2.2c-0.6,0.9,0.2,2.8,0,4.1c-0.2,1.3,0.2,3.3-1.7,3.3c0.4,0.2,0.6,1.1,0.9,1.3c-0.7,0.4-3.1,0.2-3.5,0.7
	s0.2,0.6,0.2,0.9c0,1.1,1.3,2.2,2,3c0,0.2-0.2,0.2-0.2,0.4"/>
<path class="st2" d="M145.2,166.8c-0.2-0.2-0.2-0.4-0.2-0.6c1.3,0,1.1-0.6,0.9-1.3c-0.2-0.6-1.3-1.5-1.7-2c-0.2-0.4-0.6-0.9-0.9-1.1
	c0.4,0,0.6-0.2,0.9-0.4c-0.7-0.9-0.9-1.3-1.3-2c-0.2-0.4,0-0.9-0.2-1.3c-0.6-0.9-2.2-1.3-2.4-2.2c2.6-0.4-1.5-5.8,0.2-6.7
	c0-1.1-0.4-2.2-0.7-3c-0.6-1.1-1.3,0.2-1.1-1.3c0-0.7,1.1-0.4,0.9-1.3c-0.2,0-0.6,0-0.7,0c0.7-1.7-0.4-2-1.7-2.8
	c2.2-0.6,0.2-2.8-0.6-3.5c0.2-1.3-1.5-2.4-1.9-3.8l-1.1,0.7c0,1.3-1.7,1.9-1.9,3.1c0.2,0,0.6,0,0.9,0c0.6,1.7-1.1,2.2-2.4,2.8
	c3,2-3.3,3.5,0.2,5.4c-0.6,0.4-0.9,0.9-1.1,1.5c-0.2,0.4-0.2,1.3-0.4,1.9c0,0.2-0.7,0.7-0.7,1.1c0,0.2,0,1.3-0.2,1.7
	c-0.4,1.3-1.3,1.1-1.9,2.2c-0.6,0.9,0.2,2.8,0,4.1c-0.2,1.3,0.2,3.3-1.7,3.3c0.4,0.2,0.6,1.1,0.9,1.3c-0.7,0.4-3.1,0.2-3.5,0.7
	s0.2,0.6,0.2,0.9c0,1.1,1.3,2.2,2,3c0,0.2-0.2,0.2-0.2,0.4"/>
<path class="st2" d="M380.6,181.5c-0.2-0.4-0.4-0.6-0.4-1.1c2.2,0,2-0.9,1.7-2.4c-0.2-0.9-2.4-2.8-2.8-3.8c-0.4-0.7-0.9-1.5-1.7-1.9
	c0.6,0,1.1-0.4,1.7-0.6c-1.1-1.5-1.7-2.4-2.2-3.8c-0.2-0.6-0.2-1.5-0.4-2.2c-0.9-1.9-4-2.4-4.1-4c4.7-0.6-2.8-10.2,0.4-11.8
	c-0.2-1.9-0.6-4-1.1-5.1c-0.9-1.9-2.2,0.4-2-2.4c0-1.3,1.9-0.7,1.5-2.2c-0.4,0-0.9-0.2-1.5-0.2c1.5-3-0.7-3.8-2.8-5.1
	c4-0.7,0.2-4.9-0.9-6.4c0.4-2.2-2.4-4.3-3.3-6.5l-2,1.1c0,2.4-2.8,3.3-3.1,5.6c0.4,0,1.1,0.2,1.5,0c0.9,3-2,4-4.3,5.1
	c5.2,3.8-6,6.4,0.4,9.7c-1.1,0.7-1.7,1.7-2,2.6c-0.4,0.7-0.4,2.4-0.6,3.1c0,0.2-1.3,1.3-1.5,1.9c-0.2,0.2-0.2,2.2-0.4,2.8
	c-0.6,2.2-2.4,2-3.3,4c-0.7,1.7,0.2,5.1-0.2,7.3c-0.4,2.4,0.4,6-3.1,6c0.6,0.6,0.9,1.9,1.7,2.4c-1.3,0.6-5.6,0.4-6.2,1.5
	c-0.6,0.9,0.4,0.9,0.4,1.7c0,2,2.2,4.1,3.8,5.4c-0.2,0.2-0.2,0.4-0.4,0.7"/>
<path class="st2" d="M145.9,322.4c-0.2-0.4-0.4-0.6-0.4-1.1c2.2,0,2-0.9,1.7-2.4c-0.2-0.9-2.4-2.8-2.8-3.8c-0.4-0.7-0.9-1.5-1.7-1.9
	c0.6,0,1.1-0.4,1.7-0.6c-1.1-1.5-1.7-2.4-2.2-3.8c-0.2-0.6-0.2-1.5-0.4-2.2c-0.9-1.9-4-2.4-4.1-4c4.7-0.6-2.8-10.2,0.4-11.8
	c-0.2-1.9-0.6-4-1.1-5.1c-0.9-1.9-2.2,0.4-2-2.4c0-1.3,1.9-0.7,1.5-2.2c-0.4,0-0.9-0.2-1.5-0.2c1.5-3-0.7-3.8-2.8-5.1
	c4-0.7,0.2-4.9-0.9-6.4c0.4-2.2-2.4-4.3-3.3-6.5l-2,1.1c0,2.4-2.8,3.3-3.1,5.6c0.4,0,1.1,0.2,1.5,0c0.9,3-2,4-4.3,5.1
	c5.2,3.8-6,6.4,0.4,9.7c-1.1,0.7-1.7,1.7-2,2.6c-0.4,0.7-0.4,2.4-0.6,3.1c0,0.2-1.3,1.3-1.5,1.9c-0.2,0.2-0.2,2.2-0.4,2.8
	c-0.6,2.2-2.4,2-3.3,4c-0.7,1.7,0.2,5.1-0.2,7.3c-0.4,2.4,0.4,6-3.1,6c0.6,0.6,0.9,1.9,1.7,2.4c-1.3,0.6-5.6,0.4-6.2,1.5
	c-0.6,0.9,0.4,0.9,0.4,1.7c0,2,2.2,4.1,3.8,5.4c-0.2,0.2-0.2,0.4-0.4,0.7"/>
<path class="st2" d="M109.6,192.1c-0.2-0.2-0.2-0.2-0.2-0.6c0.9,0,0.9-0.4,0.7-1.1c-0.2-0.4-1.1-1.1-1.3-1.7
	c-0.2-0.4-0.4-0.7-0.7-0.7c0.2,0,0.6-0.2,0.7-0.2c-0.6-0.7-0.7-1.1-0.9-1.7c-0.2-0.2,0-0.7-0.2-0.9c-0.4-0.7-1.7-1.1-1.9-1.7
	c2-0.2-1.3-4.5,0.2-5.2c0-0.9-0.2-1.7-0.6-2.2c-0.4-0.7-0.9,0.2-0.9-1.1c0-0.6,0.7-0.4,0.7-0.9c-0.2,0-0.4,0-0.6,0
	c0.6-1.3-0.4-1.7-1.3-2.2c1.7-0.4,0-2.2-0.4-2.8c0.2-0.9-1.1-1.9-1.5-2.8l-0.9,0.6c0,1.1-1.3,1.5-1.3,2.4c0.2,0,0.4,0,0.6,0
	c0.4,1.3-0.9,1.7-1.9,2.2c2.2,1.7-2.6,2.8,0.2,4.3c-0.6,0.4-0.7,0.7-0.9,1.1c-0.3,0.2-0.3,1-0.3,1.2c0,0.2-0.6,0.6-0.6,0.7
	c0,0.2,0,0.9-0.2,1.3c-0.2,0.9-1.1,0.9-1.5,1.7s0.2,2.2,0,3.1c-0.2,1.1,0.2,2.6-1.3,2.6c0.2,0.2,0.4,0.7,0.7,1.1
	c-0.6,0.2-2.4,0.2-2.8,0.6c-0.2,0.4,0.2,0.4,0.2,0.7c0,0.9,0.9,1.9,1.7,2.4c0,0.2-0.2,0.2-0.2,0.4"/>
<path class="st1" d="M356,197.6c-0.6-2,1.3-3.5,0-5.2c1.9-0.6,0.7-2.2,1.1-3.5c0.2-0.7,0.9-0.9,1.3-1.5c0.2-0.6-0.2-1.5,0.2-2
	c0.7-1.5,2-0.6,2-2.8c0-0.6,0-1.1,0-1.5c-0.2-0.4-1.3-0.7-1.1-1.3c0.2-0.7,1.5-0.6,1.9-1.1c0.2-0.4-0.2-1.1,0-1.5
	c0.4-1.3,1.3-2.4,1.9-4c0.4-1.1,0.4-2.8,0.9-3.8c0.6-1.1,1.9-1.9,2.4-3c0,1.1,1.1,1.7,1.5,2.6c0.2,0.6-0.2,0.9-0.2,1.3
	c0.2,0.6,0.6,0.6,0.7,1.5c0,0.7-0.6,1.3-0.4,2c0,0.6,0.6,0.7,0.7,1.1c0.2,0.6,0,1.3,0.2,1.9c0.2,0.9,0.6,2.4,1.1,3.3
	c0.9,1.3,1.9,2.2,2.4,3.8c0.4,0.9,0.2,2,0.4,3c0.6,2.2,0.2,4.9,1.5,6.9c-1.5,1.1-0.2,3,0.9,3.8"/>
<path class="st2" d="M376.9,205.4c-0.2-0.2-0.2-0.2-0.2-0.6c0.9,0,0.9-0.4,0.7-0.9c-0.2-0.4-0.9-1.1-1.3-1.5
	c-0.2-0.4-0.4-0.6-0.7-0.7c0.2,0,0.4-0.2,0.7-0.2c-0.6-0.7-0.7-0.9-0.9-1.5c-0.2-0.2,0-0.6-0.2-0.9c-0.4-0.7-1.7-0.9-1.7-1.7
	c2-0.2-1.1-4.3,0.2-5.1c0-0.7-0.2-1.7-0.6-2.2c-0.4-0.7-0.9,0.2-0.9-1.1c0-0.6,0.7-0.4,0.7-0.9c-0.2,0-0.4,0-0.6,0
	c0.6-1.3-0.4-1.5-1.1-2c1.7-0.4,0-2-0.4-2.6c0.2-0.9-1.1-1.9-1.5-2.8l-0.9,0.6c0,1.1-1.1,1.5-1.3,2.4c0.2,0,0.4,0,0.6,0
	c0.4,1.3-0.9,1.7-1.9,2.2c2.2,1.5-2.4,2.6,0.2,4.1c-0.6,0.4-0.7,0.7-0.9,1.1c-0.2,0.2-0.2,0.9-0.2,1.3c0,0.2-0.6,0.6-0.6,0.7
	s0,0.9-0.2,1.1c-0.2,0.9-0.9,0.9-1.3,1.7s0.2,2.2,0,3.1c-0.2,0.9,0.2,2.4-1.3,2.6c0.2,0.2,0.4,0.7,0.7,0.9c-0.6,0.2-2.4,0.2-2.6,0.6
	c-0.2,0.4,0.2,0.4,0.2,0.7c0,0.9,0.9,1.7,1.5,2.2c0,0.2-0.2,0.2-0.2,0.4"/>
<path class="st2" d="M371.1,243.1c-0.2-0.4-0.4-0.6-0.4-0.9c1.9,0,1.9-0.7,1.5-2c-0.2-0.7-2-2.2-2.4-3.1c-0.4-0.6-0.7-1.3-1.3-1.7
	c0.4,0,0.9-0.4,1.3-0.6c-1.1-1.3-1.5-2-1.9-3.1c-0.2-0.4-0.2-1.3-0.4-1.9c-0.7-1.5-3.3-2-3.5-3.3c4-0.6-2.4-8.8,0.2-9.9
	c-0.2-1.7-0.4-3.3-0.9-4.3c-0.9-1.5-1.9,0.2-1.7-2c0-1.1,1.5-0.6,1.3-2c-0.4,0-0.7,0-1.1-0.2c1.1-2.4-0.6-3.1-2.4-4.3
	c3.3-0.7,0.2-4.1-0.9-5.4c0.4-1.9-2-3.5-2.8-5.4l-1.7,0.9c0,2-2.4,2.8-2.6,4.7c0.4,0,0.9,0,1.3,0c0.7,2.6-1.9,3.3-3.5,4.3
	c4.5,3.1-5.1,5.4,0.4,8.2c-0.9,0.6-1.3,1.3-1.7,2.2c-0.2,0.6-0.4,2-0.6,2.6c0,0.2-1.1,1.1-1.3,1.5c0,0.2-0.2,1.9-0.2,2.4
	c-0.6,1.9-2,1.9-2.8,3.3c-0.7,1.5,0.2,4.3,0,6.2c-0.4,2,0.2,5.1-2.6,5.1c0.4,0.4,0.9,1.5,1.5,2c-1.1,0.6-4.7,0.4-5.2,1.3
	c-0.6,0.7,0.2,0.7,0.2,1.5c0,1.7,1.9,3.5,3.1,4.5c0,0.2-0.2,0.4-0.4,0.6"/>
<path class="st1" d="M353.3,253c1.1-0.4,1.5-1.3,1.3-2.6c0.4,0,0.7-0.4,0.9-0.6c-0.6-0.2-0.4-0.6-1.1-0.4c0.6-1.5,1.1-2.4,2.6-2.6
	c0-1.5,0.6-3,0.2-4.5c-0.6-3-0.6-1.9,2.2-4.3c-0.6-0.4-0.6-1.1,0.2-1.5c-0.2-1.5,1.7-1.9,1.3-3.5c-0.4,0-0.9-0.6-1.3-0.6
	c1.7-1.5,0.2-1.9,0.2-3c0-1.5,1.5-2,2.6-2.6c-0.4-0.2-0.9-0.7-1.3-0.7c0.6-0.6,0.9-1.1,1.3-1.7c0.2-0.4,0.6-0.6,0.7-0.9
	c0.2-0.2-0.2-0.7,0-0.9c0.6-0.9,3-2.6,0.6-3c0.4-0.6,0.4-1.1,0.7-1.5c0.2-0.4,1.1-1.1,1.3-1.5c0.4-1.3-0.9-2.4-1.9-2.8
	c1.1-0.7,1.9-1.1,2.4-2c0.4-0.4,0.6-1.1,0.7-1.5c0.6-1.1,0.6-2.4,1.7-3.8l0.2,0.4c0,2,2.8,2.2,2.4,4.1c-0.4,0-0.9,0.2-1.3,0
	c0,0.7,1.1,2.6,1.5,3.3c0.6,0.7,2,1.7,1.9,2.6c0,0.7-1.1,0.9-1.1,1.7c0,0.4,0.7,0.9,0.9,1.3c0.6,0.9,0.9,2.2,0.9,3.3
	c0.2,0.9,0.2,1.5,0.6,2.2c0.4,0.9,1.1,1.5,1.3,2c0.4,1.3-0.2,1.5-0.4,2.8c0,1.3,1.5,0.7-0.2,2.4c0.9,1.1,4.7,4.1,2.8,5.8
	c0.4,0.4,1.1,0.6,1.7,1.1c-0.4,0-1.1,0.6-1.5,0.7c1.7,0.9,1.3,1.3,2,2.8c0.4,1.1,1.9,2.2,2,3.3c-0.4,0-0.9,0.4-1.3,0.4
	c0.6,0.7,0.7,2.2,2,2.2c0,0.7-0.6,1.3-0.9,2c0.9,0.6,0.7,1.5,0.7,2.4c-0.2,0-0.4,0-0.6,0"/>
<path class="st1" d="M174,359.5c-1.1-0.4-1.5-1.3-1.5-2.8c-0.4,0-0.7-0.4-0.9-0.6c0.6-0.2,0.4-0.6,1.1-0.4c-0.6-1.5-1.1-2.4-2.8-2.6
	c0-1.5-0.6-3-0.2-4.5c0.6-3,0.6-1.9-2.2-4.3c0.7-0.4,0.6-1.1-0.2-1.5c0.2-1.5-1.9-1.9-1.5-3.5c0.4,0,0.9-0.6,1.3-0.6
	c-1.7-1.5-0.2-1.9-0.2-3c0-1.5-1.5-2-2.8-2.6c0.4-0.2,1.1-0.7,1.3-0.7c-0.6-0.6-0.9-1.1-1.3-1.7c-0.2-0.4-0.6-0.6-0.7-0.9
	c-0.2-0.2,0.2-0.7,0-0.9c-0.6-0.9-3-2.6-0.6-3c-0.4-0.6-0.4-1.1-0.7-1.7c-0.2-0.4-1.1-1.1-1.3-1.5c-0.4-1.3,0.9-2.4,2-3
	c-1.1-0.7-1.9-1.1-2.6-2c-0.4-0.4-0.7-1.1-0.7-1.5c-0.6-1.3-0.6-2.4-1.7-3.8l-0.2,0.4c0,2-2.8,2.2-2.4,4.1c0.4,0,0.9,0.2,1.3,0
	c0,0.7-1.1,2.8-1.7,3.3c-0.6,0.7-2,1.7-2,2.8c0,0.7,1.1,0.9,1.1,1.7c0,0.4-0.7,0.9-0.9,1.3c-0.6,0.9-0.9,2.2-0.9,3.3
	c-0.2,0.9-0.2,1.5-0.6,2.2c-0.4,0.9-1.1,1.5-1.3,2c-0.6,1.3,0.2,1.7,0.4,2.8c0,1.3-1.5,0.9,0.2,2.4c-0.9,1.1-4.7,4.1-2.8,5.8
	c-0.6,0.4-1.1,0.6-1.7,1.1c0.4,0,1.1,0.6,1.5,0.7c-1.7,0.9-1.5,1.3-2,2.8c-0.6,1.1-1.9,2.2-2,3.3c0.4,0,0.9,0.4,1.3,0.4
	c-0.6,0.7-0.7,2.2-2,2.2c0,0.7,0.6,1.3,0.9,2c-0.9,0.6-0.7,1.5-0.7,2.4c0.2,0,0.4,0,0.7,0"/>
<path class="st2" d="M288.7,293.8c-0.2-0.6-0.6-0.7-0.4-1.3c2.6,0,2.4-1.1,1.9-2.6c-0.4-0.9-2.8-3.1-3.3-4.3
	c-0.4-0.7-1.1-1.7-1.9-2.2c0.6,0,1.3-0.6,1.9-0.6c-1.3-1.9-1.9-2.8-2.6-4.3c-0.2-0.6-0.2-1.7-0.6-2.4c-0.9-2-4.5-2.6-4.7-4.5
	c5.4-0.7-3.1-11.8,0.4-13.5c-0.2-2.2-0.6-4.5-1.3-5.8c-1.1-2-2.6,0.4-2.4-2.8c0.2-1.3,2-0.7,1.9-2.6c-0.6,0-1.1-0.2-1.7-0.2
	c1.7-3.3-0.9-4.3-3.3-5.8c4.7-0.9,0.2-5.6-1.1-7.3c0.6-2.6-2.8-4.9-3.8-7.5l-2.2,1.3c-0.2,2.8-3.1,4-3.5,6.4c0.6,0,1.1,0.2,1.7,0.2
	c0.9,3.5-2.4,4.5-4.9,5.8c6,4.3-6.7,7.1,0.4,11c-1.3,0.7-1.9,1.9-2.4,3c-0.4,0.7-0.4,2.8-0.7,3.5c0,0.2-1.5,1.5-1.7,2
	c-0.2,0.2-0.2,2.6-0.4,3.1c-0.7,2.4-2.8,2.4-3.8,4.5c-0.9,2,0.2,5.8-0.2,8.4c-0.4,2.6,0.4,6.7-3.5,6.9c0.6,0.6,1.1,2,2,2.8
	c-1.5,0.7-6.4,0.6-7.1,1.7c-0.7,0.9,0.4,1.1,0.4,1.9c0,2.4,2.6,4.7,4.3,6.2c-0.2,0.2-0.4,0.6-0.4,0.7"/>
<g>
	<g>
		<path class="st3" d="M203.2,380.2c0,1.5-0.4,2.6-1.1,3.5c-0.7,0.9-1.9,1.3-3.1,1.3c-3.5,0-7.8-18.1-13.1-54.3
			c-0.7-5.4-1.3-8.4-1.5-9.3c-1.9,12.5-3.1,23.5-4.1,32.7c-0.9,9.1-1.5,18.3-1.5,27.3c0,0.9-0.4,1.9-1.3,2.8
			c-0.9,0.7-1.9,1.1-2.8,1.1c-3.5,0-5.2-3.5-5.2-10.8c0-4.5-2-20.6-6-48.6c-4-27.8-6.5-43.2-7.7-45.8c1.3-2.2,3-3.3,5.2-3.3
			c2.2,0,4.3,4.9,6,14.8c1.9,9.9,3.3,21.7,4.7,35.7c1.3,14,2,21.1,2,21.3c0.2-1.3,0.6-5.2,1.5-12c0.7-6.7,1.5-12,1.9-16.1
			c1.5-12.3,2-20.9,2-26.2v-2.6c0-0.9,0.4-2,1.1-3s1.7-1.5,2.6-1.5c3.3,0,5.2,1.3,5.2,4.1v2c0,9.1,2.2,22.4,6.5,39.6
			c1.9,7.5,3.1,13.6,4.1,18.1c0.6-5.2,1.5-12.7,2.8-22.6c3-21.5,4.5-38.1,4.5-49.7c0-2,0.4-3.5,1.1-4.5c0.7-0.9,1.9-1.5,3.5-1.5
			c1.7,0,2.8,0.4,3.8,1.1c0.9,0.7,1.3,1.7,1.3,2.8c0,1.1-0.6,2.2-1.5,3.1c0,13.8-1.9,30.4-5.4,50.1
			C204.8,349.8,203.2,366.4,203.2,380.2z"/>
		<path class="st3" d="M254,340.5l-1.3,17.9v0.6c-0.6,2.6-0.9,5.4-0.9,8.6c0,3-0.6,6-1.7,8.8c-1.1,2.8-2.8,5.4-4.9,7.5
			c-2,2-4.7,3.3-7.3,3.3s-5.1-0.9-7.3-2.6c-2.2-1.7-4-4-5.4-6.7c-1.5-2.8-2.6-6-3.8-9.9c-1.1-3.8-1.9-7.5-2.4-11.2
			c-0.6-3.5-1.1-7.5-1.5-11.4c-0.6-6.2-0.7-10.8-0.7-14.2c0-3.3,0-6.4,0-8.8c0-2.4-0.2-4.7-0.2-6.5c0-0.9,0-2,0-3.1
			c0-1.1,0-2.4,0-3.8c0-2.8,0.2-5.2,0.2-7.3c0.2-2.2,0.4-4.5,0.6-7.1c0.4-2.4,0.7-4.7,1.1-6.7c0.6-1.9,1.1-3.8,1.9-5.6
			c0.9-1.9,1.9-3.3,2.8-4.7c2.4-2.6,5.1-4,8-4c3,0,5.6,0.6,7.8,1.7c2.2,1.1,4,2.8,5.4,5.2c1.5,2.4,2.8,4.7,4,6.9
			c1.1,2.2,2,5.4,2.6,9.5c0.6,4.1,1.1,7.3,1.5,9.7c0.4,2.6,0.6,6.2,0.7,10.8c0.2,6.4,0.4,11.2,0.4,14.8v8.2L254,340.5L254,340.5z
			 M241.1,288.5c-0.9-2.4-2.2-4.3-3.5-5.6c-1.5-1.3-2.8-2-4.3-2c-1.5,0-2.6,0.6-3.5,1.5c-0.9,0.9-1.7,2.4-2.2,4.1
			c-0.6,1.9-1.1,3.8-1.7,5.8c-0.6,2-0.9,4.3-1.1,7.1c-0.2,2.6-0.6,5.1-0.7,7.3c-0.2,2-0.2,4.5-0.4,7.1c-0.2,4.3-0.2,7.7-0.2,10.1
			v0.6c0,6.4,0.6,13.1,1.5,20.4c0.9,7.3,2,13.3,3,17.9c0.9,4.7,2.4,8.6,4.3,11.8c1.9,3.1,3.8,4.9,6,4.9c1.9,0,3.5-1.9,4.9-5.4
			c1.3-3.5,2.2-8,2.8-13.3c0.9-9.3,1.5-16.1,1.5-19.8c0-3.8,0-6.5,0-8.4c0-1.7-0.2-4.3-0.2-7.7c-0.2-3.3-0.4-6.5-0.6-9.3
			c-0.4-3-0.6-6.2-1.1-9.7c-0.4-3.5-1.1-6.7-1.7-9.5C243,293.6,242,290.9,241.1,288.5z"/>
		<path class="st3" d="M295.1,340.5l-1.3,17.9v0.6c-0.6,2.6-0.9,5.4-0.9,8.6c0,3-0.6,6-1.7,8.8c-1.1,2.8-2.8,5.4-4.9,7.5
			c-2.2,2.2-4.7,3.3-7.3,3.3c-2.6,0-5.1-0.9-7.3-2.6c-2.2-1.7-4-4-5.4-6.7c-1.5-2.8-2.6-6-3.8-9.9s-1.9-7.5-2.4-11.2
			c-0.6-3.5-1.1-7.5-1.5-11.4c-0.6-6.2-0.7-10.8-0.7-14.2c0-3.3,0-6.4,0-8.8c0-2.4-0.2-4.7-0.2-6.5c0-0.9,0-2,0-3.1
			c0-1.1,0-2.4,0-3.8c0-2.8,0.2-5.2,0.2-7.3c0.2-2.2,0.4-4.5,0.6-7.1c0.4-2.4,0.7-4.7,1.1-6.7c0.6-1.9,1.1-3.8,1.9-5.6
			c0.9-1.9,1.9-3.3,2.8-4.7c2.4-2.6,5.1-4,8-4c3,0,5.6,0.6,7.8,1.7c2.2,1.1,4,2.8,5.4,5.2c1.5,2.4,2.8,4.7,4,6.9
			c1.1,2.2,2,5.4,2.6,9.5c0.6,4.1,1.1,7.3,1.5,9.7c0.4,2.6,0.6,6.2,0.7,10.8c0.2,6.4,0.4,11.2,0.4,14.8v8.2L295.1,340.5L295.1,340.5
			z M282.4,288.5c-0.9-2.4-2.2-4.3-3.5-5.6c-1.5-1.3-2.8-2-4.3-2c-1.5,0-2.6,0.6-3.5,1.5c-0.9,0.9-1.7,2.4-2.2,4.1
			c-0.6,1.7-1.1,3.8-1.7,5.8c-0.6,2-0.9,4.3-1.1,7.1c-0.2,2.6-0.6,5.1-0.7,7.3c-0.2,2-0.2,4.5-0.4,7.1c-0.2,4.3-0.2,7.7-0.2,10.1
			v0.6c0,6.4,0.6,13.1,1.5,20.4c0.9,7.3,2,13.3,3,17.9c0.9,4.7,2.4,8.6,4.3,11.8c1.9,3.1,3.8,4.9,6,4.9c1.9,0,3.5-1.9,4.9-5.4
			c1.3-3.5,2.2-8,2.8-13.3c0.9-9.3,1.5-16.1,1.5-19.8c0-3.8,0-6.5,0-8.4c0-1.7-0.2-4.3-0.2-7.7c-0.2-3.3-0.4-6.5-0.6-9.3
			c-0.4-3-0.6-6.2-1.1-9.7c-0.4-3.5-1.1-6.7-1.7-9.5C284.2,293.6,283.3,290.9,282.4,288.5z"/>
		<path class="st3" d="M336.7,331.1l0.4,3c0,6.7-1.7,14.6-5.4,23.7c-4.1,10.4-9,17.7-14.8,22c-3.1,2.4-6.5,3.8-9.9,3.8
			c-1.9,0-3.3-0.4-4.9-1.1c-1.5-0.7-2.2-2-2.2-3.5c2-2.2,3.1-7.7,3.1-16.6c0-5.2-0.4-13.1-1.3-23.5s-1.3-18.1-1.3-23.3l0.4-15.5
			c0-2.4-0.6-5.8-1.5-10.1c-0.9-4.3-1.5-7.3-1.5-9c0-3.3,3.8-4.9,11-4.9h2.2c9.9,0,17,5.4,21.3,16.2c3.1,7.5,4.7,17.9,4.7,31.2v6.5
			C336.9,330.2,336.7,330.6,336.7,331.1z M310.2,361.8v13.6c3.5-2.2,6.7-5.6,9.5-9.7c2.6-4.1,4.7-8.6,6.2-13.5c2.6-9.3,4-18.7,4-28
			c0-10.6-1.3-19.1-4.1-25.4c-2.8-6.4-6.2-10.6-10.2-12.5c-2.6-1.3-5.4-1.9-8.6-1.9v0.2c0,8.6,0.6,21.3,1.7,38.5
			C309.7,340.3,310.2,353.2,310.2,361.8z"/>
		<path class="st3" d="M339.4,381.6c0-2.6,1.1-3.8,3.1-3.8c1.1,0,2.4,0.4,4.3,1.1c1.7,0.7,3.3,1.1,4.7,1.1c1.4,0,2.6-0.7,4.1-2.4
			c1.5-1.7,2.6-3.5,3.5-6c1.7-4.9,2.6-9.3,2.6-13.3c0-4-0.7-8.2-2-12.7c-1.5-4.5-3.1-8.8-5.2-12.7c-2-4-4.1-7.8-6.2-12
			c-4.9-9.5-7.3-18.1-7.3-25.7c0-7.3,2.2-13.1,7.1-17.4c2.6-2.2,5.6-3.3,9-3.3c1.7,0,3.3,0.6,5.1,1.5c1.7,0.9,2.8,2.2,3.5,3.8
			l-2.4,3c-2.4,0-4.3-0.4-5.6-1.3c-1.9,0.2-3.3,0.9-4.7,2.4c-2.4,2.8-3.5,6.2-3.5,10.1c0,4,0.6,7.8,1.5,11.6c1.1,3.8,2.2,7.1,4,10.1
			c1.5,3,3.1,6.2,5.1,9.7c1.9,3.5,3.5,6.9,5.1,10.1c3.5,7.5,5.4,15.5,5.4,24.3c0,6.2-1.5,12-4.7,17.5c-1.5,2.6-3.5,4.9-6.2,6.5
			c-2.6,1.7-5.6,2.6-8.8,2.6c-3.5,0-6.2-0.6-8.2-1.5S339.4,382.7,339.4,381.6z"/>
	</g>
</g>
<path class="st4" d="M309.1,392c1.1-0.4,1.5-1.3,1.3-2.6c0.4,0,0.7-0.4,0.9-0.6c-0.6-0.2-0.4-0.6-1.1-0.4c0.6-1.5,1.1-2.4,2.6-2.6
	c0-1.5,0.6-3,0.2-4.5c-0.6-3-0.6-1.9,2.2-4.3c-0.6-0.4-0.6-1.1,0.2-1.5c-0.2-1.5,1.7-1.9,1.3-3.5c-0.4,0-0.9-0.6-1.3-0.6
	c1.7-1.5,0.2-1.9,0.2-3c0-1.5,1.5-2,2.6-2.6c-0.4-0.2-0.9-0.7-1.3-0.7c0.6-0.6,0.9-1.1,1.3-1.7c0.2-0.4,0.6-0.6,0.7-0.9
	c0.2-0.2-0.2-0.7,0-0.9c0.6-0.9,3-2.6,0.6-3c0.4-0.6,0.4-1.1,0.7-1.5c0.2-0.4,1.1-1.1,1.3-1.5c0.4-1.3-0.9-2.4-1.9-2.8
	c1.1-0.7,1.9-1.1,2.4-2c0.4-0.4,0.6-1.1,0.7-1.5c0.6-1.1,0.6-2.4,1.7-3.8l0.2,0.4c0,2,2.8,2.2,2.4,4.1c-0.4,0-0.9,0.2-1.3,0
	c0,0.7,1.1,2.6,1.5,3.3c0.6,0.7,2,1.7,1.9,2.6c0,0.7-1.1,0.9-1.1,1.7c0,0.4,0.7,0.9,0.9,1.3c0.6,0.9,0.9,2.2,0.9,3.3
	c0.2,0.9,0.2,1.5,0.6,2.2c0.4,0.9,1.1,1.5,1.3,2c0.4,1.3-0.2,1.5-0.4,2.8c0,1.3,1.5,0.7-0.2,2.4c0.9,1.1,4.7,4.1,2.8,5.8
	c0.4,0.4,1.1,0.6,1.7,1.1c-0.4,0-1.1,0.6-1.5,0.7c1.7,0.9,1.3,1.3,2,2.8c0.4,1.1,1.9,2.2,2,3.3c-0.4,0-0.9,0.4-1.3,0.4
	c0.6,0.7,0.7,2.2,2,2.2c0,0.7-0.6,1.3-0.9,2c0.9,0.6,0.7,1.5,0.7,2.4c-0.2,0-0.4,0-0.6,0"/>
<path class="st2" d="M173.1,159.5c-0.2-0.4-0.4-0.6-0.4-0.9c1.9,0,1.7-0.7,1.3-1.9c-0.2-0.7-1.9-2.2-2.2-3c-0.4-0.6-0.7-1.3-1.3-1.5
	c0.4,0,0.9-0.4,1.3-0.4c-0.9-1.3-1.3-1.9-1.9-3c-0.2-0.4-0.2-1.1-0.4-1.7c-0.7-1.5-3.1-1.9-3.3-3.1c3.8-0.6-2.2-8.2,0.2-9.5
	c-0.2-1.5-0.4-3.1-0.9-4.1c-0.7-1.5-1.9,0.2-1.7-2c0-0.9,1.5-0.6,1.3-1.9c-0.4,0-0.7,0-1.1-0.2c1.1-2.4-0.6-3-2.2-4.1
	c3.1-0.7,0.2-4-0.7-5.2c0.4-1.9-2-3.3-2.6-5.2l-1.7,0.9c0,1.9-2.2,2.8-2.6,4.5c0.4,0,0.7,0,1.1,0c0.7,2.4-1.7,3.1-3.3,4.1
	c4.3,3-4.7,5.1,0.4,7.8c-0.9,0.6-1.3,1.3-1.7,2c-0.2,0.6-0.4,1.9-0.4,2.4c0,0.2-0.9,1.1-1.1,1.5c0,0.2-0.2,1.9-0.2,2.2
	c-0.6,1.7-1.9,1.7-2.6,3.1c-0.7,1.3,0.2,4.1,0,6c-0.4,1.9,0.2,4.9-2.4,4.9c0.4,0.4,0.7,1.5,1.3,1.9c-1.1,0.6-4.5,0.4-5.1,1.1
	s0.2,0.7,0.2,1.3c0,1.7,1.9,3.3,3,4.3c0,0.2-0.2,0.4-0.4,0.6"/>
<path class="st1" d="M146.8,193.6c1.1,0,2.2,0,3.3-0.6c-0.2-1.1,0.6-3.8-0.6-4.3c0.6-0.7,0.9-1.7,0.2-2.4c0.4,0,2-1.9,2-2.4
	c0-0.4-1.1-0.7-1.3-1.1c-0.4-0.6-0.4-1.3-0.7-1.9c0.7-0.9,4.5-2.2,2.6-4c1.7-0.4,0.7-2.8,1.1-4c0.6-1.5,2.2-3.8,0.7-5.4
	c0.7-0.6,1.7-1.3,2.4-1.7c1.1-0.7,1.3,0.2,1.5-1.5c0-1.3-2.8-4.1-0.2-4.1c0.2-0.7,0.2-1.7,0.2-2.2c0,0,0.6-0.9,0.6-1.1
	s-0.6-0.4-0.4-0.7c0.2-0.4,0.7-0.6,0.7-0.7c0.7-1.7,3.3-3.1,3-5.4l0.4,0.2c0.6,0.6,1.5,1.3,1.7,2.2c0.2,0.7-0.4,1.3,0,2
	c0.2,0.7,1.1,0.7,1.3,1.5c0,0.4-0.2,0.7-0.2,0.9c0,0.2-0.6,0.4-0.6,0.9c0.2,0.9,2,1.7,2.8,2c-0.6,0.7-0.7,3.5-0.6,4.3
	c0.4,1.1,1.7,1.5,2,2.4c0,0,0.2,1.9,0.2,2c0.2,1.5,0.2,3.1,0.7,4.7c0.4,0.9,1.5,1.7,0.9,2.6c0.7,0.7,2.2,1.7,0.7,2.6
	c0.9,0.6,2,2,0.9,3c1.1,1.1,0.7,2.2,0.9,3.5c0.2,1.5,0.9,2.8,1.9,4c-0.2,0.2-0.4,0.4-0.6,0.4c1.9,1.3,0.7,5.1,3.1,5.6"/>
<path class="st1" d="M127.5,223.1c-0.2,0.2-0.2,0.2-0.4,0.2c-0.2-0.4,0-0.9,0-1.3c0.6,0,0.9-0.4,1.3-0.6c-2-1.7-1.3-2,0-3.5
	c-0.7-0.4-0.9-0.9-0.9-1.7c2-0.4,0.4-1.1,0.7-1.7c0.6-1.1,2.6-1.1,2.8-2.4c-0.6-0.2-1.3-0.4-1.9-0.7c0.2-1.1,2-0.7,2.8-1.5
	c-1.3-0.7-2.4-1.1-2-2.8c-0.4-0.2-0.7-0.6-0.9-0.7c2.4-0.7,3.8-2.4,3-5.1c0.9-0.4,1.9-0.9,2-1.9c-0.2,0-0.6,0-0.9,0
	c0.6-0.6,0.4-1.3,0.7-1.9c0.6-0.7,1.3-1.1,2-1.7c-0.4-0.4-1.3-0.7-1.5-1.3c0-0.4,0.4-0.4,0.4-0.6c-0.2-0.7,0.7-1.1-0.4-1.7
	c0.6-0.2,0.7-0.7,1.1-0.9c-2-1.3,3.5-2,1.1-4.3c0.7-0.4,1.7-0.6,1.9-1.3c-0.6,0-1.1-0.4-1.5-0.6c1.1-1.1,1.7-2.8,2.8-4
	c-0.2,0-0.4-0.4-0.7-0.6c0.4-1.3,0.9-2.4,0.9-4c1.1-0.4,2.2-1.1,3.1-1.7c-2-0.4,0.4-2.8-0.9-4c0.6-0.4,0.9-0.6,0.9-1.3
	c-0.6-0.2-0.7-0.6-1.1-0.9c2-1.1,0.7-4.3,3.5-5.1l0.4,0.7c0.4,1.1,1.5,1.7,1.7,3c-2,0.4,0.2,2.4,0.9,3.1c-2.8,0.4-0.6,1.9,0,3
	c0.4,0.6,0.4,1.7,0.7,2.2c0.6,1.1,0.7,1.5,1.9,2.4c-0.4,0.7-1.1,0.9-1.7,1.3c0.4,0.7,1.3,1.1,1.7,1.7c0.2,0.4-0.4,0.7-0.2,0.9
	c0.2,0.6,0.4,1.5,0.7,2c1.1,1.9,1.7,3.8,3.3,5.4c-0.6,0.7-0.2,1.5,0.2,2.2c-1.5,0.7,0.2,1.5,0.6,2.4c0.4,1.1-0.9,1.9-0.7,2.6
	c0.2,0.6,1.9,0.4,2,1.5c0.2,0.7-0.7,1.1-0.7,1.9c0,0.6,0.9,0.9,1.1,1.3c0.2,0.4-0.2,0.7,0,1.1c0.2,0.7,0.4,1.3,0.7,2
	c0.4,0.9,0.2,1.9,0.6,2.8c0.2,0.6,0.9,0.6,1.1,1.1c0.2,0.4,0.2,0.9,0.2,1.3c-0.2,0-0.2,0-0.4,0c-0.2,0.7,0.6,2.2,0.9,2.8
	s1.5,1.5,0.9,2.2c0.6,1.1,1.3,1.9,2,3c-3,0,0.6,2.8-0.4,4.3"/>
<path class="st2" d="M179.8,238.8c-0.2-0.4-0.4-0.6-0.4-1.1c2.2,0,2-0.9,1.7-2.4c-0.2-0.9-2.4-2.8-2.8-3.8c-0.4-0.7-0.9-1.5-1.7-1.9
	c0.6,0,1.1-0.4,1.7-0.6c-1.1-1.5-1.7-2.4-2.2-3.8c-0.2-0.6-0.2-1.5-0.4-2.2c-0.9-1.9-4-2.4-4.1-4c4.7-0.6-2.8-10.2,0.4-11.8
	c-0.2-1.9-0.6-4-1.1-5.1c-0.9-1.9-2.2,0.4-2-2.4c0-1.3,1.9-0.7,1.5-2.2c-0.4,0-0.9-0.2-1.5-0.2c1.5-3-0.7-3.8-2.8-5.1
	c4-0.7,0.2-4.9-0.9-6.4c0.4-2.2-2.4-4.3-3.3-6.5l-2,1.1c0,2.4-2.8,3.3-3.1,5.6c0.4,0,1.1,0.2,1.5,0c0.9,3-2,4-4.3,5.1
	c5.2,3.8-6,6.4,0.4,9.7c-1.1,0.7-1.7,1.7-2,2.6c-0.4,0.7-0.4,2.4-0.6,3.1c0,0.2-1.3,1.3-1.5,1.9c-0.2,0.2-0.2,2.2-0.4,2.8
	c-0.6,2.2-2.4,2-3.3,4c-0.7,1.7,0.2,5.1-0.2,7.3c-0.4,2.4,0.4,6-3.1,6c0.6,0.6,0.9,1.9,1.7,2.4c-1.3,0.6-5.6,0.4-6.2,1.5
	c-0.6,0.9,0.4,0.9,0.4,1.7c0,2,2.2,4.1,3.8,5.4c-0.2,0.2-0.2,0.4-0.4,0.7"/>
<path class="st1" d="M146.2,263.9c-0.6-2.6,1.9-4.7,0-6.9c2.4-0.7,0.9-3,1.5-4.7c0.4-0.9,1.3-1.3,1.7-2c0.4-0.7-0.2-2,0.2-2.6
	c1.1-1.9,2.8-0.7,2.8-3.5c0-0.7,0-1.5-0.2-2c-0.2-0.6-1.7-0.9-1.5-1.9c0.2-1.1,2-0.7,2.4-1.5c0.4-0.6-0.2-1.5,0-2
	c0.6-1.9,1.9-3.3,2.4-5.1c0.6-1.3,0.6-3.5,1.1-4.9c0.7-1.5,2.6-2.4,3.3-4.1c0.2,1.5,1.5,2.2,2,3.5c0.4,0.7-0.4,1.1-0.2,1.9
	c0.2,0.7,0.7,0.7,0.9,1.9c0,0.9-0.7,1.9-0.6,2.8c0.2,0.6,0.7,0.9,0.9,1.5c0.2,0.9,0,1.7,0.2,2.6c0.2,1.3,0.6,3.3,1.3,4.5
	c1.1,1.9,2.4,2.8,3.1,4.9c0.4,1.1,0.4,2.6,0.6,4c0.6,2.8,0.2,6.4,2,9.1c-1.9,1.5-0.2,4,1.3,4.9"/>
<path class="st4" d="M296.6,397.8c0.7-0.4,0.9-0.9,0.9-1.7c0.2,0,0.4-0.2,0.6-0.4c-0.4-0.2-0.2-0.4-0.7-0.2c0.4-0.9,0.7-1.5,1.7-1.5
	c0-0.9,0.4-1.9,0.2-2.8c-0.4-1.9-0.4-1.1,1.3-2.6c-0.4-0.2-0.4-0.7,0.2-0.9c-0.2-0.9,1.1-1.1,0.9-2.2c-0.4,0-0.6-0.4-0.7-0.4
	c0.9-0.9,0.2-1.1,0.2-1.9c0-0.9,0.9-1.3,1.7-1.7c-0.2,0-0.6-0.4-0.7-0.6c0.4-0.4,0.6-0.7,0.7-0.9c0.2-0.2,0.4-0.4,0.6-0.6
	c0-0.2,0-0.4,0-0.6c0.4-0.6,1.9-1.7,0.4-1.9c0.2-0.4,0.4-0.7,0.4-0.9c0.2-0.2,0.7-0.7,0.7-0.9c0.2-0.7-0.6-1.5-1.1-1.9
	c0.7-0.4,1.1-0.7,1.5-1.3c0.2-0.2,0.4-0.7,0.6-0.9c0.4-0.7,0.4-1.5,1.1-2.2l0.2,0.4c0,1.3,1.7,1.5,1.5,2.4c-0.2,0-0.6,0.2-0.7,0
	c0,0.4,0.7,1.7,0.9,2c0.4,0.6,1.3,0.9,1.1,1.7c0,0.4-0.7,0.6-0.7,0.9c0,0.2,0.4,0.6,0.6,0.9c0.4,0.6,0.6,1.3,0.6,2
	c0,0.6,0.2,0.9,0.4,1.3c0.2,0.6,0.6,0.9,0.7,1.3c0.4,0.7-0.2,0.9-0.2,1.7s0.9,0.6-0.2,1.5c0.6,0.7,2.8,2.6,1.7,3.5
	c0.4,0.2,0.7,0.4,0.9,0.7c-0.2,0-0.7,0.4-0.9,0.4c1.1,0.6,0.9,0.7,1.3,1.7c0.4,0.7,1.1,1.3,1.3,2c-0.2,0-0.6,0.2-0.7,0.2
	c0.4,0.6,0.4,1.3,1.3,1.5c0,0.6-0.4,0.7-0.6,1.3c0.6,0.4,0.6,0.9,0.4,1.5c-0.2,0-0.2,0-0.4,0"/>
<path class="st1" d="M194.2,390.7c-0.6-2,1.3-3.5,0-5.2c1.9-0.6,0.7-2.2,1.1-3.5c0.2-0.7,0.9-0.9,1.3-1.5c0.2-0.6-0.2-1.5,0.2-2
	c0.7-1.5,2-0.6,2-2.8c0-0.6,0-1.1,0-1.5c-0.2-0.4-1.3-0.7-1.1-1.3c0.2-0.7,1.5-0.6,1.9-1.1c0.2-0.4-0.2-1.1,0-1.5
	c0.4-1.3,1.3-2.4,1.9-4c0.4-1.1,0.4-2.8,0.9-3.8c0.6-1.1,1.9-1.9,2.4-3c0,1.1,1.1,1.7,1.5,2.6c0.2,0.6-0.2,0.9-0.2,1.3
	c0.2,0.6,0.6,0.6,0.7,1.5c0,0.7-0.6,1.3-0.4,2c0,0.6,0.6,0.7,0.7,1.1c0.2,0.6,0,1.3,0.2,1.9c0.2,0.9,0.6,2.4,1.1,3.3
	c0.9,1.3,1.9,2.2,2.4,3.8c0.4,0.9,0.2,2,0.4,3c0.6,2.2,0.2,4.9,1.5,6.9c-1.5,1.1-0.2,3,0.9,3.8"/>
<path class="st2" d="M218.3,393.3c-0.2-0.2-0.2-0.2-0.2-0.6c0.9,0,0.9-0.4,0.7-0.9c-0.2-0.4-0.9-1.1-1.3-1.5
	c-0.2-0.4-0.4-0.6-0.7-0.7c0.2,0,0.4-0.2,0.7-0.2c-0.6-0.7-0.7-0.9-0.9-1.5c-0.2-0.2,0-0.6-0.2-0.9c-0.4-0.7-1.7-0.9-1.7-1.7
	c2-0.2-1.1-4.3,0.2-5.1c0-0.7-0.2-1.7-0.6-2.2c-0.4-0.7-0.9,0.2-0.9-1.1c0-0.6,0.7-0.4,0.7-0.9c-0.2,0-0.4,0-0.6,0
	c0.6-1.3-0.4-1.5-1.1-2c1.7-0.4,0-2-0.4-2.6c0.2-0.9-1.1-1.9-1.5-2.8l-0.9,0.6c0,1.1-1.1,1.5-1.3,2.4c0.2,0,0.4,0,0.6,0
	c0.4,1.3-0.9,1.7-1.9,2.2c2.2,1.5-2.4,2.6,0.2,4.1c-0.6,0.4-0.7,0.7-0.9,1.1c-0.2,0.2-0.2,0.9-0.2,1.3c0,0.2-0.6,0.6-0.6,0.7
	s0,0.9-0.2,1.1c-0.2,0.9-0.9,0.9-1.3,1.7c-0.4,0.7,0.2,2.2,0,3.1s0.2,2.4-1.3,2.6c0.2,0.2,0.4,0.7,0.7,0.9c-0.6,0.2-2.4,0.2-2.6,0.6
	s0.2,0.4,0.2,0.7c0,0.9,0.9,1.7,1.5,2.2c0,0.2-0.2,0.2-0.2,0.4"/>
<path class="st1" d="M156.3,374.7c-0.2-0.4-0.4-0.6-0.4-0.9c1.9,0,1.9-0.7,1.5-2c-0.2-0.7-2-2.2-2.4-3.1c-0.4-0.6-0.7-1.3-1.3-1.7
	c0.4,0,0.9-0.4,1.3-0.6c-1.1-1.3-1.5-2-1.9-3.1c-0.2-0.4-0.2-1.3-0.4-1.9c-0.7-1.5-3.3-2-3.5-3.3c4-0.6-2.4-8.8,0.2-9.9
	c-0.2-1.7-0.4-3.3-0.9-4.3c-0.9-1.5-1.9,0.2-1.7-2c0-1.1,1.5-0.6,1.3-2c-0.4,0-0.7,0-1.1-0.2c1.1-2.4-0.6-3.1-2.4-4.3
	c3.3-0.7,0.2-4.1-0.9-5.4c0.4-1.9-2-3.5-2.8-5.4l-1.7,0.9c0,2-2.4,2.8-2.6,4.7c0.4,0,0.9,0,1.3,0c0.7,2.6-1.9,3.3-3.5,4.3
	c4.5,3.1-5.1,5.4,0.4,8.2c-0.9,0.6-1.3,1.3-1.7,2.2c-0.2,0.6-0.4,2-0.6,2.6c0,0.2-1.1,1.1-1.3,1.5c0,0.2-0.2,1.9-0.2,2.4
	c-0.6,1.9-2,1.9-2.8,3.3c-0.7,1.5,0.2,4.3,0,6.2c-0.4,2,0.2,5.1-2.6,5.1c0.4,0.4,0.9,1.5,1.5,2c-1.1,0.6-4.7,0.4-5.2,1.3
	c-0.6,0.7,0.2,0.7,0.2,1.5c0,1.7,1.9,3.5,3.1,4.5c0,0.2-0.2,0.4-0.4,0.6"/>
<path class="st2" d="M316,234.7c-0.2-0.2-0.2-0.4-0.2-0.6c1.3,0,1.1-0.6,0.9-1.3c-0.2-0.6-1.3-1.5-1.7-2c-0.2-0.4-0.6-0.9-0.9-1.1
	c0.4,0,0.6-0.2,0.9-0.4c-0.7-0.9-0.9-1.3-1.3-2c-0.2-0.4,0-0.9-0.2-1.3c-0.6-0.9-2.2-1.3-2.4-2.2c2.6-0.4-1.5-5.8,0.2-6.7
	c0-1.1-0.4-2.2-0.7-3c-0.6-1.1-1.3,0.2-1.1-1.3c0-0.7,1.1-0.4,0.9-1.3c-0.2,0-0.6,0-0.7,0c0.7-1.7-0.4-2-1.7-2.8
	c2.2-0.6,0.2-2.8-0.6-3.5c0.2-1.3-1.5-2.4-1.9-3.8l-1.1,0.7c0,1.3-1.7,1.9-1.9,3.1c0.2,0,0.6,0,0.9,0c0.6,1.7-1.1,2.2-2.4,2.8
	c3,2-3.3,3.5,0.2,5.4c-0.6,0.4-0.9,0.9-1.1,1.5c-0.2,0.4-0.2,1.3-0.4,1.9c0,0.2-0.7,0.7-0.7,1.1c0,0.2,0,1.3-0.2,1.7
	c-0.4,1.3-1.3,1.1-1.9,2.2c-0.6,0.9,0.2,2.8,0,4.1c-0.2,1.3,0.2,3.3-1.7,3.3c0.4,0.2,0.6,1.1,0.9,1.3c-0.7,0.4-3.1,0.2-3.5,0.7
	c-0.4,0.6,0.2,0.6,0.2,0.9c0,1.1,1.3,2.2,2,3c0,0.2-0.2,0.2-0.2,0.4"/>
<path class="st2" d="M323.6,220.5c-0.2-0.4-0.4-0.6-0.4-0.9c1.9,0,1.7-0.7,1.3-1.9c-0.2-0.7-1.9-2.2-2.2-3c-0.4-0.6-0.7-1.3-1.3-1.5
	c0.4,0,0.9-0.4,1.3-0.4c-0.9-1.3-1.3-1.9-1.9-3c-0.2-0.4-0.2-1.1-0.4-1.7c-0.7-1.5-3.1-1.9-3.3-3.1c3.8-0.6-2.2-8.2,0.2-9.5
	c-0.2-1.5-0.4-3.1-0.9-4.1c-0.7-1.5-1.9,0.2-1.7-2c0-0.9,1.5-0.6,1.3-1.9c-0.4,0-0.7,0-1.1-0.2c1.1-2.4-0.6-3-2.2-4.1
	c3.1-0.7,0.2-4-0.7-5.2c0.4-1.9-2-3.3-2.6-5.2l-1.7,0.9c0,1.9-2.2,2.8-2.6,4.5c0.4,0,0.7,0,1.1,0c0.7,2.4-1.7,3.1-3.3,4.1
	c4.3,3-4.7,5.1,0.4,7.8c-0.9,0.6-1.3,1.3-1.7,2c-0.2,0.6-0.4,1.9-0.4,2.4c0,0.2-0.9,1.1-1.1,1.5c0,0.2-0.2,1.9-0.2,2.2
	c-0.6,1.7-1.9,1.7-2.6,3.1c-0.7,1.3,0.2,4.1,0,6c-0.4,1.9,0.2,4.9-2.4,4.9c0.4,0.4,0.7,1.5,1.3,1.9c-1.1,0.6-4.5,0.4-5.1,1.1
	c-0.6,0.7,0.2,0.7,0.2,1.3c0,1.7,1.9,3.3,3,4.3c0,0.2-0.2,0.4-0.4,0.6"/>
<path class="st1" d="M330.5,210c0.2-1.1-0.6-3.8,0.6-4.3c-0.6-0.7-0.9-1.7-0.2-2.4c-0.4,0-2-1.9-2-2.4c0-0.4,1.1-0.7,1.3-1.1
	c0.4-0.6,0.4-1.3,0.7-1.9c-0.7-0.9-4.5-2.2-2.6-4c-1.7-0.4-0.7-2.8-1.1-4c-0.6-1.5-2.2-3.8-0.7-5.4c-0.7-0.6-1.7-1.3-2.4-1.7
	c-1.1-0.7-1.3,0.2-1.5-1.5c0-1.3,2.8-4.1,0.2-4.1c-0.2-0.7-0.2-1.7-0.2-2.2c0,0-0.6-0.9-0.6-1.1s0.6-0.4,0.4-0.7s-0.7-0.6-0.7-0.7
	c-0.7-1.7-3.3-3.1-3-5.4l-0.4,0.2c-0.6,0.6-1.5,1.3-1.7,2.2c-0.2,0.7,0.4,1.3,0,2c-0.2,0.7-1.1,0.7-1.3,1.5c0,0.4,0.2,0.7,0.2,0.9
	s0.6,0.4,0.6,0.9c-0.2,0.9-2,1.7-2.8,2c0.6,0.7,0.7,3.5,0.6,4.3c-0.4,1.1-1.7,1.5-2,2.4c0,0-0.2,1.9-0.2,2c-0.2,1.5-0.2,3.1-0.7,4.7
	c-0.4,0.9-1.5,1.7-0.9,2.6c-0.7,0.7-2.2,1.7-0.7,2.6c-0.9,0.6-2,2-0.9,3c-1.1,1.1-0.7,2.2-0.9,3.5c-0.2,1.5-0.9,2.8-1.9,4
	c0.2,0.2,0.4,0.4,0.6,0.4c-1.9,1.3-0.7,5.1-3.1,5.6"/>
<path class="st2" d="M328.7,216.2c-0.2-0.2-0.2-0.2-0.2-0.6c0.9,0,0.9-0.4,0.7-0.9c-0.2-0.4-0.9-1.1-1.3-1.5
	c-0.2-0.4-0.4-0.6-0.7-0.7c0.2,0,0.4-0.2,0.7-0.2c-0.6-0.7-0.7-0.9-0.9-1.5c-0.2-0.2,0-0.6-0.2-0.9c-0.4-0.7-1.7-0.9-1.7-1.7
	c2-0.2-1.1-4.3,0.2-5.1c0-0.7-0.2-1.7-0.6-2.2c-0.4-0.7-0.9,0.2-0.9-1.1c0-0.6,0.7-0.4,0.7-0.9c-0.2,0-0.4,0-0.6,0
	c0.6-1.3-0.4-1.5-1.1-2c1.7-0.4,0-2-0.4-2.6c0.2-0.9-1.1-1.7-1.5-2.8l-0.9,0.6c0,1.1-1.1,1.5-1.3,2.4c0.2,0,0.4,0,0.6,0
	c0.4,1.3-0.9,1.7-1.9,2.2c2.2,1.5-2.4,2.6,0.2,4.1c-0.6,0.4-0.7,0.7-0.9,1.1c-0.2,0.2-0.2,0.9-0.2,1.3c0,0.2-0.6,0.6-0.6,0.7
	s0,0.9-0.2,1.1c-0.2,0.9-0.9,0.9-1.3,1.7s0.2,2.2,0,3.1c-0.2,0.9,0.2,2.4-1.3,2.6c0.2,0.2,0.4,0.7,0.7,0.9c-0.6,0.2-2.4,0.2-2.6,0.6
	c-0.2,0.4,0.2,0.4,0.2,0.7c0,0.9,0.9,1.7,1.5,2.2c0,0.2-0.2,0.2-0.2,0.4"/>
<path class="st2" d="M159.1,392.6c-0.2-0.4-0.4-0.6-0.4-0.9c1.9,0,1.9-0.7,1.5-2c-0.2-0.7-2-2.2-2.4-3.1c-0.4-0.6-0.7-1.3-1.3-1.7
	c0.4,0,0.9-0.4,1.3-0.6c-1.1-1.3-1.5-2-1.9-3.1c-0.2-0.4-0.2-1.3-0.4-1.9c-0.7-1.5-3.3-2-3.5-3.3c4-0.6-2.4-8.8,0.2-9.9
	c-0.2-1.7-0.4-3.3-0.9-4.3c-0.9-1.5-1.9,0.2-1.7-2c0-1.1,1.5-0.6,1.3-2c-0.4,0-0.7,0-1.1-0.2c1.1-2.4-0.6-3.1-2.4-4.3
	c3.3-0.7,0.2-4.1-0.9-5.4c0.4-1.9-2-3.5-2.8-5.4l-1.7,0.9c0,2-2.4,2.8-2.6,4.7c0.4,0,0.9,0,1.3,0c0.7,2.6-1.9,3.3-3.5,4.3
	c4.5,3.1-5.1,5.4,0.4,8.2c-0.9,0.6-1.3,1.3-1.7,2.2c-0.2,0.6-0.4,2-0.6,2.6c0,0.2-1.1,1.1-1.3,1.5c0,0.2-0.2,1.9-0.2,2.4
	c-0.6,1.9-2,1.9-2.8,3.3s0.2,4.3,0,6.2c-0.4,2,0.2,5.1-2.6,5.1c0.4,0.4,0.9,1.5,1.5,2c-1.1,0.6-4.7,0.4-5.2,1.3
	c-0.6,0.7,0.2,0.7,0.2,1.5c0,1.7,1.9,3.5,3.1,4.5c0,0.2-0.2,0.4-0.4,0.6"/>
<path class="st2" d="M163.4,375.4c-0.2-0.2-0.2-0.2-0.2-0.6c0.9,0,0.9-0.4,0.7-1.1c-0.2-0.4-1.1-1.1-1.3-1.7
	c-0.2-0.4-0.4-0.7-0.7-0.7c0.2,0,0.6-0.2,0.7-0.2c-0.6-0.7-0.7-1.1-0.9-1.7c-0.2-0.2,0-0.7-0.2-0.9c-0.4-0.7-1.7-1.1-1.9-1.7
	c2-0.2-1.1-4.5,0.2-5.2c0-0.9-0.2-1.7-0.6-2.2c-0.4-0.7-0.9,0.2-0.9-1.1c0-0.6,0.7-0.4,0.7-0.9c-0.2,0-0.4,0-0.6,0
	c0.6-1.3-0.4-1.7-1.3-2.2c1.7-0.4,0-2.2-0.4-2.8c0.2-0.9-1.1-1.9-1.5-2.8l-0.9,0.6c0,1.1-1.3,1.5-1.3,2.4c0.2,0,0.4,0,0.6,0
	c0.4,1.3-0.9,1.7-1.9,2.2c2.2,1.7-2.6,2.8,0.2,4.3c-0.6,0.4-0.7,0.7-0.9,1.1c-0.2,0.4-0.2,1.1-0.2,1.3s-0.6,0.6-0.6,0.7
	s0,0.9-0.2,1.3c-0.2,0.9-1.1,0.9-1.5,1.7c-0.4,0.7,0.2,2.2,0,3.1c-0.2,1.1,0.2,2.6-1.3,2.6c0.2,0.2,0.4,0.7,0.7,1.1
	c-0.6,0.2-2.4,0.2-2.8,0.6c-0.2,0.4,0.2,0.4,0.2,0.7c0,0.9,0.9,1.9,1.7,2.4c0,0.2-0.2,0.2-0.2,0.4"/>
<path class="st1" d="M194.4,251.4c-1.1-0.4-1.5-1.3-1.3-2.6c-0.4,0-0.7-0.4-0.9-0.6c0.6-0.2,0.4-0.6,1.1-0.4
	c-0.6-1.5-1.1-2.4-2.6-2.6c0-1.5-0.6-3-0.2-4.5c0.6-3,0.6-1.9-2.2-4.3c0.6-0.4,0.6-1.1-0.2-1.5c0.2-1.5-1.7-1.9-1.3-3.5
	c0.4,0,0.9-0.6,1.3-0.6c-1.7-1.5-0.2-1.9-0.2-3c0-1.5-1.5-2-2.6-2.6c0.4-0.2,0.9-0.7,1.3-0.7c-0.6-0.6-0.9-1.1-1.3-1.7
	c-0.2-0.4-0.6-0.6-0.7-0.9c-0.2-0.2,0.2-0.7,0-0.9c-0.6-0.9-3-2.6-0.6-3c-0.4-0.6-0.4-1.1-0.7-1.5c-0.2-0.4-1.1-1.1-1.3-1.5
	c-0.4-1.3,0.9-2.4,1.9-2.8c-1.1-0.7-1.9-1.1-2.4-2c-0.4-0.4-0.7-1.1-0.7-1.5c-0.6-1.1-0.6-2.4-1.7-3.8l-0.2,0.4c0,2-2.8,2.2-2.4,4.1
	c0.4,0,0.9,0.2,1.3,0c0,0.7-1.1,2.6-1.5,3.3c-0.6,0.7-2,1.7-1.9,2.6c0,0.7,1.1,0.9,1.1,1.7c0,0.4-0.7,0.9-0.9,1.3
	c-0.6,0.9-0.9,2.2-0.9,3.3c-0.2,0.9-0.2,1.5-0.6,2.2c-0.4,0.9-1.1,1.5-1.3,2c-0.4,1.3,0.2,1.5,0.4,2.8c0,1.3-1.5,0.7,0.2,2.4
	c-0.9,1.1-4.7,4.1-2.8,5.8c-0.4,0.4-1.1,0.6-1.7,1.1c0.4,0,1.1,0.6,1.5,0.7c-1.7,0.9-1.3,1.3-2,2.8c-0.4,1.1-1.9,2.2-2,3.3
	c0.4,0,0.9,0.4,1.3,0.4c-0.6,0.7-0.7,2.2-2,2.2c0,0.7,0.6,1.3,0.9,2c-0.9,0.6-0.7,1.5-0.7,2.4c0.2,0,0.4,0,0.6,0"/>
<path class="st2" d="M191.2,255.1c-0.2-0.2-0.2-0.2-0.2-0.6c0.9,0,0.9-0.4,0.7-0.9c-0.2-0.4-0.9-1.1-1.3-1.5
	c-0.2-0.4-0.4-0.6-0.7-0.7c0.2,0,0.4-0.2,0.7-0.2c-0.6-0.7-0.7-0.9-0.9-1.5c-0.2-0.2,0-0.6-0.2-0.9c-0.4-0.7-1.7-0.9-1.7-1.7
	c2-0.2-1.1-4.3,0.2-5.1c0-0.7-0.2-1.7-0.6-2.2c-0.4-0.7-0.9,0.2-0.9-1.1c0-0.6,0.7-0.4,0.7-0.9c-0.2,0-0.4,0-0.6,0
	c0.6-1.3-0.4-1.5-1.1-2c1.7-0.4,0-2-0.4-2.6c0.2-0.9-1.1-1.7-1.5-2.8l-0.9,0.6c0,1.1-1.1,1.5-1.3,2.4c0.2,0,0.4,0,0.6,0
	c0.4,1.3-0.9,1.7-1.9,2.2c2.2,1.5-2.4,2.6,0.2,4.1c-0.6,0.4-0.7,0.7-0.9,1.1c-0.2,0.2-0.2,0.9-0.2,1.3c0,0.2-0.6,0.6-0.6,0.7
	s0,0.9-0.2,1.1c-0.2,0.9-0.9,0.9-1.3,1.7c-0.4,0.7,0.2,2.2,0,3.1c-0.2,0.9,0.2,2.4-1.3,2.6c0.2,0.2,0.4,0.7,0.7,0.9
	c-0.6,0.2-2.4,0.2-2.6,0.6c-0.2,0.4,0.2,0.4,0.2,0.7c0,0.9,0.9,1.7,1.5,2.2c0,0.2-0.2,0.2-0.2,0.4"/>
<path class="st1" d="M292.6,263.9c-0.7-3,2-5.2,0-7.5c2.6-0.7,0.9-3.3,1.7-5.1c0.4-0.9,1.5-1.3,1.9-2.2c0.4-0.7-0.2-2.2,0.2-3
	c1.1-2,3.1-0.7,3-4c0-0.7,0-1.5-0.2-2.2c-0.2-0.6-1.9-1.1-1.7-2c0.4-1.1,2.2-0.7,2.8-1.7c0.4-0.6-0.2-1.7,0-2.2c0.6-2,2-3.8,2.6-5.6
	c0.6-1.5,0.6-4,1.3-5.4c0.9-1.5,2.8-2.6,3.8-4.5c0.2,1.7,1.7,2.4,2.2,4c0.4,0.7-0.4,1.3-0.2,2c0.2,0.7,0.9,0.7,0.9,2
	c0,1.1-0.7,1.9-0.6,3c0.2,0.7,0.9,0.9,1.1,1.7c0.2,0.9,0,1.9,0.2,2.8c0.2,1.5,0.7,3.8,1.5,5.1c1.3,2,2.6,3.1,3.5,5.4
	c0.6,1.3,0.4,3,0.6,4.3c0.7,3.1,0.2,7.1,2.2,10.2c-2,1.7-0.2,4.3,1.3,5.4"/>
<path class="st1" d="M308.5,236c-0.2-0.2-0.6-0.4-0.7-0.6c0.2-0.4,0.2-0.7,0.4-1.1c0.6,0,1.1-0.2,1.7-0.2c-0.7-0.6-2-0.6-1.7-1.7
	c0.2-0.7,1.1-0.4,1.1-1.3c-0.4-0.4-0.4-0.7-0.2-1.1c-0.2,0-0.2,0-0.4,0c-0.2-0.4-0.4-0.6-0.2-0.9c0.2-0.6,1.1-0.6,1.3-1.1
	c0.4-0.7-0.4-0.4-0.4-0.9c-0.4-1.1,0.7-1.1,1.1-1.7c0.4-0.6,0-1.5,0.2-2.2c0.2-0.9,0.4-1.7,1.5-1.9c-0.9-1.1-0.9-1.1-0.2-2.4
	c0-0.2,0-0.4,0.2-0.6c0.2-0.4,0.6-0.4,0.6-0.7c-0.2,0-0.2,0-0.4-0.2c0.2-0.2,0.6-0.4,0.7-0.7c-0.2,0-0.2,0-0.4,0
	c0.6-0.2,0.6-0.9,0.4-1.7c-0.2-1.1-0.2-0.9,1.1-1.7c-0.7-0.7,0.9-2.6-0.4-2.8c0.7-0.2,1.7-0.9,1.9-1.7l0.7-0.2
	c0.2,0.7,0.7,0.9,1.1,1.5c-1.1,0-0.4,0.7,0.2,1.3c-0.7,0.6,0,0.9,0.2,1.5c0,0.2,0,0.6,0,0.6c0.2,0.4,0.6,0.4,0.7,0.7
	c0.2,0.2,0,0.4,0.2,0.6c0.2,0.2,0.6,0.2,0.7,0.6c0,0.2-0.4,0.2-0.4,0.4c0.2,0.4,0.6,0.6,0.7,0.9c-0.2,0-0.2,0.2-0.2,0.2
	c0.2,0.6,0.6,0.9,0.6,1.5c0,0.2-0.2,0.6-0.2,0.9c0.4,0.6,0.7,1.1,0.7,1.7c0.2,0.4,0,0.9,0.4,1.3c-0.9,0.6,0.7,0.9,0.2,1.7
	c0.7,0.9,0.6,2.2,1.7,3c-0.2,0.4,0,0.7-0.2,0.9c0.4,0.4,0.6,0.4,0.7,0.7c0.2,0.2-0.4,0.4-0.2,0.4c0,0.4,0.6,0.6,0.6,0.9
	c0,0.2-0.2,0.6-0.2,0.6c0.2,0.6,1.1,1.7,0.7,2.4c0.9,0.9,0.4,1.9,1.3,3"/>
<g>
	<g>
		<path class="st3" d="M219.8,260.1c-0.7,3.1-1.1,5.4-1.1,7.3c0.4,0.4,0.7,0.9,0.7,1.5c0,0.4-0.2,0.7-0.6,0.7
			c-0.6,0-0.9-0.4-1.5-1.3c-0.4-0.7-0.6-1.5-0.6-2.6c0-0.9,0.4-3.5,1.3-8c0-0.4-0.2-0.7-0.2-0.7c0-0.4,0.2-0.6,0.6-0.7
			c1.3,0,1.9,0.7,1.9,1.7C220.4,258.6,220.2,259.4,219.8,260.1z M221.1,247.7c-1.3-0.2-1.9-0.9-1.9-2c0-0.2,0-0.4,0-0.6
			c0-0.7,0.6-1.3,1.5-1.5c1.1,0.2,1.7,0.9,1.7,2.2C222.2,246.8,221.9,247.4,221.1,247.7z"/>
		<path class="st3" d="M235.1,264.6c-0.2,1.1-0.2,2.6-0.6,4.5c0,0.4-0.2,0.6-0.6,0.6s-0.7-0.2-0.9-0.4c-0.2-0.4-0.4-0.7-0.4-0.9
			c0-0.4,0.2-1.1,0.2-2l0.6-5.6c-3.1,2.2-5.4,4.5-6.5,6.9c-0.2,0.4-0.4,0.9-0.6,1.3c-0.2,0.4-0.4,0.7-0.6,0.7
			c-0.7,0-1.1-0.4-1.3-1.1c-0.4-1.1-0.6-2.6-0.6-4.7c0-2,0.4-4.7,1.1-8c0-0.4,0.2-0.6,0.6-0.6c0.4,0,0.7,0.2,1.1,0.6
			c0.2,0.4,0.4,0.7,0.4,1.1c0,0.4-0.2,0.7-0.2,1.1c-0.6,2.2-0.7,4.7-0.7,7.5c2.6-3.3,5.4-5.8,8-7.5c0.4,0,0.7,0.2,1.1,0.4
			c0.4,0.4,0.6,0.7,0.6,0.9C235.5,260.5,235.3,262.4,235.1,264.6z"/>
		<path class="st3" d="M257.6,258.5H257c-0.4,0-0.6-0.2-0.7-0.4c-0.4,0-0.9,0-2,0c-1.1,0-1.9,0-2,0c-0.7,3.3-1.1,5.1-1.1,5.2
			c-0.4,2-0.6,3.8-0.6,5.4c0.4,0.2,0.6,0.6,0.6,0.9c0,0.2-0.2,0.6-0.4,0.7c-0.2,0.2-0.6,0.4-0.7,0.4c-0.9,0-1.3-0.7-1.3-2.4
			c0-0.9,0.2-2.6,0.6-4.9l1.1-5.4c-1.1,0-1.7-0.4-1.7-1.1c0-0.7,0.7-1.1,2-1.1c0.4-1.9,1.1-4.9,2.2-8.6c0.2-0.6,0.6-0.9,0.9-0.9
			c0.7,0,1.1,0.4,1.1,1.1c0,0.2,0,0.4-0.2,0.7c-0.2,0.4-0.4,1.3-0.7,2.4c-0.6,2-0.9,3.8-1.3,5.2c0.2,0,0.6,0,1.3,0s1.3,0,1.5,0
			c1.7,0,2.4,0.6,2.4,1.5C258.1,257.5,257.9,258.1,257.6,258.5z"/>
		<path class="st3" d="M269.8,270.1c-1.1,0-1.7-1.1-1.9-3.5l-0.2-5.8c-3.1,2-5.2,4.1-6.4,6.2c-0.2,0.6-0.6,0.9-0.7,1.5
			c-0.4,0.7-0.6,1.3-0.7,1.3c-0.4,0-0.7-0.2-1.1-0.6c-0.4-0.4-0.4-0.7-0.4-0.9c0,0,0-0.2,0-0.6c0-0.4,0-0.6,0-0.6s0-0.4,0-0.7
			c0-0.4,0-0.7,0-0.7c0-2.2,0.2-4.9,0.7-8c0-0.2,0.4-2.6,1.3-7.5l0.6-3.8c0.2-0.7,0.2-1.1,0.4-1.3s0.2-0.4,0.6-0.4s0.7,0.2,0.9,0.6
			c0.2,0.4,0.4,0.7,0.4,1.1c0,0.2-0.2,0.9-0.6,2.6c-1.3,6.5-2.2,11.8-2.6,15.7c1.1-1.3,2.4-2.6,4.3-4.1c2-1.5,3.3-2.4,4-2.4
			c0.4,0,0.7,0.2,1.1,0.6c0.2,0.4,0.4,0.7,0.4,1.3c0,0.2,0,0.7-0.2,1.3c0,0.7,0,1.3,0,1.7c0,0.9,0,2.6,0.2,4.5c0,0.6,0.2,1.3,0.2,2
			C270.2,269.9,270,270.1,269.8,270.1z"/>
		<path class="st3" d="M281.8,269.9c-2.6,0-4.5-1.3-5.6-3.8c-0.2,0-0.6,0.2-0.9,0.2c-1.1,0-2-0.2-2.8-0.6c-0.7-0.4-1.3-0.9-1.3-1.5
			c0-0.7,0.4-1.1,0.9-1.1c0.2,0,0.4,0.2,0.9,0.6c0.6,0.4,1.1,0.6,1.7,0.6c0.2,0,0.4,0,0.6,0c-0.2-0.6-0.2-0.9-0.2-1.5
			c0-1.5,0.4-3.1,1.1-4.7c0.9-1.7,2-2.6,3.3-2.6c0.7,0,1.7,0.4,2.6,1.3c0.6,0.7,0.9,1.5,0.9,2.2c0,1.3-0.6,2.6-1.7,3.8
			c-0.9,1.1-2.2,2-3.8,2.6c0.7,1.3,1.7,2,3.1,2c0.4,0,0.7,0,1.5-0.2c0.6,0,0.9-0.2,1.1-0.2c0.2,0,0.6,0.2,0.7,0.4
			c0.2,0.2,0.4,0.6,0.4,0.7C285,269.3,283.9,269.9,281.8,269.9z M281.1,258.1c-0.4-0.4-0.7-0.4-1.1-0.4c-0.7,0-1.3,0.6-1.7,1.5
			c-0.6,0.9-0.7,2-0.7,3.1c0,0.4,0,0.9,0.2,1.3c1.1-0.4,2-1.1,2.8-1.9c0.7-0.7,1.1-1.5,1.1-2.4C281.6,258.8,281.5,258.5,281.1,258.1
			z"/>
	</g>
</g>
</svg>
